ISO-10303-21;
HEADER;
/* Generated by software containing ST-Developer
 * from STEP Tools, Inc. (www.steptools.com) 
 */
/* OPTION: using custom renumber hook */

FILE_DESCRIPTION(
/* description */ ('STEP AP242 Edition 2',
'CAx-IF Rec.Pracs.---Representation and Presentation of Product Manufa
cturing Information (PMI)---4.0---2014-10-13',
'CAx-IF Rec.Pracs.---3D Tessellated Geometry---0.4---2014-09-14','2;1',
'CAx-IF Rec.Pracs.---User Defined Attributes---1.5---2016-08-15'),
/* implementation_level */ '2;1');

FILE_NAME(
/* name */ 'Bookshelf',
/* time_stamp */ '2026-09-04T21:57:58Z',
/* author */ (''),
/* organization */ (''),
/* preprocessor_version */ 'ST-DEVELOPER v20',
/* originating_system */ 'ONSHAPE BY PTC INC, 1.220',
/* authorisation */ '  ');

FILE_SCHEMA (('AP242_MANAGED_MODEL_BASED_3D_ENGINEERING_MIM_LF { 1 0 10303 442 3 1 4 }'));
ENDSEC;

DATA;
#10=SHAPE_REPRESENTATION_RELATIONSHIP('','',#481,#11);
#11=ADVANCED_BREP_SHAPE_REPRESENTATION('',(#479),#769);
#12=CYLINDRICAL_SURFACE('',#502,0.02268);
#13=CYLINDRICAL_SURFACE('',#508,0.020412);
#14=CIRCLE('',#493,0.020412);
#15=CIRCLE('',#494,0.02268);
#16=CIRCLE('',#495,0.02268);
#17=CIRCLE('',#500,0.02268);
#18=CIRCLE('',#501,0.02268);
#19=CIRCLE('',#507,0.020412);
#20=ORIENTED_EDGE('',*,*,#144,.F.);
#21=ORIENTED_EDGE('',*,*,#145,.T.);
#22=ORIENTED_EDGE('',*,*,#146,.T.);
#23=ORIENTED_EDGE('',*,*,#147,.F.);
#24=ORIENTED_EDGE('',*,*,#148,.F.);
#25=ORIENTED_EDGE('',*,*,#149,.T.);
#26=ORIENTED_EDGE('',*,*,#150,.T.);
#27=ORIENTED_EDGE('',*,*,#151,.F.);
#28=ORIENTED_EDGE('',*,*,#152,.F.);
#29=ORIENTED_EDGE('',*,*,#153,.T.);
#30=ORIENTED_EDGE('',*,*,#154,.T.);
#31=ORIENTED_EDGE('',*,*,#155,.T.);
#32=ORIENTED_EDGE('',*,*,#156,.F.);
#33=ORIENTED_EDGE('',*,*,#157,.T.);
#34=ORIENTED_EDGE('',*,*,#144,.T.);
#35=ORIENTED_EDGE('',*,*,#158,.F.);
#36=ORIENTED_EDGE('',*,*,#159,.F.);
#37=ORIENTED_EDGE('',*,*,#160,.T.);
#38=ORIENTED_EDGE('',*,*,#148,.T.);
#39=ORIENTED_EDGE('',*,*,#161,.F.);
#40=ORIENTED_EDGE('',*,*,#162,.F.);
#41=ORIENTED_EDGE('',*,*,#163,.T.);
#42=ORIENTED_EDGE('',*,*,#152,.T.);
#43=ORIENTED_EDGE('',*,*,#164,.T.);
#44=ORIENTED_EDGE('',*,*,#165,.F.);
#45=ORIENTED_EDGE('',*,*,#166,.F.);
#46=ORIENTED_EDGE('',*,*,#167,.F.);
#47=ORIENTED_EDGE('',*,*,#168,.T.);
#48=ORIENTED_EDGE('',*,*,#169,.F.);
#49=ORIENTED_EDGE('',*,*,#170,.T.);
#50=ORIENTED_EDGE('',*,*,#156,.T.);
#51=ORIENTED_EDGE('',*,*,#171,.F.);
#52=ORIENTED_EDGE('',*,*,#172,.F.);
#53=ORIENTED_EDGE('',*,*,#173,.T.);
#54=ORIENTED_EDGE('',*,*,#159,.T.);
#55=ORIENTED_EDGE('',*,*,#174,.F.);
#56=ORIENTED_EDGE('',*,*,#146,.F.);
#57=ORIENTED_EDGE('',*,*,#175,.F.);
#58=ORIENTED_EDGE('',*,*,#169,.T.);
#59=ORIENTED_EDGE('',*,*,#176,.T.);
#60=ORIENTED_EDGE('',*,*,#150,.F.);
#61=ORIENTED_EDGE('',*,*,#177,.F.);
#62=ORIENTED_EDGE('',*,*,#172,.T.);
#63=ORIENTED_EDGE('',*,*,#178,.T.);
#64=ORIENTED_EDGE('',*,*,#154,.F.);
#65=ORIENTED_EDGE('',*,*,#179,.F.);
#66=ORIENTED_EDGE('',*,*,#180,.T.);
#67=ORIENTED_EDGE('',*,*,#181,.F.);
#68=ORIENTED_EDGE('',*,*,#166,.T.);
#69=ORIENTED_EDGE('',*,*,#182,.T.);
#70=ORIENTED_EDGE('',*,*,#183,.F.);
#71=ORIENTED_EDGE('',*,*,#184,.F.);
#72=ORIENTED_EDGE('',*,*,#185,.F.);
#73=ORIENTED_EDGE('',*,*,#186,.T.);
#74=ORIENTED_EDGE('',*,*,#187,.T.);
#75=ORIENTED_EDGE('',*,*,#188,.T.);
#76=ORIENTED_EDGE('',*,*,#189,.T.);
#77=ORIENTED_EDGE('',*,*,#188,.F.);
#78=ORIENTED_EDGE('',*,*,#190,.T.);
#79=ORIENTED_EDGE('',*,*,#191,.T.);
#80=ORIENTED_EDGE('',*,*,#192,.F.);
#81=ORIENTED_EDGE('',*,*,#193,.T.);
#82=ORIENTED_EDGE('',*,*,#194,.F.);
#83=ORIENTED_EDGE('',*,*,#189,.F.);
#84=ORIENTED_EDGE('',*,*,#192,.T.);
#85=ORIENTED_EDGE('',*,*,#195,.F.);
#86=ORIENTED_EDGE('',*,*,#196,.T.);
#87=ORIENTED_EDGE('',*,*,#185,.T.);
#88=ORIENTED_EDGE('',*,*,#194,.T.);
#89=ORIENTED_EDGE('',*,*,#197,.T.);
#90=ORIENTED_EDGE('',*,*,#198,.T.);
#91=ORIENTED_EDGE('',*,*,#195,.T.);
#92=ORIENTED_EDGE('',*,*,#193,.F.);
#93=ORIENTED_EDGE('',*,*,#191,.F.);
#94=ORIENTED_EDGE('',*,*,#187,.F.);
#95=ORIENTED_EDGE('',*,*,#186,.F.);
#96=ORIENTED_EDGE('',*,*,#196,.F.);
#97=ORIENTED_EDGE('',*,*,#198,.F.);
#98=ORIENTED_EDGE('',*,*,#197,.F.);
#99=ORIENTED_EDGE('',*,*,#190,.F.);
#100=ORIENTED_EDGE('',*,*,#199,.F.);
#101=ORIENTED_EDGE('',*,*,#200,.F.);
#102=ORIENTED_EDGE('',*,*,#201,.F.);
#103=ORIENTED_EDGE('',*,*,#183,.T.);
#104=ORIENTED_EDGE('',*,*,#164,.F.);
#105=ORIENTED_EDGE('',*,*,#155,.F.);
#106=ORIENTED_EDGE('',*,*,#181,.T.);
#107=ORIENTED_EDGE('',*,*,#202,.T.);
#108=ORIENTED_EDGE('',*,*,#180,.F.);
#109=ORIENTED_EDGE('',*,*,#203,.T.);
#110=ORIENTED_EDGE('',*,*,#162,.T.);
#111=ORIENTED_EDGE('',*,*,#202,.F.);
#112=ORIENTED_EDGE('',*,*,#204,.F.);
#113=ORIENTED_EDGE('',*,*,#168,.F.);
#114=ORIENTED_EDGE('',*,*,#205,.F.);
#115=ORIENTED_EDGE('',*,*,#200,.T.);
#116=ORIENTED_EDGE('',*,*,#184,.T.);
#117=ORIENTED_EDGE('',*,*,#201,.T.);
#118=ORIENTED_EDGE('',*,*,#205,.T.);
#119=ORIENTED_EDGE('',*,*,#167,.T.);
#120=ORIENTED_EDGE('',*,*,#203,.F.);
#121=ORIENTED_EDGE('',*,*,#179,.T.);
#122=ORIENTED_EDGE('',*,*,#153,.F.);
#123=ORIENTED_EDGE('',*,*,#163,.F.);
#124=ORIENTED_EDGE('',*,*,#178,.F.);
#125=ORIENTED_EDGE('',*,*,#174,.T.);
#126=ORIENTED_EDGE('',*,*,#161,.T.);
#127=ORIENTED_EDGE('',*,*,#151,.T.);
#128=ORIENTED_EDGE('',*,*,#173,.F.);
#129=ORIENTED_EDGE('',*,*,#177,.T.);
#130=ORIENTED_EDGE('',*,*,#149,.F.);
#131=ORIENTED_EDGE('',*,*,#160,.F.);
#132=ORIENTED_EDGE('',*,*,#176,.F.);
#133=ORIENTED_EDGE('',*,*,#171,.T.);
#134=ORIENTED_EDGE('',*,*,#158,.T.);
#135=ORIENTED_EDGE('',*,*,#147,.T.);
#136=ORIENTED_EDGE('',*,*,#170,.F.);
#137=ORIENTED_EDGE('',*,*,#175,.T.);
#138=ORIENTED_EDGE('',*,*,#145,.F.);
#139=ORIENTED_EDGE('',*,*,#157,.F.);
#140=ORIENTED_EDGE('',*,*,#182,.F.);
#141=ORIENTED_EDGE('',*,*,#165,.T.);
#142=ORIENTED_EDGE('',*,*,#204,.T.);
#143=ORIENTED_EDGE('',*,*,#199,.T.);
#144=EDGE_CURVE('',#206,#207,#248,.T.);
#145=EDGE_CURVE('',#206,#208,#249,.T.);
#146=EDGE_CURVE('',#208,#209,#250,.T.);
#147=EDGE_CURVE('',#207,#209,#251,.T.);
#148=EDGE_CURVE('',#210,#211,#252,.T.);
#149=EDGE_CURVE('',#210,#212,#253,.T.);
#150=EDGE_CURVE('',#212,#213,#254,.T.);
#151=EDGE_CURVE('',#211,#213,#255,.T.);
#152=EDGE_CURVE('',#214,#215,#256,.T.);
#153=EDGE_CURVE('',#214,#216,#257,.T.);
#154=EDGE_CURVE('',#216,#217,#258,.T.);
#155=EDGE_CURVE('',#217,#215,#259,.T.);
#156=EDGE_CURVE('',#218,#219,#260,.T.);
#157=EDGE_CURVE('',#218,#206,#261,.T.);
#158=EDGE_CURVE('',#219,#207,#262,.T.);
#159=EDGE_CURVE('',#220,#221,#263,.T.);
#160=EDGE_CURVE('',#220,#210,#264,.T.);
#161=EDGE_CURVE('',#221,#211,#265,.T.);
#162=EDGE_CURVE('',#222,#223,#266,.T.);
#163=EDGE_CURVE('',#222,#214,#267,.T.);
#164=EDGE_CURVE('',#215,#223,#268,.T.);
#165=EDGE_CURVE('',#224,#225,#269,.T.);
#166=EDGE_CURVE('',#226,#224,#270,.T.);
#167=EDGE_CURVE('',#227,#226,#271,.F.);
#168=EDGE_CURVE('',#227,#225,#272,.T.);
#169=EDGE_CURVE('',#228,#229,#273,.T.);
#170=EDGE_CURVE('',#228,#218,#274,.T.);
#171=EDGE_CURVE('',#229,#219,#275,.T.);
#172=EDGE_CURVE('',#230,#231,#276,.T.);
#173=EDGE_CURVE('',#230,#220,#277,.T.);
#174=EDGE_CURVE('',#231,#221,#278,.T.);
#175=EDGE_CURVE('',#228,#208,#279,.T.);
#176=EDGE_CURVE('',#229,#209,#280,.T.);
#177=EDGE_CURVE('',#230,#212,#281,.T.);
#178=EDGE_CURVE('',#231,#213,#282,.T.);
#179=EDGE_CURVE('',#232,#216,#283,.T.);
#180=EDGE_CURVE('',#232,#233,#284,.T.);
#181=EDGE_CURVE('',#217,#233,#285,.T.);
#182=EDGE_CURVE('',#224,#234,#286,.T.);
#183=EDGE_CURVE('',#235,#234,#287,.T.);
#184=EDGE_CURVE('',#226,#235,#14,.T.);
#185=EDGE_CURVE('',#236,#237,#288,.T.);
#186=EDGE_CURVE('',#236,#238,#15,.T.);
#187=EDGE_CURVE('',#238,#239,#16,.T.);
#188=EDGE_CURVE('',#239,#240,#289,.T.);
#189=EDGE_CURVE('',#240,#237,#290,.T.);
#190=EDGE_CURVE('',#239,#241,#291,.T.);
#191=EDGE_CURVE('',#241,#242,#292,.T.);
#192=EDGE_CURVE('',#240,#242,#293,.T.);
#193=EDGE_CURVE('',#242,#243,#294,.T.);
#194=EDGE_CURVE('',#237,#243,#295,.T.);
#195=EDGE_CURVE('',#244,#243,#296,.T.);
#196=EDGE_CURVE('',#244,#236,#297,.F.);
#197=EDGE_CURVE('',#241,#245,#17,.T.);
#198=EDGE_CURVE('',#245,#244,#18,.T.);
#199=EDGE_CURVE('',#246,#234,#298,.T.);
#200=EDGE_CURVE('',#247,#246,#299,.T.);
#201=EDGE_CURVE('',#235,#247,#300,.T.);
#202=EDGE_CURVE('',#233,#223,#301,.T.);
#203=EDGE_CURVE('',#232,#222,#302,.T.);
#204=EDGE_CURVE('',#225,#246,#303,.T.);
#205=EDGE_CURVE('',#247,#227,#19,.T.);
#206=VERTEX_POINT('',#640);
#207=VERTEX_POINT('',#641);
#208=VERTEX_POINT('',#643);
#209=VERTEX_POINT('',#645);
#210=VERTEX_POINT('',#649);
#211=VERTEX_POINT('',#650);
#212=VERTEX_POINT('',#652);
#213=VERTEX_POINT('',#654);
#214=VERTEX_POINT('',#658);
#215=VERTEX_POINT('',#659);
#216=VERTEX_POINT('',#661);
#217=VERTEX_POINT('',#663);
#218=VERTEX_POINT('',#667);
#219=VERTEX_POINT('',#668);
#220=VERTEX_POINT('',#673);
#221=VERTEX_POINT('',#674);
#222=VERTEX_POINT('',#679);
#223=VERTEX_POINT('',#680);
#224=VERTEX_POINT('',#685);
#225=VERTEX_POINT('',#686);
#226=VERTEX_POINT('',#688);
#227=VERTEX_POINT('',#690);
#228=VERTEX_POINT('',#694);
#229=VERTEX_POINT('',#695);
#230=VERTEX_POINT('',#700);
#231=VERTEX_POINT('',#701);
#232=VERTEX_POINT('',#710);
#233=VERTEX_POINT('',#712);
#234=VERTEX_POINT('',#715);
#235=VERTEX_POINT('',#717);
#236=VERTEX_POINT('',#720);
#237=VERTEX_POINT('',#721);
#238=VERTEX_POINT('',#723);
#239=VERTEX_POINT('',#725);
#240=VERTEX_POINT('',#727);
#241=VERTEX_POINT('',#731);
#242=VERTEX_POINT('',#733);
#243=VERTEX_POINT('',#737);
#244=VERTEX_POINT('',#741);
#245=VERTEX_POINT('',#745);
#246=VERTEX_POINT('',#750);
#247=VERTEX_POINT('',#752);
#248=LINE('',#639,#304);
#249=LINE('',#642,#305);
#250=LINE('',#644,#306);
#251=LINE('',#646,#307);
#252=LINE('',#648,#308);
#253=LINE('',#651,#309);
#254=LINE('',#653,#310);
#255=LINE('',#655,#311);
#256=LINE('',#657,#312);
#257=LINE('',#660,#313);
#258=LINE('',#662,#314);
#259=LINE('',#664,#315);
#260=LINE('',#666,#316);
#261=LINE('',#669,#317);
#262=LINE('',#670,#318);
#263=LINE('',#672,#319);
#264=LINE('',#675,#320);
#265=LINE('',#676,#321);
#266=LINE('',#678,#322);
#267=LINE('',#681,#323);
#268=LINE('',#682,#324);
#269=LINE('',#684,#325);
#270=LINE('',#687,#326);
#271=LINE('',#689,#327);
#272=LINE('',#691,#328);
#273=LINE('',#693,#329);
#274=LINE('',#696,#330);
#275=LINE('',#697,#331);
#276=LINE('',#699,#332);
#277=LINE('',#702,#333);
#278=LINE('',#703,#334);
#279=LINE('',#705,#335);
#280=LINE('',#706,#336);
#281=LINE('',#707,#337);
#282=LINE('',#708,#338);
#283=LINE('',#709,#339);
#284=LINE('',#711,#340);
#285=LINE('',#713,#341);
#286=LINE('',#714,#342);
#287=LINE('',#716,#343);
#288=LINE('',#719,#344);
#289=LINE('',#726,#345);
#290=LINE('',#728,#346);
#291=LINE('',#730,#347);
#292=LINE('',#732,#348);
#293=LINE('',#734,#349);
#294=LINE('',#736,#350);
#295=LINE('',#738,#351);
#296=LINE('',#740,#352);
#297=LINE('',#742,#353);
#298=LINE('',#749,#354);
#299=LINE('',#751,#355);
#300=LINE('',#753,#356);
#301=LINE('',#755,#357);
#302=LINE('',#757,#358);
#303=LINE('',#759,#359);
#304=VECTOR('',#519,1.);
#305=VECTOR('',#520,1.);
#306=VECTOR('',#521,1.);
#307=VECTOR('',#522,1.);
#308=VECTOR('',#525,1.);
#309=VECTOR('',#526,1.);
#310=VECTOR('',#527,1.);
#311=VECTOR('',#528,1.);
#312=VECTOR('',#531,1.);
#313=VECTOR('',#532,1.);
#314=VECTOR('',#533,1.);
#315=VECTOR('',#534,1.);
#316=VECTOR('',#537,1.);
#317=VECTOR('',#538,1.);
#318=VECTOR('',#539,1.);
#319=VECTOR('',#542,1.);
#320=VECTOR('',#543,1.);
#321=VECTOR('',#544,1.);
#322=VECTOR('',#547,1.);
#323=VECTOR('',#548,1.);
#324=VECTOR('',#549,1.);
#325=VECTOR('',#552,1.);
#326=VECTOR('',#553,1.);
#327=VECTOR('',#554,1.);
#328=VECTOR('',#555,1.);
#329=VECTOR('',#558,1.);
#330=VECTOR('',#559,1.);
#331=VECTOR('',#560,1.);
#332=VECTOR('',#563,1.);
#333=VECTOR('',#564,1.);
#334=VECTOR('',#565,1.);
#335=VECTOR('',#568,1.);
#336=VECTOR('',#569,1.);
#337=VECTOR('',#570,1.);
#338=VECTOR('',#571,1.);
#339=VECTOR('',#572,1.);
#340=VECTOR('',#573,1.);
#341=VECTOR('',#574,1.);
#342=VECTOR('',#575,1.);
#343=VECTOR('',#576,1.);
#344=VECTOR('',#579,1.);
#345=VECTOR('',#584,1.);
#346=VECTOR('',#585,1.);
#347=VECTOR('',#588,1.);
#348=VECTOR('',#589,1.);
#349=VECTOR('',#590,1.);
#350=VECTOR('',#593,1.);
#351=VECTOR('',#594,1.);
#352=VECTOR('',#597,1.);
#353=VECTOR('',#598,1.);
#354=VECTOR('',#609,1.);
#355=VECTOR('',#610,1.);
#356=VECTOR('',#611,1.);
#357=VECTOR('',#614,1.);
#358=VECTOR('',#617,1.);
#359=VECTOR('',#620,1.);
#360=EDGE_LOOP('',(#20,#21,#22,#23));
#361=EDGE_LOOP('',(#24,#25,#26,#27));
#362=EDGE_LOOP('',(#28,#29,#30,#31));
#363=EDGE_LOOP('',(#32,#33,#34,#35));
#364=EDGE_LOOP('',(#36,#37,#38,#39));
#365=EDGE_LOOP('',(#40,#41,#42,#43));
#366=EDGE_LOOP('',(#44,#45,#46,#47));
#367=EDGE_LOOP('',(#48,#49,#50,#51));
#368=EDGE_LOOP('',(#52,#53,#54,#55));
#369=EDGE_LOOP('',(#56,#57,#58,#59));
#370=EDGE_LOOP('',(#60,#61,#62,#63));
#371=EDGE_LOOP('',(#64,#65,#66,#67));
#372=EDGE_LOOP('',(#68,#69,#70,#71));
#373=EDGE_LOOP('',(#72,#73,#74,#75,#76));
#374=EDGE_LOOP('',(#77,#78,#79,#80));
#375=EDGE_LOOP('',(#81,#82,#83,#84));
#376=EDGE_LOOP('',(#85,#86,#87,#88));
#377=EDGE_LOOP('',(#89,#90,#91,#92,#93));
#378=EDGE_LOOP('',(#94,#95,#96,#97,#98,#99));
#379=EDGE_LOOP('',(#100,#101,#102,#103));
#380=EDGE_LOOP('',(#104,#105,#106,#107));
#381=EDGE_LOOP('',(#108,#109,#110,#111));
#382=EDGE_LOOP('',(#112,#113,#114,#115));
#383=EDGE_LOOP('',(#116,#117,#118,#119));
#384=EDGE_LOOP('',(#120,#121,#122,#123));
#385=EDGE_LOOP('',(#124,#125,#126,#127));
#386=EDGE_LOOP('',(#128,#129,#130,#131));
#387=EDGE_LOOP('',(#132,#133,#134,#135));
#388=EDGE_LOOP('',(#136,#137,#138,#139));
#389=EDGE_LOOP('',(#140,#141,#142,#143));
#390=FACE_BOUND('',#360,.T.);
#391=FACE_BOUND('',#361,.T.);
#392=FACE_BOUND('',#362,.T.);
#393=FACE_BOUND('',#363,.T.);
#394=FACE_BOUND('',#364,.T.);
#395=FACE_BOUND('',#365,.T.);
#396=FACE_BOUND('',#366,.T.);
#397=FACE_BOUND('',#367,.T.);
#398=FACE_BOUND('',#368,.T.);
#399=FACE_BOUND('',#369,.T.);
#400=FACE_BOUND('',#370,.T.);
#401=FACE_BOUND('',#371,.T.);
#402=FACE_BOUND('',#372,.T.);
#403=FACE_BOUND('',#373,.T.);
#404=FACE_BOUND('',#374,.T.);
#405=FACE_BOUND('',#375,.T.);
#406=FACE_BOUND('',#376,.T.);
#407=FACE_BOUND('',#377,.T.);
#408=FACE_BOUND('',#378,.T.);
#409=FACE_BOUND('',#379,.T.);
#410=FACE_BOUND('',#380,.T.);
#411=FACE_BOUND('',#381,.T.);
#412=FACE_BOUND('',#382,.T.);
#413=FACE_BOUND('',#383,.T.);
#414=FACE_BOUND('',#384,.T.);
#415=FACE_BOUND('',#385,.T.);
#416=FACE_BOUND('',#386,.T.);
#417=FACE_BOUND('',#387,.T.);
#418=FACE_BOUND('',#388,.T.);
#419=FACE_BOUND('',#389,.T.);
#420=PLANE('',#483);
#421=PLANE('',#484);
#422=PLANE('',#485);
#423=PLANE('',#486);
#424=PLANE('',#487);
#425=PLANE('',#488);
#426=PLANE('',#489);
#427=PLANE('',#490);
#428=PLANE('',#491);
#429=PLANE('',#492);
#430=PLANE('',#496);
#431=PLANE('',#497);
#432=PLANE('',#498);
#433=PLANE('',#499);
#434=PLANE('',#503);
#435=PLANE('',#504);
#436=PLANE('',#505);
#437=PLANE('',#506);
#438=PLANE('',#509);
#439=PLANE('',#510);
#440=PLANE('',#511);
#441=PLANE('',#512);
#442=PLANE('',#513);
#443=PLANE('',#514);
#444=ADVANCED_FACE('',(#390),#420,.T.);
#445=ADVANCED_FACE('',(#391),#421,.T.);
#446=ADVANCED_FACE('',(#392),#422,.T.);
#447=ADVANCED_FACE('',(#393),#423,.T.);
#448=ADVANCED_FACE('',(#394),#424,.T.);
#449=ADVANCED_FACE('',(#395),#425,.T.);
#450=ADVANCED_FACE('',(#396),#426,.F.);
#451=ADVANCED_FACE('',(#397),#427,.F.);
#452=ADVANCED_FACE('',(#398),#428,.F.);
#453=ADVANCED_FACE('',(#399,#400,#401,#402,#403),#429,.T.);
#454=ADVANCED_FACE('',(#404),#430,.F.);
#455=ADVANCED_FACE('',(#405),#431,.F.);
#456=ADVANCED_FACE('',(#406),#432,.T.);
#457=ADVANCED_FACE('',(#407),#433,.F.);
#458=ADVANCED_FACE('',(#408),#12,.T.);
#459=ADVANCED_FACE('',(#409),#434,.T.);
#460=ADVANCED_FACE('',(#410),#435,.T.);
#461=ADVANCED_FACE('',(#411),#436,.F.);
#462=ADVANCED_FACE('',(#412),#437,.T.);
#463=ADVANCED_FACE('',(#413),#13,.F.);
#464=ADVANCED_FACE('',(#414),#438,.T.);
#465=ADVANCED_FACE('',(#415),#439,.F.);
#466=ADVANCED_FACE('',(#416),#440,.T.);
#467=ADVANCED_FACE('',(#417),#441,.F.);
#468=ADVANCED_FACE('',(#418),#442,.T.);
#469=ADVANCED_FACE('',(#419),#443,.F.);
#470=CLOSED_SHELL('',(#444,#445,#446,#447,#448,#449,#450,#451,#452,#453,
#454,#455,#456,#457,#458,#459,#460,#461,#462,#463,#464,#465,#466,#467,#468,
#469));
#471=STYLED_ITEM('',(#472),#479);
#472=PRESENTATION_STYLE_ASSIGNMENT((#473));
#473=SURFACE_STYLE_USAGE(.BOTH.,#474);
#474=SURFACE_SIDE_STYLE('',(#475));
#475=SURFACE_STYLE_FILL_AREA(#476);
#476=FILL_AREA_STYLE('',(#477));
#477=FILL_AREA_STYLE_COLOUR('',#478);
#478=COLOUR_RGB('',0.752941176470588,0.658823529411765,0.529411764705882);
#479=MANIFOLD_SOLID_BREP('Part 1',#470);
#480=SHAPE_DEFINITION_REPRESENTATION(#774,#481);
#481=SHAPE_REPRESENTATION('Part 1',(#482),#769);
#482=AXIS2_PLACEMENT_3D('',#637,#515,#516);
#483=AXIS2_PLACEMENT_3D('',#638,#517,#518);
#484=AXIS2_PLACEMENT_3D('',#647,#523,#524);
#485=AXIS2_PLACEMENT_3D('',#656,#529,#530);
#486=AXIS2_PLACEMENT_3D('',#665,#535,#536);
#487=AXIS2_PLACEMENT_3D('',#671,#540,#541);
#488=AXIS2_PLACEMENT_3D('',#677,#545,#546);
#489=AXIS2_PLACEMENT_3D('',#683,#550,#551);
#490=AXIS2_PLACEMENT_3D('',#692,#556,#557);
#491=AXIS2_PLACEMENT_3D('',#698,#561,#562);
#492=AXIS2_PLACEMENT_3D('',#704,#566,#567);
#493=AXIS2_PLACEMENT_3D('',#718,#577,#578);
#494=AXIS2_PLACEMENT_3D('',#722,#580,#581);
#495=AXIS2_PLACEMENT_3D('',#724,#582,#583);
#496=AXIS2_PLACEMENT_3D('',#729,#586,#587);
#497=AXIS2_PLACEMENT_3D('',#735,#591,#592);
#498=AXIS2_PLACEMENT_3D('',#739,#595,#596);
#499=AXIS2_PLACEMENT_3D('',#743,#599,#600);
#500=AXIS2_PLACEMENT_3D('',#744,#601,#602);
#501=AXIS2_PLACEMENT_3D('',#746,#603,#604);
#502=AXIS2_PLACEMENT_3D('',#747,#605,#606);
#503=AXIS2_PLACEMENT_3D('',#748,#607,#608);
#504=AXIS2_PLACEMENT_3D('',#754,#612,#613);
#505=AXIS2_PLACEMENT_3D('',#756,#615,#616);
#506=AXIS2_PLACEMENT_3D('',#758,#618,#619);
#507=AXIS2_PLACEMENT_3D('',#760,#621,#622);
#508=AXIS2_PLACEMENT_3D('',#761,#623,#624);
#509=AXIS2_PLACEMENT_3D('',#762,#625,#626);
#510=AXIS2_PLACEMENT_3D('',#763,#627,#628);
#511=AXIS2_PLACEMENT_3D('',#764,#629,#630);
#512=AXIS2_PLACEMENT_3D('',#765,#631,#632);
#513=AXIS2_PLACEMENT_3D('',#766,#633,#634);
#514=AXIS2_PLACEMENT_3D('',#767,#635,#636);
#515=DIRECTION('',(0.,0.,1.));
#516=DIRECTION('',(1.,0.,0.));
#517=DIRECTION('',(1.,0.,0.));
#518=DIRECTION('',(0.,0.,-1.));
#519=DIRECTION('',(0.,0.,-1.));
#520=DIRECTION('',(0.,-1.,0.));
#521=DIRECTION('',(0.,0.,-1.));
#522=DIRECTION('',(0.,-1.,-2.98447049630419E-16));
#523=DIRECTION('',(1.,0.,0.));
#524=DIRECTION('',(0.,0.,-1.));
#525=DIRECTION('',(0.,0.,-1.));
#526=DIRECTION('',(0.,-1.,0.));
#527=DIRECTION('',(0.,0.,-1.));
#528=DIRECTION('',(0.,-1.,-1.49223524815209E-16));
#529=DIRECTION('',(1.,0.,0.));
#530=DIRECTION('',(0.,0.,-1.));
#531=DIRECTION('',(0.,0.,-1.));
#532=DIRECTION('',(0.,-1.,0.));
#533=DIRECTION('',(0.,0.,-1.));
#534=DIRECTION('',(0.,1.,0.));
#535=DIRECTION('',(0.,-1.,0.));
#536=DIRECTION('',(1.,0.,0.));
#537=DIRECTION('',(5.96311194867028E-17,0.,-1.));
#538=DIRECTION('',(-1.,0.,0.));
#539=DIRECTION('',(-1.,0.,0.));
#540=DIRECTION('',(0.,-1.,0.));
#541=DIRECTION('',(1.,0.,0.));
#542=DIRECTION('',(5.96311194867028E-17,0.,-1.));
#543=DIRECTION('',(-1.,0.,0.));
#544=DIRECTION('',(-1.,0.,0.));
#545=DIRECTION('',(0.,-1.,0.));
#546=DIRECTION('',(1.,0.,0.));
#547=DIRECTION('',(5.96311194867028E-17,0.,-1.));
#548=DIRECTION('',(-1.,0.,0.));
#549=DIRECTION('',(1.,0.,0.));
#550=DIRECTION('',(1.,0.,5.96311194867028E-17));
#551=DIRECTION('',(5.96311194867028E-17,0.,-1.));
#552=DIRECTION('',(0.,1.,0.));
#553=DIRECTION('',(5.96311194867028E-17,0.,-1.));
#554=DIRECTION('',(0.,1.,0.));
#555=DIRECTION('',(5.96311194867028E-17,0.,-1.));
#556=DIRECTION('',(1.,0.,5.96311194867028E-17));
#557=DIRECTION('',(5.96311194867028E-17,0.,-1.));
#558=DIRECTION('',(5.96311194867028E-17,0.,-1.));
#559=DIRECTION('',(0.,1.,0.));
#560=DIRECTION('',(-1.77967316769654E-32,1.,2.98447049630419E-16));
#561=DIRECTION('',(1.,0.,5.96311194867028E-17));
#562=DIRECTION('',(5.96311194867028E-17,0.,-1.));
#563=DIRECTION('',(5.96311194867028E-17,0.,-1.));
#564=DIRECTION('',(0.,1.,0.));
#565=DIRECTION('',(-8.89836583848269E-33,1.,1.49223524815209E-16));
#566=DIRECTION('',(0.,-1.,0.));
#567=DIRECTION('',(1.,0.,0.));
#568=DIRECTION('',(-1.,0.,0.));
#569=DIRECTION('',(-1.,0.,0.));
#570=DIRECTION('',(-1.,0.,0.));
#571=DIRECTION('',(-1.,0.,0.));
#572=DIRECTION('',(-1.,0.,0.));
#573=DIRECTION('',(5.96311194867028E-17,0.,-1.));
#574=DIRECTION('',(1.,0.,0.));
#575=DIRECTION('',(-1.,0.,0.));
#576=DIRECTION('',(0.,0.,-1.));
#577=DIRECTION('',(0.,-1.,4.8186763221578E-17));
#578=DIRECTION('',(1.,0.,0.));
#579=DIRECTION('',(5.96311194867028E-17,0.,-1.));
#580=DIRECTION('',(1.48067910466175E-16,-1.,1.48067910466175E-16));
#581=DIRECTION('',(1.,1.7347234759768E-16,0.));
#582=DIRECTION('',(-1.48067910466175E-16,-1.,1.48067910466175E-16));
#583=DIRECTION('',(0.,1.7347234759768E-16,1.));
#584=DIRECTION('',(0.,0.,-1.));
#585=DIRECTION('',(1.,0.,0.));
#586=DIRECTION('',(1.,0.,0.));
#587=DIRECTION('',(0.,0.,-1.));
#588=DIRECTION('',(0.,1.,0.));
#589=DIRECTION('',(0.,0.,-1.));
#590=DIRECTION('',(0.,1.,0.));
#591=DIRECTION('',(0.,0.,1.));
#592=DIRECTION('',(1.,0.,0.));
#593=DIRECTION('',(1.,0.,0.));
#594=DIRECTION('',(0.,1.,0.));
#595=DIRECTION('',(1.,0.,5.96311194867028E-17));
#596=DIRECTION('',(5.96311194867028E-17,0.,-1.));
#597=DIRECTION('',(5.96311194867028E-17,0.,-1.));
#598=DIRECTION('',(0.,1.,0.));
#599=DIRECTION('',(0.,-1.,0.));
#600=DIRECTION('',(1.,0.,0.));
#601=DIRECTION('',(0.,1.,0.));
#602=DIRECTION('',(0.,0.,1.));
#603=DIRECTION('',(0.,1.,0.));
#604=DIRECTION('',(1.,0.,0.));
#605=DIRECTION('',(4.33680868994202E-17,-1.,0.));
#606=DIRECTION('',(1.,4.33680868994202E-17,0.));
#607=DIRECTION('',(1.,0.,0.));
#608=DIRECTION('',(0.,0.,-1.));
#609=DIRECTION('',(0.,-1.,0.));
#610=DIRECTION('',(0.,0.,-1.));
#611=DIRECTION('',(0.,1.,0.));
#612=DIRECTION('',(0.,0.,1.));
#613=DIRECTION('',(1.,0.,0.));
#614=DIRECTION('',(0.,1.,0.));
#615=DIRECTION('',(1.,0.,5.96311194867028E-17));
#616=DIRECTION('',(5.96311194867028E-17,0.,-1.));
#617=DIRECTION('',(0.,1.,0.));
#618=DIRECTION('',(0.,-1.,0.));
#619=DIRECTION('',(1.,0.,0.));
#620=DIRECTION('',(-1.,0.,0.));
#621=DIRECTION('',(0.,1.,-6.02334540269725E-18));
#622=DIRECTION('',(1.,0.,0.));
#623=DIRECTION('',(4.8186763221578E-17,-1.,-2.32196414977242E-33));
#624=DIRECTION('',(1.,4.8186763221578E-17,0.));
#625=DIRECTION('',(0.,0.,-1.));
#626=DIRECTION('',(-1.,0.,0.));
#627=DIRECTION('',(0.,1.49223524815209E-16,-1.));
#628=DIRECTION('',(0.,1.,1.49223524815209E-16));
#629=DIRECTION('',(0.,0.,-1.));
#630=DIRECTION('',(-1.,0.,0.));
#631=DIRECTION('',(0.,2.98447049630419E-16,-1.));
#632=DIRECTION('',(0.,1.,2.98447049630419E-16));
#633=DIRECTION('',(0.,0.,-1.));
#634=DIRECTION('',(-1.,0.,0.));
#635=DIRECTION('',(0.,0.,-1.));
#636=DIRECTION('',(-1.,0.,0.));
#637=CARTESIAN_POINT('',(0.,0.,0.));
#638=CARTESIAN_POINT('',(-0.0294150766749481,-0.013125,0.0130460262978156));
#639=CARTESIAN_POINT('',(-0.0294150766749481,5.775E-5,0.0130460262978156));
#640=CARTESIAN_POINT('',(-0.0294150766749481,5.775E-5,0.0317570262978156));
#641=CARTESIAN_POINT('',(-0.0294150766749481,5.775E-5,0.0130460262978156));
#642=CARTESIAN_POINT('',(-0.0294150766749481,-0.006533625,0.0317570262978156));
#643=CARTESIAN_POINT('',(-0.0294150766749481,-0.013125,0.0317570262978156));
#644=CARTESIAN_POINT('',(-0.0294150766749481,-0.013125,0.0130460262978156));
#645=CARTESIAN_POINT('',(-0.0294150766749481,-0.013125,0.0130460262978156));
#646=CARTESIAN_POINT('',(-0.0294150766749481,-0.006533625,0.0130460262978156));
#647=CARTESIAN_POINT('',(-0.0294150766749481,-0.013125,0.0130460262978156));
#648=CARTESIAN_POINT('',(-0.0294150766749481,5.775E-5,0.0130460262978156));
#649=CARTESIAN_POINT('',(-0.0294150766749481,5.775E-5,0.0102110262978156));
#650=CARTESIAN_POINT('',(-0.0294150766749481,5.775E-5,-0.00849997370218441));
#651=CARTESIAN_POINT('',(-0.0294150766749481,-0.006533625,0.0102110262978156));
#652=CARTESIAN_POINT('',(-0.0294150766749481,-0.013125,0.0102110262978156));
#653=CARTESIAN_POINT('',(-0.0294150766749481,-0.013125,0.0130460262978156));
#654=CARTESIAN_POINT('',(-0.0294150766749481,-0.013125,-0.00849997370218441));
#655=CARTESIAN_POINT('',(-0.0294150766749481,-0.006533625,-0.00849997370218441));
#656=CARTESIAN_POINT('',(-0.0294150766749481,-0.013125,0.0130460262978156));
#657=CARTESIAN_POINT('',(-0.0294150766749481,5.775E-5,0.0130460262978156));
#658=CARTESIAN_POINT('',(-0.0294150766749481,5.775E-5,-0.0113349737021844));
#659=CARTESIAN_POINT('',(-0.0294150766749481,5.775E-5,-0.0300459737021844));
#660=CARTESIAN_POINT('',(-0.0294150766749481,-0.006533625,-0.0113349737021844));
#661=CARTESIAN_POINT('',(-0.0294150766749481,-0.013125,-0.0113349737021844));
#662=CARTESIAN_POINT('',(-0.0294150766749481,-0.013125,0.0130460262978156));
#663=CARTESIAN_POINT('',(-0.0294150766749481,-0.013125,-0.0300459737021844));
#664=CARTESIAN_POINT('',(-0.0294150766749481,-0.013125,-0.0300459737021844));
#665=CARTESIAN_POINT('',(-0.00900307667494809,5.775E-5,0.0130460262978156));
#666=CARTESIAN_POINT('',(0.0114089233250519,5.775E-5,0.0130460262978156));
#667=CARTESIAN_POINT('',(0.0114089233250519,5.775E-5,0.0317570262978156));
#668=CARTESIAN_POINT('',(0.0114089233250519,5.775E-5,0.0130460262978156));
#669=CARTESIAN_POINT('',(0.0124295233250519,5.775E-5,0.0317570262978156));
#670=CARTESIAN_POINT('',(0.0124295233250519,5.775E-5,0.0130460262978156));
#671=CARTESIAN_POINT('',(-0.00900307667494809,5.775E-5,0.0130460262978156));
#672=CARTESIAN_POINT('',(0.0114089233250519,5.775E-5,0.0130460262978156));
#673=CARTESIAN_POINT('',(0.0114089233250519,5.775E-5,0.0102110262978156));
#674=CARTESIAN_POINT('',(0.0114089233250519,5.775E-5,-0.00849997370218441));
#675=CARTESIAN_POINT('',(0.0124295233250519,5.775E-5,0.0102110262978156));
#676=CARTESIAN_POINT('',(0.0124295233250519,5.775E-5,-0.00849997370218441));
#677=CARTESIAN_POINT('',(-0.00900307667494809,5.775E-5,0.0130460262978156));
#678=CARTESIAN_POINT('',(0.0114089233250519,5.775E-5,0.0130460262978156));
#679=CARTESIAN_POINT('',(0.0114089233250519,5.775E-5,-0.0113349737021844));
#680=CARTESIAN_POINT('',(0.0114089233250519,5.775E-5,-0.0300459737021844));
#681=CARTESIAN_POINT('',(0.0124295233250519,5.775E-5,-0.0113349737021844));
#682=CARTESIAN_POINT('',(-0.00900307667494809,5.775E-5,-0.0300459737021844));
#683=CARTESIAN_POINT('',(0.0114089233250519,-0.013125,0.0130460262978156));
#684=CARTESIAN_POINT('',(0.0114089233250519,-0.013125,0.0345920262978156));
#685=CARTESIAN_POINT('',(0.0114089233250519,-0.013125,0.0345920262978156));
#686=CARTESIAN_POINT('',(0.0114089233250519,5.775E-5,0.0345920262978156));
#687=CARTESIAN_POINT('',(0.0114089233250519,-0.013125,0.0130460262978156));
#688=CARTESIAN_POINT('',(0.0114089233250519,-0.013125,0.0357260262978156));
#689=CARTESIAN_POINT('',(0.0114089233250519,-0.013125,0.0357260262978156));
#690=CARTESIAN_POINT('',(0.0114089233250519,5.775E-5,0.0357260262978156));
#691=CARTESIAN_POINT('',(0.0114089233250519,5.775E-5,0.0130460262978156));
#692=CARTESIAN_POINT('',(0.0114089233250519,-0.013125,0.0130460262978156));
#693=CARTESIAN_POINT('',(0.0114089233250519,-0.013125,0.0130460262978156));
#694=CARTESIAN_POINT('',(0.0114089233250519,-0.013125,0.0317570262978156));
#695=CARTESIAN_POINT('',(0.0114089233250519,-0.013125,0.0130460262978156));
#696=CARTESIAN_POINT('',(0.0114089233250519,-0.013125,0.0317570262978156));
#697=CARTESIAN_POINT('',(0.0114089233250519,-0.013125,0.0130460262978156));
#698=CARTESIAN_POINT('',(0.0114089233250519,-0.013125,0.0130460262978156));
#699=CARTESIAN_POINT('',(0.0114089233250519,-0.013125,0.0130460262978156));
#700=CARTESIAN_POINT('',(0.0114089233250519,-0.013125,0.0102110262978156));
#701=CARTESIAN_POINT('',(0.0114089233250519,-0.013125,-0.00849997370218441));
#702=CARTESIAN_POINT('',(0.0114089233250519,-0.013125,0.0102110262978156));
#703=CARTESIAN_POINT('',(0.0114089233250519,-0.013125,-0.00849997370218441));
#704=CARTESIAN_POINT('',(-0.00900307667494809,-0.013125,0.0130460262978156));
#705=CARTESIAN_POINT('',(0.0124295233250519,-0.013125,0.0317570262978156));
#706=CARTESIAN_POINT('',(0.0124295233250519,-0.013125,0.0130460262978156));
#707=CARTESIAN_POINT('',(0.0124295233250519,-0.013125,0.0102110262978156));
#708=CARTESIAN_POINT('',(0.0124295233250519,-0.013125,-0.00849997370218441));
#709=CARTESIAN_POINT('',(0.0124295233250519,-0.013125,-0.0113349737021844));
#710=CARTESIAN_POINT('',(0.0114089233250519,-0.013125,-0.0113349737021844));
#711=CARTESIAN_POINT('',(0.0114089233250519,-0.013125,0.0130460262978156));
#712=CARTESIAN_POINT('',(0.0114089233250519,-0.013125,-0.0300459737021844));
#713=CARTESIAN_POINT('',(-0.00900307667494809,-0.013125,-0.0300459737021844));
#714=CARTESIAN_POINT('',(0.0124295233250519,-0.013125,0.0345920262978156));
#715=CARTESIAN_POINT('',(-0.0294150766749481,-0.013125,0.0345920262978156));
#716=CARTESIAN_POINT('',(-0.0294150766749481,-0.013125,0.0130460262978156));
#717=CARTESIAN_POINT('',(-0.0294150766749481,-0.013125,0.0357260262978156));
#718=CARTESIAN_POINT('',(-0.0090030766749481,-0.013125,0.0357260262978156));
#719=CARTESIAN_POINT('',(0.0136769233250519,-0.013125,0.0130460262978156));
#720=CARTESIAN_POINT('',(0.0136769233250519,-0.013125,0.0357260262978156));
#721=CARTESIAN_POINT('',(0.0136769233250519,-0.013125,-0.0323139737021844));
#722=CARTESIAN_POINT('',(-0.00900307667494809,-0.013125,0.0357260262978156));
#723=CARTESIAN_POINT('',(-0.00900307667494809,-0.013125,0.0584060262978156));
#724=CARTESIAN_POINT('',(-0.00900307667494809,-0.013125,0.0357260262978156));
#725=CARTESIAN_POINT('',(-0.0316830766749481,-0.013125,0.0357260262978156));
#726=CARTESIAN_POINT('',(-0.0316830766749481,-0.013125,0.0130460262978156));
#727=CARTESIAN_POINT('',(-0.0316830766749481,-0.013125,-0.0323139737021844));
#728=CARTESIAN_POINT('',(-0.00900307667494809,-0.013125,-0.0323139737021844));
#729=CARTESIAN_POINT('',(-0.0316830766749481,-0.013125,0.0130460262978156));
#730=CARTESIAN_POINT('',(-0.0316830766749481,0.00175875,0.0357260262978156));
#731=CARTESIAN_POINT('',(-0.0316830766749481,0.00175875,0.0357260262978156));
#732=CARTESIAN_POINT('',(-0.0316830766749481,0.00175875,0.0130460262978156));
#733=CARTESIAN_POINT('',(-0.0316830766749481,0.00175875,-0.0323139737021844));
#734=CARTESIAN_POINT('',(-0.0316830766749481,-0.013125,-0.0323139737021844));
#735=CARTESIAN_POINT('',(-0.00900307667494809,-0.013125,-0.0323139737021844));
#736=CARTESIAN_POINT('',(-0.00900307667494809,0.00175875,-0.0323139737021844));
#737=CARTESIAN_POINT('',(0.0136769233250519,0.00175875,-0.0323139737021844));
#738=CARTESIAN_POINT('',(0.0136769233250519,-0.013125,-0.0323139737021844));
#739=CARTESIAN_POINT('',(0.0136769233250519,-0.013125,0.0130460262978156));
#740=CARTESIAN_POINT('',(0.0136769233250519,0.00175875,0.0130460262978156));
#741=CARTESIAN_POINT('',(0.0136769233250519,0.00175875,0.0357260262978156));
#742=CARTESIAN_POINT('',(0.0136769233250519,-0.013125,0.0357260262978156));
#743=CARTESIAN_POINT('',(-0.00900307667494809,0.00175875,0.0130460262978156));
#744=CARTESIAN_POINT('',(-0.00900307667494809,0.00175875,0.0357260262978156));
#745=CARTESIAN_POINT('',(-0.00900307667494809,0.00175875,0.0584060262978156));
#746=CARTESIAN_POINT('',(-0.00900307667494809,0.00175875,0.0357260262978156));
#747=CARTESIAN_POINT('',(-0.00900307667494809,-0.013125,0.0357260262978156));
#748=CARTESIAN_POINT('',(-0.0294150766749481,-0.013125,0.0130460262978156));
#749=CARTESIAN_POINT('',(-0.0294150766749481,-0.006533625,0.0345920262978156));
#750=CARTESIAN_POINT('',(-0.0294150766749481,5.775E-5,0.0345920262978156));
#751=CARTESIAN_POINT('',(-0.0294150766749481,5.775E-5,0.0130460262978156));
#752=CARTESIAN_POINT('',(-0.0294150766749481,5.775E-5,0.0357260262978156));
#753=CARTESIAN_POINT('',(-0.0294150766749481,-0.013125,0.0357260262978156));
#754=CARTESIAN_POINT('',(-0.00900307667494809,-0.013125,-0.0300459737021844));
#755=CARTESIAN_POINT('',(0.0114089233250519,-0.013125,-0.0300459737021844));
#756=CARTESIAN_POINT('',(0.0114089233250519,-0.013125,0.0130460262978156));
#757=CARTESIAN_POINT('',(0.0114089233250519,-0.013125,-0.0113349737021844));
#758=CARTESIAN_POINT('',(-0.00900307667494809,5.775E-5,0.0130460262978156));
#759=CARTESIAN_POINT('',(0.0124295233250519,5.775E-5,0.0345920262978156));
#760=CARTESIAN_POINT('',(-0.0090030766749481,5.775E-5,0.0357260262978156));
#761=CARTESIAN_POINT('',(-0.00900307667494809,-0.013125,0.0357260262978156));
#762=CARTESIAN_POINT('',(0.0124295233250519,-0.006533625,-0.0113349737021844));
#763=CARTESIAN_POINT('',(0.0124295233250519,-0.006533625,-0.00849997370218441));
#764=CARTESIAN_POINT('',(0.0124295233250519,-0.006533625,0.0102110262978156));
#765=CARTESIAN_POINT('',(0.0124295233250519,-0.006533625,0.0130460262978156));
#766=CARTESIAN_POINT('',(0.0124295233250519,-0.006533625,0.0317570262978156));
#767=CARTESIAN_POINT('',(0.0124295233250519,-0.006533625,0.0345920262978156));
#768=MECHANICAL_DESIGN_GEOMETRIC_PRESENTATION_REPRESENTATION('',(#471),
#769);
#769=(
GEOMETRIC_REPRESENTATION_CONTEXT(3)
GLOBAL_UNCERTAINTY_ASSIGNED_CONTEXT((#770))
GLOBAL_UNIT_ASSIGNED_CONTEXT((#773,#772,#771))
REPRESENTATION_CONTEXT('Part 1','TOP_LEVEL_ASSEMBLY_PART')
);
#770=UNCERTAINTY_MEASURE_WITH_UNIT(LENGTH_MEASURE(1.E-8),#773,
'DISTANCE_ACCURACY_VALUE','Maximum Tolerance applied to model');
#771=(
NAMED_UNIT(*)
SI_UNIT($,.STERADIAN.)
SOLID_ANGLE_UNIT()
);
#772=(
NAMED_UNIT(*)
PLANE_ANGLE_UNIT()
SI_UNIT($,.RADIAN.)
);
#773=(
LENGTH_UNIT()
NAMED_UNIT(*)
SI_UNIT($,.METRE.)
);
#774=PRODUCT_DEFINITION_SHAPE('','',#775);
#775=PRODUCT_DEFINITION('','',#777,#776);
#776=PRODUCT_DEFINITION_CONTEXT('',#783,'design');
#777=PRODUCT_DEFINITION_FORMATION_WITH_SPECIFIED_SOURCE('','',#779,
 .NOT_KNOWN.);
#778=PRODUCT_RELATED_PRODUCT_CATEGORY('','',(#779));
#779=PRODUCT('Part 1','Part 1','Part 1',(#781));
#780=PRODUCT_CATEGORY('','');
#781=PRODUCT_CONTEXT('',#783,'mechanical');
#782=APPLICATION_PROTOCOL_DEFINITION('international standard',
'ap242_managed_model_based_3d_engineering',2020,#783);
#783=APPLICATION_CONTEXT('managed model based 3d engineering');
ENDSEC;
END-ISO-10303-21;
