ISO-10303-21;
HEADER;
/* Generated by software containing ST-Developer
 * from STEP Tools, Inc. (www.steptools.com) 
 */
/* OPTION: using custom renumber hook */

FILE_DESCRIPTION(
/* description */ ('STEP AP242 Edition 2',
'CAx-IF Rec.Pracs.---Representation and Presentation of Product Manufa
cturing Information (PMI)---4.0---2014-10-13',
'CAx-IF Rec.Pracs.---3D Tessellated Geometry---0.4---2014-09-14','2;1',
'CAx-IF Rec.Pracs.---User Defined Attributes---1.5---2016-08-15'),
/* implementation_level */ '2;1');

FILE_NAME(
/* name */ 'Chair Holder',
/* time_stamp */ '2026-09-04T21:58:31Z',
/* author */ (''),
/* organization */ (''),
/* preprocessor_version */ 'ST-DEVELOPER v20',
/* originating_system */ 'ONSHAPE BY PTC INC, 1.220',
/* authorisation */ '  ');

FILE_SCHEMA (('AP242_MANAGED_MODEL_BASED_3D_ENGINEERING_MIM_LF { 1 0 10303 442 3 1 4 }'));
ENDSEC;

DATA;
#10=SHAPE_REPRESENTATION_RELATIONSHIP('','',#63,#11);
#11=ADVANCED_BREP_SHAPE_REPRESENTATION('',(#61),#426);
#12=PLANE('',#67);
#13=CIRCLE('',#66,0.0009405);
#14=(
BOUNDED_SURFACE()
B_SPLINE_SURFACE(3,3,((#98,#99,#100,#101,#102,#103,#104,#105,#106,#107,
#108,#109,#110,#111,#112,#113,#114,#115,#116,#117,#118,#119),(#120,#121,
#122,#123,#124,#125,#126,#127,#128,#129,#130,#131,#132,#133,#134,#135,#136,
#137,#138,#139,#140,#141),(#142,#143,#144,#145,#146,#147,#148,#149,#150,
#151,#152,#153,#154,#155,#156,#157,#158,#159,#160,#161,#162,#163),(#164,
#165,#166,#167,#168,#169,#170,#171,#172,#173,#174,#175,#176,#177,#178,#179,
#180,#181,#182,#183,#184,#185),(#186,#187,#188,#189,#190,#191,#192,#193,
#194,#195,#196,#197,#198,#199,#200,#201,#202,#203,#204,#205,#206,#207),
(#208,#209,#210,#211,#212,#213,#214,#215,#216,#217,#218,#219,#220,#221,
#222,#223,#224,#225,#226,#227,#228,#229),(#230,#231,#232,#233,#234,#235,
#236,#237,#238,#239,#240,#241,#242,#243,#244,#245,#246,#247,#248,#249,#250,
#251)),.UNSPECIFIED.,.T.,.F.,.F.)
B_SPLINE_SURFACE_WITH_KNOTS((4,3,4),(4,2,2,2,2,2,2,2,2,2,4),(0.,0.5,1.),
(0.,0.25,0.375,0.5,0.625,0.75,0.875,0.9375,0.96875,1.,1.00787391162808),
 .UNSPECIFIED.)
GEOMETRIC_REPRESENTATION_ITEM()
RATIONAL_B_SPLINE_SURFACE(((1.,1.,1.,1.,1.,1.,1.,1.,1.,1.,1.,1.,1.,1.,1.,
1.,1.,1.,1.,1.,1.,1.),(0.333333333333334,0.333333333333334,0.333333333333334,
0.333333333333334,0.333333333333334,0.333333333333334,0.333333333333334,
0.333333333333334,0.333333333333334,0.333333333333334,0.333333333333334,
0.333333333333334,0.333333333333334,0.333333333333334,0.333333333333334,
0.333333333333334,0.333333333333334,0.333333333333334,0.333333333333334,
0.333333333333334,0.333333333333334,0.333333333333334),(0.333333333333334,
0.333333333333334,0.333333333333334,0.333333333333334,0.333333333333334,
0.333333333333334,0.333333333333334,0.333333333333334,0.333333333333334,
0.333333333333334,0.333333333333334,0.333333333333334,0.333333333333334,
0.333333333333334,0.333333333333334,0.333333333333334,0.333333333333334,
0.333333333333334,0.333333333333334,0.333333333333334,0.333333333333334,
0.333333333333334),(1.,1.,1.,1.,1.,1.,1.,1.,1.,1.,1.,1.,1.,1.,1.,1.,1.,
1.,1.,1.,1.,1.),(0.333333333333334,0.333333333333334,0.333333333333334,
0.333333333333334,0.333333333333334,0.333333333333334,0.333333333333334,
0.333333333333334,0.333333333333334,0.333333333333334,0.333333333333334,
0.333333333333334,0.333333333333334,0.333333333333334,0.333333333333334,
0.333333333333334,0.333333333333334,0.333333333333334,0.333333333333334,
0.333333333333334,0.333333333333334,0.333333333333334),(0.333333333333334,
0.333333333333334,0.333333333333334,0.333333333333334,0.333333333333334,
0.333333333333334,0.333333333333334,0.333333333333334,0.333333333333334,
0.333333333333334,0.333333333333334,0.333333333333334,0.333333333333334,
0.333333333333334,0.333333333333334,0.333333333333334,0.333333333333334,
0.333333333333334,0.333333333333334,0.333333333333334,0.333333333333334,
0.333333333333334),(1.,1.,1.,1.,1.,1.,1.,1.,1.,1.,1.,1.,1.,1.,1.,1.,1.,
1.,1.,1.,1.,1.)))
REPRESENTATION_ITEM('')
SURFACE()
);
#15=(
BOUNDED_SURFACE()
B_SPLINE_SURFACE(3,3,((#268,#269,#270,#271,#272,#273,#274,#275,#276,#277,
#278,#279,#280,#281,#282,#283,#284,#285,#286,#287,#288,#289),(#290,#291,
#292,#293,#294,#295,#296,#297,#298,#299,#300,#301,#302,#303,#304,#305,#306,
#307,#308,#309,#310,#311),(#312,#313,#314,#315,#316,#317,#318,#319,#320,
#321,#322,#323,#324,#325,#326,#327,#328,#329,#330,#331,#332,#333),(#334,
#335,#336,#337,#338,#339,#340,#341,#342,#343,#344,#345,#346,#347,#348,#349,
#350,#351,#352,#353,#354,#355),(#356,#357,#358,#359,#360,#361,#362,#363,
#364,#365,#366,#367,#368,#369,#370,#371,#372,#373,#374,#375,#376,#377),
(#378,#379,#380,#381,#382,#383,#384,#385,#386,#387,#388,#389,#390,#391,
#392,#393,#394,#395,#396,#397,#398,#399),(#400,#401,#402,#403,#404,#405,
#406,#407,#408,#409,#410,#411,#412,#413,#414,#415,#416,#417,#418,#419,#420,
#421)),.UNSPECIFIED.,.T.,.F.,.F.)
B_SPLINE_SURFACE_WITH_KNOTS((4,3,4),(4,2,2,2,2,2,2,2,2,2,4),(0.,0.5,1.),
(-0.0314872592277685,0.,0.0497724219336993,0.0995448438673986,0.199089687734797,
0.398179375469594,0.53906264871092,0.679945921952246,0.759959441464184,
0.839972960976123,1.),.UNSPECIFIED.)
GEOMETRIC_REPRESENTATION_ITEM()
RATIONAL_B_SPLINE_SURFACE(((1.,1.,1.,1.,1.,1.,1.,1.,1.,1.,1.,1.,1.,1.,1.,
1.,1.,1.,1.,1.,1.,1.),(0.333333333333334,0.333333333333334,0.333333333333334,
0.333333333333334,0.333333333333334,0.333333333333334,0.333333333333334,
0.333333333333334,0.333333333333334,0.333333333333334,0.333333333333334,
0.333333333333334,0.333333333333334,0.333333333333334,0.333333333333334,
0.333333333333334,0.333333333333334,0.333333333333334,0.333333333333334,
0.333333333333334,0.333333333333334,0.333333333333334),(0.333333333333334,
0.333333333333334,0.333333333333334,0.333333333333334,0.333333333333334,
0.333333333333334,0.333333333333334,0.333333333333334,0.333333333333334,
0.333333333333334,0.333333333333334,0.333333333333334,0.333333333333334,
0.333333333333334,0.333333333333334,0.333333333333334,0.333333333333334,
0.333333333333334,0.333333333333334,0.333333333333334,0.333333333333334,
0.333333333333334),(1.,1.,1.,1.,1.,1.,1.,1.,1.,1.,1.,1.,1.,1.,1.,1.,1.,
1.,1.,1.,1.,1.),(0.333333333333334,0.333333333333334,0.333333333333334,
0.333333333333334,0.333333333333334,0.333333333333334,0.333333333333334,
0.333333333333334,0.333333333333334,0.333333333333334,0.333333333333334,
0.333333333333334,0.333333333333334,0.333333333333334,0.333333333333334,
0.333333333333334,0.333333333333334,0.333333333333334,0.333333333333334,
0.333333333333334,0.333333333333334,0.333333333333334),(0.333333333333334,
0.333333333333334,0.333333333333334,0.333333333333334,0.333333333333334,
0.333333333333334,0.333333333333334,0.333333333333334,0.333333333333334,
0.333333333333334,0.333333333333334,0.333333333333334,0.333333333333334,
0.333333333333334,0.333333333333334,0.333333333333334,0.333333333333334,
0.333333333333334,0.333333333333334,0.333333333333334,0.333333333333334,
0.333333333333334),(1.,1.,1.,1.,1.,1.,1.,1.,1.,1.,1.,1.,1.,1.,1.,1.,1.,
1.,1.,1.,1.,1.)))
REPRESENTATION_ITEM('')
SURFACE()
);
#16=ORIENTED_EDGE('',*,*,#24,.F.);
#17=ORIENTED_EDGE('',*,*,#24,.T.);
#18=ORIENTED_EDGE('',*,*,#25,.F.);
#19=ORIENTED_EDGE('',*,*,#26,.T.);
#20=ORIENTED_EDGE('',*,*,#26,.F.);
#21=ORIENTED_EDGE('',*,*,#25,.T.);
#22=ORIENTED_EDGE('',*,*,#27,.F.);
#23=ORIENTED_EDGE('',*,*,#27,.T.);
#24=EDGE_CURVE('',#28,#28,#32,.T.);
#25=EDGE_CURVE('',#29,#30,#33,.T.);
#26=EDGE_CURVE('',#29,#30,#34,.T.);
#27=EDGE_CURVE('',#31,#31,#13,.T.);
#28=VERTEX_POINT('',#97);
#29=VERTEX_POINT('',#259);
#30=VERTEX_POINT('',#260);
#31=VERTEX_POINT('',#423);
#32=B_SPLINE_CURVE_WITH_KNOTS('',3,(#78,#79,#80,#81,#82,#83,#84,#85,#86,
#87,#88,#89,#90,#91,#92,#93,#94,#95,#96),.UNSPECIFIED.,.T.,.F.,(1,1,1,1,
1,1,1,1,1,1,1,1,1,1,1,1,1,1,1,1,1,1,1),(-0.00110582238622329,-0.000737214924148857,
-0.000368607462074429,0.,0.000368607462074429,0.000737214924148857,0.00110582238622329,
0.00147442984829771,0.00184303731037214,0.00221164477244657,0.002580252234521,
0.00294885969659543,0.00331746715866986,0.00368607462074429,0.00405468208281872,
0.00442328954489314,0.00479189700696757,0.005160504469042,0.00552911193111643,
0.00589771939319086,0.00626632685526529,0.00663493431733972,0.00700354177941415),
 .UNSPECIFIED.);
#33=B_SPLINE_CURVE_WITH_KNOTS('',3,(#252,#253,#254,#255,#256,#257,#258),
 .UNSPECIFIED.,.F.,.F.,(4,1,1,1,4),(-1.59303968593025E-5,0.000681091322004535,
0.00137811304086837,0.00207513475973221,0.00277215647859605),
 .UNSPECIFIED.);
#34=B_SPLINE_CURVE_WITH_KNOTS('',3,(#261,#262,#263,#264,#265,#266,#267),
 .UNSPECIFIED.,.F.,.F.,(4,1,1,1,4),(-1.593043099342E-5,0.000681537168486221,
0.00137900476796586,0.0020764723674455,0.00277393996692514),
 .UNSPECIFIED.);
#35=EDGE_LOOP('',(#16));
#36=EDGE_LOOP('',(#17));
#37=EDGE_LOOP('',(#18,#19));
#38=EDGE_LOOP('',(#20,#21));
#39=EDGE_LOOP('',(#22));
#40=EDGE_LOOP('',(#23));
#41=FACE_BOUND('',#35,.T.);
#42=FACE_BOUND('',#36,.T.);
#43=FACE_BOUND('',#37,.T.);
#44=FACE_BOUND('',#38,.T.);
#45=FACE_BOUND('',#39,.T.);
#46=FACE_BOUND('',#40,.T.);
#47=TOROIDAL_SURFACE('',#65,0.023947711792839,0.00099);
#48=ADVANCED_FACE('',(#41),#47,.T.);
#49=ADVANCED_FACE('',(#42,#43),#14,.T.);
#50=ADVANCED_FACE('',(#44,#45),#15,.T.);
#51=ADVANCED_FACE('',(#46),#12,.T.);
#52=CLOSED_SHELL('',(#48,#49,#50,#51));
#53=STYLED_ITEM('',(#54),#61);
#54=PRESENTATION_STYLE_ASSIGNMENT((#55));
#55=SURFACE_STYLE_USAGE(.BOTH.,#56);
#56=SURFACE_SIDE_STYLE('',(#57));
#57=SURFACE_STYLE_FILL_AREA(#58);
#58=FILL_AREA_STYLE('',(#59));
#59=FILL_AREA_STYLE_COLOUR('',#60);
#60=COLOUR_RGB('',0.835294117647059,0.780392156862745,0.647058823529412);
#61=MANIFOLD_SOLID_BREP('Part 1',#52);
#62=SHAPE_DEFINITION_REPRESENTATION(#431,#63);
#63=SHAPE_REPRESENTATION('Part 1',(#64),#426);
#64=AXIS2_PLACEMENT_3D('',#76,#68,#69);
#65=AXIS2_PLACEMENT_3D('',#77,#70,#71);
#66=AXIS2_PLACEMENT_3D('',#422,#72,#73);
#67=AXIS2_PLACEMENT_3D('',#424,#74,#75);
#68=DIRECTION('',(0.,0.,1.));
#69=DIRECTION('',(1.,0.,0.));
#70=DIRECTION('',(0.,0.,1.));
#71=DIRECTION('',(1.,0.,0.));
#72=DIRECTION('',(-0.861393777323119,0.,0.507937752474659));
#73=DIRECTION('',(0.50793775247466,0.,0.861393777323119));
#74=DIRECTION('',(-0.861393777323119,0.,0.507937752474659));
#75=DIRECTION('',(0.50793775247466,0.,0.861393777323119));
#76=CARTESIAN_POINT('',(0.,0.,0.));
#77=CARTESIAN_POINT('',(4.7894460149111E-5,-9.5E-6,0.000672601163387294));
#78=CARTESIAN_POINT('',(0.0249725684593859,-0.000375212335583396,0.000855519041532591));
#79=CARTESIAN_POINT('',(0.0249847620927221,-9.3738137130079E-6,0.000728753189618789));
#80=CARTESIAN_POINT('',(0.0249726289296819,0.000355707590435427,0.000855253296887402));
#81=CARTESIAN_POINT('',(0.0249015270035516,0.000642691726559808,0.00108304094350421));
#82=CARTESIAN_POINT('',(0.0247374598663985,0.000865208920015211,0.00133962903500052));
#83=CARTESIAN_POINT('',(0.0244432340725547,0.000963762384091883,0.00157383014485385));
#84=CARTESIAN_POINT('',(0.0240812958416701,0.000865736962717178,0.00167777248754923));
#85=CARTESIAN_POINT('',(0.0237786338502131,0.000639633688698277,0.00165341700579904));
#86=CARTESIAN_POINT('',(0.0235558685201704,0.000354565409361728,0.00156773759839436));
#87=CARTESIAN_POINT('',(0.0234446687660791,-1.03130286796889E-5,0.00149432523089335));
#88=CARTESIAN_POINT('',(0.0235565376267888,-0.000374687620403504,0.00156811186396245));
#89=CARTESIAN_POINT('',(0.0237799148032842,-0.000660071802584609,0.00165381657513314));
#90=CARTESIAN_POINT('',(0.0240836583237667,-0.000885831526428418,0.00167747515891523));
#91=CARTESIAN_POINT('',(0.0244440585210721,-0.000982619650561502,0.00157328561764674));
#92=CARTESIAN_POINT('',(0.0247382425179997,-0.000883669042645706,0.00133877304200232));
#93=CARTESIAN_POINT('',(0.0249016164372289,-0.000661116059648317,0.00108263673142114));
#94=CARTESIAN_POINT('',(0.0249725684593859,-0.000375212335583396,0.000855519041532591));
#95=CARTESIAN_POINT('',(0.0249847620927221,-9.3738137130079E-6,0.000728753189618789));
#96=CARTESIAN_POINT('',(0.0249726289296819,0.000355707590435427,0.000855253296887402));
#97=CARTESIAN_POINT('',(0.0249807076266593,-9.5E-6,0.000770964182815858));
#98=CARTESIAN_POINT('',(0.0249314707138141,-9.5E-6,0.000672601163387294));
#99=CARTESIAN_POINT('',(0.0285390495533102,-9.5E-6,0.00786214898577015));
#100=CARTESIAN_POINT('',(0.0310066081602389,-9.5E-6,0.0166143633123552));
#101=CARTESIAN_POINT('',(0.0323478304831869,-9.5E-6,0.029829146997141));
#102=CARTESIAN_POINT('',(0.0324090060630807,-9.5E-6,0.0342387184922179));
#103=CARTESIAN_POINT('',(0.0317468481656125,-9.5E-6,0.0426870071960321));
#104=CARTESIAN_POINT('',(0.0310228655383794,-9.5E-6,0.0467234770058769));
#105=CARTESIAN_POINT('',(0.0288424442813344,-9.5E-6,0.0540430031752446));
#106=CARTESIAN_POINT('',(0.0273857885700204,-9.5E-6,0.057329148079647));
#107=CARTESIAN_POINT('',(0.0238449021708086,-9.5E-6,0.0628455169235093));
#108=CARTESIAN_POINT('',(0.0217589014382984,-9.5E-6,0.065075789563312));
#109=CARTESIAN_POINT('',(0.0171304015825044,-9.5E-6,0.0682286373283689));
#110=CARTESIAN_POINT('',(0.0145872911776907,-9.5E-6,0.0691446929919182));
#111=CARTESIAN_POINT('',(0.01066372879132,-9.5E-6,0.0694438501631271));
#112=CARTESIAN_POINT('',(0.009338969881604,-9.5E-6,0.0693666035203688));
#113=CARTESIAN_POINT('',(0.00735518494243365,-9.5E-6,0.0689932393470003));
#114=CARTESIAN_POINT('',(0.00669444453782557,-9.5E-6,0.0688259822430183));
#115=CARTESIAN_POINT('',(0.00537789006762125,-9.5E-6,0.0684080589575724));
#116=CARTESIAN_POINT('',(0.00471086946501513,-9.5E-6,0.0681440997603749));
#117=CARTESIAN_POINT('',(0.00390885599416202,-9.5E-6,0.0677961610418331));
#118=CARTESIAN_POINT('',(0.00375309336085295,-9.5E-6,0.0677328319662365));
#119=CARTESIAN_POINT('',(0.00359450713853548,-9.5E-6,0.0676661550970019));
#120=CARTESIAN_POINT('',(0.0249314707138141,0.0018715,0.000672601163387293));
#121=CARTESIAN_POINT('',(0.0285390495533103,0.0018715,0.00786214898577015));
#122=CARTESIAN_POINT('',(0.031006608160239,0.0018715,0.0166143633123551));
#123=CARTESIAN_POINT('',(0.0323478304831869,0.0018715,0.029829146997141));
#124=CARTESIAN_POINT('',(0.0324090060630807,0.0018715,0.0342387184922179));
#125=CARTESIAN_POINT('',(0.0317468481656124,0.0018715,0.0426870071960321));
#126=CARTESIAN_POINT('',(0.0310228655383794,0.0018715,0.0467234770058769));
#127=CARTESIAN_POINT('',(0.0288424442813344,0.0018715,0.0540430031752446));
#128=CARTESIAN_POINT('',(0.0273857885700204,0.0018715,0.057329148079647));
#129=CARTESIAN_POINT('',(0.0238449021708086,0.0018715,0.0628455169235092));
#130=CARTESIAN_POINT('',(0.0217589014382984,0.0018715,0.065075789563312));
#131=CARTESIAN_POINT('',(0.0171304015825044,0.0018715,0.0682286373283689));
#132=CARTESIAN_POINT('',(0.0145872911776907,0.0018715,0.0691446929919181));
#133=CARTESIAN_POINT('',(0.01066372879132,0.0018715,0.0694438501631271));
#134=CARTESIAN_POINT('',(0.009338969881604,0.0018715,0.0693666035203687));
#135=CARTESIAN_POINT('',(0.00735518494243365,0.0018715,0.0689932393470003));
#136=CARTESIAN_POINT('',(0.00669444453782556,0.0018715,0.0688259822430183));
#137=CARTESIAN_POINT('',(0.00537789006762124,0.0018715,0.0684080589575724));
#138=CARTESIAN_POINT('',(0.00471086946501513,0.0018715,0.0681440997603748));
#139=CARTESIAN_POINT('',(0.00390885599416202,0.0018715,0.0677961610418331));
#140=CARTESIAN_POINT('',(0.00375309336085295,0.0018715,0.0677328319662364));
#141=CARTESIAN_POINT('',(0.00359450713853547,0.0018715,0.0676661550970018));
#142=CARTESIAN_POINT('',(0.0230504707138141,0.0018715,0.000672601163387293));
#143=CARTESIAN_POINT('',(0.0266580495534477,0.0018715,0.00759831417341463));
#144=CARTESIAN_POINT('',(0.0291727396592139,0.0018715,0.0161433747714909));
#145=CARTESIAN_POINT('',(0.0306299731096371,0.0018715,0.0290553170640732));
#146=CARTESIAN_POINT('',(0.0307385849894367,0.0018715,0.0333658610526636));
#147=CARTESIAN_POINT('',(0.0301990966140669,0.0018715,0.0416115297171288));
#148=CARTESIAN_POINT('',(0.0295500914880496,0.0018715,0.0455441706216166));
#149=CARTESIAN_POINT('',(0.0275710423474321,0.0018715,0.0526489572385887));
#150=CARTESIAN_POINT('',(0.0262408440672107,0.0018715,0.0558228390821052));
#151=CARTESIAN_POINT('',(0.0230498949883914,0.0018715,0.0611285928455527));
#152=CARTESIAN_POINT('',(0.0211918839454057,0.0018715,0.0632588569491313));
#153=CARTESIAN_POINT('',(0.0171386252695368,0.0018715,0.0663253020109978));
#154=CARTESIAN_POINT('',(0.0149452392264606,0.0018715,0.067267106684359));
#155=CARTESIAN_POINT('',(0.0114970932625748,0.0018715,0.0677490083725293));
#156=CARTESIAN_POINT('',(0.0103207206396558,0.0018715,0.0677542134975732));
#157=CARTESIAN_POINT('',(0.00853016661948397,0.0018715,0.0675222030309478));
#158=CARTESIAN_POINT('',(0.00792908977673313,0.0018715,0.067404911384719));
#159=CARTESIAN_POINT('',(0.00672180796981129,0.0018715,0.0670898495951983));
#160=CARTESIAN_POINT('',(0.00612681816415636,0.0018715,0.0669053680519131));
#161=CARTESIAN_POINT('',(0.00535286338583193,0.0018715,0.0665907228137982));
#162=CARTESIAN_POINT('',(0.0051914537797081,0.0018715,0.0665206932342969));
#163=CARTESIAN_POINT('',(0.00503286755739064,0.0018715,0.0664540163650612));
#164=CARTESIAN_POINT('',(0.0230504707138141,-9.49999999999979E-6,0.000672601163387294));
#165=CARTESIAN_POINT('',(0.0266580495534477,-9.49999999999979E-6,0.00759831417341464));
#166=CARTESIAN_POINT('',(0.0291727396592139,-9.49999999999979E-6,0.0161433747714909));
#167=CARTESIAN_POINT('',(0.0306299731096371,-9.49999999999979E-6,0.0290553170640733));
#168=CARTESIAN_POINT('',(0.0307385849894367,-9.49999999999979E-6,0.0333658610526636));
#169=CARTESIAN_POINT('',(0.0301990966140669,-9.49999999999979E-6,0.0416115297171289));
#170=CARTESIAN_POINT('',(0.0295500914880496,-9.49999999999979E-6,0.0455441706216167));
#171=CARTESIAN_POINT('',(0.0275710423474321,-9.49999999999979E-6,0.0526489572385887));
#172=CARTESIAN_POINT('',(0.0262408440672107,-9.49999999999979E-6,0.0558228390821053));
#173=CARTESIAN_POINT('',(0.0230498949883914,-9.49999999999979E-6,0.0611285928455528));
#174=CARTESIAN_POINT('',(0.0211918839454057,-9.49999999999979E-6,0.0632588569491314));
#175=CARTESIAN_POINT('',(0.0171386252695368,-9.49999999999979E-6,0.0663253020109978));
#176=CARTESIAN_POINT('',(0.0149452392264606,-9.49999999999979E-6,0.067267106684359));
#177=CARTESIAN_POINT('',(0.0114970932625748,-9.49999999999979E-6,0.0677490083725293));
#178=CARTESIAN_POINT('',(0.0103207206396558,-9.49999999999979E-6,0.0677542134975731));
#179=CARTESIAN_POINT('',(0.00853016661948397,-9.49999999999979E-6,0.0675222030309478));
#180=CARTESIAN_POINT('',(0.00792908977673313,-9.49999999999979E-6,0.067404911384719));
#181=CARTESIAN_POINT('',(0.0067218079698113,-9.49999999999979E-6,0.0670898495951983));
#182=CARTESIAN_POINT('',(0.00612681816415637,-9.49999999999979E-6,0.0669053680519131));
#183=CARTESIAN_POINT('',(0.00535286338583193,-9.49999999999979E-6,0.0665907228137981));
#184=CARTESIAN_POINT('',(0.00519145377970811,-9.49999999999979E-6,0.066520693234297));
#185=CARTESIAN_POINT('',(0.00503286755739064,-9.49999999999979E-6,0.0664540163650612));
#186=CARTESIAN_POINT('',(0.0230504707138141,-0.0018905,0.000672601163387293));
#187=CARTESIAN_POINT('',(0.0266580495534477,-0.0018905,0.00759831417341463));
#188=CARTESIAN_POINT('',(0.0291727396592139,-0.0018905,0.0161433747714909));
#189=CARTESIAN_POINT('',(0.0306299731096371,-0.0018905,0.0290553170640732));
#190=CARTESIAN_POINT('',(0.0307385849894367,-0.0018905,0.0333658610526636));
#191=CARTESIAN_POINT('',(0.0301990966140669,-0.0018905,0.0416115297171288));
#192=CARTESIAN_POINT('',(0.0295500914880496,-0.0018905,0.0455441706216166));
#193=CARTESIAN_POINT('',(0.0275710423474321,-0.0018905,0.0526489572385887));
#194=CARTESIAN_POINT('',(0.0262408440672107,-0.0018905,0.0558228390821052));
#195=CARTESIAN_POINT('',(0.0230498949883914,-0.0018905,0.0611285928455527));
#196=CARTESIAN_POINT('',(0.0211918839454057,-0.0018905,0.0632588569491313));
#197=CARTESIAN_POINT('',(0.0171386252695368,-0.0018905,0.0663253020109978));
#198=CARTESIAN_POINT('',(0.0149452392264606,-0.0018905,0.067267106684359));
#199=CARTESIAN_POINT('',(0.0114970932625748,-0.0018905,0.0677490083725293));
#200=CARTESIAN_POINT('',(0.0103207206396558,-0.0018905,0.0677542134975732));
#201=CARTESIAN_POINT('',(0.00853016661948397,-0.0018905,0.0675222030309478));
#202=CARTESIAN_POINT('',(0.00792908977673313,-0.0018905,0.067404911384719));
#203=CARTESIAN_POINT('',(0.00672180796981129,-0.0018905,0.0670898495951983));
#204=CARTESIAN_POINT('',(0.00612681816415636,-0.0018905,0.0669053680519131));
#205=CARTESIAN_POINT('',(0.00535286338583193,-0.0018905,0.0665907228137982));
#206=CARTESIAN_POINT('',(0.0051914537797081,-0.0018905,0.0665206932342969));
#207=CARTESIAN_POINT('',(0.00503286755739064,-0.0018905,0.0664540163650612));
#208=CARTESIAN_POINT('',(0.0249314707138141,-0.0018905,0.000672601163387293));
#209=CARTESIAN_POINT('',(0.0285390495533103,-0.0018905,0.00786214898577015));
#210=CARTESIAN_POINT('',(0.031006608160239,-0.0018905,0.0166143633123551));
#211=CARTESIAN_POINT('',(0.0323478304831869,-0.0018905,0.029829146997141));
#212=CARTESIAN_POINT('',(0.0324090060630807,-0.0018905,0.0342387184922179));
#213=CARTESIAN_POINT('',(0.0317468481656124,-0.0018905,0.0426870071960321));
#214=CARTESIAN_POINT('',(0.0310228655383794,-0.0018905,0.0467234770058769));
#215=CARTESIAN_POINT('',(0.0288424442813344,-0.0018905,0.0540430031752446));
#216=CARTESIAN_POINT('',(0.0273857885700204,-0.0018905,0.057329148079647));
#217=CARTESIAN_POINT('',(0.0238449021708086,-0.0018905,0.0628455169235092));
#218=CARTESIAN_POINT('',(0.0217589014382984,-0.0018905,0.065075789563312));
#219=CARTESIAN_POINT('',(0.0171304015825044,-0.0018905,0.0682286373283689));
#220=CARTESIAN_POINT('',(0.0145872911776907,-0.0018905,0.0691446929919181));
#221=CARTESIAN_POINT('',(0.01066372879132,-0.0018905,0.0694438501631271));
#222=CARTESIAN_POINT('',(0.009338969881604,-0.0018905,0.0693666035203687));
#223=CARTESIAN_POINT('',(0.00735518494243365,-0.0018905,0.0689932393470003));
#224=CARTESIAN_POINT('',(0.00669444453782556,-0.0018905,0.0688259822430183));
#225=CARTESIAN_POINT('',(0.00537789006762124,-0.0018905,0.0684080589575724));
#226=CARTESIAN_POINT('',(0.00471086946501513,-0.0018905,0.0681440997603748));
#227=CARTESIAN_POINT('',(0.00390885599416202,-0.0018905,0.0677961610418331));
#228=CARTESIAN_POINT('',(0.00375309336085295,-0.0018905,0.0677328319662364));
#229=CARTESIAN_POINT('',(0.00359450713853547,-0.0018905,0.0676661550970018));
#230=CARTESIAN_POINT('',(0.0249314707138141,-9.5E-6,0.000672601163387294));
#231=CARTESIAN_POINT('',(0.0285390495533102,-9.5E-6,0.00786214898577015));
#232=CARTESIAN_POINT('',(0.0310066081602389,-9.5E-6,0.0166143633123552));
#233=CARTESIAN_POINT('',(0.0323478304831869,-9.5E-6,0.029829146997141));
#234=CARTESIAN_POINT('',(0.0324090060630807,-9.5E-6,0.0342387184922179));
#235=CARTESIAN_POINT('',(0.0317468481656125,-9.5E-6,0.0426870071960321));
#236=CARTESIAN_POINT('',(0.0310228655383794,-9.5E-6,0.0467234770058769));
#237=CARTESIAN_POINT('',(0.0288424442813344,-9.5E-6,0.0540430031752446));
#238=CARTESIAN_POINT('',(0.0273857885700204,-9.5E-6,0.057329148079647));
#239=CARTESIAN_POINT('',(0.0238449021708086,-9.5E-6,0.0628455169235093));
#240=CARTESIAN_POINT('',(0.0217589014382984,-9.5E-6,0.065075789563312));
#241=CARTESIAN_POINT('',(0.0171304015825044,-9.5E-6,0.0682286373283689));
#242=CARTESIAN_POINT('',(0.0145872911776907,-9.5E-6,0.0691446929919182));
#243=CARTESIAN_POINT('',(0.01066372879132,-9.5E-6,0.0694438501631271));
#244=CARTESIAN_POINT('',(0.009338969881604,-9.5E-6,0.0693666035203688));
#245=CARTESIAN_POINT('',(0.00735518494243365,-9.5E-6,0.0689932393470003));
#246=CARTESIAN_POINT('',(0.00669444453782557,-9.5E-6,0.0688259822430183));
#247=CARTESIAN_POINT('',(0.00537789006762125,-9.5E-6,0.0684080589575724));
#248=CARTESIAN_POINT('',(0.00471086946501513,-9.5E-6,0.0681440997603749));
#249=CARTESIAN_POINT('',(0.00390885599416202,-9.5E-6,0.0677961610418331));
#250=CARTESIAN_POINT('',(0.00375309336085295,-9.5E-6,0.0677328319662365));
#251=CARTESIAN_POINT('',(0.00359450713853548,-9.5E-6,0.0676661550970019));
#252=CARTESIAN_POINT('',(0.00478944601491086,0.000931,0.0672601163387296));
#253=CARTESIAN_POINT('',(0.00489209434897867,0.000931,0.0670516659123032));
#254=CARTESIAN_POINT('',(0.00507712088648244,0.000692889464535296,0.0666390709814241));
#255=CARTESIAN_POINT('',(0.00508872604878252,-1.06869673447895E-5,0.0663943572563421));
#256=CARTESIAN_POINT('',(0.00507709547074619,-0.000711316631993198,0.0666391562642681));
#257=CARTESIAN_POINT('',(0.00489209434897707,-0.00095,0.0670516659123024));
#258=CARTESIAN_POINT('',(0.00478944601491114,-0.00095,0.0672601163387297));
#259=CARTESIAN_POINT('',(0.00478944601491086,0.000931,0.0672601163387296));
#260=CARTESIAN_POINT('',(0.00478944601491114,-0.00095,0.0672601163387297));
#261=CARTESIAN_POINT('',(0.00478944601491086,0.000931,0.0672601163387296));
#262=CARTESIAN_POINT('',(0.00468646410278479,0.000931,0.0674685679542733));
#263=CARTESIAN_POINT('',(0.00447383848603939,0.000694644247516644,0.0678692401005844));
#264=CARTESIAN_POINT('',(0.00440596484529653,-1.08798614482313E-5,0.068093664072899));
#265=CARTESIAN_POINT('',(0.00447382991272926,-0.000712830659003433,0.0678692594592294));
#266=CARTESIAN_POINT('',(0.00468646410278136,-0.00095,0.0674685679542716));
#267=CARTESIAN_POINT('',(0.00478944601491114,-0.00095,0.0672601163387297));
#268=CARTESIAN_POINT('',(0.00453235062560194,-9.5E-6,0.0680767999986179));
#269=CARTESIAN_POINT('',(0.0043568098061068,-9.5E-6,0.0679778838978103));
#270=CARTESIAN_POINT('',(0.00418724319348857,-9.5E-6,0.0678880261956754));
#271=CARTESIAN_POINT('',(0.00371598317503952,-9.5E-6,0.0676050969390871));
#272=CARTESIAN_POINT('',(0.00342374058680336,-9.5E-6,0.0673856358945757));
#273=CARTESIAN_POINT('',(0.00289197718158218,-9.5E-6,0.066958613858662));
#274=CARTESIAN_POINT('',(0.00264181633211489,-9.5E-6,0.0667349949927816));
#275=CARTESIAN_POINT('',(0.00193175055290041,-9.5E-6,0.0660444698560471));
#276=CARTESIAN_POINT('',(0.00151213409531572,-9.5E-6,0.0655581051697488));
#277=CARTESIAN_POINT('',(0.000359393189986701,-9.5E-6,0.0640947195915075));
#278=CARTESIAN_POINT('',(-0.000271402831819183,-9.5E-6,0.0631100402668743));
#279=CARTESIAN_POINT('',(-0.00131124599719906,-9.5E-6,0.0617457985158831));
#280=CARTESIAN_POINT('',(-0.00173346481693138,-9.5E-6,0.0612538728705847));
#281=CARTESIAN_POINT('',(-0.00252244124134826,-9.5E-6,0.0605367790776459));
#282=CARTESIAN_POINT('',(-0.00289804275305358,-9.5E-6,0.0603168198833576));
#283=CARTESIAN_POINT('',(-0.00330702904008325,-9.5E-6,0.0602861109239973));
#284=CARTESIAN_POINT('',(-0.00337239402093303,-9.5E-6,0.0603729394357826));
#285=CARTESIAN_POINT('',(-0.00343462124529508,-9.5E-6,0.0605675471140392));
#286=CARTESIAN_POINT('',(-0.00347933143090254,-9.5E-6,0.060662328759897));
#287=CARTESIAN_POINT('',(-0.00392634463613618,-9.5E-6,0.061209016934021));
#288=CARTESIAN_POINT('',(-0.00453468908619626,-9.5E-6,0.0619729624039384));
#289=CARTESIAN_POINT('',(-0.00541179229762895,-9.5E-6,0.0633897379184177));
#290=CARTESIAN_POINT('',(0.00453235062560193,0.0018715,0.0680767999986179));
#291=CARTESIAN_POINT('',(0.0043568098061068,0.0018715,0.0679778838978103));
#292=CARTESIAN_POINT('',(0.00418724319348857,0.0018715,0.0678880261956754));
#293=CARTESIAN_POINT('',(0.00371598317503952,0.0018715,0.067605096939087));
#294=CARTESIAN_POINT('',(0.00342374058680335,0.0018715,0.0673856358945757));
#295=CARTESIAN_POINT('',(0.00289197718158218,0.0018715,0.066958613858662));
#296=CARTESIAN_POINT('',(0.00264181633211488,0.0018715,0.0667349949927816));
#297=CARTESIAN_POINT('',(0.00193175055290042,0.0018715,0.0660444698560471));
#298=CARTESIAN_POINT('',(0.00151213409531572,0.0018715,0.0655581051697488));
#299=CARTESIAN_POINT('',(0.0003593931899867,0.0018715,0.0640947195915075));
#300=CARTESIAN_POINT('',(-0.000271402831819183,0.0018715,0.0631100402668743));
#301=CARTESIAN_POINT('',(-0.00131124599719906,0.0018715,0.0617457985158831));
#302=CARTESIAN_POINT('',(-0.00173346481693138,0.0018715,0.0612538728705847));
#303=CARTESIAN_POINT('',(-0.00252244124134827,0.0018715,0.0605367790776459));
#304=CARTESIAN_POINT('',(-0.00289804275305357,0.0018715,0.0603168198833575));
#305=CARTESIAN_POINT('',(-0.00330702904008325,0.0018715,0.0602861109239973));
#306=CARTESIAN_POINT('',(-0.00337239402093303,0.0018715,0.0603729394357825));
#307=CARTESIAN_POINT('',(-0.00343462124529508,0.0018715,0.0605675471140392));
#308=CARTESIAN_POINT('',(-0.00347933143090253,0.0018715,0.060662328759897));
#309=CARTESIAN_POINT('',(-0.00392634463613617,0.0018715,0.0612090169340209));
#310=CARTESIAN_POINT('',(-0.00453468908619625,0.0018715,0.0619729624039384));
#311=CARTESIAN_POINT('',(-0.00541179229762894,0.0018715,0.0633897379184176));
#312=CARTESIAN_POINT('',(0.00610194127798446,0.0018715,0.0670401967954415));
#313=CARTESIAN_POINT('',(0.00592568161967071,0.0018715,0.0669401920303577));
#314=CARTESIAN_POINT('',(0.00574343923116255,0.0018715,0.0668311371674307));
#315=CARTESIAN_POINT('',(0.00530682806550028,0.0018715,0.066600682773445));
#316=CARTESIAN_POINT('',(0.0050722473498457,0.0018715,0.0664771963955482));
#317=CARTESIAN_POINT('',(0.00460209469551399,0.0018715,0.0661722710807821));
#318=CARTESIAN_POINT('',(0.00437714766751951,0.0018715,0.0660069047413153));
#319=CARTESIAN_POINT('',(0.00372912747021371,0.0018715,0.0654779769058554));
#320=CARTESIAN_POINT('',(0.00333300350884974,0.0018715,0.0650813764303033));
#321=CARTESIAN_POINT('',(0.00222497158550662,0.0018715,0.0638181746273985));
#322=CARTESIAN_POINT('',(0.00159718367404561,0.0018715,0.0628815397547359));
#323=CARTESIAN_POINT('',(0.000536646852734604,0.0018715,0.06139042438936));
#324=CARTESIAN_POINT('',(0.000102795079017655,0.0018715,0.0608238919451818));
#325=CARTESIAN_POINT('',(-0.000767339801706768,0.0018715,0.0598465958377473));
#326=CARTESIAN_POINT('',(-0.00119477898529235,0.0018715,0.0594306231387843));
#327=CARTESIAN_POINT('',(-0.00198421512627052,0.0018715,0.0589310624156632));
#328=CARTESIAN_POINT('',(-0.00234045720568966,0.0018715,0.0587481963491914));
#329=CARTESIAN_POINT('',(-0.00316872373655334,0.0018715,0.0586612464360352));
#330=CARTESIAN_POINT('',(-0.00359290011889535,0.0018715,0.0587701599145575));
#331=CARTESIAN_POINT('',(-0.00473184629301366,0.0018715,0.0594456428776993));
#332=CARTESIAN_POINT('',(-0.00541987409149221,0.0018715,0.0603112588297596));
#333=CARTESIAN_POINT('',(-0.00636722321003379,0.0018715,0.0617694562232728));
#334=CARTESIAN_POINT('',(0.00610194127798446,-9.49999999999979E-6,0.0670401967954415));
#335=CARTESIAN_POINT('',(0.00592568161967071,-9.49999999999979E-6,0.0669401920303577));
#336=CARTESIAN_POINT('',(0.00574343923116255,-9.49999999999979E-6,0.0668311371674308));
#337=CARTESIAN_POINT('',(0.00530682806550028,-9.49999999999979E-6,0.066600682773445));
#338=CARTESIAN_POINT('',(0.00507224734984571,-9.49999999999979E-6,0.0664771963955482));
#339=CARTESIAN_POINT('',(0.004602094695514,-9.49999999999979E-6,0.0661722710807821));
#340=CARTESIAN_POINT('',(0.00437714766751951,-9.49999999999979E-6,0.0660069047413154));
#341=CARTESIAN_POINT('',(0.00372912747021371,-9.49999999999979E-6,0.0654779769058553));
#342=CARTESIAN_POINT('',(0.00333300350884975,-9.49999999999979E-6,0.0650813764303033));
#343=CARTESIAN_POINT('',(0.00222497158550662,-9.49999999999979E-6,0.0638181746273984));
#344=CARTESIAN_POINT('',(0.0015971836740456,-9.49999999999979E-6,0.0628815397547359));
#345=CARTESIAN_POINT('',(0.000536646852734603,-9.49999999999979E-6,0.0613904243893601));
#346=CARTESIAN_POINT('',(0.000102795079017655,-9.49999999999979E-6,0.0608238919451819));
#347=CARTESIAN_POINT('',(-0.000767339801706768,-9.49999999999979E-6,0.0598465958377473));
#348=CARTESIAN_POINT('',(-0.00119477898529235,-9.49999999999979E-6,0.0594306231387843));
#349=CARTESIAN_POINT('',(-0.00198421512627052,-9.49999999999979E-6,0.0589310624156632));
#350=CARTESIAN_POINT('',(-0.00234045720568966,-9.49999999999979E-6,0.0587481963491914));
#351=CARTESIAN_POINT('',(-0.00316872373655334,-9.49999999999979E-6,0.0586612464360353));
#352=CARTESIAN_POINT('',(-0.00359290011889535,-9.49999999999979E-6,0.0587701599145575));
#353=CARTESIAN_POINT('',(-0.00473184629301366,-9.49999999999979E-6,0.0594456428776993));
#354=CARTESIAN_POINT('',(-0.00541987409149222,-9.49999999999979E-6,0.0603112588297596));
#355=CARTESIAN_POINT('',(-0.00636722321003378,-9.49999999999979E-6,0.0617694562232729));
#356=CARTESIAN_POINT('',(0.00610194127798446,-0.0018905,0.0670401967954415));
#357=CARTESIAN_POINT('',(0.00592568161967071,-0.0018905,0.0669401920303577));
#358=CARTESIAN_POINT('',(0.00574343923116255,-0.0018905,0.0668311371674307));
#359=CARTESIAN_POINT('',(0.00530682806550028,-0.0018905,0.066600682773445));
#360=CARTESIAN_POINT('',(0.0050722473498457,-0.0018905,0.0664771963955482));
#361=CARTESIAN_POINT('',(0.00460209469551399,-0.0018905,0.0661722710807821));
#362=CARTESIAN_POINT('',(0.00437714766751951,-0.0018905,0.0660069047413153));
#363=CARTESIAN_POINT('',(0.00372912747021371,-0.0018905,0.0654779769058554));
#364=CARTESIAN_POINT('',(0.00333300350884974,-0.0018905,0.0650813764303033));
#365=CARTESIAN_POINT('',(0.00222497158550662,-0.0018905,0.0638181746273985));
#366=CARTESIAN_POINT('',(0.00159718367404561,-0.0018905,0.0628815397547359));
#367=CARTESIAN_POINT('',(0.000536646852734604,-0.0018905,0.06139042438936));
#368=CARTESIAN_POINT('',(0.000102795079017655,-0.0018905,0.0608238919451818));
#369=CARTESIAN_POINT('',(-0.000767339801706768,-0.0018905,0.0598465958377473));
#370=CARTESIAN_POINT('',(-0.00119477898529235,-0.0018905,0.0594306231387843));
#371=CARTESIAN_POINT('',(-0.00198421512627052,-0.0018905,0.0589310624156632));
#372=CARTESIAN_POINT('',(-0.00234045720568966,-0.0018905,0.0587481963491914));
#373=CARTESIAN_POINT('',(-0.00316872373655334,-0.0018905,0.0586612464360352));
#374=CARTESIAN_POINT('',(-0.00359290011889535,-0.0018905,0.0587701599145575));
#375=CARTESIAN_POINT('',(-0.00473184629301366,-0.0018905,0.0594456428776993));
#376=CARTESIAN_POINT('',(-0.00541987409149221,-0.0018905,0.0603112588297596));
#377=CARTESIAN_POINT('',(-0.00636722321003379,-0.0018905,0.0617694562232728));
#378=CARTESIAN_POINT('',(0.00453235062560193,-0.0018905,0.0680767999986179));
#379=CARTESIAN_POINT('',(0.0043568098061068,-0.0018905,0.0679778838978103));
#380=CARTESIAN_POINT('',(0.00418724319348857,-0.0018905,0.0678880261956754));
#381=CARTESIAN_POINT('',(0.00371598317503952,-0.0018905,0.067605096939087));
#382=CARTESIAN_POINT('',(0.00342374058680335,-0.0018905,0.0673856358945757));
#383=CARTESIAN_POINT('',(0.00289197718158218,-0.0018905,0.066958613858662));
#384=CARTESIAN_POINT('',(0.00264181633211488,-0.0018905,0.0667349949927816));
#385=CARTESIAN_POINT('',(0.00193175055290042,-0.0018905,0.0660444698560471));
#386=CARTESIAN_POINT('',(0.00151213409531572,-0.0018905,0.0655581051697488));
#387=CARTESIAN_POINT('',(0.0003593931899867,-0.0018905,0.0640947195915075));
#388=CARTESIAN_POINT('',(-0.000271402831819183,-0.0018905,0.0631100402668743));
#389=CARTESIAN_POINT('',(-0.00131124599719906,-0.0018905,0.0617457985158831));
#390=CARTESIAN_POINT('',(-0.00173346481693138,-0.0018905,0.0612538728705847));
#391=CARTESIAN_POINT('',(-0.00252244124134827,-0.0018905,0.0605367790776459));
#392=CARTESIAN_POINT('',(-0.00289804275305357,-0.0018905,0.0603168198833575));
#393=CARTESIAN_POINT('',(-0.00330702904008325,-0.0018905,0.0602861109239973));
#394=CARTESIAN_POINT('',(-0.00337239402093303,-0.0018905,0.0603729394357825));
#395=CARTESIAN_POINT('',(-0.00343462124529508,-0.0018905,0.0605675471140392));
#396=CARTESIAN_POINT('',(-0.00347933143090253,-0.0018905,0.060662328759897));
#397=CARTESIAN_POINT('',(-0.00392634463613617,-0.0018905,0.0612090169340209));
#398=CARTESIAN_POINT('',(-0.00453468908619625,-0.0018905,0.0619729624039384));
#399=CARTESIAN_POINT('',(-0.00541179229762894,-0.0018905,0.0633897379184176));
#400=CARTESIAN_POINT('',(0.00453235062560194,-9.5E-6,0.0680767999986179));
#401=CARTESIAN_POINT('',(0.0043568098061068,-9.5E-6,0.0679778838978103));
#402=CARTESIAN_POINT('',(0.00418724319348857,-9.5E-6,0.0678880261956754));
#403=CARTESIAN_POINT('',(0.00371598317503952,-9.5E-6,0.0676050969390871));
#404=CARTESIAN_POINT('',(0.00342374058680336,-9.5E-6,0.0673856358945757));
#405=CARTESIAN_POINT('',(0.00289197718158218,-9.5E-6,0.066958613858662));
#406=CARTESIAN_POINT('',(0.00264181633211489,-9.5E-6,0.0667349949927816));
#407=CARTESIAN_POINT('',(0.00193175055290041,-9.5E-6,0.0660444698560471));
#408=CARTESIAN_POINT('',(0.00151213409531572,-9.5E-6,0.0655581051697488));
#409=CARTESIAN_POINT('',(0.000359393189986701,-9.5E-6,0.0640947195915075));
#410=CARTESIAN_POINT('',(-0.000271402831819183,-9.5E-6,0.0631100402668743));
#411=CARTESIAN_POINT('',(-0.00131124599719906,-9.5E-6,0.0617457985158831));
#412=CARTESIAN_POINT('',(-0.00173346481693138,-9.5E-6,0.0612538728705847));
#413=CARTESIAN_POINT('',(-0.00252244124134826,-9.5E-6,0.0605367790776459));
#414=CARTESIAN_POINT('',(-0.00289804275305358,-9.5E-6,0.0603168198833576));
#415=CARTESIAN_POINT('',(-0.00330702904008325,-9.5E-6,0.0602861109239973));
#416=CARTESIAN_POINT('',(-0.00337239402093303,-9.5E-6,0.0603729394357826));
#417=CARTESIAN_POINT('',(-0.00343462124529508,-9.5E-6,0.0605675471140392));
#418=CARTESIAN_POINT('',(-0.00347933143090254,-9.5E-6,0.060662328759897));
#419=CARTESIAN_POINT('',(-0.00392634463613618,-9.5E-6,0.061209016934021));
#420=CARTESIAN_POINT('',(-0.00453468908619626,-9.5E-6,0.0619729624039384));
#421=CARTESIAN_POINT('',(-0.00541179229762895,-9.5E-6,0.0633897379184177));
#422=CARTESIAN_POINT('',(-0.00588950775383136,-9.5E-6,0.0625795970708453));
#423=CARTESIAN_POINT('',(-0.00541179229762894,-9.5E-6,0.0633897379184177));
#424=CARTESIAN_POINT('',(-0.00588950775383136,-9.5E-6,0.0625795970708453));
#425=MECHANICAL_DESIGN_GEOMETRIC_PRESENTATION_REPRESENTATION('',(#53),#426);
#426=(
GEOMETRIC_REPRESENTATION_CONTEXT(3)
GLOBAL_UNCERTAINTY_ASSIGNED_CONTEXT((#427))
GLOBAL_UNIT_ASSIGNED_CONTEXT((#430,#429,#428))
REPRESENTATION_CONTEXT('Part 1','TOP_LEVEL_ASSEMBLY_PART')
);
#427=UNCERTAINTY_MEASURE_WITH_UNIT(LENGTH_MEASURE(2.E-5),#430,
'DISTANCE_ACCURACY_VALUE','Maximum Tolerance applied to model');
#428=(
NAMED_UNIT(*)
SI_UNIT($,.STERADIAN.)
SOLID_ANGLE_UNIT()
);
#429=(
NAMED_UNIT(*)
PLANE_ANGLE_UNIT()
SI_UNIT($,.RADIAN.)
);
#430=(
LENGTH_UNIT()
NAMED_UNIT(*)
SI_UNIT($,.METRE.)
);
#431=PRODUCT_DEFINITION_SHAPE('','',#432);
#432=PRODUCT_DEFINITION('','',#434,#433);
#433=PRODUCT_DEFINITION_CONTEXT('',#440,'design');
#434=PRODUCT_DEFINITION_FORMATION_WITH_SPECIFIED_SOURCE('','',#436,
 .NOT_KNOWN.);
#435=PRODUCT_RELATED_PRODUCT_CATEGORY('','',(#436));
#436=PRODUCT('Part 1','Part 1','Part 1',(#438));
#437=PRODUCT_CATEGORY('','');
#438=PRODUCT_CONTEXT('',#440,'mechanical');
#439=APPLICATION_PROTOCOL_DEFINITION('international standard',
'ap242_managed_model_based_3d_engineering',2020,#440);
#440=APPLICATION_CONTEXT('managed model based 3d engineering');
ENDSEC;
END-ISO-10303-21;
