ISO-10303-21;
HEADER;
/* Generated by software containing ST-Developer
 * from STEP Tools, Inc. (www.steptools.com) 
 */
/* OPTION: using custom renumber hook */

FILE_DESCRIPTION(
/* description */ ('STEP AP242 Edition 2',
'CAx-IF Rec.Pracs.---Representation and Presentation of Product Manufa
cturing Information (PMI)---4.0---2014-10-13',
'CAx-IF Rec.Pracs.---3D Tessellated Geometry---0.4---2014-09-14','2;1',
'CAx-IF Rec.Pracs.---User Defined Attributes---1.5---2016-08-15'),
/* implementation_level */ '2;1');

FILE_NAME(
/* name */ 'Coffee Table',
/* time_stamp */ '2026-09-04T21:59:18Z',
/* author */ (''),
/* organization */ (''),
/* preprocessor_version */ 'ST-DEVELOPER v20',
/* originating_system */ 'ONSHAPE BY PTC INC, 1.220',
/* authorisation */ '  ');

FILE_SCHEMA (('AP242_MANAGED_MODEL_BASED_3D_ENGINEERING_MIM_LF { 1 0 10303 442 3 1 4 }'));
ENDSEC;

DATA;
#10=SHAPE_REPRESENTATION_RELATIONSHIP('','',#179,#11);
#11=ADVANCED_BREP_SHAPE_REPRESENTATION('',(#177),#621);
#12=(
BOUNDED_SURFACE()
B_SPLINE_SURFACE(3,2,((#488,#489,#490),(#491,#492,#493),(#494,#495,#496),
(#497,#498,#499),(#500,#501,#502),(#503,#504,#505),(#506,#507,#508),(#509,
#510,#511),(#512,#513,#514),(#515,#516,#517),(#518,#519,#520)),
 .UNSPECIFIED.,.T.,.F.,.F.)
B_SPLINE_SURFACE_WITH_KNOTS((1,3,1,1,1,1,1,1,1,3,1),(3,3),(-0.000815988921650764,
0.,0.000815988921650764,0.00163197784330153,0.00244796676495229,0.00326395568660306,
0.00407994460825382,0.00489593352990458,0.00571192245155535,0.00652791137320611,
0.00734390029485687),(0.,1.),.UNSPECIFIED.)
GEOMETRIC_REPRESENTATION_ITEM()
RATIONAL_B_SPLINE_SURFACE(((1.,0.752144865998164,1.),(1.,0.763641105232213,
1.),(1.,0.775671712523641,1.),(1.,0.759011701118909,1.),(1.,0.709187116435518,
1.),(1.,0.653467425846972,1.),(1.,0.630936449394503,1.),(1.,0.651863441131236,
1.),(1.,0.706694277119352,1.),(1.,0.740648626764116,1.),(1.,0.752144865998164,
1.)))
REPRESENTATION_ITEM('')
SURFACE()
);
#13=(
BOUNDED_SURFACE()
B_SPLINE_SURFACE(3,2,((#521,#522,#523),(#524,#525,#526),(#527,#528,#529),
(#530,#531,#532),(#533,#534,#535),(#536,#537,#538),(#539,#540,#541),(#542,
#543,#544),(#545,#546,#547),(#548,#549,#550),(#551,#552,#553)),
 .UNSPECIFIED.,.T.,.F.,.F.)
B_SPLINE_SURFACE_WITH_KNOTS((1,3,1,1,1,1,1,1,1,3,1),(3,3),(-0.000815486922708799,
0.,0.000815486922708799,0.0016309738454176,0.0024464607681264,0.00326194769083519,
0.00407743461354399,0.00489292153625279,0.00570840845896159,0.00652389538167039,
0.00733938230437919),(0.,1.),.UNSPECIFIED.)
GEOMETRIC_REPRESENTATION_ITEM()
RATIONAL_B_SPLINE_SURFACE(((1.,0.760210148048247,1.),(1.,0.75156289893064,
1.),(1.,0.72272809851706,1.),(1.,0.664389409699395,1.),(1.,0.63230508260933,
1.),(1.,0.643251280400939,1.),(1.,0.692748647039442,1.),(1.,0.748457393542413,
1.),(1.,0.774611593222704,1.),(1.,0.768857397165855,1.),(1.,0.760210148048247,
1.)))
REPRESENTATION_ITEM('')
SURFACE()
);
#14=(
BOUNDED_SURFACE()
B_SPLINE_SURFACE(3,2,((#554,#555,#556),(#557,#558,#559),(#560,#561,#562),
(#563,#564,#565),(#566,#567,#568),(#569,#570,#571),(#572,#573,#574),(#575,
#576,#577),(#578,#579,#580),(#581,#582,#583),(#584,#585,#586)),
 .UNSPECIFIED.,.T.,.F.,.F.)
B_SPLINE_SURFACE_WITH_KNOTS((1,3,1,1,1,1,1,1,1,3,1),(3,3),(-0.00081610769841023,
0.,0.00081610769841023,0.00163221539682046,0.00244832309523069,0.00326443079364092,
0.00408053849205115,0.00489664619046138,0.00571275388887161,0.00652886158728184,
0.00734496928569207),(0.,1.),.UNSPECIFIED.)
GEOMETRIC_REPRESENTATION_ITEM()
RATIONAL_B_SPLINE_SURFACE(((1.,0.667614366173073,1.),(1.,0.652950010660066,
1.),(1.,0.632689792122742,1.),(1.,0.64498995333081,1.),(1.,0.694802262781663,
1.),(1.,0.749481017401613,1.),(1.,0.774314066190438,1.),(1.,0.76450699183581,
1.),(1.,0.720675925200787,1.),(1.,0.68227872168608,1.),(1.,0.667614366173073,
1.)))
REPRESENTATION_ITEM('')
SURFACE()
);
#15=(
BOUNDED_SURFACE()
B_SPLINE_SURFACE(3,2,((#587,#588,#589),(#590,#591,#592),(#593,#594,#595),
(#596,#597,#598),(#599,#600,#601),(#602,#603,#604),(#605,#606,#607),(#608,
#609,#610),(#611,#612,#613),(#614,#615,#616),(#617,#618,#619)),
 .UNSPECIFIED.,.T.,.F.,.F.)
B_SPLINE_SURFACE_WITH_KNOTS((1,3,1,1,1,1,1,1,1,3,1),(3,3),(-0.00081559885573809,
0.,0.00081559885573809,0.00163119771147618,0.00244679656721427,0.00326239542295236,
0.00407799427869045,0.00489359313442854,0.00570919199016663,0.00652479084590472,
0.00734038970164281),(0.,1.),.UNSPECIFIED.)
GEOMETRIC_REPRESENTATION_ITEM()
RATIONAL_B_SPLINE_SURFACE(((1.,0.656805769766108,1.),(1.,0.668986048466532,
1.),(1.,0.704816759403855,1.),(1.,0.755944429738187,1.),(1.,0.775053922718431,
1.),(1.,0.759591410606058,1.),(1.,0.710942187308146,1.),(1.,0.655368370750932,
1.),(1.,0.631735087201311,1.),(1.,0.644625491065684,1.),(1.,0.656805769766108,
1.)))
REPRESENTATION_ITEM('')
SURFACE()
);
#16=B_SPLINE_CURVE_WITH_KNOTS('',3,(#252,#253,#254,#255,#256,#257,#258,
#259,#260,#261,#262),.UNSPECIFIED.,.T.,.F.,(1,1,1,1,1,1,1,1,1,1,1,1,1,1,
1),(-0.00410301219789551,-0.00273534146526367,-0.00136767073263184,0.,0.00136767073263183,
0.00273534146526367,0.0041030121978955,0.00547068293052734,0.00683835366315917,
0.00820602439579101,0.00957369512842284,0.0109413658610547,0.0123090365936865,
0.0136767073263183,0.0150443780589502),.UNSPECIFIED.);
#17=B_SPLINE_CURVE_WITH_KNOTS('',3,(#264,#265,#266,#267,#268,#269,#270,
#271,#272,#273,#274),.UNSPECIFIED.,.T.,.F.,(1,1,1,1,1,1,1,1,1,1,1,1,1,1,
1),(-0.0041474576076917,-0.00276497173846113,-0.00138248586923057,0.,0.00138248586923057,
0.00276497173846113,0.0041474576076917,0.00552994347692226,0.00691242934615283,
0.0082949152153834,0.00967740108461396,0.0110598869538445,0.0124423728230751,
0.0138248586923057,0.0152073445615362),.UNSPECIFIED.);
#18=B_SPLINE_CURVE_WITH_KNOTS('',3,(#276,#277,#278,#279,#280,#281,#282,
#283,#284,#285,#286),.UNSPECIFIED.,.T.,.F.,(1,1,1,1,1,1,1,1,1,1,1,1,1,1,
1),(-0.00410301219789546,-0.00273534146526364,-0.00136767073263182,0.,0.00136767073263182,
0.00273534146526364,0.00410301219789546,0.00547068293052728,0.0068383536631591,
0.00820602439579092,0.00957369512842274,0.0109413658610546,0.0123090365936864,
0.0136767073263182,0.01504437805895),.UNSPECIFIED.);
#19=B_SPLINE_CURVE_WITH_KNOTS('',3,(#288,#289,#290,#291,#292,#293,#294,
#295,#296,#297,#298),.UNSPECIFIED.,.T.,.F.,(1,1,1,1,1,1,1,1,1,1,1,1,1,1,
1),(-0.00410301219789539,-0.00273534146526359,-0.0013676707326318,0.,0.0013676707326318,
0.00273534146526359,0.00410301219789539,0.00547068293052718,0.00683835366315898,
0.00820602439579077,0.00957369512842257,0.0109413658610544,0.0123090365936862,
0.013676707326318,0.0150443780589497),.UNSPECIFIED.);
#20=B_SPLINE_CURVE_WITH_KNOTS('',3,(#322,#323,#324,#325,#326,#327,#328,
#329,#330,#331,#332),.UNSPECIFIED.,.T.,.F.,(1,1,1,1,1,1,1,1,1,1,1,1,1,1,
1),(-0.00409734349348332,-0.00273156232898888,-0.00136578116449444,0.,0.00136578116449444,
0.00273156232898888,0.00409734349348332,0.00546312465797776,0.0068289058224722,
0.00819468698696663,0.00956046815146107,0.0109262493159555,0.01229203048045,
0.0136578116449444,0.0150235928094388),.UNSPECIFIED.);
#21=B_SPLINE_CURVE_WITH_KNOTS('',3,(#335,#336,#337,#338,#339,#340,#341,
#342,#343,#344,#345),.UNSPECIFIED.,.T.,.F.,(1,1,1,1,1,1,1,1,1,1,1,1,1,1,
1),(-0.00248108859546252,-0.00165405906364168,-0.00082702953182084,0.,0.00082702953182084,
0.00165405906364168,0.00248108859546252,0.00330811812728336,0.0041351476591042,
0.00496217719092504,0.00578920672274588,0.00661623625456672,0.00744326578638756,
0.0082702953182084,0.00909732485002923),.UNSPECIFIED.);
#22=B_SPLINE_CURVE_WITH_KNOTS('',3,(#369,#370,#371,#372,#373,#374,#375,
#376,#377,#378,#379),.UNSPECIFIED.,.T.,.F.,(1,1,1,1,1,1,1,1,1,1,1,1,1,1,
1),(-0.00410093405192325,-0.0027339560346155,-0.00136697801730775,0.,0.00136697801730775,
0.0027339560346155,0.00410093405192324,0.00546791206923099,0.00683489008653874,
0.00820186810384649,0.00956884612115424,0.010935824138462,0.0123028021557697,
0.0136697801730775,0.0150367581903852),.UNSPECIFIED.);
#23=B_SPLINE_CURVE_WITH_KNOTS('',3,(#382,#383,#384,#385,#386,#387,#388,
#389,#390,#391,#392),.UNSPECIFIED.,.T.,.F.,(1,1,1,1,1,1,1,1,1,1,1,1,1,1,
1),(-0.0024807928759905,-0.001653861917327,-0.0008269309586635,0.,0.000826930958663501,
0.001653861917327,0.0024807928759905,0.003307723834654,0.0041346547933175,
0.004961585751981,0.00578851671064451,0.00661544766930801,0.00744237862797151,
0.00826930958663501,0.00909624054529851),.UNSPECIFIED.);
#24=B_SPLINE_CURVE_WITH_KNOTS('',3,(#416,#417,#418,#419,#420,#421,#422,
#423,#424,#425,#426),.UNSPECIFIED.,.T.,.F.,(1,1,1,1,1,1,1,1,1,1,1,1,1,1,
1),(-0.00410249900232168,-0.00273499933488112,-0.00136749966744056,0.,0.00136749966744056,
0.00273499933488112,0.00410249900232168,0.00546999866976224,0.0068374983372028,
0.00820499800464336,0.00957249767208392,0.0109399973395245,0.012307497006965,
0.0136749966744056,0.0150424963418462),.UNSPECIFIED.);
#25=B_SPLINE_CURVE_WITH_KNOTS('',3,(#429,#430,#431,#432,#433,#434,#435,
#436,#437,#438,#439),.UNSPECIFIED.,.T.,.F.,(1,1,1,1,1,1,1,1,1,1,1,1,1,1,
1),(-0.00248025114627883,-0.00165350076418589,-0.000826750382092943,0.,
0.000826750382092943,0.00165350076418589,0.00248025114627883,0.00330700152837177,
0.00413375191046471,0.00496050229255766,0.0057872526746506,0.00661400305674354,
0.00744075343883649,0.00826750382092943,0.00909425420302237),
 .UNSPECIFIED.);
#26=B_SPLINE_CURVE_WITH_KNOTS('',3,(#463,#464,#465,#466,#467,#468,#469,
#470,#471,#472,#473),.UNSPECIFIED.,.T.,.F.,(1,1,1,1,1,1,1,1,1,1,1,1,1,1,
1),(-0.0040962454442312,-0.00273083029615413,-0.00136541514807707,0.,0.00136541514807707,
0.00273083029615413,0.0040962454442312,0.00546166059230827,0.00682707574038533,
0.0081924908884624,0.00955790603653947,0.0109233211846165,0.0122887363326936,
0.0136541514807707,0.0150195666288477),.UNSPECIFIED.);
#27=B_SPLINE_CURVE_WITH_KNOTS('',3,(#476,#477,#478,#479,#480,#481,#482,
#483,#484,#485,#486),.UNSPECIFIED.,.T.,.F.,(1,1,1,1,1,1,1,1,1,1,1,1,1,1,
1),(-0.00248102017060215,-0.0016540134470681,-0.000827006723534049,0.,0.000827006723534049,
0.0016540134470681,0.00248102017060215,0.00330802689413619,0.00413503361767024,
0.00496204034120429,0.00578904706473834,0.00661605378827239,0.00744306051180644,
0.00827006723534049,0.00909707395887454),.UNSPECIFIED.);
#28=PLANE('',#183);
#29=PLANE('',#184);
#30=PLANE('',#185);
#31=PLANE('',#186);
#32=PLANE('',#187);
#33=PLANE('',#188);
#34=ORIENTED_EDGE('',*,*,#62,.F.);
#35=ORIENTED_EDGE('',*,*,#63,.T.);
#36=ORIENTED_EDGE('',*,*,#62,.T.);
#37=ORIENTED_EDGE('',*,*,#64,.T.);
#38=ORIENTED_EDGE('',*,*,#65,.T.);
#39=ORIENTED_EDGE('',*,*,#66,.T.);
#40=ORIENTED_EDGE('',*,*,#67,.T.);
#41=ORIENTED_EDGE('',*,*,#63,.F.);
#42=ORIENTED_EDGE('',*,*,#68,.T.);
#43=ORIENTED_EDGE('',*,*,#67,.F.);
#44=ORIENTED_EDGE('',*,*,#69,.T.);
#45=ORIENTED_EDGE('',*,*,#70,.T.);
#46=ORIENTED_EDGE('',*,*,#66,.F.);
#47=ORIENTED_EDGE('',*,*,#71,.T.);
#48=ORIENTED_EDGE('',*,*,#72,.T.);
#49=ORIENTED_EDGE('',*,*,#65,.F.);
#50=ORIENTED_EDGE('',*,*,#73,.T.);
#51=ORIENTED_EDGE('',*,*,#74,.T.);
#52=ORIENTED_EDGE('',*,*,#64,.F.);
#53=ORIENTED_EDGE('',*,*,#75,.T.);
#54=ORIENTED_EDGE('',*,*,#72,.F.);
#55=ORIENTED_EDGE('',*,*,#73,.F.);
#56=ORIENTED_EDGE('',*,*,#74,.F.);
#57=ORIENTED_EDGE('',*,*,#75,.F.);
#58=ORIENTED_EDGE('',*,*,#70,.F.);
#59=ORIENTED_EDGE('',*,*,#71,.F.);
#60=ORIENTED_EDGE('',*,*,#68,.F.);
#61=ORIENTED_EDGE('',*,*,#69,.F.);
#62=EDGE_CURVE('',#76,#76,#90,.T.);
#63=EDGE_CURVE('',#77,#77,#91,.T.);
#64=EDGE_CURVE('',#78,#78,#16,.T.);
#65=EDGE_CURVE('',#79,#79,#17,.T.);
#66=EDGE_CURVE('',#80,#80,#18,.T.);
#67=EDGE_CURVE('',#81,#81,#19,.T.);
#68=EDGE_CURVE('',#82,#82,#20,.T.);
#69=EDGE_CURVE('',#83,#83,#21,.T.);
#70=EDGE_CURVE('',#84,#84,#22,.T.);
#71=EDGE_CURVE('',#85,#85,#23,.T.);
#72=EDGE_CURVE('',#86,#86,#24,.T.);
#73=EDGE_CURVE('',#87,#87,#25,.T.);
#74=EDGE_CURVE('',#88,#88,#26,.T.);
#75=EDGE_CURVE('',#89,#89,#27,.T.);
#76=VERTEX_POINT('',#247);
#77=VERTEX_POINT('',#249);
#78=VERTEX_POINT('',#263);
#79=VERTEX_POINT('',#275);
#80=VERTEX_POINT('',#287);
#81=VERTEX_POINT('',#299);
#82=VERTEX_POINT('',#333);
#83=VERTEX_POINT('',#346);
#84=VERTEX_POINT('',#380);
#85=VERTEX_POINT('',#393);
#86=VERTEX_POINT('',#427);
#87=VERTEX_POINT('',#440);
#88=VERTEX_POINT('',#474);
#89=VERTEX_POINT('',#487);
#90=ELLIPSE('',#181,0.0359640941023827,0.0215233433384348);
#91=ELLIPSE('',#182,0.0359640941023827,0.0215233433384348);
#92=EDGE_LOOP('',(#34));
#93=EDGE_LOOP('',(#35));
#94=EDGE_LOOP('',(#36));
#95=EDGE_LOOP('',(#37));
#96=EDGE_LOOP('',(#38));
#97=EDGE_LOOP('',(#39));
#98=EDGE_LOOP('',(#40));
#99=EDGE_LOOP('',(#41));
#100=EDGE_LOOP('',(#42));
#101=EDGE_LOOP('',(#43));
#102=EDGE_LOOP('',(#44));
#103=EDGE_LOOP('',(#45));
#104=EDGE_LOOP('',(#46));
#105=EDGE_LOOP('',(#47));
#106=EDGE_LOOP('',(#48));
#107=EDGE_LOOP('',(#49));
#108=EDGE_LOOP('',(#50));
#109=EDGE_LOOP('',(#51));
#110=EDGE_LOOP('',(#52));
#111=EDGE_LOOP('',(#53));
#112=EDGE_LOOP('',(#54));
#113=EDGE_LOOP('',(#55));
#114=EDGE_LOOP('',(#56));
#115=EDGE_LOOP('',(#57));
#116=EDGE_LOOP('',(#58));
#117=EDGE_LOOP('',(#59));
#118=EDGE_LOOP('',(#60));
#119=EDGE_LOOP('',(#61));
#120=FACE_BOUND('',#92,.T.);
#121=FACE_BOUND('',#93,.T.);
#122=FACE_BOUND('',#94,.T.);
#123=FACE_BOUND('',#95,.T.);
#124=FACE_BOUND('',#96,.T.);
#125=FACE_BOUND('',#97,.T.);
#126=FACE_BOUND('',#98,.T.);
#127=FACE_BOUND('',#99,.T.);
#128=FACE_BOUND('',#100,.T.);
#129=FACE_BOUND('',#101,.T.);
#130=FACE_BOUND('',#102,.T.);
#131=FACE_BOUND('',#103,.T.);
#132=FACE_BOUND('',#104,.T.);
#133=FACE_BOUND('',#105,.T.);
#134=FACE_BOUND('',#106,.T.);
#135=FACE_BOUND('',#107,.T.);
#136=FACE_BOUND('',#108,.T.);
#137=FACE_BOUND('',#109,.T.);
#138=FACE_BOUND('',#110,.T.);
#139=FACE_BOUND('',#111,.T.);
#140=FACE_BOUND('',#112,.T.);
#141=FACE_BOUND('',#113,.T.);
#142=FACE_BOUND('',#114,.T.);
#143=FACE_BOUND('',#115,.T.);
#144=FACE_BOUND('',#116,.T.);
#145=FACE_BOUND('',#117,.T.);
#146=FACE_BOUND('',#118,.T.);
#147=FACE_BOUND('',#119,.T.);
#148=B_SPLINE_SURFACE_WITH_KNOTS('',3,1,((#208,#209),(#210,#211),(#212,
#213),(#214,#215),(#216,#217),(#218,#219),(#220,#221),(#222,#223),(#224,
#225),(#226,#227),(#228,#229),(#230,#231),(#232,#233),(#234,#235),(#236,
#237),(#238,#239),(#240,#241),(#242,#243),(#244,#245)),
 .SURF_OF_LINEAR_EXTRUSION.,.T.,.F.,.F.,(1,1,1,1,1,1,1,1,1,1,1,1,1,1,1,
1,1,1,1,1,1,1,1),(2,2),(-1.17809724509617,-0.785398163397448,-0.392699081698725,
0.,0.392699081698724,0.785398163397448,1.17809724509617,1.5707963267949,
1.96349540849362,2.35619449019234,2.74889357189107,3.14159265358979,3.53429173528852,
3.92699081698724,4.31968989868597,4.71238898038469,5.10508806208341,5.49778714378214,
5.89048622548086,6.28318530717959,6.67588438887831,7.06858347057703,7.46128255227576),
(0.,1.),.UNSPECIFIED.);
#149=B_SPLINE_SURFACE_WITH_KNOTS('',3,1,((#300,#301),(#302,#303),(#304,
#305),(#306,#307),(#308,#309),(#310,#311),(#312,#313),(#314,#315),(#316,
#317),(#318,#319),(#320,#321)),.SURF_OF_LINEAR_EXTRUSION.,.T.,.F.,.F.,(1,
1,1,1,1,1,1,1,1,1,1,1,1,1,1),(2,2),(-0.375,-0.25,-0.125,0.,0.125,0.25,0.375,
0.5,0.625,0.75,0.875,1.,1.125,1.25,1.375),(0.,1.),.UNSPECIFIED.);
#150=B_SPLINE_SURFACE_WITH_KNOTS('',3,1,((#347,#348),(#349,#350),(#351,
#352),(#353,#354),(#355,#356),(#357,#358),(#359,#360),(#361,#362),(#363,
#364),(#365,#366),(#367,#368)),.SURF_OF_LINEAR_EXTRUSION.,.T.,.F.,.F.,(1,
1,1,1,1,1,1,1,1,1,1,1,1,1,1),(2,2),(-0.375,-0.25,-0.125,0.,0.125,0.25,0.375,
0.5,0.625,0.75,0.875,1.,1.125,1.25,1.375),(0.,1.),.UNSPECIFIED.);
#151=B_SPLINE_SURFACE_WITH_KNOTS('',3,1,((#394,#395),(#396,#397),(#398,
#399),(#400,#401),(#402,#403),(#404,#405),(#406,#407),(#408,#409),(#410,
#411),(#412,#413),(#414,#415)),.SURF_OF_LINEAR_EXTRUSION.,.T.,.F.,.F.,(1,
1,1,1,1,1,1,1,1,1,1,1,1,1,1),(2,2),(-0.375,-0.25,-0.125,0.,0.125,0.25,0.375,
0.5,0.625,0.75,0.875,1.,1.125,1.25,1.375),(0.,1.),.UNSPECIFIED.);
#152=B_SPLINE_SURFACE_WITH_KNOTS('',3,1,((#441,#442),(#443,#444),(#445,
#446),(#447,#448),(#449,#450),(#451,#452),(#453,#454),(#455,#456),(#457,
#458),(#459,#460),(#461,#462)),.SURF_OF_LINEAR_EXTRUSION.,.T.,.F.,.F.,(1,
1,1,1,1,1,1,1,1,1,1,1,1,1,1),(2,2),(-0.375,-0.25,-0.125,0.,0.125,0.25,0.375,
0.5,0.625,0.75,0.875,1.,1.125,1.25,1.375),(0.,1.),.UNSPECIFIED.);
#153=ADVANCED_FACE('',(#120,#121),#148,.F.);
#154=ADVANCED_FACE('',(#122),#28,.T.);
#155=ADVANCED_FACE('',(#123,#124,#125,#126,#127),#29,.F.);
#156=ADVANCED_FACE('',(#128,#129),#149,.T.);
#157=ADVANCED_FACE('',(#130),#30,.T.);
#158=ADVANCED_FACE('',(#131,#132),#150,.T.);
#159=ADVANCED_FACE('',(#133),#31,.T.);
#160=ADVANCED_FACE('',(#134,#135),#151,.T.);
#161=ADVANCED_FACE('',(#136),#32,.T.);
#162=ADVANCED_FACE('',(#137,#138),#152,.T.);
#163=ADVANCED_FACE('',(#139),#33,.T.);
#164=ADVANCED_FACE('',(#140,#141),#12,.T.);
#165=ADVANCED_FACE('',(#142,#143),#13,.T.);
#166=ADVANCED_FACE('',(#144,#145),#14,.T.);
#167=ADVANCED_FACE('',(#146,#147),#15,.T.);
#168=CLOSED_SHELL('',(#153,#154,#155,#156,#157,#158,#159,#160,#161,#162,
#163,#164,#165,#166,#167));
#169=STYLED_ITEM('',(#170),#177);
#170=PRESENTATION_STYLE_ASSIGNMENT((#171));
#171=SURFACE_STYLE_USAGE(.BOTH.,#172);
#172=SURFACE_SIDE_STYLE('',(#173));
#173=SURFACE_STYLE_FILL_AREA(#174);
#174=FILL_AREA_STYLE('',(#175));
#175=FILL_AREA_STYLE_COLOUR('',#176);
#176=COLOUR_RGB('',0.854901960784314,0.803921568627451,0.603921568627451);
#177=MANIFOLD_SOLID_BREP('Part 1',#168);
#178=SHAPE_DEFINITION_REPRESENTATION(#626,#179);
#179=SHAPE_REPRESENTATION('Part 1',(#180),#621);
#180=AXIS2_PLACEMENT_3D('',#207,#189,#190);
#181=AXIS2_PLACEMENT_3D('',#246,#191,#192);
#182=AXIS2_PLACEMENT_3D('',#248,#193,#194);
#183=AXIS2_PLACEMENT_3D('',#250,#195,#196);
#184=AXIS2_PLACEMENT_3D('',#251,#197,#198);
#185=AXIS2_PLACEMENT_3D('',#334,#199,#200);
#186=AXIS2_PLACEMENT_3D('',#381,#201,#202);
#187=AXIS2_PLACEMENT_3D('',#428,#203,#204);
#188=AXIS2_PLACEMENT_3D('',#475,#205,#206);
#189=DIRECTION('',(0.,0.,1.));
#190=DIRECTION('',(1.,0.,0.));
#191=DIRECTION('',(0.,0.,1.));
#192=DIRECTION('',(1.,0.,0.));
#193=DIRECTION('',(0.,0.,1.));
#194=DIRECTION('',(1.,0.,0.));
#195=DIRECTION('',(0.,0.,1.));
#196=DIRECTION('',(1.,0.,0.));
#197=DIRECTION('',(0.,0.,1.));
#198=DIRECTION('',(1.,0.,0.));
#199=DIRECTION('',(0.,0.,-1.));
#200=DIRECTION('',(1.,0.,0.));
#201=DIRECTION('',(0.,0.,-1.));
#202=DIRECTION('',(1.,0.,0.));
#203=DIRECTION('',(0.,0.,-1.));
#204=DIRECTION('',(1.,0.,0.));
#205=DIRECTION('',(0.,0.,-1.));
#206=DIRECTION('',(1.,0.,0.));
#207=CARTESIAN_POINT('',(0.,0.,0.));
#208=CARTESIAN_POINT('',(0.0340915110322244,-0.00845105977842753,0.0025));
#209=CARTESIAN_POINT('',(0.0340915110322244,-0.00845105977842753,8.67361737988404E-19));
#210=CARTESIAN_POINT('',(0.0369003856374618,1.73472347597681E-18,0.0025));
#211=CARTESIAN_POINT('',(0.0369003856374618,1.73472347597681E-18,0.));
#212=CARTESIAN_POINT('',(0.0340915110322244,0.00845105977842751,0.0025));
#213=CARTESIAN_POINT('',(0.0340915110322244,0.00845105977842751,0.));
#214=CARTESIAN_POINT('',(0.0260925129126479,0.0156155223146371,0.0025));
#215=CARTESIAN_POINT('',(0.0260925129126479,0.0156155223146371,0.));
#216=CARTESIAN_POINT('',(0.0141211662313393,0.0204026631335055,0.0025));
#217=CARTESIAN_POINT('',(0.0141211662313393,0.0204026631335055,4.33680868994202E-19));
#218=CARTESIAN_POINT('',(1.22650370762423E-17,0.0220836834408995,0.0025));
#219=CARTESIAN_POINT('',(1.22650370762423E-17,0.0220836834408995,0.));
#220=CARTESIAN_POINT('',(-0.0141211662313393,0.0204026631335055,0.0025));
#221=CARTESIAN_POINT('',(-0.0141211662313393,0.0204026631335055,4.33680868994202E-19));
#222=CARTESIAN_POINT('',(-0.026092512912648,0.0156155223146371,0.0025));
#223=CARTESIAN_POINT('',(-0.026092512912648,0.0156155223146371,0.));
#224=CARTESIAN_POINT('',(-0.0340915110322244,0.00845105977842757,0.0025));
#225=CARTESIAN_POINT('',(-0.0340915110322244,0.00845105977842757,4.33680868994202E-19));
#226=CARTESIAN_POINT('',(-0.0369003856374618,-2.58907134682404E-17,0.0025));
#227=CARTESIAN_POINT('',(-0.0369003856374618,-2.58907134682404E-17,4.33680868994202E-19));
#228=CARTESIAN_POINT('',(-0.0340915110322245,-0.00845105977842745,0.0025));
#229=CARTESIAN_POINT('',(-0.0340915110322245,-0.00845105977842745,0.));
#230=CARTESIAN_POINT('',(-0.0260925129126478,-0.0156155223146371,0.0025));
#231=CARTESIAN_POINT('',(-0.0260925129126478,-0.0156155223146371,0.));
#232=CARTESIAN_POINT('',(-0.0141211662313394,-0.0204026631335054,0.0025));
#233=CARTESIAN_POINT('',(-0.0141211662313394,-0.0204026631335054,4.33680868994202E-19));
#234=CARTESIAN_POINT('',(1.39157348838514E-16,-0.0220836834408995,0.0025));
#235=CARTESIAN_POINT('',(1.39157348838514E-16,-0.0220836834408995,0.));
#236=CARTESIAN_POINT('',(0.0141211662313392,-0.0204026631335055,0.0025));
#237=CARTESIAN_POINT('',(0.0141211662313392,-0.0204026631335055,1.30104260698261E-18));
#238=CARTESIAN_POINT('',(0.0260925129126478,-0.0156155223146371,0.0025));
#239=CARTESIAN_POINT('',(0.0260925129126478,-0.0156155223146371,-4.33680868994202E-19));
#240=CARTESIAN_POINT('',(0.0340915110322244,-0.00845105977842753,0.0025));
#241=CARTESIAN_POINT('',(0.0340915110322244,-0.00845105977842753,8.67361737988404E-19));
#242=CARTESIAN_POINT('',(0.0369003856374618,1.73472347597681E-18,0.0025));
#243=CARTESIAN_POINT('',(0.0369003856374618,1.73472347597681E-18,0.));
#244=CARTESIAN_POINT('',(0.0340915110322244,0.00845105977842751,0.0025));
#245=CARTESIAN_POINT('',(0.0340915110322244,0.00845105977842751,0.));
#246=CARTESIAN_POINT('',(0.,0.,0.0025));
#247=CARTESIAN_POINT('',(0.0359640941023827,0.,0.0025));
#248=CARTESIAN_POINT('',(0.,0.,0.));
#249=CARTESIAN_POINT('',(0.0359640941023827,0.,0.));
#250=CARTESIAN_POINT('',(0.,0.,0.0025));
#251=CARTESIAN_POINT('',(0.,0.,0.));
#252=CARTESIAN_POINT('',(0.0206297489569087,0.011372879081833,-6.00627745507427E-20));
#253=CARTESIAN_POINT('',(0.0200602364447786,0.00999964722375012,-3.57650394853068E-22));
#254=CARTESIAN_POINT('',(0.020629305263977,0.00862853202316658,6.14933761301549E-20));
#255=CARTESIAN_POINT('',(0.021998587582382,0.00806093725538458,-3.73876158534764E-20));
#256=CARTESIAN_POINT('',(0.0233707690984488,0.00862772043548851,-3.39156485235707E-20));
#257=CARTESIAN_POINT('',(0.0239391452154195,0.00999974974553078,-3.52145484619337E-20));
#258=CARTESIAN_POINT('',(0.0233726493838889,0.0113695690230203,5.27579828160054E-20));
#259=CARTESIAN_POINT('',(0.0220020802180329,0.011939386605911,3.23193760899082E-20));
#260=CARTESIAN_POINT('',(0.0206297489569087,0.011372879081833,-6.00627745507427E-20));
#261=CARTESIAN_POINT('',(0.0200602364447786,0.00999964722375012,-3.57650394853068E-22));
#262=CARTESIAN_POINT('',(0.020629305263977,0.00862853202316658,6.14933761301549E-20));
#263=CARTESIAN_POINT('',(0.02025,0.01,0.));
#264=CARTESIAN_POINT('',(0.0206297978556069,-0.0086275931573464,-4.07688413023692E-20));
#265=CARTESIAN_POINT('',(0.02006018447385,-0.00999993966818929,-8.4382183320414E-21));
#266=CARTESIAN_POINT('',(0.020629464248993,-0.0113726481698964,7.45217146305349E-20));
#267=CARTESIAN_POINT('',(0.0220025589962322,-0.0119393068534247,-8.13675264659211E-20));
#268=CARTESIAN_POINT('',(0.0233717787477892,-0.0113701181417829,1.28975683272952E-19));
#269=CARTESIAN_POINT('',(0.0239394444142923,-0.0100003418570109,-1.81987547614168E-20));
#270=CARTESIAN_POINT('',(0.0233704435528,-0.0086275725810528,6.58030211222917E-20));
#271=CARTESIAN_POINT('',(0.0219998628403828,-0.00806120856652389,-3.67517310496087E-20));
#272=CARTESIAN_POINT('',(0.0206297978556069,-0.0086275931573464,-4.07688413023692E-20));
#273=CARTESIAN_POINT('',(0.02006018447385,-0.00999993966818929,-8.4382183320414E-21));
#274=CARTESIAN_POINT('',(0.020629464248993,-0.0113726481698964,7.45217146305349E-20));
#275=CARTESIAN_POINT('',(0.02025,-0.01,0.));
#276=CARTESIAN_POINT('',(-0.0233702510430914,0.0113728790818329,3.85585646975711E-20));
#277=CARTESIAN_POINT('',(-0.0239397635552214,0.00999964722375012,1.53606394626909E-20));
#278=CARTESIAN_POINT('',(-0.023370694736023,0.00862853202316657,-1.00001122548335E-19));
#279=CARTESIAN_POINT('',(-0.022001412417618,0.00806093725538458,-3.18126258139329E-20));
#280=CARTESIAN_POINT('',(-0.0206292309015512,0.00862772043548851,2.27251625804066E-19));
#281=CARTESIAN_POINT('',(-0.0200608547845805,0.0099997497455308,-4.41348437635607E-20));
#282=CARTESIAN_POINT('',(-0.0206273506161112,0.0113695690230203,-5.07122507498234E-20));
#283=CARTESIAN_POINT('',(-0.0219979197819671,0.011939386605911,2.46983846762854E-19));
#284=CARTESIAN_POINT('',(-0.0233702510430914,0.0113728790818329,3.85585646975711E-20));
#285=CARTESIAN_POINT('',(-0.0239397635552214,0.00999964722375012,1.53606394626909E-20));
#286=CARTESIAN_POINT('',(-0.023370694736023,0.00862853202316657,-1.00001122548335E-19));
#287=CARTESIAN_POINT('',(-0.02375,0.01,0.));
#288=CARTESIAN_POINT('',(-0.0233702510430914,-0.00862712091816704,1.18208239219215E-19));
#289=CARTESIAN_POINT('',(-0.0239397635552214,-0.0100003527762499,-2.63237078814216E-20));
#290=CARTESIAN_POINT('',(-0.023370694736023,-0.0113714679768334,-1.2913407693529E-20));
#291=CARTESIAN_POINT('',(-0.022001412417618,-0.0119390627446154,-3.38479137889041E-19));
#292=CARTESIAN_POINT('',(-0.0206292309015512,-0.0113722795645115,3.91048072791122E-19));
#293=CARTESIAN_POINT('',(-0.0200608547845805,-0.0100002502544692,2.38753971827135E-20));
#294=CARTESIAN_POINT('',(-0.0206273506161112,-0.00863043097697972,1.5137766992241E-21));
#295=CARTESIAN_POINT('',(-0.0219979197819671,-0.00806061339408897,-2.99305039796099E-20));
#296=CARTESIAN_POINT('',(-0.0233702510430914,-0.00862712091816704,1.18208239219215E-19));
#297=CARTESIAN_POINT('',(-0.0239397635552214,-0.0100003527762499,-2.63237078814216E-20));
#298=CARTESIAN_POINT('',(-0.023370694736023,-0.0113714679768334,-1.2913407693529E-20));
#299=CARTESIAN_POINT('',(-0.02375,-0.01,0.));
#300=CARTESIAN_POINT('',(-0.0232723097205616,-0.0112645804754361,0.00075459190375176));
#301=CARTESIAN_POINT('',(-0.0252681458616705,-0.0132260639717019,-0.0142141790919288));
#302=CARTESIAN_POINT('',(-0.0238523318427392,-0.00991834508774086,0.000655519683233673));
#303=CARTESIAN_POINT('',(-0.0258481679838481,-0.0118798285840066,-0.0143132513124469));
#304=CARTESIAN_POINT('',(-0.0233139318907403,-0.00856629050169043,0.000406561980544906));
#305=CARTESIAN_POINT('',(-0.0253097680318492,-0.0105277739979562,-0.0145622090151357));
#306=CARTESIAN_POINT('',(-0.0219591000777891,-0.00804014666019123,0.000156972701621949));
#307=CARTESIAN_POINT('',(-0.023954936218898,-0.010001630156457,-0.0148117982940586));
#308=CARTESIAN_POINT('',(-0.0206181286616003,-0.00863064396842638,5.55543224932335E-5));
#309=CARTESIAN_POINT('',(-0.0226139648027092,-0.0105921274646922,-0.0149132166731873));
#310=CARTESIAN_POINT('',(-0.0200406576312548,-0.00997475812168869,0.000154688725467428));
#311=CARTESIAN_POINT('',(-0.0220364937723637,-0.0119362416179545,-0.0148140822702131));
#312=CARTESIAN_POINT('',(-0.0205755974720898,-0.011325556344854,0.000403020448242407));
#313=CARTESIAN_POINT('',(-0.0225714336131987,-0.0132870398411198,-0.0145657505474382));
#314=CARTESIAN_POINT('',(-0.0219330740816921,-0.0118538607404594,0.000653245482229485));
#315=CARTESIAN_POINT('',(-0.023928910222801,-0.0138153442367252,-0.0143155255134511));
#316=CARTESIAN_POINT('',(-0.0232723097205616,-0.0112645804754361,0.00075459190375176));
#317=CARTESIAN_POINT('',(-0.0252681458616705,-0.0132260639717019,-0.0142141790919288));
#318=CARTESIAN_POINT('',(-0.0238523318427392,-0.00991834508774086,0.000655519683233673));
#319=CARTESIAN_POINT('',(-0.0258481679838481,-0.0118798285840066,-0.0143132513124469));
#320=CARTESIAN_POINT('',(-0.0233139318907403,-0.00856629050169043,0.000406561980544906));
#321=CARTESIAN_POINT('',(-0.0253097680318492,-0.0105277739979562,-0.0145622090151357));
#322=CARTESIAN_POINT('',(-0.0254024575491184,-0.010636044117547,-0.0142691912435713));
#323=CARTESIAN_POINT('',(-0.0258190416657499,-0.0120524216546804,-0.0141724753782634));
#324=CARTESIAN_POINT('',(-0.0251165715811351,-0.0133482574974439,-0.0141437904093902));
#325=CARTESIAN_POINT('',(-0.0237137293910477,-0.0137913708869918,-0.0141930491416305));
#326=CARTESIAN_POINT('',(-0.0224054936222078,-0.0131065527128533,-0.0143003901414606));
#327=CARTESIAN_POINT('',(-0.0219906356260611,-0.0116904951660314,-0.0143969934849573));
#328=CARTESIAN_POINT('',(-0.022692808391525,-0.0103951602367847,-0.0144256703554995));
#329=CARTESIAN_POINT('',(-0.0240964385020607,-0.0099527209354222,-0.0143763331405881));
#330=CARTESIAN_POINT('',(-0.0254024575491184,-0.010636044117547,-0.0142691912435713));
#331=CARTESIAN_POINT('',(-0.0258190416657499,-0.0120524216546804,-0.0141724753782634));
#332=CARTESIAN_POINT('',(-0.0251165715811351,-0.0133482574974439,-0.0141437904093902));
#333=CARTESIAN_POINT('',(-0.0256325529025164,-0.0120323333944306,-0.0141838108933162));
#334=CARTESIAN_POINT('',(-0.00199796347162709,-0.00196357421083728,-0.0149847259745002));
#335=CARTESIAN_POINT('',(-0.0246386884948288,-0.0127550110483198,-0.0149847259745));
#336=CARTESIAN_POINT('',(-0.0250553910987545,-0.0119752899787502,-0.0149847259745002));
#337=CARTESIAN_POINT('',(-0.0247993400293908,-0.0111252743017031,-0.0149847259745002));
#338=CARTESIAN_POINT('',(-0.024011423462515,-0.0107185952681985,-0.0149847259745002));
#339=CARTESIAN_POINT('',(-0.0231705507059357,-0.0109885689924543,-0.0149847259745002));
#340=CARTESIAN_POINT('',(-0.02275414673216,-0.0117679179814844,-0.0149847259745002));
#341=CARTESIAN_POINT('',(-0.023009100868108,-0.01261778352594,-0.0149847259745002));
#342=CARTESIAN_POINT('',(-0.0237985055429945,-0.013025325130788,-0.0149847259745002));
#343=CARTESIAN_POINT('',(-0.0246386884948288,-0.0127550110483198,-0.0149847259745));
#344=CARTESIAN_POINT('',(-0.0250553910987545,-0.0119752899787502,-0.0149847259745002));
#345=CARTESIAN_POINT('',(-0.0247993400293908,-0.0111252743017031,-0.0149847259745002));
#346=CARTESIAN_POINT('',(-0.0249432654865396,-0.0119635742108373,-0.0149847259745002));
#347=CARTESIAN_POINT('',(-0.0252679638258712,0.0132258850691313,-0.0142128138234398));
#348=CARTESIAN_POINT('',(-0.023272305366158,0.0112645761959811,0.000754624561778936));
#349=CARTESIAN_POINT('',(-0.0258479859480487,0.0118796496814361,-0.0143118860439579));
#350=CARTESIAN_POINT('',(-0.0238523274883355,0.00991834080828589,0.000655552341260864));
#351=CARTESIAN_POINT('',(-0.0253095859960499,0.0105275950953857,-0.0145608437466466));
#352=CARTESIAN_POINT('',(-0.0233139275363367,0.00856628622223551,0.000406594638572112));
#353=CARTESIAN_POINT('',(-0.0239547541830988,0.0100014512538865,-0.0148104330255696));
#354=CARTESIAN_POINT('',(-0.0219590957233855,0.00804014238073626,0.000157005359649132));
#355=CARTESIAN_POINT('',(-0.0226137827669099,0.0105919485621216,-0.0149118514046984));
#356=CARTESIAN_POINT('',(-0.0206181243071966,0.00863063968897142,5.55869805203973E-5));
#357=CARTESIAN_POINT('',(-0.0220363117365644,0.011936062715384,-0.0148127170017241));
#358=CARTESIAN_POINT('',(-0.0200406532768511,0.00997475384223382,0.000154721383494637));
#359=CARTESIAN_POINT('',(-0.0225712515773996,0.0132868609385494,-0.0145643852789491));
#360=CARTESIAN_POINT('',(-0.0205755931176863,0.0113255520653992,0.000403053106269622));
#361=CARTESIAN_POINT('',(-0.0239287281870018,0.0138151653341546,-0.0143141602449621));
#362=CARTESIAN_POINT('',(-0.0219330697272886,0.0118538564610044,0.000653278140256688));
#363=CARTESIAN_POINT('',(-0.0252679638258712,0.0132258850691313,-0.0142128138234398));
#364=CARTESIAN_POINT('',(-0.023272305366158,0.0112645761959811,0.000754624561778936));
#365=CARTESIAN_POINT('',(-0.0258479859480487,0.0118796496814361,-0.0143118860439579));
#366=CARTESIAN_POINT('',(-0.0238523274883355,0.00991834080828589,0.000655552341260864));
#367=CARTESIAN_POINT('',(-0.0253095859960499,0.0105275950953857,-0.0145608437466466));
#368=CARTESIAN_POINT('',(-0.0233139275363367,0.00856628622223551,0.000406594638572112));
#369=CARTESIAN_POINT('',(-0.0251163663667856,0.0133486909322474,-0.0141437783277936));
#370=CARTESIAN_POINT('',(-0.0258192222642501,0.0120524241999131,-0.0141724654997407));
#371=CARTESIAN_POINT('',(-0.0254019403694667,0.0106356005018128,-0.0142692428392586));
#372=CARTESIAN_POINT('',(-0.0240965717864359,0.0099523539529769,-0.0143763451322301));
#373=CARTESIAN_POINT('',(-0.0226910667876629,0.0103969206431958,-0.0144256700594847));
#374=CARTESIAN_POINT('',(-0.021990558564968,0.0116895278816669,-0.014397049507339));
#375=CARTESIAN_POINT('',(-0.0224074820986176,0.0131092356406972,-0.0143001399998248));
#376=CARTESIAN_POINT('',(-0.0237132171240556,0.0137905859855903,-0.0141931185194861));
#377=CARTESIAN_POINT('',(-0.0251163663667856,0.0133486909322474,-0.0141437783277936));
#378=CARTESIAN_POINT('',(-0.0258192222642501,0.0120524241999131,-0.0141724654997407));
#379=CARTESIAN_POINT('',(-0.0254019403694667,0.0106356005018128,-0.0142692428392586));
#380=CARTESIAN_POINT('',(-0.0256325529025164,0.0120323333944306,-0.0141838108933162));
#381=CARTESIAN_POINT('',(-0.00199796347162709,0.00196357421083728,-0.0149847259745002));
#382=CARTESIAN_POINT('',(-0.0247991037857956,0.0111250389440903,-0.0149847259745002));
#383=CARTESIAN_POINT('',(-0.0250554558441825,0.0119752965442088,-0.0149847259745002));
#384=CARTESIAN_POINT('',(-0.0246386657567118,0.0127552201440981,-0.0149847259745001));
#385=CARTESIAN_POINT('',(-0.0237980635706657,0.0130248730688632,-0.0149847259745002));
#386=CARTESIAN_POINT('',(-0.0230103042234382,0.0126193342936306,-0.0149847259745002));
#387=CARTESIAN_POINT('',(-0.0227540895176831,0.0117673617414266,-0.0149847259745002));
#388=CARTESIAN_POINT('',(-0.0231695354000595,0.0109896506310307,-0.0149847259745002));
#389=CARTESIAN_POINT('',(-0.0240113229162029,0.0107183495881939,-0.0149847259745002));
#390=CARTESIAN_POINT('',(-0.0247991037857956,0.0111250389440903,-0.0149847259745002));
#391=CARTESIAN_POINT('',(-0.0250554558441825,0.0119752965442088,-0.0149847259745002));
#392=CARTESIAN_POINT('',(-0.0246386657567118,0.0127552201440981,-0.0149847259745001));
#393=CARTESIAN_POINT('',(-0.0249432654865396,0.0119635742108373,-0.0149847259745002));
#394=CARTESIAN_POINT('',(0.0225987647901159,-0.0106119972934036,-0.014786691161604));
#395=CARTESIAN_POINT('',(0.0206199611040077,-0.00862928398881039,5.43364221061316E-5));
#396=CARTESIAN_POINT('',(0.0220180902653511,-0.0119574495652651,-0.0146843663581822));
#397=CARTESIAN_POINT('',(0.0200392865792429,-0.00997473626067187,0.000156661225527975));
#398=CARTESIAN_POINT('',(0.0225563684916118,-0.0133088693684422,-0.0144320506111084));
#399=CARTESIAN_POINT('',(0.0205775648055036,-0.011326156063849,0.000408976972601751));
#400=CARTESIAN_POINT('',(0.0239112269225541,-0.0138337671415333,-0.0141812781740537));
#401=CARTESIAN_POINT('',(0.0219324232364458,-0.0118510538369401,0.000659749409656433));
#402=CARTESIAN_POINT('',(0.0252518740786436,-0.0132432911787175,-0.0140814108988019));
#403=CARTESIAN_POINT('',(0.0232730703925354,-0.0112605778741243,0.000759616684908294));
#404=CARTESIAN_POINT('',(0.0258299736844176,-0.011899976442422,-0.0141837934569162));
#405=CARTESIAN_POINT('',(0.0238511699983094,-0.0099172631378288,0.000657234126793953));
#406=CARTESIAN_POINT('',(0.0252951723752734,-0.0105498075766563,-0.0144354784938453));
#407=CARTESIAN_POINT('',(0.0233163686891652,-0.00856709427206311,0.000405549089864898));
#408=CARTESIAN_POINT('',(0.0239376406725725,-0.0100227529980098,-0.0146868955093852));
#409=CARTESIAN_POINT('',(0.0219588369864642,-0.00804003969341657,0.000154132074324938));
#410=CARTESIAN_POINT('',(0.0225987647901159,-0.0106119972934036,-0.014786691161604));
#411=CARTESIAN_POINT('',(0.0206199611040077,-0.00862928398881039,5.43364221061316E-5));
#412=CARTESIAN_POINT('',(0.0220180902653511,-0.0119574495652651,-0.0146843663581822));
#413=CARTESIAN_POINT('',(0.0200392865792429,-0.00997473626067187,0.000156661225527975));
#414=CARTESIAN_POINT('',(0.0225563684916118,-0.0133088693684422,-0.0144320506111084));
#415=CARTESIAN_POINT('',(0.0205775648055036,-0.011326156063849,0.000408976972601751));
#416=CARTESIAN_POINT('',(0.0224332197846189,-0.0106530834714196,-0.0142972117532482));
#417=CARTESIAN_POINT('',(0.0219651120932367,-0.0120519115000099,-0.0142498078421632));
#418=CARTESIAN_POINT('',(0.0226300252122741,-0.0133710037780656,-0.0141422735548953));
#419=CARTESIAN_POINT('',(0.024036510148771,-0.0138077608949336,-0.0140434811806845));
#420=CARTESIAN_POINT('',(0.0253429351655654,-0.0131273986041179,-0.0140120920316195));
#421=CARTESIAN_POINT('',(0.0258090311102468,-0.0117291565158317,-0.0140595714865827));
#422=CARTESIAN_POINT('',(0.0251442913670732,-0.0104108251507021,-0.014167057362331));
#423=CARTESIAN_POINT('',(0.02373792487249,-0.00997469155835582,-0.014265809422107));
#424=CARTESIAN_POINT('',(0.0224332197846189,-0.0106530834714196,-0.0142972117532482));
#425=CARTESIAN_POINT('',(0.0219651120932367,-0.0120519115000099,-0.0142498078421632));
#426=CARTESIAN_POINT('',(0.0226300252122741,-0.0133710037780656,-0.0141422735548953));
#427=CARTESIAN_POINT('',(0.0221539302354221,-0.0120386236634686,-0.0142397884063276));
#428=CARTESIAN_POINT('',(0.00198062038257003,-0.00198453359039035,-0.0148546528071165));
#429=CARTESIAN_POINT('',(0.0231383759017619,-0.012783837484392,-0.0148546528071165));
#430=CARTESIAN_POINT('',(0.0227332133421777,-0.0119928847607279,-0.0148546528071165));
#431=CARTESIAN_POINT('',(0.0230086357392925,-0.0111518250150385,-0.0148546528071165));
#432=CARTESIAN_POINT('',(0.0237889178538992,-0.0107405156457185,-0.0148546528071165));
#433=CARTESIAN_POINT('',(0.0246359712327084,-0.010998060546247,-0.0148546528071165));
#434=CARTESIAN_POINT('',(0.0250411292340384,-0.0117885742467832,-0.0148546528071165));
#435=CARTESIAN_POINT('',(0.0247668281897627,-0.0126292718964456,-0.0148546528071165));
#436=CARTESIAN_POINT('',(0.0239857596902172,-0.013041757404193,-0.0148546528071165));
#437=CARTESIAN_POINT('',(0.0231383759017619,-0.012783837484392,-0.0148546528071165));
#438=CARTESIAN_POINT('',(0.0227332133421777,-0.0119928847607279,-0.0148546528071165));
#439=CARTESIAN_POINT('',(0.0230086357392925,-0.0111518250150385,-0.0148546528071165));
#440=CARTESIAN_POINT('',(0.0228466441682942,-0.0119845335903903,-0.0148546528071165));
#441=CARTESIAN_POINT('',(0.0206199591863565,0.00862928206737045,5.4350804489922E-5));
#442=CARTESIAN_POINT('',(0.0225985889498909,0.0106118211057625,-0.0147853723599221));
#443=CARTESIAN_POINT('',(0.0200392846615917,0.00997473433923188,0.000156675607911761));
#444=CARTESIAN_POINT('',(0.0220179144251261,0.011957273377624,-0.0146830475565002));
#445=CARTESIAN_POINT('',(0.0205775628878524,0.011326154142409,0.000408991354985533));
#446=CARTESIAN_POINT('',(0.0225561926513868,0.0133086931808011,-0.0144307318094265));
#447=CARTESIAN_POINT('',(0.0219324213187948,0.0118510519155001,0.00065976379204023));
#448=CARTESIAN_POINT('',(0.0239110510823292,0.0138335909538922,-0.0141799593723718));
#449=CARTESIAN_POINT('',(0.0232730684748843,0.0112605759526842,0.000759631067292076));
#450=CARTESIAN_POINT('',(0.0252516982384188,0.0132431149910763,-0.0140800920971199));
#451=CARTESIAN_POINT('',(0.0238511680806582,0.00991726121638872,0.000657248509177716));
#452=CARTESIAN_POINT('',(0.0258297978441926,0.0118998002547808,-0.0141824746552343));
#453=CARTESIAN_POINT('',(0.023316366771514,0.00856709235062314,0.000405563472248687));
#454=CARTESIAN_POINT('',(0.0252949965350484,0.0105496313890152,-0.0144341596921633));
#455=CARTESIAN_POINT('',(0.0219588350688131,0.00804003777197658,0.000154146456708712));
#456=CARTESIAN_POINT('',(0.0239374648323475,0.0100225768103687,-0.0146855767077033));
#457=CARTESIAN_POINT('',(0.0206199591863565,0.00862928206737045,5.4350804489922E-5));
#458=CARTESIAN_POINT('',(0.0225985889498909,0.0106118211057625,-0.0147853723599221));
#459=CARTESIAN_POINT('',(0.0200392846615917,0.00997473433923188,0.000156675607911761));
#460=CARTESIAN_POINT('',(0.0220179144251261,0.011957273377624,-0.0146830475565002));
#461=CARTESIAN_POINT('',(0.0205775628878524,0.011326154142409,0.000408991354985533));
#462=CARTESIAN_POINT('',(0.0225561926513868,0.0133086931808011,-0.0144307318094265));
#463=CARTESIAN_POINT('',(0.0226294783092154,0.0133707513322373,-0.0141423170174176));
#464=CARTESIAN_POINT('',(0.0219652922399551,0.0120518054477715,-0.0142498036639924));
#465=CARTESIAN_POINT('',(0.0224330461008044,0.0106537601262013,-0.014297185003409));
#466=CARTESIAN_POINT('',(0.0237367641593497,0.00997405281742282,-0.0142659056973982));
#467=CARTESIAN_POINT('',(0.0251466825575591,0.0104129231735053,-0.0141668146415037));
#468=CARTESIAN_POINT('',(0.0258087836715262,0.011728311694624,-0.0140596305666453));
#469=CARTESIAN_POINT('',(0.0253415783578872,0.0131293029698622,-0.0140120630488118));
#470=CARTESIAN_POINT('',(0.0240367383402988,0.0138073703350088,-0.0140434893730354));
#471=CARTESIAN_POINT('',(0.0226294783092154,0.0133707513322373,-0.0141423170174176));
#472=CARTESIAN_POINT('',(0.0219652922399551,0.0120518054477715,-0.0142498036639924));
#473=CARTESIAN_POINT('',(0.0224330461008044,0.0106537601262013,-0.014297185003409));
#474=CARTESIAN_POINT('',(0.0221539302354221,0.0120386236634686,-0.0142397884063276));
#475=CARTESIAN_POINT('',(0.00198062038257003,0.00198453359039035,-0.0148546528071165));
#476=CARTESIAN_POINT('',(0.0230086099280498,0.0111521804230405,-0.0148546528071165));
#477=CARTESIAN_POINT('',(0.0227332750050075,0.0119928232538888,-0.0148546528071165));
#478=CARTESIAN_POINT('',(0.0231381550616853,0.0127837281037464,-0.0148546528071165));
#479=CARTESIAN_POINT('',(0.0239857033901495,0.013041522103221,-0.0148546528071165));
#480=CARTESIAN_POINT('',(0.024766055146957,0.0126304392057988,-0.0148546528071165));
#481=CARTESIAN_POINT('',(0.0250409763864469,0.0117880568347892,-0.0148546528071165));
#482=CARTESIAN_POINT('',(0.0246373781609349,0.0109992490672298,-0.0148546528071165));
#483=CARTESIAN_POINT('',(0.0237880995277173,0.0107401749933352,-0.0148546528071165));
#484=CARTESIAN_POINT('',(0.0230086099280498,0.0111521804230405,-0.0148546528071165));
#485=CARTESIAN_POINT('',(0.0227332750050075,0.0119928232538888,-0.0148546528071165));
#486=CARTESIAN_POINT('',(0.0231381550616853,0.0127837281037464,-0.0148546528071165));
#487=CARTESIAN_POINT('',(0.0228466441682942,0.0119845335903903,-0.0148546528071165));
#488=CARTESIAN_POINT('',(0.0221495817707052,-0.0119129631258798,-0.014246663466343));
#489=CARTESIAN_POINT('',(0.0222301964261177,-0.0119125183590369,-0.0148546528071166));
#490=CARTESIAN_POINT('',(0.0228434977464569,-0.0119091346555331,-0.0148546528071166));
#491=CARTESIAN_POINT('',(0.0221484070071152,-0.0114587385486771,-0.0142708145745257));
#492=CARTESIAN_POINT('',(0.0222478889440969,-0.0114860906864189,-0.0148546528071166));
#493=CARTESIAN_POINT('',(0.0228416158335382,-0.011636391975679,-0.0148546528071166));
#494=CARTESIAN_POINT('',(0.0225233438315369,-0.0105641736399195,-0.0142971262997017));
#495=CARTESIAN_POINT('',(0.0226139691740416,-0.0106525968302183,-0.0148546528071165));
#496=CARTESIAN_POINT('',(0.0230642650096016,-0.0110907632431349,-0.0148546528071165));
#497=CARTESIAN_POINT('',(0.0238455370301318,-0.0099673733474107,-0.0142606563431079));
#498=CARTESIAN_POINT('',(0.0238550885711736,-0.0100688783261451,-0.0148546528071165));
#499=CARTESIAN_POINT('',(0.0238713566387063,-0.0107350634927646,-0.0148546528071165));
#500=CARTESIAN_POINT('',(0.0252437541220362,-0.0104914299567304,-0.0141571689780643));
#501=CARTESIAN_POINT('',(0.0252450204661878,-0.0105015905853944,-0.0148546528071165));
#502=CARTESIAN_POINT('',(0.0246987686485843,-0.0110541748697737,-0.0148546528071165));
#503=CARTESIAN_POINT('',(0.0258137294156712,-0.0118761022212449,-0.0140516361187479));
#504=CARTESIAN_POINT('',(0.0259437774720541,-0.011880950067091,-0.0148546528071165));
#505=CARTESIAN_POINT('',(0.0250443376419433,-0.0118728752112013,-0.0148546528071165));
#506=CARTESIAN_POINT('',(0.0252512825081723,-0.0132183462276155,-0.0140121513700148));
#507=CARTESIAN_POINT('',(0.0253895086031815,-0.0133530406457453,-0.0148546528071165));
#508=CARTESIAN_POINT('',(0.0247103381392674,-0.0126915705989065,-0.0148546528071165));
#509=CARTESIAN_POINT('',(0.0239265239632507,-0.0138148855271019,-0.0140487684679368));
#510=CARTESIAN_POINT('',(0.0239349506665771,-0.0139490307979451,-0.0148546528071165));
#511=CARTESIAN_POINT('',(0.0239017052730893,-0.0130470886502936,-0.0148546528071165));
#512=CARTESIAN_POINT('',(0.0225303924130769,-0.0132895211031357,-0.0141522196506051));
#513=CARTESIAN_POINT('',(0.0225367183093591,-0.0132943615931359,-0.0148546528071165));
#514=CARTESIAN_POINT('',(0.023075556487114,-0.0127272193222595,-0.0148546528071165));
#515=CARTESIAN_POINT('',(0.0221507565342952,-0.0123671877030825,-0.0142225123581602));
#516=CARTESIAN_POINT('',(0.0222119546668061,-0.0123521839270977,-0.0148546528071166));
#517=CARTESIAN_POINT('',(0.0228453796593757,-0.0121818773353872,-0.0148546528071166));
#518=CARTESIAN_POINT('',(0.0221495817707052,-0.0119129631258798,-0.014246663466343));
#519=CARTESIAN_POINT('',(0.0222301964261177,-0.0119125183590369,-0.0148546528071166));
#520=CARTESIAN_POINT('',(0.0228434977464569,-0.0119091346555331,-0.0148546528071166));
#521=CARTESIAN_POINT('',(0.0221885753014615,0.0115488663765461,-0.0142637400639903));
#522=CARTESIAN_POINT('',(0.0222798441165694,0.0115678697762326,-0.0148546528071165));
#523=CARTESIAN_POINT('',(0.0228655052873286,0.0116898123400276,-0.0148546528071165));
#524=CARTESIAN_POINT('',(0.0220949566982607,0.011991892652685,-0.0142453514640521));
#525=CARTESIAN_POINT('',(0.0221766315325356,0.0119887465921043,-0.0148546528071165));
#526=CARTESIAN_POINT('',(0.0228102073850154,0.0119569509261655,-0.0148546528071165));
#527=CARTESIAN_POINT('',(0.0222651444238306,0.0129672280696148,-0.0141844494638919));
#528=CARTESIAN_POINT('',(0.022298885484539,0.0129547586969585,-0.0148546528071165));
#529=CARTESIAN_POINT('',(0.0229187931126016,0.0125379025450007,-0.0148546528071165));
#530=CARTESIAN_POINT('',(0.0235186232278907,0.0137895772444421,-0.0140714616260064));
#531=CARTESIAN_POINT('',(0.0235057696041332,0.0138899469875098,-0.0148546528071165));
#532=CARTESIAN_POINT('',(0.0236577689839441,0.0130280023132286,-0.0148546528071165));
#533=CARTESIAN_POINT('',(0.0249477389298487,0.0134735075491253,-0.0140144940620138));
#534=CARTESIAN_POINT('',(0.0250544613714729,0.013629579571443,-0.0148546528071165));
#535=CARTESIAN_POINT('',(0.0245239978610695,0.0128472952720224,-0.0148546528071165));
#536=CARTESIAN_POINT('',(0.0257646815323625,0.0122779615234937,-0.014033496216519));
#537=CARTESIAN_POINT('',(0.025918505245059,0.0123145073408532,-0.0148546528071165));
#538=CARTESIAN_POINT('',(0.0250186442209489,0.012115645105653,-0.0148546528071165));
#539=CARTESIAN_POINT('',(0.0255094833611628,0.0108138448088287,-0.0141249059031026));
#540=CARTESIAN_POINT('',(0.0255393110768212,0.0108030922781358,-0.0148546528071165));
#541=CARTESIAN_POINT('',(0.0248558121484318,0.0112435652229097,-0.0148546528071165));
#542=CARTESIAN_POINT('',(0.0242530628128592,0.00999202863756359,-0.0142380199850416));
#543=CARTESIAN_POINT('',(0.0242451931885147,0.0100759856973184,-0.0148546528071165));
#544=CARTESIAN_POINT('',(0.0241150813784367,0.0107537589163253,-0.0148546528071165));
#545=CARTESIAN_POINT('',(0.0228268560430352,0.0103090704127811,-0.0142947810635211));
#546=CARTESIAN_POINT('',(0.022898458954036,0.0104117435133671,-0.0148546528071165));
#547=CARTESIAN_POINT('',(0.0232505805264805,0.0109350710281732,-0.0148546528071165));
#548=CARTESIAN_POINT('',(0.0222821939046622,0.0111058401004071,-0.0142821286639285));
#549=CARTESIAN_POINT('',(0.0223807350609091,0.0111564600648931,-0.0148546528071165));
#550=CARTESIAN_POINT('',(0.0229208031896417,0.0114226737538897,-0.0148546528071165));
#551=CARTESIAN_POINT('',(0.0221885753014615,0.0115488663765461,-0.0142637400639903));
#552=CARTESIAN_POINT('',(0.0222798441165694,0.0115678697762326,-0.0148546528071165));
#553=CARTESIAN_POINT('',(0.0228655052873286,0.0116898123400276,-0.0148546528071165));
#554=CARTESIAN_POINT('',(-0.0256192418326207,0.0115656592467324,-0.0142087184931891));
#555=CARTESIAN_POINT('',(-0.0257027803394268,0.0115513113594303,-0.0149847259745002));
#556=CARTESIAN_POINT('',(-0.0249334224583919,0.0116834499455043,-0.0149847259745002));
#557=CARTESIAN_POINT('',(-0.0256951376073315,0.0120144358526899,-0.0141811999145549));
#558=CARTESIAN_POINT('',(-0.0258185839150647,0.0120270117059985,-0.0149847259745002));
#559=CARTESIAN_POINT('',(-0.0249799354668721,0.0119521199558133,-0.0149847259745002));
#560=CARTESIAN_POINT('',(-0.0254663506569645,0.0129623239785853,-0.0141452656440331));
#561=CARTESIAN_POINT('',(-0.0256195624158067,0.0130711486392506,-0.0149847259745001));
#562=CARTESIAN_POINT('',(-0.024848129426058,0.0125271016198327,-0.0149847259745001));
#563=CARTESIAN_POINT('',(-0.0242575157458801,0.0137567788491409,-0.0141666685420937));
#564=CARTESIAN_POINT('',(-0.0242904390223626,0.0139064346727436,-0.0149847259745002));
#565=CARTESIAN_POINT('',(-0.0241086637024235,0.0130073000057961,-0.0149847259745002));
#566=CARTESIAN_POINT('',(-0.022798864463358,0.0134749869742113,-0.0142589913918466));
#567=CARTESIAN_POINT('',(-0.0227902840599549,0.0135006974735891,-0.0149847259745002));
#568=CARTESIAN_POINT('',(-0.0232405458812826,0.0128291804642037,-0.0149847259745002));
#569=CARTESIAN_POINT('',(-0.0219996014248096,0.0122031352514842,-0.0143702962199895));
#570=CARTESIAN_POINT('',(-0.0220854068498825,0.0121963484177499,-0.0149847259745002));
#571=CARTESIAN_POINT('',(-0.0227633483878961,0.0120790289904428,-0.0149847259745002));
#572=CARTESIAN_POINT('',(-0.0223428582826415,0.0107807924755163,-0.014424217890454));
#573=CARTESIAN_POINT('',(-0.0224439578027699,0.0108538324922736,-0.0149847259745002));
#574=CARTESIAN_POINT('',(-0.0229610985444379,0.0112162365100475,-0.0149847259745002));
#575=CARTESIAN_POINT('',(-0.0235541668225517,0.00998632228244892,-0.0144026886079097));
#576=CARTESIAN_POINT('',(-0.0235805119487697,0.0100936059973189,-0.0149847259745002));
#577=CARTESIAN_POINT('',(-0.0237020623243429,0.0107360509754369,-0.0149847259745002));
#578=CARTESIAN_POINT('',(-0.0250109760086999,0.01026966434284,-0.0143103771158383));
#579=CARTESIAN_POINT('',(-0.0250001971272318,0.0102996173399651,-0.0149847259745002));
#580=CARTESIAN_POINT('',(-0.0245690513751771,0.0109150815579787,-0.0149847259745002));
#581=CARTESIAN_POINT('',(-0.02554334605791,0.0111168826407748,-0.0142362370718233));
#582=CARTESIAN_POINT('',(-0.0255919547434588,0.0110960596617148,-0.0149847259745002));
#583=CARTESIAN_POINT('',(-0.0248869094499118,0.0114147799351953,-0.0149847259745002));
#584=CARTESIAN_POINT('',(-0.0256192418326207,0.0115656592467324,-0.0142087184931891));
#585=CARTESIAN_POINT('',(-0.0257027803394268,0.0115513113594303,-0.0149847259745002));
#586=CARTESIAN_POINT('',(-0.0249334224583919,0.0116834499455043,-0.0149847259745002));
#587=CARTESIAN_POINT('',(-0.0256403926027019,-0.0119300187606485,-0.0141886773213774));
#588=CARTESIAN_POINT('',(-0.0257505731238031,-0.0119344773183193,-0.0149847259745002));
#589=CARTESIAN_POINT('',(-0.0249475804501603,-0.0119019834699614,-0.0149847259745002));
#590=CARTESIAN_POINT('',(-0.0256600816677146,-0.0114766435991287,-0.0142111737869375));
#591=CARTESIAN_POINT('',(-0.0257422015810711,-0.0114597153784357,-0.0149847259745002));
#592=CARTESIAN_POINT('',(-0.0249582506671744,-0.0116294635563409,-0.0149847259745002));
#593=CARTESIAN_POINT('',(-0.0253258677007408,-0.0105392127732492,-0.014278608493686));
#594=CARTESIAN_POINT('',(-0.0253335651117534,-0.0105426701649903,-0.0149847259745002));
#595=CARTESIAN_POINT('',(-0.0247541801952399,-0.0110742279378016,-0.0149847259745002));
#596=CARTESIAN_POINT('',(-0.0239547876533169,-0.00994521481960129,-0.0143841396484382));
#597=CARTESIAN_POINT('',(-0.0239598039002776,-0.0100420044768516,-0.0149847259745002));
#598=CARTESIAN_POINT('',(-0.0239437406464377,-0.0107151160384868,-0.0149847259745002));
#599=CARTESIAN_POINT('',(-0.0226014184460443,-0.0104837320734923,-0.01442585350768));
#600=CARTESIAN_POINT('',(-0.0226878303904272,-0.0105750641778608,-0.0149847259745002));
#601=CARTESIAN_POINT('',(-0.0231190402389718,-0.011034038739676,-0.0149847259745002));
#602=CARTESIAN_POINT('',(-0.0219820447774974,-0.0117981632724258,-0.0143920066806956));
#603=CARTESIAN_POINT('',(-0.0220843042173658,-0.0118092324889654,-0.0149847259745002));
#604=CARTESIAN_POINT('',(-0.0227489584491844,-0.0118365150099621,-0.0149847259745002));
#605=CARTESIAN_POINT('',(-0.0224836144884562,-0.0132055434060505,-0.0142907737788479));
#606=CARTESIAN_POINT('',(-0.0224964907332455,-0.013204372685458,-0.0149847259745002));
#607=CARTESIAN_POINT('',(-0.0230552080100758,-0.0126700921457347,-0.0149847259745002));
#608=CARTESIAN_POINT('',(-0.0238573385219029,-0.0137983860310145,-0.0141851667469406));
#609=CARTESIAN_POINT('',(-0.023860147223659,-0.0139233484474463,-0.0149847259745002));
#610=CARTESIAN_POINT('',(-0.0238672401756184,-0.0130285394536343,-0.0149847259745002));
#611=CARTESIAN_POINT('',(-0.0252077333106646,-0.0132594637423679,-0.0141436297003256));
#612=CARTESIAN_POINT('',(-0.0253385150171362,-0.013398201110079,-0.0149847259745002));
#613=CARTESIAN_POINT('',(-0.0246901588931551,-0.0127093474195241,-0.0149847259745002));
#614=CARTESIAN_POINT('',(-0.0256207035376892,-0.0123833939221683,-0.0141661808558174));
#615=CARTESIAN_POINT('',(-0.025759261029214,-0.0124271806298188,-0.0149847259745002));
#616=CARTESIAN_POINT('',(-0.0249369102331461,-0.0121745033835818,-0.0149847259745002));
#617=CARTESIAN_POINT('',(-0.0256403926027019,-0.0119300187606485,-0.0141886773213774));
#618=CARTESIAN_POINT('',(-0.0257505731238031,-0.0119344773183193,-0.0149847259745002));
#619=CARTESIAN_POINT('',(-0.0249475804501603,-0.0119019834699614,-0.0149847259745002));
#620=MECHANICAL_DESIGN_GEOMETRIC_PRESENTATION_REPRESENTATION('',(#169),
#621);
#621=(
GEOMETRIC_REPRESENTATION_CONTEXT(3)
GLOBAL_UNCERTAINTY_ASSIGNED_CONTEXT((#622))
GLOBAL_UNIT_ASSIGNED_CONTEXT((#625,#624,#623))
REPRESENTATION_CONTEXT('Part 1','TOP_LEVEL_ASSEMBLY_PART')
);
#622=UNCERTAINTY_MEASURE_WITH_UNIT(LENGTH_MEASURE(2.E-5),#625,
'DISTANCE_ACCURACY_VALUE','Maximum Tolerance applied to model');
#623=(
NAMED_UNIT(*)
SI_UNIT($,.STERADIAN.)
SOLID_ANGLE_UNIT()
);
#624=(
NAMED_UNIT(*)
PLANE_ANGLE_UNIT()
SI_UNIT($,.RADIAN.)
);
#625=(
LENGTH_UNIT()
NAMED_UNIT(*)
SI_UNIT($,.METRE.)
);
#626=PRODUCT_DEFINITION_SHAPE('','',#627);
#627=PRODUCT_DEFINITION('','',#629,#628);
#628=PRODUCT_DEFINITION_CONTEXT('',#635,'design');
#629=PRODUCT_DEFINITION_FORMATION_WITH_SPECIFIED_SOURCE('','',#631,
 .NOT_KNOWN.);
#630=PRODUCT_RELATED_PRODUCT_CATEGORY('','',(#631));
#631=PRODUCT('Part 1','Part 1','Part 1',(#633));
#632=PRODUCT_CATEGORY('','');
#633=PRODUCT_CONTEXT('',#635,'mechanical');
#634=APPLICATION_PROTOCOL_DEFINITION('international standard',
'ap242_managed_model_based_3d_engineering',2020,#635);
#635=APPLICATION_CONTEXT('managed model based 3d engineering');
ENDSEC;
END-ISO-10303-21;
