ISO-10303-21;
HEADER;
/* Generated by software containing ST-Developer
 * from STEP Tools, Inc. (www.steptools.com) 
 */
/* OPTION: using custom renumber hook */

FILE_DESCRIPTION(
/* description */ ('STEP AP242 Edition 2',
'CAx-IF Rec.Pracs.---Representation and Presentation of Product Manufa
cturing Information (PMI)---4.0---2014-10-13',
'CAx-IF Rec.Pracs.---3D Tessellated Geometry---0.4---2014-09-14','2;1',
'CAx-IF Rec.Pracs.---User Defined Attributes---1.5---2016-08-15'),
/* implementation_level */ '2;1');

FILE_NAME(
/* name */ 'Mug',
/* time_stamp */ '2026-09-04T21:59:36Z',
/* author */ (''),
/* organization */ (''),
/* preprocessor_version */ 'ST-DEVELOPER v20',
/* originating_system */ 'ONSHAPE BY PTC INC, 1.220',
/* authorisation */ '  ');

FILE_SCHEMA (('AP242_MANAGED_MODEL_BASED_3D_ENGINEERING_MIM_LF { 1 0 10303 442 3 1 4 }'));
ENDSEC;

DATA;
#10=SHAPE_REPRESENTATION_RELATIONSHIP('','',#281,#11);
#11=ADVANCED_BREP_SHAPE_REPRESENTATION('',(#279),#580);
#12=PLANE('',#297);
#13=PLANE('',#303);
#14=PLANE('',#304);
#15=PLANE('',#305);
#16=PLANE('',#306);
#17=PLANE('',#307);
#18=PLANE('',#310);
#19=VERTEX_LOOP('',#188);
#20=B_SPLINE_SURFACE_WITH_KNOTS('',3,3,((#430,#431,#432,#433,#434,#435,
#436,#437,#438,#439,#440),(#441,#442,#443,#444,#445,#446,#447,#448,#449,
#450,#451),(#452,#453,#454,#455,#456,#457,#458,#459,#460,#461,#462),(#463,
#464,#465,#466,#467,#468,#469,#470,#471,#472,#473),(#474,#475,#476,#477,
#478,#479,#480,#481,#482,#483,#484),(#485,#486,#487,#488,#489,#490,#491,
#492,#493,#494,#495),(#496,#497,#498,#499,#500,#501,#502,#503,#504,#505,
#506),(#507,#508,#509,#510,#511,#512,#513,#514,#515,#516,#517),(#518,#519,
#520,#521,#522,#523,#524,#525,#526,#527,#528)),.UNSPECIFIED.,.F.,.T.,.F.,
(4,1,1,1,1,1,4),(1,1,1,1,1,1,1,1,1,1,1,1,1,1,1),(0.,0.25,0.375,0.5,0.625,
0.75,1.),(-2.35619449019234,-1.5707963267949,-0.785398163397448,0.,0.785398163397448,
1.5707963267949,2.35619449019234,3.14159265358979,3.92699081698724,4.71238898038469,
5.49778714378214,6.28318530717959,7.06858347057703,7.85398163397448,8.63937979737193),
 .UNSPECIFIED.);
#21=B_SPLINE_CURVE_WITH_KNOTS('',3,(#412,#413,#414,#415,#416),
 .UNSPECIFIED.,.F.,.F.,(4,1,4),(0.,0.000705981377078821,0.00141196275415764),
 .UNSPECIFIED.);
#22=B_SPLINE_CURVE_WITH_KNOTS('',3,(#424,#425,#426,#427,#428,#429),
 .UNSPECIFIED.,.F.,.F.,(4,1,1,4),(0.,0.00035316687518132,0.000706333750362639,
0.00141266750072528),.UNSPECIFIED.);
#23=B_SPLINE_CURVE_WITH_KNOTS('',3,(#529,#530,#531,#532,#533),
 .UNSPECIFIED.,.F.,.F.,(4,1,4),(0.,0.549353905636178,1.),.UNSPECIFIED.);
#24=B_SPLINE_CURVE_WITH_KNOTS('',3,(#537,#538,#539,#540),.UNSPECIFIED.,
 .F.,.F.,(4,4),(0.,0.000227913411212472),.UNSPECIFIED.);
#25=LINE('',#398,#43);
#26=LINE('',#402,#44);
#27=LINE('',#410,#45);
#28=LINE('',#418,#46);
#29=LINE('',#420,#47);
#30=LINE('',#422,#48);
#31=LINE('',#548,#49);
#32=LINE('',#552,#50);
#33=LINE('',#556,#51);
#34=LINE('',#557,#52);
#35=LINE('',#559,#53);
#36=LINE('',#561,#54);
#37=LINE('',#563,#55);
#38=LINE('',#565,#56);
#39=LINE('',#567,#57);
#40=LINE('',#569,#58);
#41=LINE('',#571,#59);
#42=LINE('',#573,#60);
#43=VECTOR('',#325,1.);
#44=VECTOR('',#328,1.);
#45=VECTOR('',#339,1.);
#46=VECTOR('',#340,1.);
#47=VECTOR('',#343,1.);
#48=VECTOR('',#344,1.);
#49=VECTOR('',#355,1.);
#50=VECTOR('',#358,1.);
#51=VECTOR('',#361,1.);
#52=VECTOR('',#362,1.);
#53=VECTOR('',#365,1.);
#54=VECTOR('',#366,1.);
#55=VECTOR('',#367,1.);
#56=VECTOR('',#370,1.);
#57=VECTOR('',#371,1.);
#58=VECTOR('',#374,1.);
#59=VECTOR('',#375,1.);
#60=VECTOR('',#378,1.);
#61=CYLINDRICAL_SURFACE('',#288,0.00045);
#62=CYLINDRICAL_SURFACE('',#294,0.00045);
#63=CYLINDRICAL_SURFACE('',#295,0.00045);
#64=CYLINDRICAL_SURFACE('',#300,0.00372101180255413);
#65=CYLINDRICAL_SURFACE('',#308,0.00321326869181485);
#66=ORIENTED_EDGE('',*,*,#138,.F.);
#67=ORIENTED_EDGE('',*,*,#139,.F.);
#68=ORIENTED_EDGE('',*,*,#140,.T.);
#69=ORIENTED_EDGE('',*,*,#141,.F.);
#70=ORIENTED_EDGE('',*,*,#140,.F.);
#71=ORIENTED_EDGE('',*,*,#142,.F.);
#72=ORIENTED_EDGE('',*,*,#143,.T.);
#73=ORIENTED_EDGE('',*,*,#144,.F.);
#74=ORIENTED_EDGE('',*,*,#143,.F.);
#75=ORIENTED_EDGE('',*,*,#145,.F.);
#76=ORIENTED_EDGE('',*,*,#146,.T.);
#77=ORIENTED_EDGE('',*,*,#147,.F.);
#78=ORIENTED_EDGE('',*,*,#146,.F.);
#79=ORIENTED_EDGE('',*,*,#148,.F.);
#80=ORIENTED_EDGE('',*,*,#149,.T.);
#81=ORIENTED_EDGE('',*,*,#150,.F.);
#82=ORIENTED_EDGE('',*,*,#151,.F.);
#83=ORIENTED_EDGE('',*,*,#138,.T.);
#84=ORIENTED_EDGE('',*,*,#152,.F.);
#85=ORIENTED_EDGE('',*,*,#153,.T.);
#86=ORIENTED_EDGE('',*,*,#149,.F.);
#87=ORIENTED_EDGE('',*,*,#154,.F.);
#88=ORIENTED_EDGE('',*,*,#155,.F.);
#89=ORIENTED_EDGE('',*,*,#156,.T.);
#90=ORIENTED_EDGE('',*,*,#157,.F.);
#91=ORIENTED_EDGE('',*,*,#158,.T.);
#92=ORIENTED_EDGE('',*,*,#153,.F.);
#93=ORIENTED_EDGE('',*,*,#159,.T.);
#94=ORIENTED_EDGE('',*,*,#160,.T.);
#95=ORIENTED_EDGE('',*,*,#161,.F.);
#96=ORIENTED_EDGE('',*,*,#158,.F.);
#97=ORIENTED_EDGE('',*,*,#162,.T.);
#98=ORIENTED_EDGE('',*,*,#163,.T.);
#99=ORIENTED_EDGE('',*,*,#155,.T.);
#100=ORIENTED_EDGE('',*,*,#164,.F.);
#101=ORIENTED_EDGE('',*,*,#154,.T.);
#102=ORIENTED_EDGE('',*,*,#148,.T.);
#103=ORIENTED_EDGE('',*,*,#145,.T.);
#104=ORIENTED_EDGE('',*,*,#142,.T.);
#105=ORIENTED_EDGE('',*,*,#139,.T.);
#106=ORIENTED_EDGE('',*,*,#151,.T.);
#107=ORIENTED_EDGE('',*,*,#161,.T.);
#108=ORIENTED_EDGE('',*,*,#165,.T.);
#109=ORIENTED_EDGE('',*,*,#166,.T.);
#110=ORIENTED_EDGE('',*,*,#167,.T.);
#111=ORIENTED_EDGE('',*,*,#164,.T.);
#112=ORIENTED_EDGE('',*,*,#162,.F.);
#113=ORIENTED_EDGE('',*,*,#167,.F.);
#114=ORIENTED_EDGE('',*,*,#168,.F.);
#115=ORIENTED_EDGE('',*,*,#169,.T.);
#116=ORIENTED_EDGE('',*,*,#166,.F.);
#117=ORIENTED_EDGE('',*,*,#170,.F.);
#118=ORIENTED_EDGE('',*,*,#171,.T.);
#119=ORIENTED_EDGE('',*,*,#168,.T.);
#120=ORIENTED_EDGE('',*,*,#160,.F.);
#121=ORIENTED_EDGE('',*,*,#172,.T.);
#122=ORIENTED_EDGE('',*,*,#170,.T.);
#123=ORIENTED_EDGE('',*,*,#165,.F.);
#124=ORIENTED_EDGE('',*,*,#147,.T.);
#125=ORIENTED_EDGE('',*,*,#150,.T.);
#126=ORIENTED_EDGE('',*,*,#156,.F.);
#127=ORIENTED_EDGE('',*,*,#163,.F.);
#128=ORIENTED_EDGE('',*,*,#169,.F.);
#129=ORIENTED_EDGE('',*,*,#171,.F.);
#130=ORIENTED_EDGE('',*,*,#172,.F.);
#131=ORIENTED_EDGE('',*,*,#159,.F.);
#132=ORIENTED_EDGE('',*,*,#152,.T.);
#133=ORIENTED_EDGE('',*,*,#141,.T.);
#134=ORIENTED_EDGE('',*,*,#144,.T.);
#135=ORIENTED_EDGE('',*,*,#173,.F.);
#136=ORIENTED_EDGE('',*,*,#157,.T.);
#137=ORIENTED_EDGE('',*,*,#173,.T.);
#138=EDGE_CURVE('',#174,#175,#200,.T.);
#139=EDGE_CURVE('',#176,#174,#201,.F.);
#140=EDGE_CURVE('',#176,#177,#202,.T.);
#141=EDGE_CURVE('',#175,#177,#203,.T.);
#142=EDGE_CURVE('',#178,#176,#25,.T.);
#143=EDGE_CURVE('',#178,#179,#204,.T.);
#144=EDGE_CURVE('',#177,#179,#26,.T.);
#145=EDGE_CURVE('',#180,#178,#205,.F.);
#146=EDGE_CURVE('',#180,#181,#206,.T.);
#147=EDGE_CURVE('',#179,#181,#207,.T.);
#148=EDGE_CURVE('',#182,#180,#27,.F.);
#149=EDGE_CURVE('',#182,#183,#21,.F.);
#150=EDGE_CURVE('',#181,#183,#28,.F.);
#151=EDGE_CURVE('',#174,#184,#29,.T.);
#152=EDGE_CURVE('',#185,#175,#30,.T.);
#153=EDGE_CURVE('',#185,#184,#22,.F.);
#154=EDGE_CURVE('',#186,#182,#23,.F.);
#155=EDGE_CURVE('',#187,#186,#208,.T.);
#156=EDGE_CURVE('',#187,#183,#24,.T.);
#157=EDGE_CURVE('',#189,#189,#209,.T.);
#158=EDGE_CURVE('',#190,#190,#210,.T.);
#159=EDGE_CURVE('',#185,#191,#31,.F.);
#160=EDGE_CURVE('',#191,#192,#211,.T.);
#161=EDGE_CURVE('',#184,#192,#32,.F.);
#162=EDGE_CURVE('',#193,#194,#212,.T.);
#163=EDGE_CURVE('',#194,#187,#33,.F.);
#164=EDGE_CURVE('',#193,#186,#34,.F.);
#165=EDGE_CURVE('',#192,#195,#35,.T.);
#166=EDGE_CURVE('',#195,#196,#36,.T.);
#167=EDGE_CURVE('',#196,#193,#37,.T.);
#168=EDGE_CURVE('',#197,#196,#38,.T.);
#169=EDGE_CURVE('',#197,#194,#39,.T.);
#170=EDGE_CURVE('',#198,#195,#40,.T.);
#171=EDGE_CURVE('',#198,#197,#41,.T.);
#172=EDGE_CURVE('',#191,#198,#42,.T.);
#173=EDGE_CURVE('',#199,#199,#213,.T.);
#174=VERTEX_POINT('',#390);
#175=VERTEX_POINT('',#391);
#176=VERTEX_POINT('',#393);
#177=VERTEX_POINT('',#395);
#178=VERTEX_POINT('',#399);
#179=VERTEX_POINT('',#401);
#180=VERTEX_POINT('',#405);
#181=VERTEX_POINT('',#407);
#182=VERTEX_POINT('',#411);
#183=VERTEX_POINT('',#417);
#184=VERTEX_POINT('',#421);
#185=VERTEX_POINT('',#423);
#186=VERTEX_POINT('',#534);
#187=VERTEX_POINT('',#536);
#188=VERTEX_POINT('',#541);
#189=VERTEX_POINT('',#544);
#190=VERTEX_POINT('',#546);
#191=VERTEX_POINT('',#549);
#192=VERTEX_POINT('',#551);
#193=VERTEX_POINT('',#554);
#194=VERTEX_POINT('',#555);
#195=VERTEX_POINT('',#560);
#196=VERTEX_POINT('',#562);
#197=VERTEX_POINT('',#566);
#198=VERTEX_POINT('',#570);
#199=VERTEX_POINT('',#577);
#200=CIRCLE('',#284,0.00045);
#201=CIRCLE('',#285,0.000419116882454312);
#202=CIRCLE('',#286,0.00045);
#203=CIRCLE('',#287,0.000419116882454312);
#204=CIRCLE('',#289,0.00045);
#205=CIRCLE('',#291,0.000419116882454313);
#206=CIRCLE('',#292,0.00045);
#207=CIRCLE('',#293,0.000419116882454313);
#208=CIRCLE('',#296,0.00372101180255413);
#209=CIRCLE('',#298,0.00321326869181485);
#210=CIRCLE('',#299,0.00372101180255413);
#211=CIRCLE('',#301,0.00372101180255413);
#212=CIRCLE('',#302,0.00372101180255413);
#213=CIRCLE('',#309,0.00321326869181485);
#214=EDGE_LOOP('',(#66,#67,#68,#69));
#215=EDGE_LOOP('',(#70,#71,#72,#73));
#216=EDGE_LOOP('',(#74,#75,#76,#77));
#217=EDGE_LOOP('',(#78,#79,#80,#81));
#218=EDGE_LOOP('',(#82,#83,#84,#85));
#219=EDGE_LOOP('',(#86,#87,#88,#89));
#220=EDGE_LOOP('',(#90));
#221=EDGE_LOOP('',(#91));
#222=EDGE_LOOP('',(#92,#93,#94,#95));
#223=EDGE_LOOP('',(#96));
#224=EDGE_LOOP('',(#97,#98,#99,#100));
#225=EDGE_LOOP('',(#101,#102,#103,#104,#105,#106,#107,#108,#109,#110,#111));
#226=EDGE_LOOP('',(#112,#113,#114,#115));
#227=EDGE_LOOP('',(#116,#117,#118,#119));
#228=EDGE_LOOP('',(#120,#121,#122,#123));
#229=EDGE_LOOP('',(#124,#125,#126,#127,#128,#129,#130,#131,#132,#133,#134));
#230=EDGE_LOOP('',(#135));
#231=EDGE_LOOP('',(#136));
#232=EDGE_LOOP('',(#137));
#233=FACE_BOUND('',#214,.T.);
#234=FACE_BOUND('',#215,.T.);
#235=FACE_BOUND('',#216,.T.);
#236=FACE_BOUND('',#217,.T.);
#237=FACE_BOUND('',#218,.T.);
#238=FACE_BOUND('',#219,.T.);
#239=FACE_BOUND('',#19,.T.);
#240=FACE_BOUND('',#220,.T.);
#241=FACE_BOUND('',#221,.T.);
#242=FACE_BOUND('',#222,.T.);
#243=FACE_BOUND('',#223,.T.);
#244=FACE_BOUND('',#224,.T.);
#245=FACE_BOUND('',#225,.T.);
#246=FACE_BOUND('',#226,.T.);
#247=FACE_BOUND('',#227,.T.);
#248=FACE_BOUND('',#228,.T.);
#249=FACE_BOUND('',#229,.T.);
#250=FACE_BOUND('',#230,.T.);
#251=FACE_BOUND('',#231,.T.);
#252=FACE_BOUND('',#232,.T.);
#253=DEGENERATE_TOROIDAL_SURFACE('',#283,0.000419116882454312,0.00045,.T.);
#254=DEGENERATE_TOROIDAL_SURFACE('',#290,0.000419116882454313,0.00045,.T.);
#255=ADVANCED_FACE('',(#233),#253,.T.);
#256=ADVANCED_FACE('',(#234),#61,.T.);
#257=ADVANCED_FACE('',(#235),#254,.T.);
#258=ADVANCED_FACE('',(#236),#62,.T.);
#259=ADVANCED_FACE('',(#237),#63,.T.);
#260=ADVANCED_FACE('',(#238,#239),#20,.F.);
#261=ADVANCED_FACE('',(#240,#241),#12,.F.);
#262=ADVANCED_FACE('',(#242,#243,#244),#64,.T.);
#263=ADVANCED_FACE('',(#245),#13,.F.);
#264=ADVANCED_FACE('',(#246),#14,.T.);
#265=ADVANCED_FACE('',(#247),#15,.T.);
#266=ADVANCED_FACE('',(#248),#16,.T.);
#267=ADVANCED_FACE('',(#249),#17,.T.);
#268=ADVANCED_FACE('',(#250,#251),#65,.F.);
#269=ADVANCED_FACE('',(#252),#18,.T.);
#270=CLOSED_SHELL('',(#255,#256,#257,#258,#259,#260,#261,#262,#263,#264,
#265,#266,#267,#268,#269));
#271=STYLED_ITEM('',(#272),#279);
#272=PRESENTATION_STYLE_ASSIGNMENT((#273));
#273=SURFACE_STYLE_USAGE(.BOTH.,#274);
#274=SURFACE_SIDE_STYLE('',(#275));
#275=SURFACE_STYLE_FILL_AREA(#276);
#276=FILL_AREA_STYLE('',(#277));
#277=FILL_AREA_STYLE_COLOUR('',#278);
#278=COLOUR_RGB('',0.850980392156863,0.756862745098039,0.866666666666667);
#279=MANIFOLD_SOLID_BREP('Part 1',#270);
#280=SHAPE_DEFINITION_REPRESENTATION(#585,#281);
#281=SHAPE_REPRESENTATION('Part 1',(#282),#580);
#282=AXIS2_PLACEMENT_3D('',#387,#311,#312);
#283=AXIS2_PLACEMENT_3D('',#388,#313,#314);
#284=AXIS2_PLACEMENT_3D('',#389,#315,#316);
#285=AXIS2_PLACEMENT_3D('',#392,#317,#318);
#286=AXIS2_PLACEMENT_3D('',#394,#319,#320);
#287=AXIS2_PLACEMENT_3D('',#396,#321,#322);
#288=AXIS2_PLACEMENT_3D('',#397,#323,#324);
#289=AXIS2_PLACEMENT_3D('',#400,#326,#327);
#290=AXIS2_PLACEMENT_3D('',#403,#329,#330);
#291=AXIS2_PLACEMENT_3D('',#404,#331,#332);
#292=AXIS2_PLACEMENT_3D('',#406,#333,#334);
#293=AXIS2_PLACEMENT_3D('',#408,#335,#336);
#294=AXIS2_PLACEMENT_3D('',#409,#337,#338);
#295=AXIS2_PLACEMENT_3D('',#419,#341,#342);
#296=AXIS2_PLACEMENT_3D('',#535,#345,#346);
#297=AXIS2_PLACEMENT_3D('',#542,#347,#348);
#298=AXIS2_PLACEMENT_3D('',#543,#349,#350);
#299=AXIS2_PLACEMENT_3D('',#545,#351,#352);
#300=AXIS2_PLACEMENT_3D('',#547,#353,#354);
#301=AXIS2_PLACEMENT_3D('',#550,#356,#357);
#302=AXIS2_PLACEMENT_3D('',#553,#359,#360);
#303=AXIS2_PLACEMENT_3D('',#558,#363,#364);
#304=AXIS2_PLACEMENT_3D('',#564,#368,#369);
#305=AXIS2_PLACEMENT_3D('',#568,#372,#373);
#306=AXIS2_PLACEMENT_3D('',#572,#376,#377);
#307=AXIS2_PLACEMENT_3D('',#574,#379,#380);
#308=AXIS2_PLACEMENT_3D('',#575,#381,#382);
#309=AXIS2_PLACEMENT_3D('',#576,#383,#384);
#310=AXIS2_PLACEMENT_3D('',#578,#385,#386);
#311=DIRECTION('',(0.,0.,1.));
#312=DIRECTION('',(1.,0.,0.));
#313=DIRECTION('',(-1.,0.,0.));
#314=DIRECTION('',(0.,0.,1.));
#315=DIRECTION('',(0.,1.,0.));
#316=DIRECTION('',(0.,0.,1.));
#317=DIRECTION('',(1.,0.,0.));
#318=DIRECTION('',(0.,0.,-1.));
#319=DIRECTION('',(0.,0.,1.));
#320=DIRECTION('',(1.,0.,0.));
#321=DIRECTION('',(1.,0.,0.));
#322=DIRECTION('',(0.,0.,-1.));
#323=DIRECTION('',(0.,0.,1.));
#324=DIRECTION('',(1.,0.,0.));
#325=DIRECTION('',(0.,0.,1.));
#326=DIRECTION('',(0.,0.,1.));
#327=DIRECTION('',(1.,0.,0.));
#328=DIRECTION('',(0.,0.,-1.));
#329=DIRECTION('',(1.,0.,0.));
#330=DIRECTION('',(0.,0.,-1.));
#331=DIRECTION('',(1.,0.,0.));
#332=DIRECTION('',(0.,0.,-1.));
#333=DIRECTION('',(0.,-1.,0.));
#334=DIRECTION('',(0.,0.,-1.));
#335=DIRECTION('',(1.,0.,0.));
#336=DIRECTION('',(0.,0.,-1.));
#337=DIRECTION('',(9.39710351714668E-17,-1.,-1.1276524220576E-15));
#338=DIRECTION('',(0.,1.1276524220576E-15,-1.));
#339=DIRECTION('',(0.,1.,1.1276524220576E-15));
#340=DIRECTION('',(0.,-1.,-1.1276524220576E-15));
#341=DIRECTION('',(0.,1.,0.));
#342=DIRECTION('',(0.,0.,1.));
#343=DIRECTION('',(0.,1.,0.));
#344=DIRECTION('',(0.,-1.,0.));
#345=DIRECTION('',(0.,0.,1.));
#346=DIRECTION('',(1.,0.,0.));
#347=DIRECTION('',(0.,0.,-1.));
#348=DIRECTION('',(-1.,0.,0.));
#349=DIRECTION('',(0.,0.,1.));
#350=DIRECTION('',(1.,0.,0.));
#351=DIRECTION('',(0.,0.,1.));
#352=DIRECTION('',(1.,0.,0.));
#353=DIRECTION('',(0.,0.,1.));
#354=DIRECTION('',(1.,0.,0.));
#355=DIRECTION('',(0.,0.,1.));
#356=DIRECTION('',(0.,0.,-1.));
#357=DIRECTION('',(-1.,0.,0.));
#358=DIRECTION('',(0.,0.,1.));
#359=DIRECTION('',(0.,0.,1.));
#360=DIRECTION('',(1.,0.,0.));
#361=DIRECTION('',(0.,0.,1.));
#362=DIRECTION('',(0.,0.,1.));
#363=DIRECTION('',(1.,0.,0.));
#364=DIRECTION('',(0.,1.,0.));
#365=DIRECTION('',(0.,-1.,0.));
#366=DIRECTION('',(0.,0.,-1.));
#367=DIRECTION('',(0.,1.,0.));
#368=DIRECTION('',(0.,0.,1.));
#369=DIRECTION('',(1.,0.,0.));
#370=DIRECTION('',(-1.,0.,0.));
#371=DIRECTION('',(0.,1.,0.));
#372=DIRECTION('',(0.,1.,0.));
#373=DIRECTION('',(0.,0.,1.));
#374=DIRECTION('',(-1.,0.,0.));
#375=DIRECTION('',(0.,0.,-1.));
#376=DIRECTION('',(0.,0.,-1.));
#377=DIRECTION('',(-1.,0.,0.));
#378=DIRECTION('',(0.,-1.,0.));
#379=DIRECTION('',(1.,0.,0.));
#380=DIRECTION('',(0.,1.,0.));
#381=DIRECTION('',(0.,0.,1.));
#382=DIRECTION('',(1.,0.,0.));
#383=DIRECTION('',(0.,0.,1.));
#384=DIRECTION('',(1.,0.,0.));
#385=DIRECTION('',(0.,0.,1.));
#386=DIRECTION('',(1.,0.,0.));
#387=CARTESIAN_POINT('',(0.,0.,0.));
#388=CARTESIAN_POINT('',(0.00045,-0.00509609755145235,0.00614819177963241));
#389=CARTESIAN_POINT('',(0.00045,-0.00509609755145235,0.00656730866208673));
#390=CARTESIAN_POINT('',(0.,-0.00509609755145235,0.00656730866208673));
#391=CARTESIAN_POINT('',(0.0009,-0.00509609755145235,0.00656730866208673));
#392=CARTESIAN_POINT('',(0.,-0.00509609755145235,0.00614819177963241));
#393=CARTESIAN_POINT('',(0.,-0.00551521443390666,0.00614819177963241));
#394=CARTESIAN_POINT('',(0.00045,-0.00551521443390666,0.00614819177963241));
#395=CARTESIAN_POINT('',(0.0009,-0.00551521443390666,0.00614819177963241));
#396=CARTESIAN_POINT('',(0.0009,-0.00509609755145235,0.00614819177963241));
#397=CARTESIAN_POINT('',(0.00045,-0.00551521443390666,0.00278642554454104));
#398=CARTESIAN_POINT('',(0.,-0.00551521443390666,0.00446730866208672));
#399=CARTESIAN_POINT('',(0.,-0.00551521443390666,0.00278642554454104));
#400=CARTESIAN_POINT('',(0.00045,-0.00551521443390666,0.00278642554454104));
#401=CARTESIAN_POINT('',(0.0009,-0.00551521443390666,0.00278642554454104));
#402=CARTESIAN_POINT('',(0.0009,-0.00551521443390666,0.00278642554454104));
#403=CARTESIAN_POINT('',(0.00045,-0.00509609755145235,0.00278642554454104));
#404=CARTESIAN_POINT('',(0.,-0.00509609755145235,0.00278642554454104));
#405=CARTESIAN_POINT('',(0.,-0.00509609755145235,0.00236730866208672));
#406=CARTESIAN_POINT('',(0.00045,-0.00509609755145235,0.00236730866208672));
#407=CARTESIAN_POINT('',(0.0009,-0.00509609755145235,0.00236730866208672));
#408=CARTESIAN_POINT('',(0.0009,-0.00509609755145235,0.00278642554454104));
#409=CARTESIAN_POINT('',(0.00045,-0.00371158305226797,0.00236730866208672));
#410=CARTESIAN_POINT('',(0.,-0.00371158305226797,0.00236730866208672));
#411=CARTESIAN_POINT('',(-2.27268915236477E-19,-0.00371158305226797,0.00236730866224254));
#412=CARTESIAN_POINT('',(0.0009,-0.00360081223529431,0.00236730866208825));
#413=CARTESIAN_POINT('',(0.000900000000000809,-0.00359272538735294,0.00212869743691017));
#414=CARTESIAN_POINT('',(0.000452544561656459,-0.00369016743898116,0.0017058846515359));
#415=CARTESIAN_POINT('',(-8.25968664081193E-14,-0.00370374010692703,0.00212877510259465));
#416=CARTESIAN_POINT('',(-5.20417042793042E-19,-0.00371158305226797,0.00236730866224254));
#417=CARTESIAN_POINT('',(0.0009,-0.00360081223529431,0.00236730866208825));
#418=CARTESIAN_POINT('',(0.0009,-0.00474363410264253,0.00236730866208672));
#419=CARTESIAN_POINT('',(0.00045,-0.00509609755145235,0.00656730866208673));
#420=CARTESIAN_POINT('',(0.,-0.00474363410264254,0.00656730866208673));
#421=CARTESIAN_POINT('',(0.,-0.00372101180255413,0.00656730866208673));
#422=CARTESIAN_POINT('',(0.0009,-0.00509609755145235,0.00656730866208673));
#423=CARTESIAN_POINT('',(0.0009,-0.00361053027057621,0.00656730866208673));
#424=CARTESIAN_POINT('',(0.,-0.00372101180255413,0.00656730866208673));
#425=CARTESIAN_POINT('',(0.,-0.00372101180255413,0.0066867254731252));
#426=CARTESIAN_POINT('',(9.74391458530266E-5,-0.00372296465085446,0.0069202703885144));
#427=CARTESIAN_POINT('',(0.000575736045616526,-0.00369226441248374,0.00711773861145049));
#428=CARTESIAN_POINT('',(0.000900000000000006,-0.00361053027057621,0.00680621930327808));
#429=CARTESIAN_POINT('',(0.0009,-0.00361053027057621,0.00656730866208672));
#430=CARTESIAN_POINT('',(0.,0.,0.));
#431=CARTESIAN_POINT('',(0.,0.,0.));
#432=CARTESIAN_POINT('',(0.,0.,0.));
#433=CARTESIAN_POINT('',(0.,0.,0.));
#434=CARTESIAN_POINT('',(0.,0.,0.));
#435=CARTESIAN_POINT('',(0.,0.,0.));
#436=CARTESIAN_POINT('',(0.,0.,0.));
#437=CARTESIAN_POINT('',(0.,0.,0.));
#438=CARTESIAN_POINT('',(0.,0.,0.));
#439=CARTESIAN_POINT('',(0.,0.,0.));
#440=CARTESIAN_POINT('',(0.,0.,0.));
#441=CARTESIAN_POINT('',(-0.000449976484821282,0.00044997648482128,3.71600461259779E-5));
#442=CARTESIAN_POINT('',(-0.000636362847583226,1.15196480826585E-19,3.71600461259779E-5));
#443=CARTESIAN_POINT('',(-0.000449976484821281,-0.000449976484821281,3.71600461259779E-5));
#444=CARTESIAN_POINT('',(-2.43945488809238E-19,-0.000636362847583227,3.71600461259779E-5));
#445=CARTESIAN_POINT('',(0.000449976484821281,-0.000449976484821281,3.71600461259779E-5));
#446=CARTESIAN_POINT('',(0.000636362847583227,-3.5363625547867E-20,3.71600461259779E-5));
#447=CARTESIAN_POINT('',(0.000449976484821281,0.000449976484821281,3.71600461259779E-5));
#448=CARTESIAN_POINT('',(3.79470760369927E-19,0.000636362847583227,3.71600461259779E-5));
#449=CARTESIAN_POINT('',(-0.000449976484821282,0.00044997648482128,3.71600461259779E-5));
#450=CARTESIAN_POINT('',(-0.000636362847583226,1.15196480826585E-19,3.71600461259779E-5));
#451=CARTESIAN_POINT('',(-0.000449976484821281,-0.000449976484821281,3.71600461259779E-5));
#452=CARTESIAN_POINT('',(-0.00116027886551687,0.00116027886551687,3.48031826439992E-6));
#453=CARTESIAN_POINT('',(-0.00164088210774883,2.71050543121376E-19,3.48031826439992E-6));
#454=CARTESIAN_POINT('',(-0.00116027886551687,-0.00116027886551687,3.48031826439992E-6));
#455=CARTESIAN_POINT('',(-4.06575814682064E-20,-0.00164088210774883,3.48031826439992E-6));
#456=CARTESIAN_POINT('',(0.00116027886551687,-0.00116027886551687,3.48031826439992E-6));
#457=CARTESIAN_POINT('',(0.00164088210774883,-3.54906804899552E-19,3.48031826439992E-6));
#458=CARTESIAN_POINT('',(0.00116027886551687,0.00116027886551687,3.48031826439992E-6));
#459=CARTESIAN_POINT('',(5.96311194867027E-19,0.00164088210774883,3.48031826439992E-6));
#460=CARTESIAN_POINT('',(-0.00116027886551687,0.00116027886551687,3.48031826439992E-6));
#461=CARTESIAN_POINT('',(-0.00164088210774883,2.71050543121376E-19,3.48031826439992E-6));
#462=CARTESIAN_POINT('',(-0.00116027886551687,-0.00116027886551687,3.48031826439992E-6));
#463=CARTESIAN_POINT('',(-0.00196419526841704,0.00196419526841704,7.76669856981834E-5));
#464=CARTESIAN_POINT('',(-0.00277779158774444,6.50521303491303E-19,7.76669856981834E-5));
#465=CARTESIAN_POINT('',(-0.00196419526841704,-0.00196419526841704,7.76669856981834E-5));
#466=CARTESIAN_POINT('',(-5.6920614055489E-19,-0.00277779158774444,7.76669856981834E-5));
#467=CARTESIAN_POINT('',(0.00196419526841704,-0.00196419526841704,7.76669856981834E-5));
#468=CARTESIAN_POINT('',(0.00277779158774444,-2.95190982118124E-19,7.76669856981834E-5));
#469=CARTESIAN_POINT('',(0.00196419526841704,0.00196419526841704,7.76669856981834E-5));
#470=CARTESIAN_POINT('',(1.05709711817337E-18,0.00277779158774444,7.76669856981834E-5));
#471=CARTESIAN_POINT('',(-0.00196419526841704,0.00196419526841704,7.76669856981834E-5));
#472=CARTESIAN_POINT('',(-0.00277779158774444,6.50521303491303E-19,7.76669856981834E-5));
#473=CARTESIAN_POINT('',(-0.00196419526841704,-0.00196419526841704,7.76669856981834E-5));
#474=CARTESIAN_POINT('',(-0.00244546520396267,0.00244546520396266,0.00026255383927884));
#475=CARTESIAN_POINT('',(-0.00345841005775548,5.42101086242752E-19,0.00026255383927884));
#476=CARTESIAN_POINT('',(-0.00244546520396266,-0.00244546520396266,0.00026255383927884));
#477=CARTESIAN_POINT('',(9.48676900924816E-20,-0.00345841005775548,0.00026255383927884));
#478=CARTESIAN_POINT('',(0.00244546520396266,-0.00244546520396266,0.00026255383927884));
#479=CARTESIAN_POINT('',(0.00345841005775548,-9.46982835030308E-19,0.00026255383927884));
#480=CARTESIAN_POINT('',(0.00244546520396266,0.00244546520396266,0.00026255383927884));
#481=CARTESIAN_POINT('',(2.57498015965307E-18,0.00345841005775548,0.00026255383927884));
#482=CARTESIAN_POINT('',(-0.00244546520396267,0.00244546520396266,0.00026255383927884));
#483=CARTESIAN_POINT('',(-0.00345841005775548,5.42101086242752E-19,0.00026255383927884));
#484=CARTESIAN_POINT('',(-0.00244546520396266,-0.00244546520396266,0.00026255383927884));
#485=CARTESIAN_POINT('',(-0.00273926661168992,0.00273926661168991,0.000668707525044246));
#486=CARTESIAN_POINT('',(-0.00387390799320767,1.19262238973405E-18,0.000668707525044246));
#487=CARTESIAN_POINT('',(-0.00273926661168991,-0.00273926661168991,0.000668707525044246));
#488=CARTESIAN_POINT('',(-8.94466792300541E-19,-0.00387390799320767,0.000668707525044246));
#489=CARTESIAN_POINT('',(0.00273926661168991,-0.00273926661168991,0.000668707525044246));
#490=CARTESIAN_POINT('',(0.00387390799320767,-4.82808779934951E-19,0.000668707525044246));
#491=CARTESIAN_POINT('',(0.00273926661168991,0.00273926661168991,0.000668707525044246));
#492=CARTESIAN_POINT('',(2.33103467084383E-18,0.00387390799320767,0.000668707525044246));
#493=CARTESIAN_POINT('',(-0.00273926661168992,0.00273926661168991,0.000668707525044246));
#494=CARTESIAN_POINT('',(-0.00387390799320767,1.19262238973405E-18,0.000668707525044246));
#495=CARTESIAN_POINT('',(-0.00273926661168991,-0.00273926661168991,0.000668707525044246));
#496=CARTESIAN_POINT('',(-0.00290941447385226,0.00290941447385226,0.00146301266388116));
#497=CARTESIAN_POINT('',(-0.00411453340748645,2.71050543121376E-19,0.00146301266388116));
#498=CARTESIAN_POINT('',(-0.00290941447385226,-0.00290941447385226,0.00146301266388116));
#499=CARTESIAN_POINT('',(-9.75781955236954E-19,-0.00411453340748645,0.00146301266388116));
#500=CARTESIAN_POINT('',(0.00290941447385226,-0.00290941447385226,0.00146301266388116));
#501=CARTESIAN_POINT('',(0.00411453340748645,-9.30889209032476E-19,0.00146301266388116));
#502=CARTESIAN_POINT('',(0.00290941447385226,0.00290941447385226,0.00146301266388116));
#503=CARTESIAN_POINT('',(2.11419423634673E-18,0.00411453340748645,0.00146301266388116));
#504=CARTESIAN_POINT('',(-0.00290941447385226,0.00290941447385226,0.00146301266388116));
#505=CARTESIAN_POINT('',(-0.00411453340748645,2.71050543121376E-19,0.00146301266388116));
#506=CARTESIAN_POINT('',(-0.00290941447385226,-0.00290941447385226,0.00146301266388116));
#507=CARTESIAN_POINT('',(-0.00289873248585354,0.00289873248585353,0.00218322528948223));
#508=CARTESIAN_POINT('',(-0.00409942679518554,8.67361737988404E-19,0.00218322528948223));
#509=CARTESIAN_POINT('',(-0.00289873248585354,-0.00289873248585353,0.00218322528948223));
#510=CARTESIAN_POINT('',(1.0842021724855E-19,-0.00409942679518554,0.00218322528948223));
#511=CARTESIAN_POINT('',(0.00289873248585353,-0.00289873248585353,0.00218322528948223));
#512=CARTESIAN_POINT('',(0.00409942679518554,-1.56701095242046E-19,0.00218322528948223));
#513=CARTESIAN_POINT('',(0.00289873248585353,0.00289873248585353,0.00218322528948223));
#514=CARTESIAN_POINT('',(2.62919026827735E-18,0.00409942679518554,0.00218322528948223));
#515=CARTESIAN_POINT('',(-0.00289873248585354,0.00289873248585353,0.00218322528948223));
#516=CARTESIAN_POINT('',(-0.00409942679518554,8.67361737988404E-19,0.00218322528948223));
#517=CARTESIAN_POINT('',(-0.00289873248585354,-0.00289873248585353,0.00218322528948223));
#518=CARTESIAN_POINT('',(-0.00291582810483887,0.00291582810483886,0.00259501878172159));
#519=CARTESIAN_POINT('',(-0.00412360365141176,5.42101086242752E-19,0.00259501878172159));
#520=CARTESIAN_POINT('',(-0.00291582810483887,-0.00291582810483887,0.00259501878172159));
#521=CARTESIAN_POINT('',(-5.14996031930615E-19,-0.00412360365141176,0.00259501878172159));
#522=CARTESIAN_POINT('',(0.00291582810483887,-0.00291582810483887,0.00259501878172159));
#523=CARTESIAN_POINT('',(0.00412360365141176,-6.40356908124251E-19,0.00259501878172159));
#524=CARTESIAN_POINT('',(0.00291582810483887,0.00291582810483887,0.00259501878172159));
#525=CARTESIAN_POINT('',(2.22261445359528E-18,0.00412360365141176,0.00259501878172159));
#526=CARTESIAN_POINT('',(-0.00291582810483887,0.00291582810483886,0.00259501878172159));
#527=CARTESIAN_POINT('',(-0.00412360365141176,5.42101086242752E-19,0.00259501878172159));
#528=CARTESIAN_POINT('',(-0.00291582810483887,-0.00291582810483887,0.00259501878172159));
#529=CARTESIAN_POINT('',(0.,0.,0.));
#530=CARTESIAN_POINT('',(-7.7272504643528E-20,-0.00126195576875436,8.15170481375799E-5));
#531=CARTESIAN_POINT('',(-2.33985494987475E-19,-0.00382127312381635,-0.000291740216588693));
#532=CARTESIAN_POINT('',(-2.2542009999223E-19,-0.00368138960799435,0.00185305602921109));
#533=CARTESIAN_POINT('',(-2.27846259679372E-19,-0.00372101180255413,0.00259501878172159));
#534=CARTESIAN_POINT('',(0.,-0.00372101180255413,0.00259501878172159));
#535=CARTESIAN_POINT('',(0.,0.,0.00259501878172159));
#536=CARTESIAN_POINT('',(0.0009,-0.00361053027057621,0.00259501878172159));
#537=CARTESIAN_POINT('',(0.0009,-0.00361053027057621,0.00259501878172159));
#538=CARTESIAN_POINT('',(0.0009,-0.0036063547499749,0.00251914981817619));
#539=CARTESIAN_POINT('',(0.000900000000000002,-0.00360338553003994,0.00244323651636051));
#540=CARTESIAN_POINT('',(0.000900000000000002,-0.00360081223529431,0.00236730866208825));
#541=CARTESIAN_POINT('',(0.,0.,0.));
#542=CARTESIAN_POINT('',(-0.00186050590127707,0.,0.00863567814230919));
#543=CARTESIAN_POINT('',(0.,1.96755960911573E-19,0.00863567814230919));
#544=CARTESIAN_POINT('',(0.00321326869181485,1.96755960911573E-19,0.00863567814230919));
#545=CARTESIAN_POINT('',(0.,0.,0.00863567814230919));
#546=CARTESIAN_POINT('',(0.00372101180255413,0.,0.00863567814230919));
#547=CARTESIAN_POINT('',(0.,0.,0.00431783907115459));
#548=CARTESIAN_POINT('',(0.0009,-0.00361053027057621,0.00431783907115459));
#549=CARTESIAN_POINT('',(0.0009,-0.00361053027057621,0.00629730866208673));
#550=CARTESIAN_POINT('',(0.,0.,0.00629730866208673));
#551=CARTESIAN_POINT('',(0.,-0.00372101180255413,0.00629730866208673));
#552=CARTESIAN_POINT('',(0.,-0.00372101180255413,0.00431783907115459));
#553=CARTESIAN_POINT('',(0.,0.,0.00262553066766747));
#554=CARTESIAN_POINT('',(0.,-0.00372101180255413,0.00262553066766747));
#555=CARTESIAN_POINT('',(0.0009,-0.00361053027057621,0.00262553066766747));
#556=CARTESIAN_POINT('',(0.0009,-0.00361053027057621,0.00431783907115459));
#557=CARTESIAN_POINT('',(0.,-0.00372101180255413,0.00431783907115459));
#558=CARTESIAN_POINT('',(0.,-0.00474363410264254,0.00446730866208672));
#559=CARTESIAN_POINT('',(0.,-0.0043494242682746,0.00629730866208673));
#560=CARTESIAN_POINT('',(0.,-0.00524521443390666,0.00629730866208673));
#561=CARTESIAN_POINT('',(0.,-0.00524521443390666,0.0044614196648771));
#562=CARTESIAN_POINT('',(0.,-0.00524521443390666,0.00262553066766747));
#563=CARTESIAN_POINT('',(0.,-0.0043494242682746,0.00262553066766747));
#564=CARTESIAN_POINT('',(0.0006,-0.0043494242682746,0.00262553066766747));
#565=CARTESIAN_POINT('',(0.0006,-0.00524521443390666,0.00262553066766747));
#566=CARTESIAN_POINT('',(0.0009,-0.00524521443390666,0.00262553066766747));
#567=CARTESIAN_POINT('',(0.0009,-0.0043494242682746,0.00262553066766747));
#568=CARTESIAN_POINT('',(0.0006,-0.00524521443390666,0.0044614196648771));
#569=CARTESIAN_POINT('',(0.0006,-0.00524521443390666,0.00629730866208673));
#570=CARTESIAN_POINT('',(0.0009,-0.00524521443390666,0.00629730866208673));
#571=CARTESIAN_POINT('',(0.0009,-0.00524521443390666,0.0044614196648771));
#572=CARTESIAN_POINT('',(0.0006,-0.0043494242682746,0.00629730866208673));
#573=CARTESIAN_POINT('',(0.0009,-0.0043494242682746,0.00629730866208673));
#574=CARTESIAN_POINT('',(0.0009,-0.00474363410264254,0.00446730866208672));
#575=CARTESIAN_POINT('',(0.,1.96755960911573E-19,0.00155567814230919));
#576=CARTESIAN_POINT('',(0.,1.96755960911573E-19,0.00155567814230919));
#577=CARTESIAN_POINT('',(0.00321326869181485,1.96755960911573E-19,0.00155567814230919));
#578=CARTESIAN_POINT('',(0.,0.,0.00155567814230919));
#579=MECHANICAL_DESIGN_GEOMETRIC_PRESENTATION_REPRESENTATION('',(#271),
#580);
#580=(
GEOMETRIC_REPRESENTATION_CONTEXT(3)
GLOBAL_UNCERTAINTY_ASSIGNED_CONTEXT((#581))
GLOBAL_UNIT_ASSIGNED_CONTEXT((#584,#583,#582))
REPRESENTATION_CONTEXT('Part 1','TOP_LEVEL_ASSEMBLY_PART')
);
#581=UNCERTAINTY_MEASURE_WITH_UNIT(LENGTH_MEASURE(2.E-5),#584,
'DISTANCE_ACCURACY_VALUE','Maximum Tolerance applied to model');
#582=(
NAMED_UNIT(*)
SI_UNIT($,.STERADIAN.)
SOLID_ANGLE_UNIT()
);
#583=(
NAMED_UNIT(*)
PLANE_ANGLE_UNIT()
SI_UNIT($,.RADIAN.)
);
#584=(
LENGTH_UNIT()
NAMED_UNIT(*)
SI_UNIT($,.METRE.)
);
#585=PRODUCT_DEFINITION_SHAPE('','',#586);
#586=PRODUCT_DEFINITION('','',#588,#587);
#587=PRODUCT_DEFINITION_CONTEXT('',#594,'design');
#588=PRODUCT_DEFINITION_FORMATION_WITH_SPECIFIED_SOURCE('','',#590,
 .NOT_KNOWN.);
#589=PRODUCT_RELATED_PRODUCT_CATEGORY('','',(#590));
#590=PRODUCT('Part 1','Part 1','Part 1',(#592));
#591=PRODUCT_CATEGORY('','');
#592=PRODUCT_CONTEXT('',#594,'mechanical');
#593=APPLICATION_PROTOCOL_DEFINITION('international standard',
'ap242_managed_model_based_3d_engineering',2020,#594);
#594=APPLICATION_CONTEXT('managed model based 3d engineering');
ENDSEC;
END-ISO-10303-21;
