ISO-10303-21;
HEADER;
/* Generated by software containing ST-Developer
 * from STEP Tools, Inc. (www.steptools.com) 
 */
/* OPTION: using custom renumber hook */

FILE_DESCRIPTION(
/* description */ ('STEP AP242 Edition 2',
'CAx-IF Rec.Pracs.---Representation and Presentation of Product Manufa
cturing Information (PMI)---4.0---2014-10-13',
'CAx-IF Rec.Pracs.---3D Tessellated Geometry---0.4---2014-09-14','2;1',
'CAx-IF Rec.Pracs.---User Defined Attributes---1.5---2016-08-15'),
/* implementation_level */ '2;1');

FILE_NAME(
/* name */ 'Picture Frames',
/* time_stamp */ '2026-09-04T22:02:18Z',
/* author */ (''),
/* organization */ (''),
/* preprocessor_version */ 'ST-DEVELOPER v20',
/* originating_system */ 'ONSHAPE BY PTC INC, 1.220',
/* authorisation */ '  ');

FILE_SCHEMA (('AP242_MANAGED_MODEL_BASED_3D_ENGINEERING_MIM_LF { 1 0 10303 442 3 1 4 }'));
ENDSEC;

DATA;
#10=SHAPE_REPRESENTATION_RELATIONSHIP('','',#615,#13);
#11=SHAPE_REPRESENTATION_RELATIONSHIP('','',#616,#14);
#12=SHAPE_REPRESENTATION_RELATIONSHIP('','',#617,#15);
#13=ADVANCED_BREP_SHAPE_REPRESENTATION('',(#609),#957);
#14=ADVANCED_BREP_SHAPE_REPRESENTATION('',(#610),#958);
#15=ADVANCED_BREP_SHAPE_REPRESENTATION('',(#611),#959);
#16=OVER_RIDING_STYLED_ITEM('',(#573),#543,#569);
#17=OVER_RIDING_STYLED_ITEM('',(#575),#554,#570);
#18=OVER_RIDING_STYLED_ITEM('',(#577),#565,#571);
#19=COLOUR_RGB('',0.972549019607843,0.972549019607843,0.972549019607843);
#20=ORIENTED_EDGE('',*,*,#164,.F.);
#21=ORIENTED_EDGE('',*,*,#165,.F.);
#22=ORIENTED_EDGE('',*,*,#166,.F.);
#23=ORIENTED_EDGE('',*,*,#167,.T.);
#24=ORIENTED_EDGE('',*,*,#168,.T.);
#25=ORIENTED_EDGE('',*,*,#169,.T.);
#26=ORIENTED_EDGE('',*,*,#167,.F.);
#27=ORIENTED_EDGE('',*,*,#170,.T.);
#28=ORIENTED_EDGE('',*,*,#171,.T.);
#29=ORIENTED_EDGE('',*,*,#172,.T.);
#30=ORIENTED_EDGE('',*,*,#168,.F.);
#31=ORIENTED_EDGE('',*,*,#173,.T.);
#32=ORIENTED_EDGE('',*,*,#174,.F.);
#33=ORIENTED_EDGE('',*,*,#171,.F.);
#34=ORIENTED_EDGE('',*,*,#175,.F.);
#35=ORIENTED_EDGE('',*,*,#165,.T.);
#36=ORIENTED_EDGE('',*,*,#176,.T.);
#37=ORIENTED_EDGE('',*,*,#177,.F.);
#38=ORIENTED_EDGE('',*,*,#178,.F.);
#39=ORIENTED_EDGE('',*,*,#179,.T.);
#40=ORIENTED_EDGE('',*,*,#180,.F.);
#41=ORIENTED_EDGE('',*,*,#179,.F.);
#42=ORIENTED_EDGE('',*,*,#181,.T.);
#43=ORIENTED_EDGE('',*,*,#182,.T.);
#44=ORIENTED_EDGE('',*,*,#183,.F.);
#45=ORIENTED_EDGE('',*,*,#182,.F.);
#46=ORIENTED_EDGE('',*,*,#184,.T.);
#47=ORIENTED_EDGE('',*,*,#185,.T.);
#48=ORIENTED_EDGE('',*,*,#186,.T.);
#49=ORIENTED_EDGE('',*,*,#185,.F.);
#50=ORIENTED_EDGE('',*,*,#187,.F.);
#51=ORIENTED_EDGE('',*,*,#177,.T.);
#52=ORIENTED_EDGE('',*,*,#178,.T.);
#53=ORIENTED_EDGE('',*,*,#187,.T.);
#54=ORIENTED_EDGE('',*,*,#184,.F.);
#55=ORIENTED_EDGE('',*,*,#181,.F.);
#56=ORIENTED_EDGE('',*,*,#166,.T.);
#57=ORIENTED_EDGE('',*,*,#175,.T.);
#58=ORIENTED_EDGE('',*,*,#173,.F.);
#59=ORIENTED_EDGE('',*,*,#170,.F.);
#60=ORIENTED_EDGE('',*,*,#176,.F.);
#61=ORIENTED_EDGE('',*,*,#180,.T.);
#62=ORIENTED_EDGE('',*,*,#183,.T.);
#63=ORIENTED_EDGE('',*,*,#186,.F.);
#64=ORIENTED_EDGE('',*,*,#174,.T.);
#65=ORIENTED_EDGE('',*,*,#164,.T.);
#66=ORIENTED_EDGE('',*,*,#169,.F.);
#67=ORIENTED_EDGE('',*,*,#172,.F.);
#68=ORIENTED_EDGE('',*,*,#188,.F.);
#69=ORIENTED_EDGE('',*,*,#189,.F.);
#70=ORIENTED_EDGE('',*,*,#190,.F.);
#71=ORIENTED_EDGE('',*,*,#191,.T.);
#72=ORIENTED_EDGE('',*,*,#192,.T.);
#73=ORIENTED_EDGE('',*,*,#193,.T.);
#74=ORIENTED_EDGE('',*,*,#191,.F.);
#75=ORIENTED_EDGE('',*,*,#194,.T.);
#76=ORIENTED_EDGE('',*,*,#195,.T.);
#77=ORIENTED_EDGE('',*,*,#196,.T.);
#78=ORIENTED_EDGE('',*,*,#192,.F.);
#79=ORIENTED_EDGE('',*,*,#197,.T.);
#80=ORIENTED_EDGE('',*,*,#198,.F.);
#81=ORIENTED_EDGE('',*,*,#195,.F.);
#82=ORIENTED_EDGE('',*,*,#199,.F.);
#83=ORIENTED_EDGE('',*,*,#189,.T.);
#84=ORIENTED_EDGE('',*,*,#200,.T.);
#85=ORIENTED_EDGE('',*,*,#201,.F.);
#86=ORIENTED_EDGE('',*,*,#202,.F.);
#87=ORIENTED_EDGE('',*,*,#203,.T.);
#88=ORIENTED_EDGE('',*,*,#204,.F.);
#89=ORIENTED_EDGE('',*,*,#203,.F.);
#90=ORIENTED_EDGE('',*,*,#205,.T.);
#91=ORIENTED_EDGE('',*,*,#206,.T.);
#92=ORIENTED_EDGE('',*,*,#207,.F.);
#93=ORIENTED_EDGE('',*,*,#206,.F.);
#94=ORIENTED_EDGE('',*,*,#208,.T.);
#95=ORIENTED_EDGE('',*,*,#209,.T.);
#96=ORIENTED_EDGE('',*,*,#210,.T.);
#97=ORIENTED_EDGE('',*,*,#209,.F.);
#98=ORIENTED_EDGE('',*,*,#211,.F.);
#99=ORIENTED_EDGE('',*,*,#201,.T.);
#100=ORIENTED_EDGE('',*,*,#202,.T.);
#101=ORIENTED_EDGE('',*,*,#211,.T.);
#102=ORIENTED_EDGE('',*,*,#208,.F.);
#103=ORIENTED_EDGE('',*,*,#205,.F.);
#104=ORIENTED_EDGE('',*,*,#190,.T.);
#105=ORIENTED_EDGE('',*,*,#199,.T.);
#106=ORIENTED_EDGE('',*,*,#197,.F.);
#107=ORIENTED_EDGE('',*,*,#194,.F.);
#108=ORIENTED_EDGE('',*,*,#200,.F.);
#109=ORIENTED_EDGE('',*,*,#204,.T.);
#110=ORIENTED_EDGE('',*,*,#207,.T.);
#111=ORIENTED_EDGE('',*,*,#210,.F.);
#112=ORIENTED_EDGE('',*,*,#198,.T.);
#113=ORIENTED_EDGE('',*,*,#188,.T.);
#114=ORIENTED_EDGE('',*,*,#193,.F.);
#115=ORIENTED_EDGE('',*,*,#196,.F.);
#116=ORIENTED_EDGE('',*,*,#212,.F.);
#117=ORIENTED_EDGE('',*,*,#213,.F.);
#118=ORIENTED_EDGE('',*,*,#214,.F.);
#119=ORIENTED_EDGE('',*,*,#215,.T.);
#120=ORIENTED_EDGE('',*,*,#216,.T.);
#121=ORIENTED_EDGE('',*,*,#217,.T.);
#122=ORIENTED_EDGE('',*,*,#215,.F.);
#123=ORIENTED_EDGE('',*,*,#218,.T.);
#124=ORIENTED_EDGE('',*,*,#219,.T.);
#125=ORIENTED_EDGE('',*,*,#220,.T.);
#126=ORIENTED_EDGE('',*,*,#216,.F.);
#127=ORIENTED_EDGE('',*,*,#221,.T.);
#128=ORIENTED_EDGE('',*,*,#222,.F.);
#129=ORIENTED_EDGE('',*,*,#219,.F.);
#130=ORIENTED_EDGE('',*,*,#223,.F.);
#131=ORIENTED_EDGE('',*,*,#213,.T.);
#132=ORIENTED_EDGE('',*,*,#224,.T.);
#133=ORIENTED_EDGE('',*,*,#225,.F.);
#134=ORIENTED_EDGE('',*,*,#226,.F.);
#135=ORIENTED_EDGE('',*,*,#227,.T.);
#136=ORIENTED_EDGE('',*,*,#228,.F.);
#137=ORIENTED_EDGE('',*,*,#227,.F.);
#138=ORIENTED_EDGE('',*,*,#229,.T.);
#139=ORIENTED_EDGE('',*,*,#230,.T.);
#140=ORIENTED_EDGE('',*,*,#231,.F.);
#141=ORIENTED_EDGE('',*,*,#230,.F.);
#142=ORIENTED_EDGE('',*,*,#232,.T.);
#143=ORIENTED_EDGE('',*,*,#233,.T.);
#144=ORIENTED_EDGE('',*,*,#234,.T.);
#145=ORIENTED_EDGE('',*,*,#233,.F.);
#146=ORIENTED_EDGE('',*,*,#235,.F.);
#147=ORIENTED_EDGE('',*,*,#225,.T.);
#148=ORIENTED_EDGE('',*,*,#226,.T.);
#149=ORIENTED_EDGE('',*,*,#235,.T.);
#150=ORIENTED_EDGE('',*,*,#232,.F.);
#151=ORIENTED_EDGE('',*,*,#229,.F.);
#152=ORIENTED_EDGE('',*,*,#214,.T.);
#153=ORIENTED_EDGE('',*,*,#223,.T.);
#154=ORIENTED_EDGE('',*,*,#221,.F.);
#155=ORIENTED_EDGE('',*,*,#218,.F.);
#156=ORIENTED_EDGE('',*,*,#224,.F.);
#157=ORIENTED_EDGE('',*,*,#228,.T.);
#158=ORIENTED_EDGE('',*,*,#231,.T.);
#159=ORIENTED_EDGE('',*,*,#234,.F.);
#160=ORIENTED_EDGE('',*,*,#222,.T.);
#161=ORIENTED_EDGE('',*,*,#212,.T.);
#162=ORIENTED_EDGE('',*,*,#217,.F.);
#163=ORIENTED_EDGE('',*,*,#220,.F.);
#164=EDGE_CURVE('',#236,#237,#284,.T.);
#165=EDGE_CURVE('',#238,#236,#285,.T.);
#166=EDGE_CURVE('',#239,#238,#286,.T.);
#167=EDGE_CURVE('',#239,#237,#287,.T.);
#168=EDGE_CURVE('',#240,#241,#288,.T.);
#169=EDGE_CURVE('',#241,#237,#289,.T.);
#170=EDGE_CURVE('',#239,#240,#290,.T.);
#171=EDGE_CURVE('',#242,#243,#291,.T.);
#172=EDGE_CURVE('',#243,#241,#292,.T.);
#173=EDGE_CURVE('',#240,#242,#293,.T.);
#174=EDGE_CURVE('',#243,#236,#294,.T.);
#175=EDGE_CURVE('',#238,#242,#295,.T.);
#176=EDGE_CURVE('',#244,#245,#296,.T.);
#177=EDGE_CURVE('',#246,#245,#297,.T.);
#178=EDGE_CURVE('',#247,#246,#298,.T.);
#179=EDGE_CURVE('',#247,#244,#299,.T.);
#180=EDGE_CURVE('',#244,#248,#300,.T.);
#181=EDGE_CURVE('',#247,#249,#301,.T.);
#182=EDGE_CURVE('',#249,#248,#302,.T.);
#183=EDGE_CURVE('',#248,#250,#303,.T.);
#184=EDGE_CURVE('',#249,#251,#304,.T.);
#185=EDGE_CURVE('',#251,#250,#305,.T.);
#186=EDGE_CURVE('',#245,#250,#306,.T.);
#187=EDGE_CURVE('',#246,#251,#307,.T.);
#188=EDGE_CURVE('',#252,#253,#308,.T.);
#189=EDGE_CURVE('',#254,#252,#309,.T.);
#190=EDGE_CURVE('',#255,#254,#310,.T.);
#191=EDGE_CURVE('',#255,#253,#311,.T.);
#192=EDGE_CURVE('',#256,#257,#312,.T.);
#193=EDGE_CURVE('',#257,#253,#313,.T.);
#194=EDGE_CURVE('',#255,#256,#314,.T.);
#195=EDGE_CURVE('',#258,#259,#315,.T.);
#196=EDGE_CURVE('',#259,#257,#316,.T.);
#197=EDGE_CURVE('',#256,#258,#317,.T.);
#198=EDGE_CURVE('',#259,#252,#318,.T.);
#199=EDGE_CURVE('',#254,#258,#319,.T.);
#200=EDGE_CURVE('',#260,#261,#320,.T.);
#201=EDGE_CURVE('',#262,#261,#321,.T.);
#202=EDGE_CURVE('',#263,#262,#322,.T.);
#203=EDGE_CURVE('',#263,#260,#323,.T.);
#204=EDGE_CURVE('',#260,#264,#324,.T.);
#205=EDGE_CURVE('',#263,#265,#325,.T.);
#206=EDGE_CURVE('',#265,#264,#326,.T.);
#207=EDGE_CURVE('',#264,#266,#327,.T.);
#208=EDGE_CURVE('',#265,#267,#328,.T.);
#209=EDGE_CURVE('',#267,#266,#329,.T.);
#210=EDGE_CURVE('',#261,#266,#330,.T.);
#211=EDGE_CURVE('',#262,#267,#331,.T.);
#212=EDGE_CURVE('',#268,#269,#332,.T.);
#213=EDGE_CURVE('',#270,#268,#333,.T.);
#214=EDGE_CURVE('',#271,#270,#334,.T.);
#215=EDGE_CURVE('',#271,#269,#335,.T.);
#216=EDGE_CURVE('',#272,#273,#336,.T.);
#217=EDGE_CURVE('',#273,#269,#337,.T.);
#218=EDGE_CURVE('',#271,#272,#338,.T.);
#219=EDGE_CURVE('',#274,#275,#339,.T.);
#220=EDGE_CURVE('',#275,#273,#340,.T.);
#221=EDGE_CURVE('',#272,#274,#341,.T.);
#222=EDGE_CURVE('',#275,#268,#342,.T.);
#223=EDGE_CURVE('',#270,#274,#343,.T.);
#224=EDGE_CURVE('',#276,#277,#344,.T.);
#225=EDGE_CURVE('',#278,#277,#345,.T.);
#226=EDGE_CURVE('',#279,#278,#346,.T.);
#227=EDGE_CURVE('',#279,#276,#347,.T.);
#228=EDGE_CURVE('',#276,#280,#348,.T.);
#229=EDGE_CURVE('',#279,#281,#349,.T.);
#230=EDGE_CURVE('',#281,#280,#350,.T.);
#231=EDGE_CURVE('',#280,#282,#351,.T.);
#232=EDGE_CURVE('',#281,#283,#352,.T.);
#233=EDGE_CURVE('',#283,#282,#353,.T.);
#234=EDGE_CURVE('',#277,#282,#354,.T.);
#235=EDGE_CURVE('',#278,#283,#355,.T.);
#236=VERTEX_POINT('',#801);
#237=VERTEX_POINT('',#802);
#238=VERTEX_POINT('',#804);
#239=VERTEX_POINT('',#806);
#240=VERTEX_POINT('',#810);
#241=VERTEX_POINT('',#811);
#242=VERTEX_POINT('',#816);
#243=VERTEX_POINT('',#817);
#244=VERTEX_POINT('',#825);
#245=VERTEX_POINT('',#826);
#246=VERTEX_POINT('',#828);
#247=VERTEX_POINT('',#830);
#248=VERTEX_POINT('',#834);
#249=VERTEX_POINT('',#836);
#250=VERTEX_POINT('',#840);
#251=VERTEX_POINT('',#842);
#252=VERTEX_POINT('',#853);
#253=VERTEX_POINT('',#854);
#254=VERTEX_POINT('',#856);
#255=VERTEX_POINT('',#858);
#256=VERTEX_POINT('',#862);
#257=VERTEX_POINT('',#863);
#258=VERTEX_POINT('',#868);
#259=VERTEX_POINT('',#869);
#260=VERTEX_POINT('',#877);
#261=VERTEX_POINT('',#878);
#262=VERTEX_POINT('',#880);
#263=VERTEX_POINT('',#882);
#264=VERTEX_POINT('',#886);
#265=VERTEX_POINT('',#888);
#266=VERTEX_POINT('',#892);
#267=VERTEX_POINT('',#894);
#268=VERTEX_POINT('',#905);
#269=VERTEX_POINT('',#906);
#270=VERTEX_POINT('',#908);
#271=VERTEX_POINT('',#910);
#272=VERTEX_POINT('',#914);
#273=VERTEX_POINT('',#915);
#274=VERTEX_POINT('',#920);
#275=VERTEX_POINT('',#921);
#276=VERTEX_POINT('',#929);
#277=VERTEX_POINT('',#930);
#278=VERTEX_POINT('',#932);
#279=VERTEX_POINT('',#934);
#280=VERTEX_POINT('',#938);
#281=VERTEX_POINT('',#940);
#282=VERTEX_POINT('',#944);
#283=VERTEX_POINT('',#946);
#284=LINE('',#800,#356);
#285=LINE('',#803,#357);
#286=LINE('',#805,#358);
#287=LINE('',#807,#359);
#288=LINE('',#809,#360);
#289=LINE('',#812,#361);
#290=LINE('',#813,#362);
#291=LINE('',#815,#363);
#292=LINE('',#818,#364);
#293=LINE('',#819,#365);
#294=LINE('',#821,#366);
#295=LINE('',#822,#367);
#296=LINE('',#824,#368);
#297=LINE('',#827,#369);
#298=LINE('',#829,#370);
#299=LINE('',#831,#371);
#300=LINE('',#833,#372);
#301=LINE('',#835,#373);
#302=LINE('',#837,#374);
#303=LINE('',#839,#375);
#304=LINE('',#841,#376);
#305=LINE('',#843,#377);
#306=LINE('',#845,#378);
#307=LINE('',#846,#379);
#308=LINE('',#852,#380);
#309=LINE('',#855,#381);
#310=LINE('',#857,#382);
#311=LINE('',#859,#383);
#312=LINE('',#861,#384);
#313=LINE('',#864,#385);
#314=LINE('',#865,#386);
#315=LINE('',#867,#387);
#316=LINE('',#870,#388);
#317=LINE('',#871,#389);
#318=LINE('',#873,#390);
#319=LINE('',#874,#391);
#320=LINE('',#876,#392);
#321=LINE('',#879,#393);
#322=LINE('',#881,#394);
#323=LINE('',#883,#395);
#324=LINE('',#885,#396);
#325=LINE('',#887,#397);
#326=LINE('',#889,#398);
#327=LINE('',#891,#399);
#328=LINE('',#893,#400);
#329=LINE('',#895,#401);
#330=LINE('',#897,#402);
#331=LINE('',#898,#403);
#332=LINE('',#904,#404);
#333=LINE('',#907,#405);
#334=LINE('',#909,#406);
#335=LINE('',#911,#407);
#336=LINE('',#913,#408);
#337=LINE('',#916,#409);
#338=LINE('',#917,#410);
#339=LINE('',#919,#411);
#340=LINE('',#922,#412);
#341=LINE('',#923,#413);
#342=LINE('',#925,#414);
#343=LINE('',#926,#415);
#344=LINE('',#928,#416);
#345=LINE('',#931,#417);
#346=LINE('',#933,#418);
#347=LINE('',#935,#419);
#348=LINE('',#937,#420);
#349=LINE('',#939,#421);
#350=LINE('',#941,#422);
#351=LINE('',#943,#423);
#352=LINE('',#945,#424);
#353=LINE('',#947,#425);
#354=LINE('',#949,#426);
#355=LINE('',#950,#427);
#356=VECTOR('',#658,1.);
#357=VECTOR('',#659,1.);
#358=VECTOR('',#660,1.);
#359=VECTOR('',#661,1.);
#360=VECTOR('',#664,1.);
#361=VECTOR('',#665,1.);
#362=VECTOR('',#666,1.);
#363=VECTOR('',#669,1.);
#364=VECTOR('',#670,1.);
#365=VECTOR('',#671,1.);
#366=VECTOR('',#674,1.);
#367=VECTOR('',#675,1.);
#368=VECTOR('',#678,1.);
#369=VECTOR('',#679,1.);
#370=VECTOR('',#680,1.);
#371=VECTOR('',#681,1.);
#372=VECTOR('',#684,1.);
#373=VECTOR('',#685,1.);
#374=VECTOR('',#686,1.);
#375=VECTOR('',#689,1.);
#376=VECTOR('',#690,1.);
#377=VECTOR('',#691,1.);
#378=VECTOR('',#694,1.);
#379=VECTOR('',#695,1.);
#380=VECTOR('',#706,1.);
#381=VECTOR('',#707,1.);
#382=VECTOR('',#708,1.);
#383=VECTOR('',#709,1.);
#384=VECTOR('',#712,1.);
#385=VECTOR('',#713,1.);
#386=VECTOR('',#714,1.);
#387=VECTOR('',#717,1.);
#388=VECTOR('',#718,1.);
#389=VECTOR('',#719,1.);
#390=VECTOR('',#722,1.);
#391=VECTOR('',#723,1.);
#392=VECTOR('',#726,1.);
#393=VECTOR('',#727,1.);
#394=VECTOR('',#728,1.);
#395=VECTOR('',#729,1.);
#396=VECTOR('',#732,1.);
#397=VECTOR('',#733,1.);
#398=VECTOR('',#734,1.);
#399=VECTOR('',#737,1.);
#400=VECTOR('',#738,1.);
#401=VECTOR('',#739,1.);
#402=VECTOR('',#742,1.);
#403=VECTOR('',#743,1.);
#404=VECTOR('',#754,1.);
#405=VECTOR('',#755,1.);
#406=VECTOR('',#756,1.);
#407=VECTOR('',#757,1.);
#408=VECTOR('',#760,1.);
#409=VECTOR('',#761,1.);
#410=VECTOR('',#762,1.);
#411=VECTOR('',#765,1.);
#412=VECTOR('',#766,1.);
#413=VECTOR('',#767,1.);
#414=VECTOR('',#770,1.);
#415=VECTOR('',#771,1.);
#416=VECTOR('',#774,1.);
#417=VECTOR('',#775,1.);
#418=VECTOR('',#776,1.);
#419=VECTOR('',#777,1.);
#420=VECTOR('',#780,1.);
#421=VECTOR('',#781,1.);
#422=VECTOR('',#782,1.);
#423=VECTOR('',#785,1.);
#424=VECTOR('',#786,1.);
#425=VECTOR('',#787,1.);
#426=VECTOR('',#790,1.);
#427=VECTOR('',#791,1.);
#428=EDGE_LOOP('',(#20,#21,#22,#23));
#429=EDGE_LOOP('',(#24,#25,#26,#27));
#430=EDGE_LOOP('',(#28,#29,#30,#31));
#431=EDGE_LOOP('',(#32,#33,#34,#35));
#432=EDGE_LOOP('',(#36,#37,#38,#39));
#433=EDGE_LOOP('',(#40,#41,#42,#43));
#434=EDGE_LOOP('',(#44,#45,#46,#47));
#435=EDGE_LOOP('',(#48,#49,#50,#51));
#436=EDGE_LOOP('',(#52,#53,#54,#55));
#437=EDGE_LOOP('',(#56,#57,#58,#59));
#438=EDGE_LOOP('',(#60,#61,#62,#63));
#439=EDGE_LOOP('',(#64,#65,#66,#67));
#440=EDGE_LOOP('',(#68,#69,#70,#71));
#441=EDGE_LOOP('',(#72,#73,#74,#75));
#442=EDGE_LOOP('',(#76,#77,#78,#79));
#443=EDGE_LOOP('',(#80,#81,#82,#83));
#444=EDGE_LOOP('',(#84,#85,#86,#87));
#445=EDGE_LOOP('',(#88,#89,#90,#91));
#446=EDGE_LOOP('',(#92,#93,#94,#95));
#447=EDGE_LOOP('',(#96,#97,#98,#99));
#448=EDGE_LOOP('',(#100,#101,#102,#103));
#449=EDGE_LOOP('',(#104,#105,#106,#107));
#450=EDGE_LOOP('',(#108,#109,#110,#111));
#451=EDGE_LOOP('',(#112,#113,#114,#115));
#452=EDGE_LOOP('',(#116,#117,#118,#119));
#453=EDGE_LOOP('',(#120,#121,#122,#123));
#454=EDGE_LOOP('',(#124,#125,#126,#127));
#455=EDGE_LOOP('',(#128,#129,#130,#131));
#456=EDGE_LOOP('',(#132,#133,#134,#135));
#457=EDGE_LOOP('',(#136,#137,#138,#139));
#458=EDGE_LOOP('',(#140,#141,#142,#143));
#459=EDGE_LOOP('',(#144,#145,#146,#147));
#460=EDGE_LOOP('',(#148,#149,#150,#151));
#461=EDGE_LOOP('',(#152,#153,#154,#155));
#462=EDGE_LOOP('',(#156,#157,#158,#159));
#463=EDGE_LOOP('',(#160,#161,#162,#163));
#464=FACE_BOUND('',#428,.T.);
#465=FACE_BOUND('',#429,.T.);
#466=FACE_BOUND('',#430,.T.);
#467=FACE_BOUND('',#431,.T.);
#468=FACE_BOUND('',#432,.T.);
#469=FACE_BOUND('',#433,.T.);
#470=FACE_BOUND('',#434,.T.);
#471=FACE_BOUND('',#435,.T.);
#472=FACE_BOUND('',#436,.T.);
#473=FACE_BOUND('',#437,.T.);
#474=FACE_BOUND('',#438,.T.);
#475=FACE_BOUND('',#439,.T.);
#476=FACE_BOUND('',#440,.T.);
#477=FACE_BOUND('',#441,.T.);
#478=FACE_BOUND('',#442,.T.);
#479=FACE_BOUND('',#443,.T.);
#480=FACE_BOUND('',#444,.T.);
#481=FACE_BOUND('',#445,.T.);
#482=FACE_BOUND('',#446,.T.);
#483=FACE_BOUND('',#447,.T.);
#484=FACE_BOUND('',#448,.T.);
#485=FACE_BOUND('',#449,.T.);
#486=FACE_BOUND('',#450,.T.);
#487=FACE_BOUND('',#451,.T.);
#488=FACE_BOUND('',#452,.T.);
#489=FACE_BOUND('',#453,.T.);
#490=FACE_BOUND('',#454,.T.);
#491=FACE_BOUND('',#455,.T.);
#492=FACE_BOUND('',#456,.T.);
#493=FACE_BOUND('',#457,.T.);
#494=FACE_BOUND('',#458,.T.);
#495=FACE_BOUND('',#459,.T.);
#496=FACE_BOUND('',#460,.T.);
#497=FACE_BOUND('',#461,.T.);
#498=FACE_BOUND('',#462,.T.);
#499=FACE_BOUND('',#463,.T.);
#500=PLANE('',#619);
#501=PLANE('',#620);
#502=PLANE('',#621);
#503=PLANE('',#622);
#504=PLANE('',#623);
#505=PLANE('',#624);
#506=PLANE('',#625);
#507=PLANE('',#626);
#508=PLANE('',#627);
#509=PLANE('',#628);
#510=PLANE('',#629);
#511=PLANE('',#631);
#512=PLANE('',#632);
#513=PLANE('',#633);
#514=PLANE('',#634);
#515=PLANE('',#635);
#516=PLANE('',#636);
#517=PLANE('',#637);
#518=PLANE('',#638);
#519=PLANE('',#639);
#520=PLANE('',#640);
#521=PLANE('',#641);
#522=PLANE('',#643);
#523=PLANE('',#644);
#524=PLANE('',#645);
#525=PLANE('',#646);
#526=PLANE('',#647);
#527=PLANE('',#648);
#528=PLANE('',#649);
#529=PLANE('',#650);
#530=PLANE('',#651);
#531=PLANE('',#652);
#532=PLANE('',#653);
#533=ADVANCED_FACE('',(#464),#500,.F.);
#534=ADVANCED_FACE('',(#465),#501,.T.);
#535=ADVANCED_FACE('',(#466),#502,.T.);
#536=ADVANCED_FACE('',(#467),#503,.F.);
#537=ADVANCED_FACE('',(#468),#504,.F.);
#538=ADVANCED_FACE('',(#469),#505,.T.);
#539=ADVANCED_FACE('',(#470),#506,.T.);
#540=ADVANCED_FACE('',(#471),#507,.F.);
#541=ADVANCED_FACE('',(#472,#473),#508,.F.);
#542=ADVANCED_FACE('',(#474),#509,.T.);
#543=ADVANCED_FACE('Face appearance 2',(#475),#510,.F.);
#544=ADVANCED_FACE('',(#476),#511,.F.);
#545=ADVANCED_FACE('',(#477),#512,.T.);
#546=ADVANCED_FACE('',(#478),#513,.T.);
#547=ADVANCED_FACE('',(#479),#514,.F.);
#548=ADVANCED_FACE('',(#480),#515,.F.);
#549=ADVANCED_FACE('',(#481),#516,.T.);
#550=ADVANCED_FACE('',(#482),#517,.T.);
#551=ADVANCED_FACE('',(#483),#518,.F.);
#552=ADVANCED_FACE('',(#484,#485),#519,.F.);
#553=ADVANCED_FACE('',(#486),#520,.T.);
#554=ADVANCED_FACE('Face appearance 2',(#487),#521,.F.);
#555=ADVANCED_FACE('',(#488),#522,.F.);
#556=ADVANCED_FACE('',(#489),#523,.T.);
#557=ADVANCED_FACE('',(#490),#524,.T.);
#558=ADVANCED_FACE('',(#491),#525,.F.);
#559=ADVANCED_FACE('',(#492),#526,.F.);
#560=ADVANCED_FACE('',(#493),#527,.T.);
#561=ADVANCED_FACE('',(#494),#528,.T.);
#562=ADVANCED_FACE('',(#495),#529,.F.);
#563=ADVANCED_FACE('',(#496,#497),#530,.F.);
#564=ADVANCED_FACE('',(#498),#531,.T.);
#565=ADVANCED_FACE('Face appearance 2',(#499),#532,.F.);
#566=CLOSED_SHELL('',(#533,#534,#535,#536,#537,#538,#539,#540,#541,#542,
#543));
#567=CLOSED_SHELL('',(#544,#545,#546,#547,#548,#549,#550,#551,#552,#553,
#554));
#568=CLOSED_SHELL('',(#555,#556,#557,#558,#559,#560,#561,#562,#563,#564,
#565));
#569=STYLED_ITEM('',(#572),#609);
#570=STYLED_ITEM('',(#574),#610);
#571=STYLED_ITEM('',(#576),#611);
#572=PRESENTATION_STYLE_ASSIGNMENT((#578));
#573=PRESENTATION_STYLE_ASSIGNMENT((#579));
#574=PRESENTATION_STYLE_ASSIGNMENT((#580));
#575=PRESENTATION_STYLE_ASSIGNMENT((#581));
#576=PRESENTATION_STYLE_ASSIGNMENT((#582));
#577=PRESENTATION_STYLE_ASSIGNMENT((#583));
#578=SURFACE_STYLE_USAGE(.BOTH.,#584);
#579=SURFACE_STYLE_USAGE(.BOTH.,#585);
#580=SURFACE_STYLE_USAGE(.BOTH.,#586);
#581=SURFACE_STYLE_USAGE(.BOTH.,#587);
#582=SURFACE_STYLE_USAGE(.BOTH.,#588);
#583=SURFACE_STYLE_USAGE(.BOTH.,#589);
#584=SURFACE_SIDE_STYLE('',(#590));
#585=SURFACE_SIDE_STYLE('',(#591));
#586=SURFACE_SIDE_STYLE('',(#592));
#587=SURFACE_SIDE_STYLE('',(#593));
#588=SURFACE_SIDE_STYLE('',(#594));
#589=SURFACE_SIDE_STYLE('',(#595));
#590=SURFACE_STYLE_FILL_AREA(#596);
#591=SURFACE_STYLE_FILL_AREA(#597);
#592=SURFACE_STYLE_FILL_AREA(#598);
#593=SURFACE_STYLE_FILL_AREA(#599);
#594=SURFACE_STYLE_FILL_AREA(#600);
#595=SURFACE_STYLE_FILL_AREA(#601);
#596=FILL_AREA_STYLE('',(#602));
#597=FILL_AREA_STYLE('',(#603));
#598=FILL_AREA_STYLE('',(#604));
#599=FILL_AREA_STYLE('',(#605));
#600=FILL_AREA_STYLE('',(#606));
#601=FILL_AREA_STYLE('',(#607));
#602=FILL_AREA_STYLE_COLOUR('',#608);
#603=FILL_AREA_STYLE_COLOUR('',#19);
#604=FILL_AREA_STYLE_COLOUR('',#608);
#605=FILL_AREA_STYLE_COLOUR('',#19);
#606=FILL_AREA_STYLE_COLOUR('',#608);
#607=FILL_AREA_STYLE_COLOUR('',#19);
#608=DRAUGHTING_PRE_DEFINED_COLOUR('black');
#609=MANIFOLD_SOLID_BREP('Part 3',#566);
#610=MANIFOLD_SOLID_BREP('Part 2',#567);
#611=MANIFOLD_SOLID_BREP('Part 1',#568);
#612=SHAPE_DEFINITION_REPRESENTATION(#972,#615);
#613=SHAPE_DEFINITION_REPRESENTATION(#973,#616);
#614=SHAPE_DEFINITION_REPRESENTATION(#974,#617);
#615=SHAPE_REPRESENTATION('Part 3',(#618),#957);
#616=SHAPE_REPRESENTATION('Part 2',(#630),#958);
#617=SHAPE_REPRESENTATION('Part 1',(#642),#959);
#618=AXIS2_PLACEMENT_3D('',#798,#654,#655);
#619=AXIS2_PLACEMENT_3D('',#799,#656,#657);
#620=AXIS2_PLACEMENT_3D('',#808,#662,#663);
#621=AXIS2_PLACEMENT_3D('',#814,#667,#668);
#622=AXIS2_PLACEMENT_3D('',#820,#672,#673);
#623=AXIS2_PLACEMENT_3D('',#823,#676,#677);
#624=AXIS2_PLACEMENT_3D('',#832,#682,#683);
#625=AXIS2_PLACEMENT_3D('',#838,#687,#688);
#626=AXIS2_PLACEMENT_3D('',#844,#692,#693);
#627=AXIS2_PLACEMENT_3D('',#847,#696,#697);
#628=AXIS2_PLACEMENT_3D('',#848,#698,#699);
#629=AXIS2_PLACEMENT_3D('',#849,#700,#701);
#630=AXIS2_PLACEMENT_3D('',#850,#702,#703);
#631=AXIS2_PLACEMENT_3D('',#851,#704,#705);
#632=AXIS2_PLACEMENT_3D('',#860,#710,#711);
#633=AXIS2_PLACEMENT_3D('',#866,#715,#716);
#634=AXIS2_PLACEMENT_3D('',#872,#720,#721);
#635=AXIS2_PLACEMENT_3D('',#875,#724,#725);
#636=AXIS2_PLACEMENT_3D('',#884,#730,#731);
#637=AXIS2_PLACEMENT_3D('',#890,#735,#736);
#638=AXIS2_PLACEMENT_3D('',#896,#740,#741);
#639=AXIS2_PLACEMENT_3D('',#899,#744,#745);
#640=AXIS2_PLACEMENT_3D('',#900,#746,#747);
#641=AXIS2_PLACEMENT_3D('',#901,#748,#749);
#642=AXIS2_PLACEMENT_3D('',#902,#750,#751);
#643=AXIS2_PLACEMENT_3D('',#903,#752,#753);
#644=AXIS2_PLACEMENT_3D('',#912,#758,#759);
#645=AXIS2_PLACEMENT_3D('',#918,#763,#764);
#646=AXIS2_PLACEMENT_3D('',#924,#768,#769);
#647=AXIS2_PLACEMENT_3D('',#927,#772,#773);
#648=AXIS2_PLACEMENT_3D('',#936,#778,#779);
#649=AXIS2_PLACEMENT_3D('',#942,#783,#784);
#650=AXIS2_PLACEMENT_3D('',#948,#788,#789);
#651=AXIS2_PLACEMENT_3D('',#951,#792,#793);
#652=AXIS2_PLACEMENT_3D('',#952,#794,#795);
#653=AXIS2_PLACEMENT_3D('',#953,#796,#797);
#654=DIRECTION('',(0.,0.,1.));
#655=DIRECTION('',(1.,0.,0.));
#656=DIRECTION('',(0.,6.12323399573677E-17,1.));
#657=DIRECTION('',(0.,-1.,6.12323399573677E-17));
#658=DIRECTION('',(1.,0.,0.));
#659=DIRECTION('',(0.,-1.,6.12323399573677E-17));
#660=DIRECTION('',(-1.,0.,0.));
#661=DIRECTION('',(0.,-1.,6.12323399573677E-17));
#662=DIRECTION('',(-1.,0.,0.));
#663=DIRECTION('',(0.,-1.,6.12323399573677E-17));
#664=DIRECTION('',(0.,-1.,6.12323399573677E-17));
#665=DIRECTION('',(0.,6.12323399573677E-17,1.));
#666=DIRECTION('',(0.,-6.12323399573677E-17,-1.));
#667=DIRECTION('',(0.,6.12323399573677E-17,1.));
#668=DIRECTION('',(0.,-1.,6.12323399573677E-17));
#669=DIRECTION('',(0.,-1.,6.12323399573677E-17));
#670=DIRECTION('',(1.,0.,0.));
#671=DIRECTION('',(-1.,0.,0.));
#672=DIRECTION('',(-1.,0.,0.));
#673=DIRECTION('',(0.,-1.,6.12323399573677E-17));
#674=DIRECTION('',(0.,6.12323399573677E-17,1.));
#675=DIRECTION('',(0.,-6.12323399573677E-17,-1.));
#676=DIRECTION('',(-1.,-2.29504133078641E-32,-3.74808692985489E-16));
#677=DIRECTION('',(3.74808692985489E-16,-6.12323399573677E-17,-1.));
#678=DIRECTION('',(3.74808692985489E-16,-6.12323399573677E-17,-1.));
#679=DIRECTION('',(0.,-1.,6.12323399573677E-17));
#680=DIRECTION('',(3.74808692985489E-16,-6.12323399573677E-17,-1.));
#681=DIRECTION('',(0.,-1.,6.12323399573677E-17));
#682=DIRECTION('',(0.,6.12323399573677E-17,1.));
#683=DIRECTION('',(0.,-1.,6.12323399573677E-17));
#684=DIRECTION('',(-1.,0.,0.));
#685=DIRECTION('',(-1.,0.,0.));
#686=DIRECTION('',(0.,-1.,6.12323399573677E-17));
#687=DIRECTION('',(-1.,-1.86472108126396E-32,-3.0453206305071E-16));
#688=DIRECTION('',(3.0453206305071E-16,-6.12323399573677E-17,-1.));
#689=DIRECTION('',(3.0453206305071E-16,-6.12323399573677E-17,-1.));
#690=DIRECTION('',(3.0453206305071E-16,-6.12323399573677E-17,-1.));
#691=DIRECTION('',(0.,-1.,6.12323399573677E-17));
#692=DIRECTION('',(-1.18243428251449E-16,6.12323399573677E-17,1.));
#693=DIRECTION('',(-1.,-7.24032179641736E-33,-1.18243428251449E-16));
#694=DIRECTION('',(-1.,-7.24032179641736E-33,-1.18243428251449E-16));
#695=DIRECTION('',(-1.,-7.24032179641736E-33,-1.18243428251449E-16));
#696=DIRECTION('',(0.,-1.,6.12323399573677E-17));
#697=DIRECTION('',(1.,0.,0.));
#698=DIRECTION('',(0.,-1.,6.12323399573677E-17));
#699=DIRECTION('',(1.,0.,0.));
#700=DIRECTION('',(0.,-1.,6.12323399573677E-17));
#701=DIRECTION('',(1.,0.,0.));
#702=DIRECTION('',(0.,0.,1.));
#703=DIRECTION('',(1.,0.,0.));
#704=DIRECTION('',(0.,6.12323399573677E-17,1.));
#705=DIRECTION('',(0.,-1.,6.12323399573677E-17));
#706=DIRECTION('',(1.,0.,0.));
#707=DIRECTION('',(0.,-1.,6.12323399573677E-17));
#708=DIRECTION('',(-1.,0.,0.));
#709=DIRECTION('',(0.,-1.,6.12323399573677E-17));
#710=DIRECTION('',(-1.,0.,0.));
#711=DIRECTION('',(0.,-1.,6.12323399573677E-17));
#712=DIRECTION('',(0.,-1.,6.12323399573677E-17));
#713=DIRECTION('',(0.,6.12323399573677E-17,1.));
#714=DIRECTION('',(0.,-6.12323399573677E-17,-1.));
#715=DIRECTION('',(0.,6.12323399573677E-17,1.));
#716=DIRECTION('',(0.,-1.,6.12323399573677E-17));
#717=DIRECTION('',(0.,-1.,6.12323399573677E-17));
#718=DIRECTION('',(1.,0.,0.));
#719=DIRECTION('',(-1.,0.,0.));
#720=DIRECTION('',(-1.,0.,0.));
#721=DIRECTION('',(0.,-1.,6.12323399573677E-17));
#722=DIRECTION('',(0.,6.12323399573677E-17,1.));
#723=DIRECTION('',(0.,-6.12323399573677E-17,-1.));
#724=DIRECTION('',(-1.,-2.29504133078641E-32,-3.74808692985489E-16));
#725=DIRECTION('',(3.74808692985489E-16,-6.12323399573677E-17,-1.));
#726=DIRECTION('',(3.74808692985489E-16,-6.12323399573677E-17,-1.));
#727=DIRECTION('',(0.,-1.,6.12323399573677E-17));
#728=DIRECTION('',(3.74808692985489E-16,-6.12323399573677E-17,-1.));
#729=DIRECTION('',(0.,-1.,6.12323399573677E-17));
#730=DIRECTION('',(0.,6.12323399573677E-17,1.));
#731=DIRECTION('',(0.,-1.,6.12323399573677E-17));
#732=DIRECTION('',(-1.,0.,0.));
#733=DIRECTION('',(-1.,0.,0.));
#734=DIRECTION('',(0.,-1.,6.12323399573677E-17));
#735=DIRECTION('',(-1.,-1.86472108126396E-32,-3.0453206305071E-16));
#736=DIRECTION('',(3.0453206305071E-16,-6.12323399573677E-17,-1.));
#737=DIRECTION('',(3.0453206305071E-16,-6.12323399573677E-17,-1.));
#738=DIRECTION('',(3.0453206305071E-16,-6.12323399573677E-17,-1.));
#739=DIRECTION('',(0.,-1.,6.12323399573677E-17));
#740=DIRECTION('',(-1.18243428251449E-16,6.12323399573677E-17,1.));
#741=DIRECTION('',(-1.,-7.24032179641736E-33,-1.18243428251449E-16));
#742=DIRECTION('',(-1.,-7.24032179641736E-33,-1.18243428251449E-16));
#743=DIRECTION('',(-1.,-7.24032179641736E-33,-1.18243428251449E-16));
#744=DIRECTION('',(0.,-1.,6.12323399573677E-17));
#745=DIRECTION('',(1.,0.,0.));
#746=DIRECTION('',(0.,-1.,6.12323399573677E-17));
#747=DIRECTION('',(1.,0.,0.));
#748=DIRECTION('',(0.,-1.,6.12323399573677E-17));
#749=DIRECTION('',(1.,0.,0.));
#750=DIRECTION('',(0.,0.,1.));
#751=DIRECTION('',(1.,0.,0.));
#752=DIRECTION('',(0.,6.12323399573677E-17,1.));
#753=DIRECTION('',(0.,-1.,6.12323399573677E-17));
#754=DIRECTION('',(1.,0.,0.));
#755=DIRECTION('',(0.,-1.,6.12323399573677E-17));
#756=DIRECTION('',(-1.,0.,0.));
#757=DIRECTION('',(0.,-1.,6.12323399573677E-17));
#758=DIRECTION('',(-1.,0.,0.));
#759=DIRECTION('',(0.,-1.,6.12323399573677E-17));
#760=DIRECTION('',(0.,-1.,6.12323399573677E-17));
#761=DIRECTION('',(0.,6.12323399573677E-17,1.));
#762=DIRECTION('',(0.,-6.12323399573677E-17,-1.));
#763=DIRECTION('',(0.,6.12323399573677E-17,1.));
#764=DIRECTION('',(0.,-1.,6.12323399573677E-17));
#765=DIRECTION('',(0.,-1.,6.12323399573677E-17));
#766=DIRECTION('',(1.,0.,0.));
#767=DIRECTION('',(-1.,0.,0.));
#768=DIRECTION('',(-1.,0.,0.));
#769=DIRECTION('',(0.,-1.,6.12323399573677E-17));
#770=DIRECTION('',(0.,6.12323399573677E-17,1.));
#771=DIRECTION('',(0.,-6.12323399573677E-17,-1.));
#772=DIRECTION('',(-1.,-2.29504133078641E-32,-3.74808692985489E-16));
#773=DIRECTION('',(3.74808692985489E-16,-6.12323399573677E-17,-1.));
#774=DIRECTION('',(3.74808692985489E-16,-6.12323399573677E-17,-1.));
#775=DIRECTION('',(0.,-1.,6.12323399573677E-17));
#776=DIRECTION('',(3.74808692985489E-16,-6.12323399573677E-17,-1.));
#777=DIRECTION('',(0.,-1.,6.12323399573677E-17));
#778=DIRECTION('',(0.,6.12323399573677E-17,1.));
#779=DIRECTION('',(0.,-1.,6.12323399573677E-17));
#780=DIRECTION('',(-1.,0.,0.));
#781=DIRECTION('',(-1.,0.,0.));
#782=DIRECTION('',(0.,-1.,6.12323399573677E-17));
#783=DIRECTION('',(-1.,-1.86472108126396E-32,-3.0453206305071E-16));
#784=DIRECTION('',(3.0453206305071E-16,-6.12323399573677E-17,-1.));
#785=DIRECTION('',(3.0453206305071E-16,-6.12323399573677E-17,-1.));
#786=DIRECTION('',(3.0453206305071E-16,-6.12323399573677E-17,-1.));
#787=DIRECTION('',(0.,-1.,6.12323399573677E-17));
#788=DIRECTION('',(-1.18243428251449E-16,6.12323399573677E-17,1.));
#789=DIRECTION('',(-1.,-7.24032179641736E-33,-1.18243428251449E-16));
#790=DIRECTION('',(-1.,-7.24032179641736E-33,-1.18243428251449E-16));
#791=DIRECTION('',(-1.,-7.24032179641736E-33,-1.18243428251449E-16));
#792=DIRECTION('',(0.,-1.,6.12323399573677E-17));
#793=DIRECTION('',(1.,0.,0.));
#794=DIRECTION('',(0.,-1.,6.12323399573677E-17));
#795=DIRECTION('',(1.,0.,0.));
#796=DIRECTION('',(0.,-1.,6.12323399573677E-17));
#797=DIRECTION('',(1.,0.,0.));
#798=CARTESIAN_POINT('',(0.,0.,0.));
#799=CARTESIAN_POINT('',(0.0393366250395775,0.0146856696929783,0.0123353888737754));
#800=CARTESIAN_POINT('',(0.0393366250395775,0.0138856696929783,0.0123353888737754));
#801=CARTESIAN_POINT('',(0.03,0.0138856696929783,0.0123353888737754));
#802=CARTESIAN_POINT('',(0.048673250079155,0.0138856696929783,0.0123353888737754));
#803=CARTESIAN_POINT('',(0.03,0.0146856696929783,0.0123353888737754));
#804=CARTESIAN_POINT('',(0.03,0.0146856696929783,0.0123353888737754));
#805=CARTESIAN_POINT('',(0.0393366250395775,0.0146856696929783,0.0123353888737754));
#806=CARTESIAN_POINT('',(0.048673250079155,0.0146856696929783,0.0123353888737754));
#807=CARTESIAN_POINT('',(0.048673250079155,0.0146856696929783,0.0123353888737754));
#808=CARTESIAN_POINT('',(0.048673250079155,0.0146856696929783,-7.51404096014218E-5));
#809=CARTESIAN_POINT('',(0.048673250079155,0.0146856696929783,-0.0124856696929783));
#810=CARTESIAN_POINT('',(0.048673250079155,0.0146856696929783,-0.0124856696929783));
#811=CARTESIAN_POINT('',(0.048673250079155,0.0138856696929783,-0.0124856696929783));
#812=CARTESIAN_POINT('',(0.048673250079155,0.0138856696929783,-7.51404096014218E-5));
#813=CARTESIAN_POINT('',(0.048673250079155,0.0146856696929783,-7.51404096014218E-5));
#814=CARTESIAN_POINT('',(0.0393366250395775,0.0146856696929783,-0.0124856696929783));
#815=CARTESIAN_POINT('',(0.03,0.0146856696929783,-0.0124856696929783));
#816=CARTESIAN_POINT('',(0.03,0.0146856696929783,-0.0124856696929783));
#817=CARTESIAN_POINT('',(0.03,0.0138856696929783,-0.0124856696929783));
#818=CARTESIAN_POINT('',(0.0393366250395775,0.0138856696929783,-0.0124856696929783));
#819=CARTESIAN_POINT('',(0.0393366250395775,0.0146856696929783,-0.0124856696929783));
#820=CARTESIAN_POINT('',(0.03,0.0146856696929783,-7.51404096014218E-5));
#821=CARTESIAN_POINT('',(0.03,0.0138856696929783,-7.51404096014218E-5));
#822=CARTESIAN_POINT('',(0.03,0.0146856696929783,-7.51404096014218E-5));
#823=CARTESIAN_POINT('',(0.051073250079155,0.0146856696929783,-7.51404096014166E-5));
#824=CARTESIAN_POINT('',(0.051073250079155,0.0129256696929783,-7.51404096014166E-5));
#825=CARTESIAN_POINT('',(0.051073250079155,0.0129256696929783,0.0147353888737754));
#826=CARTESIAN_POINT('',(0.051073250079155,0.0129256696929783,-0.0148856696929783));
#827=CARTESIAN_POINT('',(0.051073250079155,0.0146856696929783,-0.0148856696929783));
#828=CARTESIAN_POINT('',(0.051073250079155,0.0146856696929783,-0.0148856696929783));
#829=CARTESIAN_POINT('',(0.051073250079155,0.0146856696929783,-7.51404096014166E-5));
#830=CARTESIAN_POINT('',(0.051073250079155,0.0146856696929783,0.0147353888737754));
#831=CARTESIAN_POINT('',(0.051073250079155,0.0146856696929783,0.0147353888737754));
#832=CARTESIAN_POINT('',(0.0393366250395775,0.0146856696929783,0.0147353888737754));
#833=CARTESIAN_POINT('',(0.0393366250395775,0.0129256696929783,0.0147353888737754));
#834=CARTESIAN_POINT('',(0.0276,0.0129256696929783,0.0147353888737754));
#835=CARTESIAN_POINT('',(0.0393366250395775,0.0146856696929783,0.0147353888737754));
#836=CARTESIAN_POINT('',(0.0276,0.0146856696929783,0.0147353888737754));
#837=CARTESIAN_POINT('',(0.0276,0.0146856696929783,0.0147353888737754));
#838=CARTESIAN_POINT('',(0.0276,0.0146856696929783,-7.51404096014253E-5));
#839=CARTESIAN_POINT('',(0.0276,0.0129256696929783,-7.51404096014253E-5));
#840=CARTESIAN_POINT('',(0.0276,0.0129256696929783,-0.0148856696929783));
#841=CARTESIAN_POINT('',(0.0276,0.0146856696929783,-7.51404096014253E-5));
#842=CARTESIAN_POINT('',(0.0276,0.0146856696929783,-0.0148856696929783));
#843=CARTESIAN_POINT('',(0.0276,0.0146856696929783,-0.0148856696929783));
#844=CARTESIAN_POINT('',(0.0393366250395775,0.0146856696929783,-0.0148856696929783));
#845=CARTESIAN_POINT('',(0.0393366250395775,0.0129256696929783,-0.0148856696929783));
#846=CARTESIAN_POINT('',(0.0393366250395775,0.0146856696929783,-0.0148856696929783));
#847=CARTESIAN_POINT('',(0.0393366250395775,0.0146856696929783,-7.51404096014166E-5));
#848=CARTESIAN_POINT('',(0.0393366250395775,0.0129256696929783,-7.51404096014166E-5));
#849=CARTESIAN_POINT('',(0.0393366250395775,0.0138856696929783,-7.51404096014201E-5));
#850=CARTESIAN_POINT('',(0.,0.,0.));
#851=CARTESIAN_POINT('',(-0.0206633749604225,0.0146856696929783,0.0123353888737754));
#852=CARTESIAN_POINT('',(-0.0206633749604225,0.0138856696929783,0.0123353888737754));
#853=CARTESIAN_POINT('',(-0.03,0.0138856696929783,0.0123353888737754));
#854=CARTESIAN_POINT('',(-0.011326749920845,0.0138856696929783,0.0123353888737754));
#855=CARTESIAN_POINT('',(-0.03,0.0146856696929783,0.0123353888737754));
#856=CARTESIAN_POINT('',(-0.03,0.0146856696929783,0.0123353888737754));
#857=CARTESIAN_POINT('',(-0.0206633749604225,0.0146856696929783,0.0123353888737754));
#858=CARTESIAN_POINT('',(-0.011326749920845,0.0146856696929783,0.0123353888737754));
#859=CARTESIAN_POINT('',(-0.011326749920845,0.0146856696929783,0.0123353888737754));
#860=CARTESIAN_POINT('',(-0.011326749920845,0.0146856696929783,-7.51404096014218E-5));
#861=CARTESIAN_POINT('',(-0.011326749920845,0.0146856696929783,-0.0124856696929783));
#862=CARTESIAN_POINT('',(-0.011326749920845,0.0146856696929783,-0.0124856696929783));
#863=CARTESIAN_POINT('',(-0.011326749920845,0.0138856696929783,-0.0124856696929783));
#864=CARTESIAN_POINT('',(-0.011326749920845,0.0138856696929783,-7.51404096014218E-5));
#865=CARTESIAN_POINT('',(-0.011326749920845,0.0146856696929783,-7.51404096014218E-5));
#866=CARTESIAN_POINT('',(-0.0206633749604225,0.0146856696929783,-0.0124856696929783));
#867=CARTESIAN_POINT('',(-0.03,0.0146856696929783,-0.0124856696929783));
#868=CARTESIAN_POINT('',(-0.03,0.0146856696929783,-0.0124856696929783));
#869=CARTESIAN_POINT('',(-0.03,0.0138856696929783,-0.0124856696929783));
#870=CARTESIAN_POINT('',(-0.0206633749604225,0.0138856696929783,-0.0124856696929783));
#871=CARTESIAN_POINT('',(-0.0206633749604225,0.0146856696929783,-0.0124856696929783));
#872=CARTESIAN_POINT('',(-0.03,0.0146856696929783,-7.51404096014218E-5));
#873=CARTESIAN_POINT('',(-0.03,0.0138856696929783,-7.51404096014218E-5));
#874=CARTESIAN_POINT('',(-0.03,0.0146856696929783,-7.51404096014218E-5));
#875=CARTESIAN_POINT('',(-0.00892674992084502,0.0146856696929783,-7.51404096014166E-5));
#876=CARTESIAN_POINT('',(-0.00892674992084502,0.0129256696929783,-7.51404096014166E-5));
#877=CARTESIAN_POINT('',(-0.00892674992084503,0.0129256696929783,0.0147353888737754));
#878=CARTESIAN_POINT('',(-0.00892674992084502,0.0129256696929783,-0.0148856696929783));
#879=CARTESIAN_POINT('',(-0.00892674992084502,0.0146856696929783,-0.0148856696929783));
#880=CARTESIAN_POINT('',(-0.00892674992084502,0.0146856696929783,-0.0148856696929783));
#881=CARTESIAN_POINT('',(-0.00892674992084502,0.0146856696929783,-7.51404096014166E-5));
#882=CARTESIAN_POINT('',(-0.00892674992084503,0.0146856696929783,0.0147353888737754));
#883=CARTESIAN_POINT('',(-0.00892674992084503,0.0146856696929783,0.0147353888737754));
#884=CARTESIAN_POINT('',(-0.0206633749604225,0.0146856696929783,0.0147353888737754));
#885=CARTESIAN_POINT('',(-0.0206633749604225,0.0129256696929783,0.0147353888737754));
#886=CARTESIAN_POINT('',(-0.0324,0.0129256696929783,0.0147353888737754));
#887=CARTESIAN_POINT('',(-0.0206633749604225,0.0146856696929783,0.0147353888737754));
#888=CARTESIAN_POINT('',(-0.0324,0.0146856696929783,0.0147353888737754));
#889=CARTESIAN_POINT('',(-0.0324,0.0146856696929783,0.0147353888737754));
#890=CARTESIAN_POINT('',(-0.0324,0.0146856696929783,-7.51404096014253E-5));
#891=CARTESIAN_POINT('',(-0.0324,0.0129256696929783,-7.51404096014253E-5));
#892=CARTESIAN_POINT('',(-0.0324,0.0129256696929783,-0.0148856696929783));
#893=CARTESIAN_POINT('',(-0.0324,0.0146856696929783,-7.51404096014253E-5));
#894=CARTESIAN_POINT('',(-0.0324,0.0146856696929783,-0.0148856696929783));
#895=CARTESIAN_POINT('',(-0.0324,0.0146856696929783,-0.0148856696929783));
#896=CARTESIAN_POINT('',(-0.0206633749604225,0.0146856696929783,-0.0148856696929783));
#897=CARTESIAN_POINT('',(-0.0206633749604225,0.0129256696929783,-0.0148856696929783));
#898=CARTESIAN_POINT('',(-0.0206633749604225,0.0146856696929783,-0.0148856696929783));
#899=CARTESIAN_POINT('',(-0.0206633749604225,0.0146856696929783,-7.51404096014166E-5));
#900=CARTESIAN_POINT('',(-0.0206633749604225,0.0129256696929783,-7.51404096014166E-5));
#901=CARTESIAN_POINT('',(-0.0206633749604225,0.0138856696929783,-7.51404096014201E-5));
#902=CARTESIAN_POINT('',(0.,0.,0.));
#903=CARTESIAN_POINT('',(0.00933662503957748,0.0146856696929783,0.0123353888737754));
#904=CARTESIAN_POINT('',(0.00933662503957748,0.0138856696929783,0.0123353888737754));
#905=CARTESIAN_POINT('',(0.,0.0138856696929783,0.0123353888737754));
#906=CARTESIAN_POINT('',(0.018673250079155,0.0138856696929783,0.0123353888737754));
#907=CARTESIAN_POINT('',(0.,0.0146856696929783,0.0123353888737754));
#908=CARTESIAN_POINT('',(0.,0.0146856696929783,0.0123353888737754));
#909=CARTESIAN_POINT('',(0.00933662503957748,0.0146856696929783,0.0123353888737754));
#910=CARTESIAN_POINT('',(0.018673250079155,0.0146856696929783,0.0123353888737754));
#911=CARTESIAN_POINT('',(0.018673250079155,0.0146856696929783,0.0123353888737754));
#912=CARTESIAN_POINT('',(0.018673250079155,0.0146856696929783,-7.51404096014218E-5));
#913=CARTESIAN_POINT('',(0.018673250079155,0.0146856696929783,-0.0124856696929783));
#914=CARTESIAN_POINT('',(0.018673250079155,0.0146856696929783,-0.0124856696929783));
#915=CARTESIAN_POINT('',(0.018673250079155,0.0138856696929783,-0.0124856696929783));
#916=CARTESIAN_POINT('',(0.018673250079155,0.0138856696929783,-7.51404096014218E-5));
#917=CARTESIAN_POINT('',(0.018673250079155,0.0146856696929783,-7.51404096014218E-5));
#918=CARTESIAN_POINT('',(0.00933662503957748,0.0146856696929783,-0.0124856696929783));
#919=CARTESIAN_POINT('',(0.,0.0146856696929783,-0.0124856696929783));
#920=CARTESIAN_POINT('',(0.,0.0146856696929783,-0.0124856696929783));
#921=CARTESIAN_POINT('',(0.,0.0138856696929783,-0.0124856696929783));
#922=CARTESIAN_POINT('',(0.00933662503957748,0.0138856696929783,-0.0124856696929783));
#923=CARTESIAN_POINT('',(0.00933662503957748,0.0146856696929783,-0.0124856696929783));
#924=CARTESIAN_POINT('',(0.,0.0146856696929783,-7.51404096014218E-5));
#925=CARTESIAN_POINT('',(0.,0.0138856696929783,-7.51404096014218E-5));
#926=CARTESIAN_POINT('',(0.,0.0146856696929783,-7.51404096014218E-5));
#927=CARTESIAN_POINT('',(0.021073250079155,0.0146856696929783,-7.51404096014166E-5));
#928=CARTESIAN_POINT('',(0.021073250079155,0.0129256696929783,-7.51404096014166E-5));
#929=CARTESIAN_POINT('',(0.021073250079155,0.0129256696929783,0.0147353888737754));
#930=CARTESIAN_POINT('',(0.021073250079155,0.0129256696929783,-0.0148856696929783));
#931=CARTESIAN_POINT('',(0.021073250079155,0.0146856696929783,-0.0148856696929783));
#932=CARTESIAN_POINT('',(0.021073250079155,0.0146856696929783,-0.0148856696929783));
#933=CARTESIAN_POINT('',(0.021073250079155,0.0146856696929783,-7.51404096014166E-5));
#934=CARTESIAN_POINT('',(0.021073250079155,0.0146856696929783,0.0147353888737754));
#935=CARTESIAN_POINT('',(0.021073250079155,0.0146856696929783,0.0147353888737754));
#936=CARTESIAN_POINT('',(0.00933662503957748,0.0146856696929783,0.0147353888737754));
#937=CARTESIAN_POINT('',(0.00933662503957748,0.0129256696929783,0.0147353888737754));
#938=CARTESIAN_POINT('',(-0.0024,0.0129256696929783,0.0147353888737754));
#939=CARTESIAN_POINT('',(0.00933662503957748,0.0146856696929783,0.0147353888737754));
#940=CARTESIAN_POINT('',(-0.0024,0.0146856696929783,0.0147353888737754));
#941=CARTESIAN_POINT('',(-0.0024,0.0146856696929783,0.0147353888737754));
#942=CARTESIAN_POINT('',(-0.0024,0.0146856696929783,-7.51404096014253E-5));
#943=CARTESIAN_POINT('',(-0.0024,0.0129256696929783,-7.51404096014253E-5));
#944=CARTESIAN_POINT('',(-0.0024,0.0129256696929783,-0.0148856696929783));
#945=CARTESIAN_POINT('',(-0.0024,0.0146856696929783,-7.51404096014253E-5));
#946=CARTESIAN_POINT('',(-0.0024,0.0146856696929783,-0.0148856696929783));
#947=CARTESIAN_POINT('',(-0.0024,0.0146856696929783,-0.0148856696929783));
#948=CARTESIAN_POINT('',(0.00933662503957749,0.0146856696929783,-0.0148856696929783));
#949=CARTESIAN_POINT('',(0.00933662503957749,0.0129256696929783,-0.0148856696929783));
#950=CARTESIAN_POINT('',(0.00933662503957749,0.0146856696929783,-0.0148856696929783));
#951=CARTESIAN_POINT('',(0.00933662503957748,0.0146856696929783,-7.51404096014166E-5));
#952=CARTESIAN_POINT('',(0.00933662503957748,0.0129256696929783,-7.51404096014166E-5));
#953=CARTESIAN_POINT('',(0.00933662503957748,0.0138856696929783,-7.51404096014201E-5));
#954=MECHANICAL_DESIGN_GEOMETRIC_PRESENTATION_REPRESENTATION('',(#569,#16),
#957);
#955=MECHANICAL_DESIGN_GEOMETRIC_PRESENTATION_REPRESENTATION('',(#570,#17),
#958);
#956=MECHANICAL_DESIGN_GEOMETRIC_PRESENTATION_REPRESENTATION('',(#571,#18),
#959);
#957=(
GEOMETRIC_REPRESENTATION_CONTEXT(3)
GLOBAL_UNCERTAINTY_ASSIGNED_CONTEXT((#960))
GLOBAL_UNIT_ASSIGNED_CONTEXT((#969,#966,#963))
REPRESENTATION_CONTEXT('Part 3','TOP_LEVEL_ASSEMBLY_PART')
);
#958=(
GEOMETRIC_REPRESENTATION_CONTEXT(3)
GLOBAL_UNCERTAINTY_ASSIGNED_CONTEXT((#961))
GLOBAL_UNIT_ASSIGNED_CONTEXT((#970,#967,#964))
REPRESENTATION_CONTEXT('Part 2','TOP_LEVEL_ASSEMBLY_PART')
);
#959=(
GEOMETRIC_REPRESENTATION_CONTEXT(3)
GLOBAL_UNCERTAINTY_ASSIGNED_CONTEXT((#962))
GLOBAL_UNIT_ASSIGNED_CONTEXT((#971,#968,#965))
REPRESENTATION_CONTEXT('Part 1','TOP_LEVEL_ASSEMBLY_PART')
);
#960=UNCERTAINTY_MEASURE_WITH_UNIT(LENGTH_MEASURE(1.E-8),#969,
'DISTANCE_ACCURACY_VALUE','Maximum Tolerance applied to model');
#961=UNCERTAINTY_MEASURE_WITH_UNIT(LENGTH_MEASURE(1.E-8),#970,
'DISTANCE_ACCURACY_VALUE','Maximum Tolerance applied to model');
#962=UNCERTAINTY_MEASURE_WITH_UNIT(LENGTH_MEASURE(1.E-8),#971,
'DISTANCE_ACCURACY_VALUE','Maximum Tolerance applied to model');
#963=(
NAMED_UNIT(*)
SI_UNIT($,.STERADIAN.)
SOLID_ANGLE_UNIT()
);
#964=(
NAMED_UNIT(*)
SI_UNIT($,.STERADIAN.)
SOLID_ANGLE_UNIT()
);
#965=(
NAMED_UNIT(*)
SI_UNIT($,.STERADIAN.)
SOLID_ANGLE_UNIT()
);
#966=(
NAMED_UNIT(*)
PLANE_ANGLE_UNIT()
SI_UNIT($,.RADIAN.)
);
#967=(
NAMED_UNIT(*)
PLANE_ANGLE_UNIT()
SI_UNIT($,.RADIAN.)
);
#968=(
NAMED_UNIT(*)
PLANE_ANGLE_UNIT()
SI_UNIT($,.RADIAN.)
);
#969=(
LENGTH_UNIT()
NAMED_UNIT(*)
SI_UNIT($,.METRE.)
);
#970=(
LENGTH_UNIT()
NAMED_UNIT(*)
SI_UNIT($,.METRE.)
);
#971=(
LENGTH_UNIT()
NAMED_UNIT(*)
SI_UNIT($,.METRE.)
);
#972=PRODUCT_DEFINITION_SHAPE('','',#975);
#973=PRODUCT_DEFINITION_SHAPE('','',#976);
#974=PRODUCT_DEFINITION_SHAPE('','',#977);
#975=PRODUCT_DEFINITION('','',#981,#978);
#976=PRODUCT_DEFINITION('','',#982,#979);
#977=PRODUCT_DEFINITION('','',#983,#980);
#978=PRODUCT_DEFINITION_CONTEXT('',#999,'design');
#979=PRODUCT_DEFINITION_CONTEXT('',#1000,'design');
#980=PRODUCT_DEFINITION_CONTEXT('',#1001,'design');
#981=PRODUCT_DEFINITION_FORMATION_WITH_SPECIFIED_SOURCE('','',#987,
 .NOT_KNOWN.);
#982=PRODUCT_DEFINITION_FORMATION_WITH_SPECIFIED_SOURCE('','',#988,
 .NOT_KNOWN.);
#983=PRODUCT_DEFINITION_FORMATION_WITH_SPECIFIED_SOURCE('','',#989,
 .NOT_KNOWN.);
#984=PRODUCT_RELATED_PRODUCT_CATEGORY('','',(#987));
#985=PRODUCT_RELATED_PRODUCT_CATEGORY('','',(#988));
#986=PRODUCT_RELATED_PRODUCT_CATEGORY('','',(#989));
#987=PRODUCT('Part 3','Part 3','Part 3',(#993));
#988=PRODUCT('Part 2','Part 2','Part 2',(#994));
#989=PRODUCT('Part 1','Part 1','Part 1',(#995));
#990=PRODUCT_CATEGORY('','');
#991=PRODUCT_CATEGORY('','');
#992=PRODUCT_CATEGORY('','');
#993=PRODUCT_CONTEXT('',#999,'mechanical');
#994=PRODUCT_CONTEXT('',#1000,'mechanical');
#995=PRODUCT_CONTEXT('',#1001,'mechanical');
#996=APPLICATION_PROTOCOL_DEFINITION('international standard',
'ap242_managed_model_based_3d_engineering',2020,#999);
#997=APPLICATION_PROTOCOL_DEFINITION('international standard',
'ap242_managed_model_based_3d_engineering',2020,#1000);
#998=APPLICATION_PROTOCOL_DEFINITION('international standard',
'ap242_managed_model_based_3d_engineering',2020,#1001);
#999=APPLICATION_CONTEXT('managed model based 3d engineering');
#1000=APPLICATION_CONTEXT('managed model based 3d engineering');
#1001=APPLICATION_CONTEXT('managed model based 3d engineering');
ENDSEC;
END-ISO-10303-21;
