ISO-10303-21;
HEADER;
/* Generated by software containing ST-Developer
 * from STEP Tools, Inc. (www.steptools.com) 
 */
/* OPTION: using custom renumber hook */

FILE_DESCRIPTION(
/* description */ ('STEP AP242 Edition 2',
'CAx-IF Rec.Pracs.---Representation and Presentation of Product Manufa
cturing Information (PMI)---4.0---2014-10-13',
'CAx-IF Rec.Pracs.---3D Tessellated Geometry---0.4---2014-09-14','2;1',
'CAx-IF Rec.Pracs.---User Defined Attributes---1.5---2016-08-15'),
/* implementation_level */ '2;1');

FILE_NAME(
/* name */ 'Slippers',
/* time_stamp */ '2026-09-04T21:58:35Z',
/* author */ (''),
/* organization */ (''),
/* preprocessor_version */ 'ST-DEVELOPER v20',
/* originating_system */ 'ONSHAPE BY PTC INC, 1.220',
/* authorisation */ '  ');

FILE_SCHEMA (('AP242_MANAGED_MODEL_BASED_3D_ENGINEERING_MIM_LF { 1 0 10303 442 3 1 4 }'));
ENDSEC;

DATA;
#10=SHAPE_REPRESENTATION_RELATIONSHIP('','',#735,#12);
#11=SHAPE_REPRESENTATION_RELATIONSHIP('','',#736,#13);
#12=ADVANCED_BREP_SHAPE_REPRESENTATION('',(#731),#1339);
#13=ADVANCED_BREP_SHAPE_REPRESENTATION('',(#732),#1340);
#14=(
BOUNDED_SURFACE()
B_SPLINE_SURFACE(3,2,((#1154,#1155,#1156),(#1157,#1158,#1159),(#1160,#1161,
#1162),(#1163,#1164,#1165)),.UNSPECIFIED.,.F.,.F.,.F.)
B_SPLINE_SURFACE_WITH_KNOTS((4,4),(3,3),(0.00471727210747089,0.00881526746772379),
(0.,0.986568962458124),.PIECEWISE_BEZIER_KNOTS.)
GEOMETRIC_REPRESENTATION_ITEM()
RATIONAL_B_SPLINE_SURFACE(((1.,0.688302682792317,0.991627163261763),(1.,
0.689066938101937,0.991647692745273),(1.,0.68975475738574,0.991666168998519),
(1.,0.690385390055495,0.991683109100644)))
REPRESENTATION_ITEM('')
SURFACE()
);
#15=(
BOUNDED_SURFACE()
B_SPLINE_SURFACE(3,2,((#1166,#1167,#1168),(#1169,#1170,#1171),(#1172,#1173,
#1174),(#1175,#1176,#1177)),.UNSPECIFIED.,.F.,.F.,.F.)
B_SPLINE_SURFACE_WITH_KNOTS((4,4),(3,3),(0.00471727210395841,0.00881526805664985),
(0.013431037541183,1.),.PIECEWISE_BEZIER_KNOTS.)
GEOMETRIC_REPRESENTATION_ITEM()
RATIONAL_B_SPLINE_SURFACE(((0.991627163262136,0.688302682790133,1.),(0.991647692748605,
0.689066938209941,1.),(0.991666169004193,0.689754757580977,1.),(0.991683109108371,
0.690385390327164,1.)))
REPRESENTATION_ITEM('')
SURFACE()
);
#16=(
BOUNDED_SURFACE()
B_SPLINE_SURFACE(3,2,((#1313,#1314,#1315),(#1316,#1317,#1318),(#1319,#1320,
#1321),(#1322,#1323,#1324)),.UNSPECIFIED.,.F.,.F.,.F.)
B_SPLINE_SURFACE_WITH_KNOTS((4,4),(3,3),(0.00471727210747089,0.00881526746772379),
(0.,0.986568962458128),.PIECEWISE_BEZIER_KNOTS.)
GEOMETRIC_REPRESENTATION_ITEM()
RATIONAL_B_SPLINE_SURFACE(((1.,0.688302682792316,0.991627163261766),(1.,
0.689066938103133,0.991647692745308),(1.,0.689754757384692,0.991666168998493),
(1.,0.690385390055494,0.991683109100647)))
REPRESENTATION_ITEM('')
SURFACE()
);
#17=(
BOUNDED_SURFACE()
B_SPLINE_SURFACE(3,2,((#1325,#1326,#1327),(#1328,#1329,#1330),(#1331,#1332,
#1333),(#1334,#1335,#1336)),.UNSPECIFIED.,.F.,.F.,.F.)
B_SPLINE_SURFACE_WITH_KNOTS((4,4),(3,3),(0.00471727210395841,0.00881526805664985),
(0.0134310375411898,1.),.PIECEWISE_BEZIER_KNOTS.)
GEOMETRIC_REPRESENTATION_ITEM()
RATIONAL_B_SPLINE_SURFACE(((0.991627163262132,0.688302682790135,1.),(0.991647692748706,
0.689066938213833,1.),(0.991666169004189,0.689754757580979,1.),(0.991683109108367,
0.690385390327166,1.)))
REPRESENTATION_ITEM('')
SURFACE()
);
#18=CONICAL_SURFACE('',#768,0.00328025213699361,0.0847026867435003);
#19=CONICAL_SURFACE('',#771,0.00384073550230824,1.4860936400514);
#20=CONICAL_SURFACE('',#773,0.00349820289635825,1.4860936400514);
#21=CONICAL_SURFACE('',#775,0.00406492884843408,0.0847026867435003);
#22=CONICAL_SURFACE('',#807,0.00328025213699361,0.0847026867435003);
#23=CONICAL_SURFACE('',#810,0.00384073550230824,1.4860936400514);
#24=CONICAL_SURFACE('',#812,0.00349820289635825,1.4860936400514);
#25=CONICAL_SURFACE('',#814,0.00406492884843408,0.0847026867435003);
#26=TOROIDAL_SURFACE('',#759,0.00297714238675123,0.000271599025766973);
#27=TOROIDAL_SURFACE('',#798,0.00297714238675123,0.000271599025766973);
#28=ELLIPSE('',#754,0.000272576246590589,0.000271599025766973);
#29=ELLIPSE('',#756,0.000272576246590589,0.000271599025766973);
#30=ELLIPSE('',#793,0.000272576246590589,0.000271599025766973);
#31=ELLIPSE('',#795,0.000272576246590589,0.000271599025766973);
#32=DEGENERATE_TOROIDAL_SURFACE('',#750,2.50572224755547E-6,0.003843242041398,
 .F.);
#33=DEGENERATE_TOROIDAL_SURFACE('',#766,2.50572224755547E-6,0.003280742041398,
 .F.);
#34=DEGENERATE_TOROIDAL_SURFACE('',#789,2.50572224755547E-6,0.003843242041398,
 .F.);
#35=DEGENERATE_TOROIDAL_SURFACE('',#805,2.50572224755547E-6,0.003280742041398,
 .F.);
#36=CYLINDRICAL_SURFACE('',#741,0.00384073550230824);
#37=CYLINDRICAL_SURFACE('',#746,0.0032487414125182);
#38=CYLINDRICAL_SURFACE('',#757,0.000271599025766973);
#39=CYLINDRICAL_SURFACE('',#761,0.000271599025766973);
#40=CYLINDRICAL_SURFACE('',#763,0.00327823550230824);
#41=CYLINDRICAL_SURFACE('',#780,0.00384073550230824);
#42=CYLINDRICAL_SURFACE('',#785,0.0032487414125182);
#43=CYLINDRICAL_SURFACE('',#796,0.000271599025766973);
#44=CYLINDRICAL_SURFACE('',#800,0.000271599025766973);
#45=CYLINDRICAL_SURFACE('',#802,0.00327823550230824);
#46=B_SPLINE_CURVE_WITH_KNOTS('',3,(#1045,#1046,#1047,#1048),
 .UNSPECIFIED.,.F.,.F.,(4,4),(-0.00202438993202533,0.00202438994713264),
 .UNSPECIFIED.);
#47=B_SPLINE_CURVE_WITH_KNOTS('',3,(#1065,#1066,#1067,#1068),
 .UNSPECIFIED.,.F.,.F.,(4,4),(-0.00202438994713263,0.00202438993202532),
 .UNSPECIFIED.);
#48=B_SPLINE_CURVE_WITH_KNOTS('',3,(#1097,#1098,#1099,#1100,#1101),
 .UNSPECIFIED.,.F.,.F.,(4,1,4),(0.,0.497795305907777,0.995590611815554),
 .UNSPECIFIED.);
#49=B_SPLINE_CURVE_WITH_KNOTS('',3,(#1103,#1104,#1105,#1106,#1107),
 .UNSPECIFIED.,.F.,.F.,(4,1,4),(0.00440938818438182,0.502204694092191,1.),
 .UNSPECIFIED.);
#50=B_SPLINE_CURVE_WITH_KNOTS('',3,(#1125,#1126,#1127,#1128),
 .UNSPECIFIED.,.F.,.F.,(4,4),(0.,0.00035805247642144),.UNSPECIFIED.);
#51=B_SPLINE_CURVE_WITH_KNOTS('',3,(#1129,#1130,#1131,#1132),
 .UNSPECIFIED.,.F.,.F.,(4,4),(0.,0.00035805246389806),.UNSPECIFIED.);
#52=B_SPLINE_CURVE_WITH_KNOTS('',3,(#1134,#1135,#1136,#1137),
 .UNSPECIFIED.,.F.,.F.,(4,4),(0.,0.000358697021207324),.UNSPECIFIED.);
#53=B_SPLINE_CURVE_WITH_KNOTS('',3,(#1141,#1142,#1143,#1144),
 .UNSPECIFIED.,.F.,.F.,(4,4),(0.,0.000358697034537571),.UNSPECIFIED.);
#54=B_SPLINE_CURVE_WITH_KNOTS('',3,(#1146,#1147,#1148,#1149),
 .UNSPECIFIED.,.F.,.F.,(4,4),(0.,0.00404884161218509),.UNSPECIFIED.);
#55=B_SPLINE_CURVE_WITH_KNOTS('',3,(#1150,#1151,#1152,#1153),
 .UNSPECIFIED.,.F.,.F.,(4,4),(0.,0.00404884161203046),.UNSPECIFIED.);
#56=B_SPLINE_CURVE_WITH_KNOTS('',3,(#1204,#1205,#1206,#1207),
 .UNSPECIFIED.,.F.,.F.,(4,4),(-0.00202438993202533,0.00202438994713264),
 .UNSPECIFIED.);
#57=B_SPLINE_CURVE_WITH_KNOTS('',3,(#1224,#1225,#1226,#1227),
 .UNSPECIFIED.,.F.,.F.,(4,4),(-0.00202438994713263,0.00202438993202532),
 .UNSPECIFIED.);
#58=B_SPLINE_CURVE_WITH_KNOTS('',3,(#1256,#1257,#1258,#1259,#1260),
 .UNSPECIFIED.,.F.,.F.,(4,1,4),(0.,0.497795305907777,0.995590611815554),
 .UNSPECIFIED.);
#59=B_SPLINE_CURVE_WITH_KNOTS('',3,(#1262,#1263,#1264,#1265,#1266),
 .UNSPECIFIED.,.F.,.F.,(4,1,4),(0.00440938818438182,0.502204694092191,1.),
 .UNSPECIFIED.);
#60=B_SPLINE_CURVE_WITH_KNOTS('',3,(#1284,#1285,#1286,#1287),
 .UNSPECIFIED.,.F.,.F.,(4,4),(0.,0.00035805247642144),.UNSPECIFIED.);
#61=B_SPLINE_CURVE_WITH_KNOTS('',3,(#1288,#1289,#1290,#1291),
 .UNSPECIFIED.,.F.,.F.,(4,4),(0.,0.00035805246389806),.UNSPECIFIED.);
#62=B_SPLINE_CURVE_WITH_KNOTS('',3,(#1293,#1294,#1295,#1296),
 .UNSPECIFIED.,.F.,.F.,(4,4),(0.,0.00035869702120732),.UNSPECIFIED.);
#63=B_SPLINE_CURVE_WITH_KNOTS('',3,(#1300,#1301,#1302,#1303),
 .UNSPECIFIED.,.F.,.F.,(4,4),(0.,0.000358697034537569),.UNSPECIFIED.);
#64=B_SPLINE_CURVE_WITH_KNOTS('',3,(#1305,#1306,#1307,#1308),
 .UNSPECIFIED.,.F.,.F.,(4,4),(0.,0.00404884161218509),.UNSPECIFIED.);
#65=B_SPLINE_CURVE_WITH_KNOTS('',3,(#1309,#1310,#1311,#1312),
 .UNSPECIFIED.,.F.,.F.,(4,4),(0.,0.00404884161203046),.UNSPECIFIED.);
#66=LINE('',#1024,#114);
#67=LINE('',#1026,#115);
#68=LINE('',#1028,#116);
#69=LINE('',#1030,#117);
#70=LINE('',#1032,#118);
#71=LINE('',#1034,#119);
#72=LINE('',#1037,#120);
#73=LINE('',#1039,#121);
#74=LINE('',#1041,#122);
#75=LINE('',#1043,#123);
#76=LINE('',#1052,#124);
#77=LINE('',#1058,#125);
#78=LINE('',#1061,#126);
#79=LINE('',#1063,#127);
#80=LINE('',#1069,#128);
#81=LINE('',#1087,#129);
#82=LINE('',#1090,#130);
#83=LINE('',#1092,#131);
#84=LINE('',#1093,#132);
#85=LINE('',#1109,#133);
#86=LINE('',#1111,#134);
#87=LINE('',#1113,#135);
#88=LINE('',#1114,#136);
#89=LINE('',#1119,#137);
#90=LINE('',#1183,#138);
#91=LINE('',#1185,#139);
#92=LINE('',#1187,#140);
#93=LINE('',#1189,#141);
#94=LINE('',#1191,#142);
#95=LINE('',#1193,#143);
#96=LINE('',#1196,#144);
#97=LINE('',#1198,#145);
#98=LINE('',#1200,#146);
#99=LINE('',#1202,#147);
#100=LINE('',#1211,#148);
#101=LINE('',#1217,#149);
#102=LINE('',#1220,#150);
#103=LINE('',#1222,#151);
#104=LINE('',#1228,#152);
#105=LINE('',#1246,#153);
#106=LINE('',#1249,#154);
#107=LINE('',#1251,#155);
#108=LINE('',#1252,#156);
#109=LINE('',#1268,#157);
#110=LINE('',#1270,#158);
#111=LINE('',#1272,#159);
#112=LINE('',#1273,#160);
#113=LINE('',#1278,#161);
#114=VECTOR('',#821,1.);
#115=VECTOR('',#822,1.);
#116=VECTOR('',#823,1.);
#117=VECTOR('',#824,1.);
#118=VECTOR('',#825,1.);
#119=VECTOR('',#828,1.);
#120=VECTOR('',#829,1.);
#121=VECTOR('',#830,1.);
#122=VECTOR('',#831,1.);
#123=VECTOR('',#832,1.);
#124=VECTOR('',#837,1.);
#125=VECTOR('',#844,1.);
#126=VECTOR('',#845,1.);
#127=VECTOR('',#846,1.);
#128=VECTOR('',#847,1.);
#129=VECTOR('',#882,1.);
#130=VECTOR('',#883,1.);
#131=VECTOR('',#884,1.);
#132=VECTOR('',#885,1.);
#133=VECTOR('',#890,1.);
#134=VECTOR('',#893,1.);
#135=VECTOR('',#894,1.);
#136=VECTOR('',#895,1.);
#137=VECTOR('',#904,1.);
#138=VECTOR('',#923,1.);
#139=VECTOR('',#924,1.);
#140=VECTOR('',#925,1.);
#141=VECTOR('',#926,1.);
#142=VECTOR('',#927,1.);
#143=VECTOR('',#930,1.);
#144=VECTOR('',#931,1.);
#145=VECTOR('',#932,1.);
#146=VECTOR('',#933,1.);
#147=VECTOR('',#934,1.);
#148=VECTOR('',#939,1.);
#149=VECTOR('',#946,1.);
#150=VECTOR('',#947,1.);
#151=VECTOR('',#948,1.);
#152=VECTOR('',#949,1.);
#153=VECTOR('',#984,1.);
#154=VECTOR('',#985,1.);
#155=VECTOR('',#986,1.);
#156=VECTOR('',#987,1.);
#157=VECTOR('',#992,1.);
#158=VECTOR('',#995,1.);
#159=VECTOR('',#996,1.);
#160=VECTOR('',#997,1.);
#161=VECTOR('',#1006,1.);
#162=ORIENTED_EDGE('',*,*,#366,.T.);
#163=ORIENTED_EDGE('',*,*,#367,.T.);
#164=ORIENTED_EDGE('',*,*,#368,.F.);
#165=ORIENTED_EDGE('',*,*,#369,.F.);
#166=ORIENTED_EDGE('',*,*,#370,.F.);
#167=ORIENTED_EDGE('',*,*,#371,.T.);
#168=ORIENTED_EDGE('',*,*,#372,.T.);
#169=ORIENTED_EDGE('',*,*,#373,.T.);
#170=ORIENTED_EDGE('',*,*,#374,.T.);
#171=ORIENTED_EDGE('',*,*,#375,.F.);
#172=ORIENTED_EDGE('',*,*,#376,.F.);
#173=ORIENTED_EDGE('',*,*,#377,.T.);
#174=ORIENTED_EDGE('',*,*,#378,.T.);
#175=ORIENTED_EDGE('',*,*,#379,.F.);
#176=ORIENTED_EDGE('',*,*,#380,.F.);
#177=ORIENTED_EDGE('',*,*,#381,.T.);
#178=ORIENTED_EDGE('',*,*,#376,.T.);
#179=ORIENTED_EDGE('',*,*,#382,.F.);
#180=ORIENTED_EDGE('',*,*,#383,.T.);
#181=ORIENTED_EDGE('',*,*,#384,.T.);
#182=ORIENTED_EDGE('',*,*,#385,.T.);
#183=ORIENTED_EDGE('',*,*,#379,.T.);
#184=ORIENTED_EDGE('',*,*,#386,.T.);
#185=ORIENTED_EDGE('',*,*,#374,.F.);
#186=ORIENTED_EDGE('',*,*,#387,.T.);
#187=ORIENTED_EDGE('',*,*,#382,.T.);
#188=ORIENTED_EDGE('',*,*,#388,.T.);
#189=ORIENTED_EDGE('',*,*,#375,.T.);
#190=ORIENTED_EDGE('',*,*,#388,.F.);
#191=ORIENTED_EDGE('',*,*,#386,.F.);
#192=ORIENTED_EDGE('',*,*,#378,.F.);
#193=ORIENTED_EDGE('',*,*,#389,.F.);
#194=ORIENTED_EDGE('',*,*,#381,.F.);
#195=ORIENTED_EDGE('',*,*,#380,.T.);
#196=ORIENTED_EDGE('',*,*,#390,.F.);
#197=ORIENTED_EDGE('',*,*,#368,.T.);
#198=ORIENTED_EDGE('',*,*,#391,.T.);
#199=ORIENTED_EDGE('',*,*,#372,.F.);
#200=ORIENTED_EDGE('',*,*,#392,.T.);
#201=ORIENTED_EDGE('',*,*,#384,.F.);
#202=ORIENTED_EDGE('',*,*,#393,.T.);
#203=ORIENTED_EDGE('',*,*,#370,.T.);
#204=ORIENTED_EDGE('',*,*,#393,.F.);
#205=ORIENTED_EDGE('',*,*,#383,.F.);
#206=ORIENTED_EDGE('',*,*,#394,.F.);
#207=ORIENTED_EDGE('',*,*,#371,.F.);
#208=ORIENTED_EDGE('',*,*,#394,.T.);
#209=ORIENTED_EDGE('',*,*,#387,.F.);
#210=ORIENTED_EDGE('',*,*,#395,.F.);
#211=ORIENTED_EDGE('',*,*,#366,.F.);
#212=ORIENTED_EDGE('',*,*,#391,.F.);
#213=ORIENTED_EDGE('',*,*,#367,.F.);
#214=ORIENTED_EDGE('',*,*,#395,.T.);
#215=ORIENTED_EDGE('',*,*,#373,.F.);
#216=ORIENTED_EDGE('',*,*,#396,.T.);
#217=ORIENTED_EDGE('',*,*,#397,.T.);
#218=ORIENTED_EDGE('',*,*,#398,.F.);
#219=ORIENTED_EDGE('',*,*,#399,.F.);
#220=ORIENTED_EDGE('',*,*,#400,.F.);
#221=ORIENTED_EDGE('',*,*,#396,.F.);
#222=ORIENTED_EDGE('',*,*,#401,.F.);
#223=ORIENTED_EDGE('',*,*,#402,.T.);
#224=ORIENTED_EDGE('',*,*,#403,.T.);
#225=ORIENTED_EDGE('',*,*,#404,.F.);
#226=ORIENTED_EDGE('',*,*,#403,.F.);
#227=ORIENTED_EDGE('',*,*,#405,.T.);
#228=ORIENTED_EDGE('',*,*,#406,.F.);
#229=ORIENTED_EDGE('',*,*,#407,.T.);
#230=ORIENTED_EDGE('',*,*,#402,.F.);
#231=ORIENTED_EDGE('',*,*,#401,.T.);
#232=ORIENTED_EDGE('',*,*,#390,.T.);
#233=ORIENTED_EDGE('',*,*,#405,.F.);
#234=ORIENTED_EDGE('',*,*,#407,.F.);
#235=ORIENTED_EDGE('',*,*,#399,.T.);
#236=ORIENTED_EDGE('',*,*,#398,.T.);
#237=ORIENTED_EDGE('',*,*,#408,.T.);
#238=ORIENTED_EDGE('',*,*,#406,.T.);
#239=ORIENTED_EDGE('',*,*,#369,.T.);
#240=ORIENTED_EDGE('',*,*,#408,.F.);
#241=ORIENTED_EDGE('',*,*,#397,.F.);
#242=ORIENTED_EDGE('',*,*,#400,.T.);
#243=ORIENTED_EDGE('',*,*,#404,.T.);
#244=ORIENTED_EDGE('',*,*,#409,.F.);
#245=ORIENTED_EDGE('',*,*,#410,.T.);
#246=ORIENTED_EDGE('',*,*,#389,.T.);
#247=ORIENTED_EDGE('',*,*,#411,.T.);
#248=ORIENTED_EDGE('',*,*,#392,.F.);
#249=ORIENTED_EDGE('',*,*,#412,.T.);
#250=ORIENTED_EDGE('',*,*,#413,.T.);
#251=ORIENTED_EDGE('',*,*,#414,.T.);
#252=ORIENTED_EDGE('',*,*,#413,.F.);
#253=ORIENTED_EDGE('',*,*,#415,.T.);
#254=ORIENTED_EDGE('',*,*,#409,.T.);
#255=ORIENTED_EDGE('',*,*,#416,.T.);
#256=ORIENTED_EDGE('',*,*,#411,.F.);
#257=ORIENTED_EDGE('',*,*,#385,.F.);
#258=ORIENTED_EDGE('',*,*,#414,.F.);
#259=ORIENTED_EDGE('',*,*,#416,.F.);
#260=ORIENTED_EDGE('',*,*,#410,.F.);
#261=ORIENTED_EDGE('',*,*,#415,.F.);
#262=ORIENTED_EDGE('',*,*,#412,.F.);
#263=ORIENTED_EDGE('',*,*,#377,.F.);
#264=ORIENTED_EDGE('',*,*,#417,.T.);
#265=ORIENTED_EDGE('',*,*,#418,.T.);
#266=ORIENTED_EDGE('',*,*,#419,.F.);
#267=ORIENTED_EDGE('',*,*,#420,.F.);
#268=ORIENTED_EDGE('',*,*,#421,.F.);
#269=ORIENTED_EDGE('',*,*,#422,.T.);
#270=ORIENTED_EDGE('',*,*,#423,.T.);
#271=ORIENTED_EDGE('',*,*,#424,.T.);
#272=ORIENTED_EDGE('',*,*,#425,.T.);
#273=ORIENTED_EDGE('',*,*,#426,.F.);
#274=ORIENTED_EDGE('',*,*,#427,.F.);
#275=ORIENTED_EDGE('',*,*,#428,.T.);
#276=ORIENTED_EDGE('',*,*,#429,.T.);
#277=ORIENTED_EDGE('',*,*,#430,.F.);
#278=ORIENTED_EDGE('',*,*,#431,.F.);
#279=ORIENTED_EDGE('',*,*,#432,.T.);
#280=ORIENTED_EDGE('',*,*,#427,.T.);
#281=ORIENTED_EDGE('',*,*,#433,.F.);
#282=ORIENTED_EDGE('',*,*,#434,.T.);
#283=ORIENTED_EDGE('',*,*,#435,.T.);
#284=ORIENTED_EDGE('',*,*,#436,.T.);
#285=ORIENTED_EDGE('',*,*,#430,.T.);
#286=ORIENTED_EDGE('',*,*,#437,.T.);
#287=ORIENTED_EDGE('',*,*,#425,.F.);
#288=ORIENTED_EDGE('',*,*,#438,.T.);
#289=ORIENTED_EDGE('',*,*,#433,.T.);
#290=ORIENTED_EDGE('',*,*,#439,.T.);
#291=ORIENTED_EDGE('',*,*,#426,.T.);
#292=ORIENTED_EDGE('',*,*,#439,.F.);
#293=ORIENTED_EDGE('',*,*,#437,.F.);
#294=ORIENTED_EDGE('',*,*,#429,.F.);
#295=ORIENTED_EDGE('',*,*,#440,.F.);
#296=ORIENTED_EDGE('',*,*,#432,.F.);
#297=ORIENTED_EDGE('',*,*,#431,.T.);
#298=ORIENTED_EDGE('',*,*,#441,.F.);
#299=ORIENTED_EDGE('',*,*,#419,.T.);
#300=ORIENTED_EDGE('',*,*,#442,.T.);
#301=ORIENTED_EDGE('',*,*,#423,.F.);
#302=ORIENTED_EDGE('',*,*,#443,.T.);
#303=ORIENTED_EDGE('',*,*,#435,.F.);
#304=ORIENTED_EDGE('',*,*,#444,.T.);
#305=ORIENTED_EDGE('',*,*,#421,.T.);
#306=ORIENTED_EDGE('',*,*,#444,.F.);
#307=ORIENTED_EDGE('',*,*,#434,.F.);
#308=ORIENTED_EDGE('',*,*,#445,.F.);
#309=ORIENTED_EDGE('',*,*,#422,.F.);
#310=ORIENTED_EDGE('',*,*,#445,.T.);
#311=ORIENTED_EDGE('',*,*,#438,.F.);
#312=ORIENTED_EDGE('',*,*,#446,.F.);
#313=ORIENTED_EDGE('',*,*,#417,.F.);
#314=ORIENTED_EDGE('',*,*,#442,.F.);
#315=ORIENTED_EDGE('',*,*,#418,.F.);
#316=ORIENTED_EDGE('',*,*,#446,.T.);
#317=ORIENTED_EDGE('',*,*,#424,.F.);
#318=ORIENTED_EDGE('',*,*,#447,.T.);
#319=ORIENTED_EDGE('',*,*,#448,.T.);
#320=ORIENTED_EDGE('',*,*,#449,.F.);
#321=ORIENTED_EDGE('',*,*,#450,.F.);
#322=ORIENTED_EDGE('',*,*,#451,.F.);
#323=ORIENTED_EDGE('',*,*,#447,.F.);
#324=ORIENTED_EDGE('',*,*,#452,.F.);
#325=ORIENTED_EDGE('',*,*,#453,.T.);
#326=ORIENTED_EDGE('',*,*,#454,.T.);
#327=ORIENTED_EDGE('',*,*,#455,.F.);
#328=ORIENTED_EDGE('',*,*,#454,.F.);
#329=ORIENTED_EDGE('',*,*,#456,.T.);
#330=ORIENTED_EDGE('',*,*,#457,.F.);
#331=ORIENTED_EDGE('',*,*,#458,.T.);
#332=ORIENTED_EDGE('',*,*,#453,.F.);
#333=ORIENTED_EDGE('',*,*,#452,.T.);
#334=ORIENTED_EDGE('',*,*,#441,.T.);
#335=ORIENTED_EDGE('',*,*,#456,.F.);
#336=ORIENTED_EDGE('',*,*,#458,.F.);
#337=ORIENTED_EDGE('',*,*,#450,.T.);
#338=ORIENTED_EDGE('',*,*,#449,.T.);
#339=ORIENTED_EDGE('',*,*,#459,.T.);
#340=ORIENTED_EDGE('',*,*,#457,.T.);
#341=ORIENTED_EDGE('',*,*,#420,.T.);
#342=ORIENTED_EDGE('',*,*,#459,.F.);
#343=ORIENTED_EDGE('',*,*,#448,.F.);
#344=ORIENTED_EDGE('',*,*,#451,.T.);
#345=ORIENTED_EDGE('',*,*,#455,.T.);
#346=ORIENTED_EDGE('',*,*,#460,.F.);
#347=ORIENTED_EDGE('',*,*,#461,.T.);
#348=ORIENTED_EDGE('',*,*,#440,.T.);
#349=ORIENTED_EDGE('',*,*,#462,.T.);
#350=ORIENTED_EDGE('',*,*,#443,.F.);
#351=ORIENTED_EDGE('',*,*,#463,.T.);
#352=ORIENTED_EDGE('',*,*,#464,.T.);
#353=ORIENTED_EDGE('',*,*,#465,.T.);
#354=ORIENTED_EDGE('',*,*,#464,.F.);
#355=ORIENTED_EDGE('',*,*,#466,.T.);
#356=ORIENTED_EDGE('',*,*,#460,.T.);
#357=ORIENTED_EDGE('',*,*,#467,.T.);
#358=ORIENTED_EDGE('',*,*,#462,.F.);
#359=ORIENTED_EDGE('',*,*,#436,.F.);
#360=ORIENTED_EDGE('',*,*,#465,.F.);
#361=ORIENTED_EDGE('',*,*,#467,.F.);
#362=ORIENTED_EDGE('',*,*,#461,.F.);
#363=ORIENTED_EDGE('',*,*,#466,.F.);
#364=ORIENTED_EDGE('',*,*,#463,.F.);
#365=ORIENTED_EDGE('',*,*,#428,.F.);
#366=EDGE_CURVE('',#468,#469,#528,.T.);
#367=EDGE_CURVE('',#469,#470,#66,.F.);
#368=EDGE_CURVE('',#471,#470,#67,.T.);
#369=EDGE_CURVE('',#472,#471,#68,.T.);
#370=EDGE_CURVE('',#473,#472,#69,.T.);
#371=EDGE_CURVE('',#473,#468,#70,.T.);
#372=EDGE_CURVE('',#474,#475,#71,.T.);
#373=EDGE_CURVE('',#475,#476,#72,.T.);
#374=EDGE_CURVE('',#476,#477,#73,.T.);
#375=EDGE_CURVE('',#478,#477,#74,.T.);
#376=EDGE_CURVE('',#479,#478,#75,.T.);
#377=EDGE_CURVE('',#479,#474,#46,.T.);
#378=EDGE_CURVE('',#478,#480,#529,.T.);
#379=EDGE_CURVE('',#481,#480,#76,.T.);
#380=EDGE_CURVE('',#482,#481,#530,.T.);
#381=EDGE_CURVE('',#482,#479,#531,.T.);
#382=EDGE_CURVE('',#483,#484,#77,.T.);
#383=EDGE_CURVE('',#483,#485,#78,.F.);
#384=EDGE_CURVE('',#485,#486,#79,.T.);
#385=EDGE_CURVE('',#486,#481,#47,.T.);
#386=EDGE_CURVE('',#480,#484,#80,.T.);
#387=EDGE_CURVE('',#476,#483,#532,.F.);
#388=EDGE_CURVE('',#484,#477,#533,.T.);
#389=EDGE_CURVE('',#479,#481,#534,.T.);
#390=EDGE_CURVE('',#471,#472,#535,.T.);
#391=EDGE_CURVE('',#470,#475,#28,.F.);
#392=EDGE_CURVE('',#474,#486,#536,.T.);
#393=EDGE_CURVE('',#485,#473,#29,.F.);
#394=EDGE_CURVE('',#468,#483,#537,.T.);
#395=EDGE_CURVE('',#469,#476,#538,.T.);
#396=EDGE_CURVE('',#487,#488,#81,.T.);
#397=EDGE_CURVE('',#488,#489,#82,.T.);
#398=EDGE_CURVE('',#471,#489,#83,.T.);
#399=EDGE_CURVE('',#487,#471,#84,.F.);
#400=EDGE_CURVE('',#488,#490,#539,.T.);
#401=EDGE_CURVE('',#491,#487,#48,.T.);
#402=EDGE_CURVE('',#491,#492,#49,.F.);
#403=EDGE_CURVE('',#492,#490,#85,.T.);
#404=EDGE_CURVE('',#490,#493,#86,.T.);
#405=EDGE_CURVE('',#492,#472,#87,.F.);
#406=EDGE_CURVE('',#493,#472,#88,.T.);
#407=EDGE_CURVE('',#487,#492,#540,.T.);
#408=EDGE_CURVE('',#489,#493,#89,.T.);
#409=EDGE_CURVE('',#494,#495,#541,.F.);
#410=EDGE_CURVE('',#494,#479,#50,.T.);
#411=EDGE_CURVE('',#481,#495,#51,.T.);
#412=EDGE_CURVE('',#474,#496,#52,.T.);
#413=EDGE_CURVE('',#496,#497,#542,.F.);
#414=EDGE_CURVE('',#497,#486,#53,.T.);
#415=EDGE_CURVE('',#496,#494,#54,.T.);
#416=EDGE_CURVE('',#495,#497,#55,.T.);
#417=EDGE_CURVE('',#498,#499,#543,.T.);
#418=EDGE_CURVE('',#499,#500,#90,.F.);
#419=EDGE_CURVE('',#501,#500,#91,.T.);
#420=EDGE_CURVE('',#502,#501,#92,.T.);
#421=EDGE_CURVE('',#503,#502,#93,.T.);
#422=EDGE_CURVE('',#503,#498,#94,.T.);
#423=EDGE_CURVE('',#504,#505,#95,.T.);
#424=EDGE_CURVE('',#505,#506,#96,.T.);
#425=EDGE_CURVE('',#506,#507,#97,.T.);
#426=EDGE_CURVE('',#508,#507,#98,.T.);
#427=EDGE_CURVE('',#509,#508,#99,.T.);
#428=EDGE_CURVE('',#509,#504,#56,.T.);
#429=EDGE_CURVE('',#508,#510,#544,.T.);
#430=EDGE_CURVE('',#511,#510,#100,.T.);
#431=EDGE_CURVE('',#512,#511,#545,.T.);
#432=EDGE_CURVE('',#512,#509,#546,.T.);
#433=EDGE_CURVE('',#513,#514,#101,.T.);
#434=EDGE_CURVE('',#513,#515,#102,.F.);
#435=EDGE_CURVE('',#515,#516,#103,.T.);
#436=EDGE_CURVE('',#516,#511,#57,.T.);
#437=EDGE_CURVE('',#510,#514,#104,.T.);
#438=EDGE_CURVE('',#506,#513,#547,.F.);
#439=EDGE_CURVE('',#514,#507,#548,.T.);
#440=EDGE_CURVE('',#509,#511,#549,.T.);
#441=EDGE_CURVE('',#501,#502,#550,.T.);
#442=EDGE_CURVE('',#500,#505,#30,.F.);
#443=EDGE_CURVE('',#504,#516,#551,.T.);
#444=EDGE_CURVE('',#515,#503,#31,.F.);
#445=EDGE_CURVE('',#498,#513,#552,.T.);
#446=EDGE_CURVE('',#499,#506,#553,.T.);
#447=EDGE_CURVE('',#517,#518,#105,.T.);
#448=EDGE_CURVE('',#518,#519,#106,.T.);
#449=EDGE_CURVE('',#501,#519,#107,.T.);
#450=EDGE_CURVE('',#517,#501,#108,.F.);
#451=EDGE_CURVE('',#518,#520,#554,.T.);
#452=EDGE_CURVE('',#521,#517,#58,.T.);
#453=EDGE_CURVE('',#521,#522,#59,.F.);
#454=EDGE_CURVE('',#522,#520,#109,.T.);
#455=EDGE_CURVE('',#520,#523,#110,.T.);
#456=EDGE_CURVE('',#522,#502,#111,.F.);
#457=EDGE_CURVE('',#523,#502,#112,.T.);
#458=EDGE_CURVE('',#517,#522,#555,.T.);
#459=EDGE_CURVE('',#519,#523,#113,.T.);
#460=EDGE_CURVE('',#524,#525,#556,.F.);
#461=EDGE_CURVE('',#524,#509,#60,.T.);
#462=EDGE_CURVE('',#511,#525,#61,.T.);
#463=EDGE_CURVE('',#504,#526,#62,.T.);
#464=EDGE_CURVE('',#526,#527,#557,.F.);
#465=EDGE_CURVE('',#527,#516,#63,.T.);
#466=EDGE_CURVE('',#526,#524,#64,.T.);
#467=EDGE_CURVE('',#525,#527,#65,.T.);
#468=VERTEX_POINT('',#1022);
#469=VERTEX_POINT('',#1023);
#470=VERTEX_POINT('',#1025);
#471=VERTEX_POINT('',#1027);
#472=VERTEX_POINT('',#1029);
#473=VERTEX_POINT('',#1031);
#474=VERTEX_POINT('',#1035);
#475=VERTEX_POINT('',#1036);
#476=VERTEX_POINT('',#1038);
#477=VERTEX_POINT('',#1040);
#478=VERTEX_POINT('',#1042);
#479=VERTEX_POINT('',#1044);
#480=VERTEX_POINT('',#1051);
#481=VERTEX_POINT('',#1053);
#482=VERTEX_POINT('',#1055);
#483=VERTEX_POINT('',#1059);
#484=VERTEX_POINT('',#1060);
#485=VERTEX_POINT('',#1062);
#486=VERTEX_POINT('',#1064);
#487=VERTEX_POINT('',#1088);
#488=VERTEX_POINT('',#1089);
#489=VERTEX_POINT('',#1091);
#490=VERTEX_POINT('',#1096);
#491=VERTEX_POINT('',#1102);
#492=VERTEX_POINT('',#1108);
#493=VERTEX_POINT('',#1112);
#494=VERTEX_POINT('',#1123);
#495=VERTEX_POINT('',#1124);
#496=VERTEX_POINT('',#1138);
#497=VERTEX_POINT('',#1140);
#498=VERTEX_POINT('',#1181);
#499=VERTEX_POINT('',#1182);
#500=VERTEX_POINT('',#1184);
#501=VERTEX_POINT('',#1186);
#502=VERTEX_POINT('',#1188);
#503=VERTEX_POINT('',#1190);
#504=VERTEX_POINT('',#1194);
#505=VERTEX_POINT('',#1195);
#506=VERTEX_POINT('',#1197);
#507=VERTEX_POINT('',#1199);
#508=VERTEX_POINT('',#1201);
#509=VERTEX_POINT('',#1203);
#510=VERTEX_POINT('',#1210);
#511=VERTEX_POINT('',#1212);
#512=VERTEX_POINT('',#1214);
#513=VERTEX_POINT('',#1218);
#514=VERTEX_POINT('',#1219);
#515=VERTEX_POINT('',#1221);
#516=VERTEX_POINT('',#1223);
#517=VERTEX_POINT('',#1247);
#518=VERTEX_POINT('',#1248);
#519=VERTEX_POINT('',#1250);
#520=VERTEX_POINT('',#1255);
#521=VERTEX_POINT('',#1261);
#522=VERTEX_POINT('',#1267);
#523=VERTEX_POINT('',#1271);
#524=VERTEX_POINT('',#1282);
#525=VERTEX_POINT('',#1283);
#526=VERTEX_POINT('',#1297);
#527=VERTEX_POINT('',#1299);
#528=CIRCLE('',#739,0.00297714238675123);
#529=CIRCLE('',#742,0.00384073550230824);
#530=CIRCLE('',#743,0.003843242041398);
#531=CIRCLE('',#744,0.003843242041398);
#532=CIRCLE('',#747,0.0032487414125182);
#533=CIRCLE('',#748,0.0032487414125182);
#534=CIRCLE('',#751,0.00384073550230824);
#535=CIRCLE('',#753,0.00293367900576537);
#536=CIRCLE('',#755,0.00349820289635825);
#537=CIRCLE('',#758,0.000271599025766973);
#538=CIRCLE('',#760,0.000271599025766973);
#539=CIRCLE('',#764,0.00327823550230824);
#540=CIRCLE('',#767,0.00327813944791157);
#541=CIRCLE('',#772,0.00406492884843408);
#542=CIRCLE('',#774,0.0037223962424841);
#543=CIRCLE('',#778,0.00297714238675123);
#544=CIRCLE('',#781,0.00384073550230824);
#545=CIRCLE('',#782,0.003843242041398);
#546=CIRCLE('',#783,0.003843242041398);
#547=CIRCLE('',#786,0.0032487414125182);
#548=CIRCLE('',#787,0.0032487414125182);
#549=CIRCLE('',#790,0.00384073550230824);
#550=CIRCLE('',#792,0.00293367900576537);
#551=CIRCLE('',#794,0.00349820289635825);
#552=CIRCLE('',#797,0.000271599025766973);
#553=CIRCLE('',#799,0.000271599025766973);
#554=CIRCLE('',#803,0.00327823550230824);
#555=CIRCLE('',#806,0.00327813944791157);
#556=CIRCLE('',#811,0.00406492884843408);
#557=CIRCLE('',#813,0.0037223962424841);
#558=EDGE_LOOP('',(#162,#163,#164,#165,#166,#167));
#559=EDGE_LOOP('',(#168,#169,#170,#171,#172,#173));
#560=EDGE_LOOP('',(#174,#175,#176,#177,#178));
#561=EDGE_LOOP('',(#179,#180,#181,#182,#183,#184));
#562=EDGE_LOOP('',(#185,#186,#187,#188));
#563=EDGE_LOOP('',(#189,#190,#191,#192));
#564=EDGE_LOOP('',(#193,#194,#195));
#565=EDGE_LOOP('',(#196,#197,#198,#199,#200,#201,#202,#203));
#566=EDGE_LOOP('',(#204,#205,#206,#207));
#567=EDGE_LOOP('',(#208,#209,#210,#211));
#568=EDGE_LOOP('',(#212,#213,#214,#215));
#569=EDGE_LOOP('',(#216,#217,#218,#219));
#570=EDGE_LOOP('',(#220,#221,#222,#223,#224));
#571=EDGE_LOOP('',(#225,#226,#227,#228));
#572=EDGE_LOOP('',(#229,#230,#231));
#573=EDGE_LOOP('',(#232,#233,#234,#235));
#574=EDGE_LOOP('',(#236,#237,#238,#239));
#575=EDGE_LOOP('',(#240,#241,#242,#243));
#576=EDGE_LOOP('',(#244,#245,#246,#247));
#577=EDGE_LOOP('',(#248,#249,#250,#251));
#578=EDGE_LOOP('',(#252,#253,#254,#255));
#579=EDGE_LOOP('',(#256,#257,#258,#259));
#580=EDGE_LOOP('',(#260,#261,#262,#263));
#581=EDGE_LOOP('',(#264,#265,#266,#267,#268,#269));
#582=EDGE_LOOP('',(#270,#271,#272,#273,#274,#275));
#583=EDGE_LOOP('',(#276,#277,#278,#279,#280));
#584=EDGE_LOOP('',(#281,#282,#283,#284,#285,#286));
#585=EDGE_LOOP('',(#287,#288,#289,#290));
#586=EDGE_LOOP('',(#291,#292,#293,#294));
#587=EDGE_LOOP('',(#295,#296,#297));
#588=EDGE_LOOP('',(#298,#299,#300,#301,#302,#303,#304,#305));
#589=EDGE_LOOP('',(#306,#307,#308,#309));
#590=EDGE_LOOP('',(#310,#311,#312,#313));
#591=EDGE_LOOP('',(#314,#315,#316,#317));
#592=EDGE_LOOP('',(#318,#319,#320,#321));
#593=EDGE_LOOP('',(#322,#323,#324,#325,#326));
#594=EDGE_LOOP('',(#327,#328,#329,#330));
#595=EDGE_LOOP('',(#331,#332,#333));
#596=EDGE_LOOP('',(#334,#335,#336,#337));
#597=EDGE_LOOP('',(#338,#339,#340,#341));
#598=EDGE_LOOP('',(#342,#343,#344,#345));
#599=EDGE_LOOP('',(#346,#347,#348,#349));
#600=EDGE_LOOP('',(#350,#351,#352,#353));
#601=EDGE_LOOP('',(#354,#355,#356,#357));
#602=EDGE_LOOP('',(#358,#359,#360,#361));
#603=EDGE_LOOP('',(#362,#363,#364,#365));
#604=FACE_BOUND('',#558,.T.);
#605=FACE_BOUND('',#559,.T.);
#606=FACE_BOUND('',#560,.T.);
#607=FACE_BOUND('',#561,.T.);
#608=FACE_BOUND('',#562,.T.);
#609=FACE_BOUND('',#563,.T.);
#610=FACE_BOUND('',#564,.T.);
#611=FACE_BOUND('',#565,.T.);
#612=FACE_BOUND('',#566,.T.);
#613=FACE_BOUND('',#567,.T.);
#614=FACE_BOUND('',#568,.T.);
#615=FACE_BOUND('',#569,.T.);
#616=FACE_BOUND('',#570,.T.);
#617=FACE_BOUND('',#571,.T.);
#618=FACE_BOUND('',#572,.T.);
#619=FACE_BOUND('',#573,.T.);
#620=FACE_BOUND('',#574,.T.);
#621=FACE_BOUND('',#575,.T.);
#622=FACE_BOUND('',#576,.T.);
#623=FACE_BOUND('',#577,.T.);
#624=FACE_BOUND('',#578,.T.);
#625=FACE_BOUND('',#579,.T.);
#626=FACE_BOUND('',#580,.T.);
#627=FACE_BOUND('',#581,.T.);
#628=FACE_BOUND('',#582,.T.);
#629=FACE_BOUND('',#583,.T.);
#630=FACE_BOUND('',#584,.T.);
#631=FACE_BOUND('',#585,.T.);
#632=FACE_BOUND('',#586,.T.);
#633=FACE_BOUND('',#587,.T.);
#634=FACE_BOUND('',#588,.T.);
#635=FACE_BOUND('',#589,.T.);
#636=FACE_BOUND('',#590,.T.);
#637=FACE_BOUND('',#591,.T.);
#638=FACE_BOUND('',#592,.T.);
#639=FACE_BOUND('',#593,.T.);
#640=FACE_BOUND('',#594,.T.);
#641=FACE_BOUND('',#595,.T.);
#642=FACE_BOUND('',#596,.T.);
#643=FACE_BOUND('',#597,.T.);
#644=FACE_BOUND('',#598,.T.);
#645=FACE_BOUND('',#599,.T.);
#646=FACE_BOUND('',#600,.T.);
#647=FACE_BOUND('',#601,.T.);
#648=FACE_BOUND('',#602,.T.);
#649=FACE_BOUND('',#603,.T.);
#650=PLANE('',#738);
#651=PLANE('',#740);
#652=PLANE('',#745);
#653=PLANE('',#749);
#654=PLANE('',#752);
#655=PLANE('',#762);
#656=PLANE('',#765);
#657=PLANE('',#769);
#658=PLANE('',#770);
#659=PLANE('',#777);
#660=PLANE('',#779);
#661=PLANE('',#784);
#662=PLANE('',#788);
#663=PLANE('',#791);
#664=PLANE('',#801);
#665=PLANE('',#804);
#666=PLANE('',#808);
#667=PLANE('',#809);
#668=ADVANCED_FACE('',(#604),#650,.T.);
#669=ADVANCED_FACE('',(#605),#651,.T.);
#670=ADVANCED_FACE('',(#606),#36,.T.);
#671=ADVANCED_FACE('',(#607),#652,.F.);
#672=ADVANCED_FACE('',(#608),#37,.T.);
#673=ADVANCED_FACE('',(#609),#653,.F.);
#674=ADVANCED_FACE('',(#610),#32,.F.);
#675=ADVANCED_FACE('',(#611),#654,.T.);
#676=ADVANCED_FACE('',(#612),#38,.T.);
#677=ADVANCED_FACE('',(#613),#26,.T.);
#678=ADVANCED_FACE('',(#614),#39,.T.);
#679=ADVANCED_FACE('',(#615),#655,.F.);
#680=ADVANCED_FACE('',(#616),#40,.F.);
#681=ADVANCED_FACE('',(#617),#656,.T.);
#682=ADVANCED_FACE('',(#618),#33,.T.);
#683=ADVANCED_FACE('',(#619),#18,.F.);
#684=ADVANCED_FACE('',(#620),#657,.F.);
#685=ADVANCED_FACE('',(#621),#658,.T.);
#686=ADVANCED_FACE('',(#622),#19,.T.);
#687=ADVANCED_FACE('',(#623),#20,.F.);
#688=ADVANCED_FACE('',(#624),#21,.T.);
#689=ADVANCED_FACE('',(#625),#14,.T.);
#690=ADVANCED_FACE('',(#626),#15,.T.);
#691=ADVANCED_FACE('',(#627),#659,.T.);
#692=ADVANCED_FACE('',(#628),#660,.T.);
#693=ADVANCED_FACE('',(#629),#41,.T.);
#694=ADVANCED_FACE('',(#630),#661,.F.);
#695=ADVANCED_FACE('',(#631),#42,.T.);
#696=ADVANCED_FACE('',(#632),#662,.F.);
#697=ADVANCED_FACE('',(#633),#34,.F.);
#698=ADVANCED_FACE('',(#634),#663,.T.);
#699=ADVANCED_FACE('',(#635),#43,.T.);
#700=ADVANCED_FACE('',(#636),#27,.T.);
#701=ADVANCED_FACE('',(#637),#44,.T.);
#702=ADVANCED_FACE('',(#638),#664,.F.);
#703=ADVANCED_FACE('',(#639),#45,.F.);
#704=ADVANCED_FACE('',(#640),#665,.T.);
#705=ADVANCED_FACE('',(#641),#35,.T.);
#706=ADVANCED_FACE('',(#642),#22,.F.);
#707=ADVANCED_FACE('',(#643),#666,.F.);
#708=ADVANCED_FACE('',(#644),#667,.T.);
#709=ADVANCED_FACE('',(#645),#23,.T.);
#710=ADVANCED_FACE('',(#646),#24,.F.);
#711=ADVANCED_FACE('',(#647),#25,.T.);
#712=ADVANCED_FACE('',(#648),#16,.T.);
#713=ADVANCED_FACE('',(#649),#17,.T.);
#714=CLOSED_SHELL('',(#668,#669,#670,#671,#672,#673,#674,#675,#676,#677,
#678,#679,#680,#681,#682,#683,#684,#685,#686,#687,#688,#689,#690));
#715=CLOSED_SHELL('',(#691,#692,#693,#694,#695,#696,#697,#698,#699,#700,
#701,#702,#703,#704,#705,#706,#707,#708,#709,#710,#711,#712,#713));
#716=STYLED_ITEM('',(#718),#731);
#717=STYLED_ITEM('',(#719),#732);
#718=PRESENTATION_STYLE_ASSIGNMENT((#720));
#719=PRESENTATION_STYLE_ASSIGNMENT((#721));
#720=SURFACE_STYLE_USAGE(.BOTH.,#722);
#721=SURFACE_STYLE_USAGE(.BOTH.,#723);
#722=SURFACE_SIDE_STYLE('',(#724));
#723=SURFACE_SIDE_STYLE('',(#725));
#724=SURFACE_STYLE_FILL_AREA(#726);
#725=SURFACE_STYLE_FILL_AREA(#727);
#726=FILL_AREA_STYLE('',(#728));
#727=FILL_AREA_STYLE('',(#729));
#728=FILL_AREA_STYLE_COLOUR('',#730);
#729=FILL_AREA_STYLE_COLOUR('',#730);
#730=COLOUR_RGB('',0.976470588235294,0.823529411764706,0.972549019607843);
#731=MANIFOLD_SOLID_BREP('Part 2',#714);
#732=MANIFOLD_SOLID_BREP('Part 1',#715);
#733=SHAPE_DEFINITION_REPRESENTATION(#1349,#735);
#734=SHAPE_DEFINITION_REPRESENTATION(#1350,#736);
#735=SHAPE_REPRESENTATION('Part 2',(#737),#1339);
#736=SHAPE_REPRESENTATION('Part 1',(#776),#1340);
#737=AXIS2_PLACEMENT_3D('',#1019,#815,#816);
#738=AXIS2_PLACEMENT_3D('',#1020,#817,#818);
#739=AXIS2_PLACEMENT_3D('',#1021,#819,#820);
#740=AXIS2_PLACEMENT_3D('',#1033,#826,#827);
#741=AXIS2_PLACEMENT_3D('',#1049,#833,#834);
#742=AXIS2_PLACEMENT_3D('',#1050,#835,#836);
#743=AXIS2_PLACEMENT_3D('',#1054,#838,#839);
#744=AXIS2_PLACEMENT_3D('',#1056,#840,#841);
#745=AXIS2_PLACEMENT_3D('',#1057,#842,#843);
#746=AXIS2_PLACEMENT_3D('',#1070,#848,#849);
#747=AXIS2_PLACEMENT_3D('',#1071,#850,#851);
#748=AXIS2_PLACEMENT_3D('',#1072,#852,#853);
#749=AXIS2_PLACEMENT_3D('',#1073,#854,#855);
#750=AXIS2_PLACEMENT_3D('',#1074,#856,#857);
#751=AXIS2_PLACEMENT_3D('',#1075,#858,#859);
#752=AXIS2_PLACEMENT_3D('',#1076,#860,#861);
#753=AXIS2_PLACEMENT_3D('',#1077,#862,#863);
#754=AXIS2_PLACEMENT_3D('',#1078,#864,#865);
#755=AXIS2_PLACEMENT_3D('',#1079,#866,#867);
#756=AXIS2_PLACEMENT_3D('',#1080,#868,#869);
#757=AXIS2_PLACEMENT_3D('',#1081,#870,#871);
#758=AXIS2_PLACEMENT_3D('',#1082,#872,#873);
#759=AXIS2_PLACEMENT_3D('',#1083,#874,#875);
#760=AXIS2_PLACEMENT_3D('',#1084,#876,#877);
#761=AXIS2_PLACEMENT_3D('',#1085,#878,#879);
#762=AXIS2_PLACEMENT_3D('',#1086,#880,#881);
#763=AXIS2_PLACEMENT_3D('',#1094,#886,#887);
#764=AXIS2_PLACEMENT_3D('',#1095,#888,#889);
#765=AXIS2_PLACEMENT_3D('',#1110,#891,#892);
#766=AXIS2_PLACEMENT_3D('',#1115,#896,#897);
#767=AXIS2_PLACEMENT_3D('',#1116,#898,#899);
#768=AXIS2_PLACEMENT_3D('',#1117,#900,#901);
#769=AXIS2_PLACEMENT_3D('',#1118,#902,#903);
#770=AXIS2_PLACEMENT_3D('',#1120,#905,#906);
#771=AXIS2_PLACEMENT_3D('',#1121,#907,#908);
#772=AXIS2_PLACEMENT_3D('',#1122,#909,#910);
#773=AXIS2_PLACEMENT_3D('',#1133,#911,#912);
#774=AXIS2_PLACEMENT_3D('',#1139,#913,#914);
#775=AXIS2_PLACEMENT_3D('',#1145,#915,#916);
#776=AXIS2_PLACEMENT_3D('',#1178,#917,#918);
#777=AXIS2_PLACEMENT_3D('',#1179,#919,#920);
#778=AXIS2_PLACEMENT_3D('',#1180,#921,#922);
#779=AXIS2_PLACEMENT_3D('',#1192,#928,#929);
#780=AXIS2_PLACEMENT_3D('',#1208,#935,#936);
#781=AXIS2_PLACEMENT_3D('',#1209,#937,#938);
#782=AXIS2_PLACEMENT_3D('',#1213,#940,#941);
#783=AXIS2_PLACEMENT_3D('',#1215,#942,#943);
#784=AXIS2_PLACEMENT_3D('',#1216,#944,#945);
#785=AXIS2_PLACEMENT_3D('',#1229,#950,#951);
#786=AXIS2_PLACEMENT_3D('',#1230,#952,#953);
#787=AXIS2_PLACEMENT_3D('',#1231,#954,#955);
#788=AXIS2_PLACEMENT_3D('',#1232,#956,#957);
#789=AXIS2_PLACEMENT_3D('',#1233,#958,#959);
#790=AXIS2_PLACEMENT_3D('',#1234,#960,#961);
#791=AXIS2_PLACEMENT_3D('',#1235,#962,#963);
#792=AXIS2_PLACEMENT_3D('',#1236,#964,#965);
#793=AXIS2_PLACEMENT_3D('',#1237,#966,#967);
#794=AXIS2_PLACEMENT_3D('',#1238,#968,#969);
#795=AXIS2_PLACEMENT_3D('',#1239,#970,#971);
#796=AXIS2_PLACEMENT_3D('',#1240,#972,#973);
#797=AXIS2_PLACEMENT_3D('',#1241,#974,#975);
#798=AXIS2_PLACEMENT_3D('',#1242,#976,#977);
#799=AXIS2_PLACEMENT_3D('',#1243,#978,#979);
#800=AXIS2_PLACEMENT_3D('',#1244,#980,#981);
#801=AXIS2_PLACEMENT_3D('',#1245,#982,#983);
#802=AXIS2_PLACEMENT_3D('',#1253,#988,#989);
#803=AXIS2_PLACEMENT_3D('',#1254,#990,#991);
#804=AXIS2_PLACEMENT_3D('',#1269,#993,#994);
#805=AXIS2_PLACEMENT_3D('',#1274,#998,#999);
#806=AXIS2_PLACEMENT_3D('',#1275,#1000,#1001);
#807=AXIS2_PLACEMENT_3D('',#1276,#1002,#1003);
#808=AXIS2_PLACEMENT_3D('',#1277,#1004,#1005);
#809=AXIS2_PLACEMENT_3D('',#1279,#1007,#1008);
#810=AXIS2_PLACEMENT_3D('',#1280,#1009,#1010);
#811=AXIS2_PLACEMENT_3D('',#1281,#1011,#1012);
#812=AXIS2_PLACEMENT_3D('',#1292,#1013,#1014);
#813=AXIS2_PLACEMENT_3D('',#1298,#1015,#1016);
#814=AXIS2_PLACEMENT_3D('',#1304,#1017,#1018);
#815=DIRECTION('',(0.,0.,1.));
#816=DIRECTION('',(1.,0.,0.));
#817=DIRECTION('',(0.,0.,1.));
#818=DIRECTION('',(1.,0.,0.));
#819=DIRECTION('',(0.,0.,1.));
#820=DIRECTION('',(1.,0.,0.));
#821=DIRECTION('',(-0.0846014391956389,-0.996414871670444,0.));
#822=DIRECTION('',(1.,0.,1.22464679914735E-16));
#823=DIRECTION('',(1.,0.,1.22464679914735E-16));
#824=DIRECTION('',(1.,0.,1.22464679914735E-16));
#825=DIRECTION('',(0.0846014391956389,-0.996414871670444,0.));
#826=DIRECTION('',(0.996414871670444,-0.0846014391956389,0.));
#827=DIRECTION('',(0.0846014391956389,0.996414871670444,0.));
#828=DIRECTION('',(0.,0.,-1.));
#829=DIRECTION('',(-0.0846014391956389,-0.996414871670444,0.));
#830=DIRECTION('',(0.,0.,-1.));
#831=DIRECTION('',(-0.084601439195639,-0.996414871670444,0.));
#832=DIRECTION('',(0.,0.,-1.));
#833=DIRECTION('',(0.,0.,-1.));
#834=DIRECTION('',(-1.,0.,0.));
#835=DIRECTION('',(0.,0.,1.));
#836=DIRECTION('',(1.,0.,0.));
#837=DIRECTION('',(0.,0.,-1.));
#838=DIRECTION('',(0.,0.,1.));
#839=DIRECTION('',(1.,0.,0.));
#840=DIRECTION('',(1.22464679914735E-16,0.,-1.));
#841=DIRECTION('',(-1.,0.,-1.22464679914735E-16));
#842=DIRECTION('',(0.996414871670444,0.0846014391956389,0.));
#843=DIRECTION('',(-0.0846014391956389,0.996414871670444,0.));
#844=DIRECTION('',(0.,0.,-1.));
#845=DIRECTION('',(0.0846014391956389,-0.996414871670444,0.));
#846=DIRECTION('',(0.,0.,1.));
#847=DIRECTION('',(0.0846014391956389,-0.996414871670444,0.));
#848=DIRECTION('',(0.,0.,-1.));
#849=DIRECTION('',(-1.,0.,0.));
#850=DIRECTION('',(0.,0.,1.));
#851=DIRECTION('',(1.,0.,0.));
#852=DIRECTION('',(0.,0.,1.));
#853=DIRECTION('',(1.,0.,0.));
#854=DIRECTION('',(0.,0.,1.));
#855=DIRECTION('',(1.,0.,0.));
#856=DIRECTION('',(0.,-1.,0.));
#857=DIRECTION('',(0.,0.,-1.));
#858=DIRECTION('',(0.,-1.,0.));
#859=DIRECTION('',(0.,0.,-1.));
#860=DIRECTION('',(0.,-1.,0.));
#861=DIRECTION('',(0.,0.,-1.));
#862=DIRECTION('',(0.,-1.,0.));
#863=DIRECTION('',(0.,0.,-1.));
#864=DIRECTION('',(0.,-1.,0.));
#865=DIRECTION('',(-1.,0.,0.));
#866=DIRECTION('',(0.,-1.,0.));
#867=DIRECTION('',(0.,0.,-1.));
#868=DIRECTION('',(0.,-1.,0.));
#869=DIRECTION('',(-1.,0.,0.));
#870=DIRECTION('',(-0.0846014391956389,0.996414871670444,0.));
#871=DIRECTION('',(-0.996414871670444,-0.0846014391956389,0.));
#872=DIRECTION('',(0.0846014391956386,-0.996414871670444,0.));
#873=DIRECTION('',(0.996414871670444,0.0846014391956386,0.));
#874=DIRECTION('',(0.,0.,1.));
#875=DIRECTION('',(1.,0.,0.));
#876=DIRECTION('',(0.0846014391956388,0.996414871670444,0.));
#877=DIRECTION('',(-0.996414871670444,0.0846014391956388,0.));
#878=DIRECTION('',(-0.0846014391956389,-0.996414871670444,0.));
#879=DIRECTION('',(0.996414871670444,-0.0846014391956389,0.));
#880=DIRECTION('',(0.996414871670444,-0.0846014391956389,0.));
#881=DIRECTION('',(0.0846014391956389,0.996414871670444,0.));
#882=DIRECTION('',(0.,0.,-1.));
#883=DIRECTION('',(-0.0846014391956389,-0.996414871670444,0.));
#884=DIRECTION('',(0.,0.,-1.));
#885=DIRECTION('',(0.0846014391956389,0.996414871670444,0.));
#886=DIRECTION('',(0.,0.,-1.));
#887=DIRECTION('',(-1.,0.,0.));
#888=DIRECTION('',(0.,0.,1.));
#889=DIRECTION('',(1.,0.,0.));
#890=DIRECTION('',(0.,0.,-1.));
#891=DIRECTION('',(0.996414871670444,0.0846014391956389,0.));
#892=DIRECTION('',(-0.0846014391956389,0.996414871670444,0.));
#893=DIRECTION('',(0.0846014391956389,-0.996414871670444,0.));
#894=DIRECTION('',(-0.0846014391956388,0.996414871670444,-1.55410322571297E-17));
#895=DIRECTION('',(0.,0.,1.));
#896=DIRECTION('',(0.,-1.,0.));
#897=DIRECTION('',(0.,0.,-1.));
#898=DIRECTION('',(0.,-1.,0.));
#899=DIRECTION('',(0.,0.,-1.));
#900=DIRECTION('',(0.,1.,0.));
#901=DIRECTION('',(0.,0.,1.));
#902=DIRECTION('',(0.,-1.,0.));
#903=DIRECTION('',(0.,0.,-1.));
#904=DIRECTION('',(-1.,0.,0.));
#905=DIRECTION('',(0.,0.,1.));
#906=DIRECTION('',(1.,0.,0.));
#907=DIRECTION('',(0.,-1.,0.));
#908=DIRECTION('',(0.,0.,-1.));
#909=DIRECTION('',(0.,1.,0.));
#910=DIRECTION('',(0.,0.,1.));
#911=DIRECTION('',(0.,-1.,0.));
#912=DIRECTION('',(0.,0.,-1.));
#913=DIRECTION('',(0.,1.,0.));
#914=DIRECTION('',(0.,0.,1.));
#915=DIRECTION('',(0.,1.,0.));
#916=DIRECTION('',(0.,0.,1.));
#917=DIRECTION('',(0.,0.,1.));
#918=DIRECTION('',(1.,0.,0.));
#919=DIRECTION('',(0.,0.,1.));
#920=DIRECTION('',(1.,0.,0.));
#921=DIRECTION('',(0.,0.,1.));
#922=DIRECTION('',(1.,0.,0.));
#923=DIRECTION('',(-0.0846014391956389,-0.996414871670444,0.));
#924=DIRECTION('',(1.,0.,1.22464679914735E-16));
#925=DIRECTION('',(1.,0.,1.22464679914735E-16));
#926=DIRECTION('',(1.,0.,1.22464679914735E-16));
#927=DIRECTION('',(0.0846014391956389,-0.996414871670444,0.));
#928=DIRECTION('',(0.996414871670444,-0.0846014391956389,0.));
#929=DIRECTION('',(0.0846014391956389,0.996414871670444,0.));
#930=DIRECTION('',(0.,0.,-1.));
#931=DIRECTION('',(-0.0846014391956389,-0.996414871670444,0.));
#932=DIRECTION('',(0.,0.,-1.));
#933=DIRECTION('',(-0.084601439195639,-0.996414871670444,0.));
#934=DIRECTION('',(0.,0.,-1.));
#935=DIRECTION('',(0.,0.,-1.));
#936=DIRECTION('',(-1.,0.,0.));
#937=DIRECTION('',(0.,0.,1.));
#938=DIRECTION('',(1.,0.,0.));
#939=DIRECTION('',(0.,0.,-1.));
#940=DIRECTION('',(0.,0.,1.));
#941=DIRECTION('',(1.,0.,0.));
#942=DIRECTION('',(1.22464679914735E-16,0.,-1.));
#943=DIRECTION('',(-1.,0.,-1.22464679914735E-16));
#944=DIRECTION('',(0.996414871670444,0.0846014391956389,0.));
#945=DIRECTION('',(-0.0846014391956389,0.996414871670444,0.));
#946=DIRECTION('',(0.,0.,-1.));
#947=DIRECTION('',(0.0846014391956389,-0.996414871670444,0.));
#948=DIRECTION('',(0.,0.,1.));
#949=DIRECTION('',(0.0846014391956389,-0.996414871670444,0.));
#950=DIRECTION('',(0.,0.,-1.));
#951=DIRECTION('',(-1.,0.,0.));
#952=DIRECTION('',(0.,0.,1.));
#953=DIRECTION('',(1.,0.,0.));
#954=DIRECTION('',(0.,0.,1.));
#955=DIRECTION('',(1.,0.,0.));
#956=DIRECTION('',(0.,0.,1.));
#957=DIRECTION('',(1.,0.,0.));
#958=DIRECTION('',(0.,-1.,0.));
#959=DIRECTION('',(0.,0.,-1.));
#960=DIRECTION('',(0.,-1.,0.));
#961=DIRECTION('',(0.,0.,-1.));
#962=DIRECTION('',(0.,-1.,0.));
#963=DIRECTION('',(0.,0.,-1.));
#964=DIRECTION('',(0.,-1.,0.));
#965=DIRECTION('',(0.,0.,-1.));
#966=DIRECTION('',(0.,-1.,0.));
#967=DIRECTION('',(-1.,0.,0.));
#968=DIRECTION('',(0.,-1.,0.));
#969=DIRECTION('',(0.,0.,-1.));
#970=DIRECTION('',(0.,-1.,0.));
#971=DIRECTION('',(-1.,0.,0.));
#972=DIRECTION('',(-0.0846014391956389,0.996414871670444,0.));
#973=DIRECTION('',(-0.996414871670444,-0.0846014391956389,0.));
#974=DIRECTION('',(0.0846014391956386,-0.996414871670444,0.));
#975=DIRECTION('',(0.996414871670444,0.0846014391956386,0.));
#976=DIRECTION('',(0.,0.,1.));
#977=DIRECTION('',(1.,0.,0.));
#978=DIRECTION('',(0.0846014391956388,0.996414871670444,0.));
#979=DIRECTION('',(-0.996414871670444,0.0846014391956388,0.));
#980=DIRECTION('',(-0.0846014391956389,-0.996414871670444,0.));
#981=DIRECTION('',(0.996414871670444,-0.0846014391956389,0.));
#982=DIRECTION('',(0.996414871670444,-0.0846014391956389,0.));
#983=DIRECTION('',(0.0846014391956389,0.996414871670444,0.));
#984=DIRECTION('',(0.,0.,-1.));
#985=DIRECTION('',(-0.0846014391956389,-0.996414871670444,0.));
#986=DIRECTION('',(0.,0.,-1.));
#987=DIRECTION('',(0.0846014391956389,0.996414871670444,0.));
#988=DIRECTION('',(0.,0.,-1.));
#989=DIRECTION('',(-1.,0.,0.));
#990=DIRECTION('',(0.,0.,1.));
#991=DIRECTION('',(1.,0.,0.));
#992=DIRECTION('',(0.,0.,-1.));
#993=DIRECTION('',(0.996414871670444,0.0846014391956389,0.));
#994=DIRECTION('',(-0.0846014391956389,0.996414871670444,0.));
#995=DIRECTION('',(0.0846014391956389,-0.996414871670444,0.));
#996=DIRECTION('',(-0.0846014391956388,0.996414871670444,-1.55410322571297E-17));
#997=DIRECTION('',(0.,0.,1.));
#998=DIRECTION('',(0.,-1.,0.));
#999=DIRECTION('',(0.,0.,-1.));
#1000=DIRECTION('',(0.,-1.,0.));
#1001=DIRECTION('',(0.,0.,-1.));
#1002=DIRECTION('',(0.,1.,0.));
#1003=DIRECTION('',(0.,0.,1.));
#1004=DIRECTION('',(0.,-1.,0.));
#1005=DIRECTION('',(0.,0.,-1.));
#1006=DIRECTION('',(-1.,0.,0.));
#1007=DIRECTION('',(0.,0.,1.));
#1008=DIRECTION('',(1.,0.,0.));
#1009=DIRECTION('',(0.,-1.,0.));
#1010=DIRECTION('',(0.,0.,-1.));
#1011=DIRECTION('',(0.,1.,0.));
#1012=DIRECTION('',(0.,0.,1.));
#1013=DIRECTION('',(0.,-1.,0.));
#1014=DIRECTION('',(0.,0.,-1.));
#1015=DIRECTION('',(0.,1.,0.));
#1016=DIRECTION('',(0.,0.,1.));
#1017=DIRECTION('',(0.,1.,0.));
#1018=DIRECTION('',(0.,0.,1.));
#1019=CARTESIAN_POINT('',(0.,0.,0.));
#1020=CARTESIAN_POINT('',(-0.00513816233217748,-0.00446610249026461,0.001875));
#1021=CARTESIAN_POINT('',(-0.00513816233217745,-0.00817944423775532,0.001875));
#1022=CARTESIAN_POINT('',(-0.00810463128141684,-0.00843131476836482,0.001875));
#1023=CARTESIAN_POINT('',(-0.00217169338293809,-0.00843131476836482,0.001875));
#1024=CARTESIAN_POINT('',(-0.0018586656094814,-0.00474455090614617,0.001875));
#1025=CARTESIAN_POINT('',(-0.00191253568240982,-0.00537901933025569,0.001875));
#1026=CARTESIAN_POINT('',(-0.00338906088399836,-0.00537901933025569,0.001875));
#1027=CARTESIAN_POINT('',(-0.0022044833264121,-0.00537901933025569,0.001875));
#1028=CARTESIAN_POINT('',(-0.00338906088399836,-0.00537901933025569,0.001875));
#1029=CARTESIAN_POINT('',(-0.00807184133794286,-0.00537901933025569,0.001875));
#1030=CARTESIAN_POINT('',(-0.00338906088399836,-0.00537901933025569,0.001875));
#1031=CARTESIAN_POINT('',(-0.00836378898194514,-0.00537901933025569,0.001875));
#1032=CARTESIAN_POINT('',(-0.00810463128141684,-0.00843131476836482,0.001875));
#1033=CARTESIAN_POINT('',(-0.00159924745220098,-0.00489952363469638,0.001875));
#1034=CARTESIAN_POINT('',(-0.00163995943581923,-0.00537901933025569,0.001875));
#1035=CARTESIAN_POINT('',(-0.00163995943773533,-0.00537901933025569,0.00187511578340226));
#1036=CARTESIAN_POINT('',(-0.00163995943581923,-0.00537901933025569,0.00160340097423303));
#1037=CARTESIAN_POINT('',(-0.00159924745220098,-0.00489952363469638,0.00160340097423303));
#1038=CARTESIAN_POINT('',(-0.0019010680745327,-0.00845429243682884,0.00160340097423303));
#1039=CARTESIAN_POINT('',(-0.0019010680745327,-0.00845429243682884,0.001875));
#1040=CARTESIAN_POINT('',(-0.0019010680745327,-0.00845429243682884,0.00046875));
#1041=CARTESIAN_POINT('',(-0.00159924745220098,-0.00489952363469638,0.00046875));
#1042=CARTESIAN_POINT('',(-0.00129742682986925,-0.00134475483256392,0.00046875));
#1043=CARTESIAN_POINT('',(-0.00129742682986925,-0.00134475483256392,0.001875));
#1044=CARTESIAN_POINT('',(-0.00129742682986925,-0.00134475483256392,0.001875));
#1045=CARTESIAN_POINT('',(-0.00129742683106024,-0.0013447548465911,0.00187509601461169));
#1046=CARTESIAN_POINT('',(-0.00141160436598025,-0.00268950967448338,0.00187510173416446));
#1047=CARTESIAN_POINT('',(-0.00152578190089999,-0.00403426450237251,0.00187510820796486));
#1048=CARTESIAN_POINT('',(-0.00163995943581923,-0.00537901933025569,0.00187511578346353));
#1049=CARTESIAN_POINT('',(-0.00513816233217748,-0.00134475483256392,0.001875));
#1050=CARTESIAN_POINT('',(-0.00513816233217748,-0.00134475483256392,0.00046875));
#1051=CARTESIAN_POINT('',(-0.00897889783448571,-0.00134475483256392,0.00046875));
#1052=CARTESIAN_POINT('',(-0.00897889783448571,-0.00134475483256392,0.001875));
#1053=CARTESIAN_POINT('',(-0.00897889783448571,-0.00134475483256392,0.001875));
#1054=CARTESIAN_POINT('',(-0.00513565660992993,-0.00134726055481148,0.001875));
#1055=CARTESIAN_POINT('',(-0.0051381623321766,0.00249598066974431,0.001875));
#1056=CARTESIAN_POINT('',(-0.00514066805442504,-0.00134726055481148,0.001875));
#1057=CARTESIAN_POINT('',(-0.00867707721215399,-0.00489952363469638,0.001875));
#1058=CARTESIAN_POINT('',(-0.00837525658982226,-0.00845429243682884,0.001875));
#1059=CARTESIAN_POINT('',(-0.00837525658982226,-0.00845429243682884,0.00160340097423303));
#1060=CARTESIAN_POINT('',(-0.00837525658982226,-0.00845429243682884,0.00046875));
#1061=CARTESIAN_POINT('',(-0.00863636522853573,-0.00537901933025569,0.00160340097423303));
#1062=CARTESIAN_POINT('',(-0.00863636522853573,-0.00537901933025569,0.00160340097423303));
#1063=CARTESIAN_POINT('',(-0.00863636522853573,-0.00537901933025569,0.001875));
#1064=CARTESIAN_POINT('',(-0.00863636522853573,-0.00537901933025569,0.00187511578340226));
#1065=CARTESIAN_POINT('',(-0.00863636522853573,-0.00537901933025569,0.00187511578340226));
#1066=CARTESIAN_POINT('',(-0.00875054276345496,-0.00403426450237252,0.00187510820790359));
#1067=CARTESIAN_POINT('',(-0.00886472029837471,-0.00268950967448338,0.00187510173416448));
#1068=CARTESIAN_POINT('',(-0.00897889783329472,-0.00134475484659111,0.00187509601461172));
#1069=CARTESIAN_POINT('',(-0.00867707721215399,-0.00489952363469638,0.00046875));
#1070=CARTESIAN_POINT('',(-0.00513816233217745,-0.00817944423775532,0.001875));
#1071=CARTESIAN_POINT('',(-0.00513816233217745,-0.00817944423775532,0.00160340097423303));
#1072=CARTESIAN_POINT('',(-0.00513816233217745,-0.00817944423775532,0.00046875));
#1073=CARTESIAN_POINT('',(-0.00513816233217748,-0.00446610249026461,0.00046875));
#1074=CARTESIAN_POINT('',(-0.00513816233217748,-0.00134726055481148,0.001875));
#1075=CARTESIAN_POINT('',(-0.00513816233217748,-0.00134475483256392,0.001875));
#1076=CARTESIAN_POINT('',(-0.00338906088399836,-0.00537901933025569,0.001875));
#1077=CARTESIAN_POINT('',(-0.00513816233217748,-0.00537901933025569,0.001875));
#1078=CARTESIAN_POINT('',(-0.00191253568240982,-0.00537901933025569,0.00160340097423303));
#1079=CARTESIAN_POINT('',(-0.00513816233217748,-0.00537901933025569,0.001875));
#1080=CARTESIAN_POINT('',(-0.00836378898194514,-0.00537901933025569,0.00160340097423303));
#1081=CARTESIAN_POINT('',(-0.00841765905487357,-0.00474455090614617,0.00160340097423303));
#1082=CARTESIAN_POINT('',(-0.00810463128141684,-0.00843131476836482,0.00160340097423303));
#1083=CARTESIAN_POINT('',(-0.00513816233217745,-0.00817944423775532,0.00160340097423303));
#1084=CARTESIAN_POINT('',(-0.00217169338293809,-0.00843131476836482,0.00160340097423303));
#1085=CARTESIAN_POINT('',(-0.00186987276060639,-0.00487654596623236,0.00160340097423303));
#1086=CARTESIAN_POINT('',(-0.0021597308175156,-0.00485193532514883,0.001875));
#1087=CARTESIAN_POINT('',(-0.00186000678115517,-0.00132185959516037,0.001875));
#1088=CARTESIAN_POINT('',(-0.00186002288426588,-0.00132204925362414,0.001875));
#1089=CARTESIAN_POINT('',(-0.00186000678115487,-0.00132185959515679,0.001858125));
#1090=CARTESIAN_POINT('',(-0.0021597308175156,-0.00485193532514883,0.001858125));
#1091=CARTESIAN_POINT('',(-0.0022044833264121,-0.00537901933025569,0.001858125));
#1092=CARTESIAN_POINT('',(-0.0022044833264121,-0.00537901933025569,0.001875));
#1093=CARTESIAN_POINT('',(-0.0021597308175156,-0.00485193532514883,0.001875));
#1094=CARTESIAN_POINT('',(-0.00513816233217748,-0.00134475483256392,0.001875));
#1095=CARTESIAN_POINT('',(-0.00513816233217748,-0.00134475483256392,0.001858125));
#1096=CARTESIAN_POINT('',(-0.00841631788320009,-0.0013218595951568,0.001858125));
#1097=CARTESIAN_POINT('',(-0.00513816233217749,0.00193348066974431,0.001875));
#1098=CARTESIAN_POINT('',(-0.00428370659813691,0.00193348066974431,0.001875));
#1099=CARTESIAN_POINT('',(-0.00258146771364281,0.00122970970452015,0.001875));
#1100=CARTESIAN_POINT('',(-0.00186592359022993,-0.000467613894215679,0.001875));
#1101=CARTESIAN_POINT('',(-0.00186000546286822,-0.00132204913295725,0.001875));
#1102=CARTESIAN_POINT('',(-0.00513852907170265,0.001933480789298,0.001875));
#1103=CARTESIAN_POINT('',(-0.00841631920148674,-0.00132204913295757,0.001875));
#1104=CARTESIAN_POINT('',(-0.00841040107412512,-0.000467613894215952,0.001875));
#1105=CARTESIAN_POINT('',(-0.00769485695071232,0.00122970970452005,0.001875));
#1106=CARTESIAN_POINT('',(-0.00599261806621812,0.00193348066974431,0.001875));
#1107=CARTESIAN_POINT('',(-0.00513816233217749,0.00193348066974431,0.001875));
#1108=CARTESIAN_POINT('',(-0.00841630178008905,-0.00132204925362447,0.001875));
#1109=CARTESIAN_POINT('',(-0.00841631788319979,-0.00132185959516037,0.001875));
#1110=CARTESIAN_POINT('',(-0.00811659384683936,-0.00485193532514883,0.001875));
#1111=CARTESIAN_POINT('',(-0.00811659384683936,-0.00485193532514883,0.001858125));
#1112=CARTESIAN_POINT('',(-0.00807184133794285,-0.00537901933025569,0.001858125));
#1113=CARTESIAN_POINT('',(-0.00841841446917109,-0.00129716652301637,0.001875));
#1114=CARTESIAN_POINT('',(-0.00807184133794285,-0.00537901933025569,0.001875));
#1115=CARTESIAN_POINT('',(-0.00513816233217748,-0.00134726055481148,0.001875));
#1116=CARTESIAN_POINT('',(-0.00513816233217748,-0.00132204925362447,0.001875));
#1117=CARTESIAN_POINT('',(-0.00513816233217748,-0.00129716652301637,0.001875));
#1118=CARTESIAN_POINT('',(-0.00338906088399836,-0.00537901933025569,0.001875));
#1119=CARTESIAN_POINT('',(-0.00338906088399836,-0.00537901933025569,0.001858125));
#1120=CARTESIAN_POINT('',(-0.00513816233217748,-0.00446610249026461,0.001858125));
#1121=CARTESIAN_POINT('',(-0.00513816233217748,-0.00134475483256392,0.001875));
#1122=CARTESIAN_POINT('',(-0.00513816233217748,-0.00136379015638294,0.001875));
#1123=CARTESIAN_POINT('',(-0.00108021471918237,-0.00136379015638294,0.00211313381326259));
#1124=CARTESIAN_POINT('',(-0.00919610994517258,-0.00136379015638294,0.00211313381326259));
#1125=CARTESIAN_POINT('',(-0.00108021471918238,-0.00136379015638294,0.00211313381326259));
#1126=CARTESIAN_POINT('',(-0.0010731221790588,-0.00136379015638294,0.00199227253837589));
#1127=CARTESIAN_POINT('',(-0.00117684314051137,-0.00135499309930524,0.00187863256392957));
#1128=CARTESIAN_POINT('',(-0.00129742683106938,-0.00134475483256392,0.00187509601457672));
#1129=CARTESIAN_POINT('',(-0.00897889783328558,-0.00134475483256392,0.00187509601457671));
#1130=CARTESIAN_POINT('',(-0.0090994815249565,-0.00135499309939973,0.00187863256396221));
#1131=CARTESIAN_POINT('',(-0.00920320248582041,-0.00136379015638294,0.00199227252944266));
#1132=CARTESIAN_POINT('',(-0.00919610994517258,-0.00136379015638294,0.00211313381326259));
#1133=CARTESIAN_POINT('',(-0.00513816233217748,-0.00537901933025569,0.001875));
#1134=CARTESIAN_POINT('',(-0.00163995943773533,-0.00537901933025569,0.00187511578340226));
#1135=CARTESIAN_POINT('',(-0.00151916929306455,-0.00538927512958053,0.00187900628728894));
#1136=CARTESIAN_POINT('',(-0.00141567262331157,-0.00539805465407471,0.00199338381440412));
#1137=CARTESIAN_POINT('',(-0.00142347366023654,-0.00539805465407471,0.00211441983337525));
#1138=CARTESIAN_POINT('',(-0.00142347366023654,-0.00539805465407471,0.00211441983337525));
#1139=CARTESIAN_POINT('',(-0.00513816233217748,-0.00539805465407471,0.001875));
#1140=CARTESIAN_POINT('',(-0.00885285100411842,-0.00539805465407471,0.00211441983337525));
#1141=CARTESIAN_POINT('',(-0.00885285100411842,-0.00539805465407471,0.00211441983337525));
#1142=CARTESIAN_POINT('',(-0.00886065204032954,-0.00539805465407471,0.00199338382547938));
#1143=CARTESIAN_POINT('',(-0.00875715536946724,-0.00538927512942573,0.00187900628723022));
#1144=CARTESIAN_POINT('',(-0.00863636522661964,-0.00537901933025569,0.00187511578340226));
#1145=CARTESIAN_POINT('',(-0.00513816233217748,-0.00136379015638294,0.001875));
#1146=CARTESIAN_POINT('',(-0.00142347366023654,-0.00539805465407471,0.00211441983337525));
#1147=CARTESIAN_POINT('',(-0.00130902906663944,-0.00405330195800559,0.00211394918645526));
#1148=CARTESIAN_POINT('',(-0.00119461176099388,-0.00270854692413143,0.00211352425633911));
#1149=CARTESIAN_POINT('',(-0.00108021471918238,-0.00136379015638294,0.00211313381326259));
#1150=CARTESIAN_POINT('',(-0.00919610994517258,-0.00136379015638294,0.00211313381326259));
#1151=CARTESIAN_POINT('',(-0.00908171290336367,-0.00270854692410097,0.0021135242563391));
#1152=CARTESIAN_POINT('',(-0.00896729559771208,-0.00405330195804605,0.00211394918645527));
#1153=CARTESIAN_POINT('',(-0.00885285100411842,-0.00539805465407471,0.00211441983337526));
#1154=CARTESIAN_POINT('',(-0.00885079070901397,-0.00542226360338602,0.00211442831119146));
#1155=CARTESIAN_POINT('',(-0.00886582139209809,-0.00542354244720561,0.0018796720297866));
#1156=CARTESIAN_POINT('',(-0.00863147317384132,-0.00540360358156182,0.00187504355582193));
#1157=CARTESIAN_POINT('',(-0.00896662524583983,-0.00406118268739603,0.00211395138929879));
#1158=CARTESIAN_POINT('',(-0.0089809995636703,-0.00406392603829238,0.00187965755197805));
#1159=CARTESIAN_POINT('',(-0.00874727012243145,-0.00404255041435858,0.00187504346816233));
#1160=CARTESIAN_POINT('',(-0.00908243174776216,-0.0027000997704203,0.00211352137516919));
#1161=CARTESIAN_POINT('',(-0.00909635516036057,-0.00270253752400413,0.00187964453417645));
#1162=CARTESIAN_POINT('',(-0.00886304680414352,-0.0026814621858782,0.0018750433891291));
#1163=CARTESIAN_POINT('',(-0.00919821750933919,-0.00133901535216679,0.00211312662396558));
#1164=CARTESIAN_POINT('',(-0.00921181383240676,-0.0013401717432105,0.00187963261197625));
#1165=CARTESIAN_POINT('',(-0.00897880771049744,-0.00132035416523983,0.00187504331658045));
#1166=CARTESIAN_POINT('',(-0.00164485149081163,-0.00540360358506163,0.00187504355582192));
#1167=CARTESIAN_POINT('',(-0.00141050327255335,-0.00542354245070557,0.0018796720297864));
#1168=CARTESIAN_POINT('',(-0.00142553395563885,-0.00542226360688586,0.00211442831119268));
#1169=CARTESIAN_POINT('',(-0.00152905452548039,-0.00404255022109608,0.00187504346816229));
#1170=CARTESIAN_POINT('',(-0.00129532508434508,-0.00406392584544998,0.00187965755197446));
#1171=CARTESIAN_POINT('',(-0.00130969940206682,-0.00406118249412526,0.00211395138923119));
#1172=CARTESIAN_POINT('',(-0.00141327782703434,-0.00268146179583938,0.00187504338912909));
#1173=CARTESIAN_POINT('',(-0.00117996947096704,-0.00270253713427812,0.00187964453417334));
#1174=CARTESIAN_POINT('',(-0.00119389288340625,-0.00270009938037633,0.00211352137504699));
#1175=CARTESIAN_POINT('',(-0.00129751690395034,-0.0013203535784322,0.00187504331658042));
#1176=CARTESIAN_POINT('',(-0.00106451078221569,-0.00134017115638713,0.00187963261197088));
#1177=CARTESIAN_POINT('',(-0.00107810710509679,-0.00133901476535933,0.00211312662379539));
#1178=CARTESIAN_POINT('',(0.,0.,0.));
#1179=CARTESIAN_POINT('',(0.00414308766782252,-0.00446610249026461,0.001875));
#1180=CARTESIAN_POINT('',(0.00414308766782256,-0.00817944423775532,0.001875));
#1181=CARTESIAN_POINT('',(0.00117661871858316,-0.00843131476836482,0.001875));
#1182=CARTESIAN_POINT('',(0.00710955661706191,-0.00843131476836482,0.001875));
#1183=CARTESIAN_POINT('',(0.00742258439051861,-0.00474455090614617,0.001875));
#1184=CARTESIAN_POINT('',(0.00736871431759018,-0.00537901933025569,0.001875));
#1185=CARTESIAN_POINT('',(0.00589218911600165,-0.00537901933025569,0.001875));
#1186=CARTESIAN_POINT('',(0.0070767666735879,-0.00537901933025569,0.001875));
#1187=CARTESIAN_POINT('',(0.00589218911600165,-0.00537901933025569,0.001875));
#1188=CARTESIAN_POINT('',(0.00120940866205714,-0.00537901933025569,0.001875));
#1189=CARTESIAN_POINT('',(0.00589218911600165,-0.00537901933025569,0.001875));
#1190=CARTESIAN_POINT('',(0.000917461018054858,-0.00537901933025569,0.001875));
#1191=CARTESIAN_POINT('',(0.00117661871858316,-0.00843131476836482,0.001875));
#1192=CARTESIAN_POINT('',(0.00768200254779902,-0.00489952363469638,0.001875));
#1193=CARTESIAN_POINT('',(0.00764129056418077,-0.00537901933025569,0.001875));
#1194=CARTESIAN_POINT('',(0.00764129056226468,-0.00537901933025569,0.00187511578340226));
#1195=CARTESIAN_POINT('',(0.00764129056418077,-0.00537901933025569,0.00160340097423303));
#1196=CARTESIAN_POINT('',(0.00768200254779902,-0.00489952363469638,0.00160340097423303));
#1197=CARTESIAN_POINT('',(0.0073801819254673,-0.00845429243682884,0.00160340097423303));
#1198=CARTESIAN_POINT('',(0.0073801819254673,-0.00845429243682884,0.001875));
#1199=CARTESIAN_POINT('',(0.0073801819254673,-0.00845429243682884,0.00046875));
#1200=CARTESIAN_POINT('',(0.00768200254779902,-0.00489952363469638,0.00046875));
#1201=CARTESIAN_POINT('',(0.00798382317013075,-0.00134475483256392,0.00046875));
#1202=CARTESIAN_POINT('',(0.00798382317013075,-0.00134475483256392,0.001875));
#1203=CARTESIAN_POINT('',(0.00798382317013075,-0.00134475483256392,0.001875));
#1204=CARTESIAN_POINT('',(0.00798382316893977,-0.0013447548465911,0.00187509601461169));
#1205=CARTESIAN_POINT('',(0.00786964563401976,-0.00268950967448338,0.00187510173416446));
#1206=CARTESIAN_POINT('',(0.00775546809910001,-0.00403426450237251,0.00187510820796486));
#1207=CARTESIAN_POINT('',(0.00764129056418077,-0.00537901933025569,0.00187511578346353));
#1208=CARTESIAN_POINT('',(0.00414308766782252,-0.00134475483256392,0.001875));
#1209=CARTESIAN_POINT('',(0.00414308766782252,-0.00134475483256392,0.00046875));
#1210=CARTESIAN_POINT('',(0.000302352165514286,-0.00134475483256392,0.00046875));
#1211=CARTESIAN_POINT('',(0.000302352165514286,-0.00134475483256392,0.001875));
#1212=CARTESIAN_POINT('',(0.000302352165514286,-0.00134475483256392,0.001875));
#1213=CARTESIAN_POINT('',(0.00414559339007007,-0.00134726055481148,0.001875));
#1214=CARTESIAN_POINT('',(0.00414308766782339,0.00249598066974431,0.001875));
#1215=CARTESIAN_POINT('',(0.00414058194557496,-0.00134726055481148,0.001875));
#1216=CARTESIAN_POINT('',(0.000604172787846015,-0.00489952363469638,0.001875));
#1217=CARTESIAN_POINT('',(0.000905993410177744,-0.00845429243682884,0.001875));
#1218=CARTESIAN_POINT('',(0.000905993410177744,-0.00845429243682884,0.00160340097423303));
#1219=CARTESIAN_POINT('',(0.000905993410177744,-0.00845429243682884,0.00046875));
#1220=CARTESIAN_POINT('',(0.000644884771464269,-0.00537901933025569,0.00160340097423303));
#1221=CARTESIAN_POINT('',(0.000644884771464269,-0.00537901933025569,0.00160340097423303));
#1222=CARTESIAN_POINT('',(0.00064488477146427,-0.00537901933025569,0.001875));
#1223=CARTESIAN_POINT('',(0.00064488477146427,-0.00537901933025569,0.00187511578340226));
#1224=CARTESIAN_POINT('',(0.00064488477146427,-0.00537901933025569,0.00187511578340226));
#1225=CARTESIAN_POINT('',(0.000530707236545032,-0.00403426450237252,0.00187510820790359));
#1226=CARTESIAN_POINT('',(0.000416529701625286,-0.00268950967448338,0.00187510173416448));
#1227=CARTESIAN_POINT('',(0.000302352166705276,-0.00134475484659111,0.00187509601461172));
#1228=CARTESIAN_POINT('',(0.000604172787846015,-0.00489952363469638,0.00046875));
#1229=CARTESIAN_POINT('',(0.00414308766782256,-0.00817944423775532,0.001875));
#1230=CARTESIAN_POINT('',(0.00414308766782256,-0.00817944423775532,0.00160340097423303));
#1231=CARTESIAN_POINT('',(0.00414308766782256,-0.00817944423775532,0.00046875));
#1232=CARTESIAN_POINT('',(0.00414308766782252,-0.00446610249026461,0.00046875));
#1233=CARTESIAN_POINT('',(0.00414308766782252,-0.00134726055481148,0.001875));
#1234=CARTESIAN_POINT('',(0.00414308766782252,-0.00134475483256392,0.001875));
#1235=CARTESIAN_POINT('',(0.00589218911600165,-0.00537901933025569,0.001875));
#1236=CARTESIAN_POINT('',(0.00414308766782252,-0.00537901933025569,0.001875));
#1237=CARTESIAN_POINT('',(0.00736871431759018,-0.00537901933025569,0.00160340097423303));
#1238=CARTESIAN_POINT('',(0.00414308766782252,-0.00537901933025569,0.001875));
#1239=CARTESIAN_POINT('',(0.000917461018054858,-0.00537901933025569,0.00160340097423303));
#1240=CARTESIAN_POINT('',(0.000863590945126433,-0.00474455090614617,0.00160340097423303));
#1241=CARTESIAN_POINT('',(0.00117661871858316,-0.00843131476836482,0.00160340097423303));
#1242=CARTESIAN_POINT('',(0.00414308766782256,-0.00817944423775532,0.00160340097423303));
#1243=CARTESIAN_POINT('',(0.00710955661706191,-0.00843131476836482,0.00160340097423303));
#1244=CARTESIAN_POINT('',(0.00741137723939361,-0.00487654596623236,0.00160340097423303));
#1245=CARTESIAN_POINT('',(0.0071215191824844,-0.00485193532514883,0.001875));
#1246=CARTESIAN_POINT('',(0.00742124321884483,-0.00132185959516037,0.001875));
#1247=CARTESIAN_POINT('',(0.00742122711573412,-0.00132204925362414,0.001875));
#1248=CARTESIAN_POINT('',(0.00742124321884513,-0.00132185959515679,0.001858125));
#1249=CARTESIAN_POINT('',(0.0071215191824844,-0.00485193532514883,0.001858125));
#1250=CARTESIAN_POINT('',(0.0070767666735879,-0.00537901933025569,0.001858125));
#1251=CARTESIAN_POINT('',(0.0070767666735879,-0.00537901933025569,0.001875));
#1252=CARTESIAN_POINT('',(0.0071215191824844,-0.00485193532514883,0.001875));
#1253=CARTESIAN_POINT('',(0.00414308766782252,-0.00134475483256392,0.001875));
#1254=CARTESIAN_POINT('',(0.00414308766782252,-0.00134475483256392,0.001858125));
#1255=CARTESIAN_POINT('',(0.000864932116799913,-0.0013218595951568,0.001858125));
#1256=CARTESIAN_POINT('',(0.00414308766782252,0.00193348066974431,0.001875));
#1257=CARTESIAN_POINT('',(0.0049975434018631,0.00193348066974431,0.001875));
#1258=CARTESIAN_POINT('',(0.0066997822863572,0.00122970970452015,0.001875));
#1259=CARTESIAN_POINT('',(0.00741532640977008,-0.000467613894215679,0.001875));
#1260=CARTESIAN_POINT('',(0.00742124453713178,-0.00132204913295725,0.001875));
#1261=CARTESIAN_POINT('',(0.00414272092829735,0.001933480789298,0.001875));
#1262=CARTESIAN_POINT('',(0.000864930798513257,-0.00132204913295757,0.001875));
#1263=CARTESIAN_POINT('',(0.000870848925874879,-0.000467613894215952,0.001875));
#1264=CARTESIAN_POINT('',(0.00158639304928768,0.00122970970452005,0.001875));
#1265=CARTESIAN_POINT('',(0.00328863193378188,0.00193348066974431,0.001875));
#1266=CARTESIAN_POINT('',(0.00414308766782252,0.00193348066974431,0.001875));
#1267=CARTESIAN_POINT('',(0.000864948219910953,-0.00132204925362447,0.001875));
#1268=CARTESIAN_POINT('',(0.000864932116800215,-0.00132185959516037,0.001875));
#1269=CARTESIAN_POINT('',(0.00116465615316064,-0.00485193532514883,0.001875));
#1270=CARTESIAN_POINT('',(0.00116465615316064,-0.00485193532514883,0.001858125));
#1271=CARTESIAN_POINT('',(0.00120940866205715,-0.00537901933025569,0.001858125));
#1272=CARTESIAN_POINT('',(0.000862835530828911,-0.00129716652301637,0.001875));
#1273=CARTESIAN_POINT('',(0.00120940866205715,-0.00537901933025569,0.001875));
#1274=CARTESIAN_POINT('',(0.00414308766782252,-0.00134726055481148,0.001875));
#1275=CARTESIAN_POINT('',(0.00414308766782252,-0.00132204925362447,0.001875));
#1276=CARTESIAN_POINT('',(0.00414308766782252,-0.00129716652301637,0.001875));
#1277=CARTESIAN_POINT('',(0.00589218911600165,-0.00537901933025569,0.001875));
#1278=CARTESIAN_POINT('',(0.00589218911600165,-0.00537901933025569,0.001858125));
#1279=CARTESIAN_POINT('',(0.00414308766782252,-0.00446610249026461,0.001858125));
#1280=CARTESIAN_POINT('',(0.00414308766782252,-0.00134475483256392,0.001875));
#1281=CARTESIAN_POINT('',(0.00414308766782252,-0.00136379015638294,0.001875));
#1282=CARTESIAN_POINT('',(0.00820103528081763,-0.00136379015638294,0.00211313381326259));
#1283=CARTESIAN_POINT('',(8.51400548274162E-5,-0.00136379015638294,0.00211313381326259));
#1284=CARTESIAN_POINT('',(0.00820103528081763,-0.00136379015638294,0.00211313381326259));
#1285=CARTESIAN_POINT('',(0.00820812782094121,-0.00136379015638294,0.00199227253837589));
#1286=CARTESIAN_POINT('',(0.00810440685948863,-0.00135499309930524,0.00187863256392957));
#1287=CARTESIAN_POINT('',(0.00798382316893062,-0.00134475483256392,0.00187509601457672));
#1288=CARTESIAN_POINT('',(0.000302352166714421,-0.00134475483256392,0.00187509601457671));
#1289=CARTESIAN_POINT('',(0.000181768475043497,-0.00135499309939973,0.00187863256396221));
#1290=CARTESIAN_POINT('',(7.8047514179588E-5,-0.00136379015638294,0.00199227252944266));
#1291=CARTESIAN_POINT('',(8.51400548274161E-5,-0.00136379015638294,0.00211313381326259));
#1292=CARTESIAN_POINT('',(0.00414308766782252,-0.00537901933025569,0.001875));
#1293=CARTESIAN_POINT('',(0.00764129056226468,-0.00537901933025569,0.00187511578340226));
#1294=CARTESIAN_POINT('',(0.00776208070693545,-0.00538927512958053,0.00187900628728894));
#1295=CARTESIAN_POINT('',(0.00786557737668843,-0.00539805465407471,0.00199338381440413));
#1296=CARTESIAN_POINT('',(0.00785777633976346,-0.00539805465407471,0.00211441983337525));
#1297=CARTESIAN_POINT('',(0.00785777633976346,-0.00539805465407471,0.00211441983337525));
#1298=CARTESIAN_POINT('',(0.00414308766782252,-0.00539805465407471,0.001875));
#1299=CARTESIAN_POINT('',(0.000428398995881583,-0.00539805465407471,0.00211441983337525));
#1300=CARTESIAN_POINT('',(0.000428398995881583,-0.00539805465407471,0.00211441983337525));
#1301=CARTESIAN_POINT('',(0.000420597959670466,-0.00539805465407471,0.00199338382547938));
#1302=CARTESIAN_POINT('',(0.000524094630532765,-0.00538927512942573,0.00187900628723022));
#1303=CARTESIAN_POINT('',(0.000644884773380366,-0.00537901933025569,0.00187511578340226));
#1304=CARTESIAN_POINT('',(0.00414308766782252,-0.00136379015638294,0.001875));
#1305=CARTESIAN_POINT('',(0.00785777633976346,-0.00539805465407471,0.00211441983337525));
#1306=CARTESIAN_POINT('',(0.00797222093336056,-0.00405330195800559,0.00211394918645526));
#1307=CARTESIAN_POINT('',(0.00808663823900613,-0.00270854692413143,0.00211352425633911));
#1308=CARTESIAN_POINT('',(0.00820103528081763,-0.00136379015638294,0.00211313381326259));
#1309=CARTESIAN_POINT('',(8.51400548274162E-5,-0.00136379015638294,0.00211313381326259));
#1310=CARTESIAN_POINT('',(0.00019953709663633,-0.00270854692410097,0.0021135242563391));
#1311=CARTESIAN_POINT('',(0.000313954402287924,-0.00405330195804605,0.00211394918645527));
#1312=CARTESIAN_POINT('',(0.000428398995881583,-0.00539805465407471,0.00211441983337525));
#1313=CARTESIAN_POINT('',(0.000430459290986032,-0.00542226360338603,0.00211442831119146));
#1314=CARTESIAN_POINT('',(0.000415428607901906,-0.00542354244720561,0.0018796720297866));
#1315=CARTESIAN_POINT('',(0.000649776826158684,-0.00540360358156182,0.00187504355582193));
#1316=CARTESIAN_POINT('',(0.000314624754160004,-0.00406118268739413,0.0021139513892987));
#1317=CARTESIAN_POINT('',(0.000300250436328771,-0.00406392603829503,0.00187965755197902));
#1318=CARTESIAN_POINT('',(0.000533979877568889,-0.00404255041435689,0.00187504346816235));
#1319=CARTESIAN_POINT('',(0.000198818252237963,-0.00270009977042117,0.00211352137517007));
#1320=CARTESIAN_POINT('',(0.000184894839638736,-0.00270253752400624,0.00187964453417635));
#1321=CARTESIAN_POINT('',(0.000418203195859602,-0.00268146218587912,0.0018750433891291));
#1322=CARTESIAN_POINT('',(8.30324906608106E-5,-0.00133901535216679,0.00211312662396558));
#1323=CARTESIAN_POINT('',(6.94361675932372E-5,-0.0013401717432105,0.00187963261197625));
#1324=CARTESIAN_POINT('',(0.000302442289502562,-0.00132035416523983,0.00187504331658045));
#1325=CARTESIAN_POINT('',(0.00763639850918837,-0.00540360358506164,0.00187504355582192));
#1326=CARTESIAN_POINT('',(0.00787074672744665,-0.00542354245070557,0.0018796720297864));
#1327=CARTESIAN_POINT('',(0.00785571604436116,-0.00542226360688586,0.00211442831119268));
#1328=CARTESIAN_POINT('',(0.00775219547451763,-0.00404255022109622,0.00187504346816235));
#1329=CARTESIAN_POINT('',(0.00798592491565655,-0.00406392584545756,0.00187965755197742));
#1330=CARTESIAN_POINT('',(0.0079715505979332,-0.00406118249412511,0.00211395138923107));
#1331=CARTESIAN_POINT('',(0.00786797217296483,-0.00268146179583893,0.00187504338912909));
#1332=CARTESIAN_POINT('',(0.00810128052902761,-0.00270253713427725,0.00187964453417334));
#1333=CARTESIAN_POINT('',(0.00808735711659382,-0.00270009938037557,0.00211352137504708));
#1334=CARTESIAN_POINT('',(0.00798373309604967,-0.0013203535784322,0.00187504331658042));
#1335=CARTESIAN_POINT('',(0.00821673921778431,-0.00134017115638713,0.00187963261197088));
#1336=CARTESIAN_POINT('',(0.00820314289490321,-0.00133901476535933,0.00211312662379539));
#1337=MECHANICAL_DESIGN_GEOMETRIC_PRESENTATION_REPRESENTATION('',(#716),
#1339);
#1338=MECHANICAL_DESIGN_GEOMETRIC_PRESENTATION_REPRESENTATION('',(#717),
#1340);
#1339=(
GEOMETRIC_REPRESENTATION_CONTEXT(3)
GLOBAL_UNCERTAINTY_ASSIGNED_CONTEXT((#1341))
GLOBAL_UNIT_ASSIGNED_CONTEXT((#1347,#1345,#1343))
REPRESENTATION_CONTEXT('Part 2','TOP_LEVEL_ASSEMBLY_PART')
);
#1340=(
GEOMETRIC_REPRESENTATION_CONTEXT(3)
GLOBAL_UNCERTAINTY_ASSIGNED_CONTEXT((#1342))
GLOBAL_UNIT_ASSIGNED_CONTEXT((#1348,#1346,#1344))
REPRESENTATION_CONTEXT('Part 1','TOP_LEVEL_ASSEMBLY_PART')
);
#1341=UNCERTAINTY_MEASURE_WITH_UNIT(LENGTH_MEASURE(2.E-5),#1347,
'DISTANCE_ACCURACY_VALUE','Maximum Tolerance applied to model');
#1342=UNCERTAINTY_MEASURE_WITH_UNIT(LENGTH_MEASURE(2.E-5),#1348,
'DISTANCE_ACCURACY_VALUE','Maximum Tolerance applied to model');
#1343=(
NAMED_UNIT(*)
SI_UNIT($,.STERADIAN.)
SOLID_ANGLE_UNIT()
);
#1344=(
NAMED_UNIT(*)
SI_UNIT($,.STERADIAN.)
SOLID_ANGLE_UNIT()
);
#1345=(
NAMED_UNIT(*)
PLANE_ANGLE_UNIT()
SI_UNIT($,.RADIAN.)
);
#1346=(
NAMED_UNIT(*)
PLANE_ANGLE_UNIT()
SI_UNIT($,.RADIAN.)
);
#1347=(
LENGTH_UNIT()
NAMED_UNIT(*)
SI_UNIT($,.METRE.)
);
#1348=(
LENGTH_UNIT()
NAMED_UNIT(*)
SI_UNIT($,.METRE.)
);
#1349=PRODUCT_DEFINITION_SHAPE('','',#1351);
#1350=PRODUCT_DEFINITION_SHAPE('','',#1352);
#1351=PRODUCT_DEFINITION('','',#1355,#1353);
#1352=PRODUCT_DEFINITION('','',#1356,#1354);
#1353=PRODUCT_DEFINITION_CONTEXT('',#1367,'design');
#1354=PRODUCT_DEFINITION_CONTEXT('',#1368,'design');
#1355=PRODUCT_DEFINITION_FORMATION_WITH_SPECIFIED_SOURCE('','',#1359,
 .NOT_KNOWN.);
#1356=PRODUCT_DEFINITION_FORMATION_WITH_SPECIFIED_SOURCE('','',#1360,
 .NOT_KNOWN.);
#1357=PRODUCT_RELATED_PRODUCT_CATEGORY('','',(#1359));
#1358=PRODUCT_RELATED_PRODUCT_CATEGORY('','',(#1360));
#1359=PRODUCT('Part 2','Part 2','Part 2',(#1363));
#1360=PRODUCT('Part 1','Part 1','Part 1',(#1364));
#1361=PRODUCT_CATEGORY('','');
#1362=PRODUCT_CATEGORY('','');
#1363=PRODUCT_CONTEXT('',#1367,'mechanical');
#1364=PRODUCT_CONTEXT('',#1368,'mechanical');
#1365=APPLICATION_PROTOCOL_DEFINITION('international standard',
'ap242_managed_model_based_3d_engineering',2020,#1367);
#1366=APPLICATION_PROTOCOL_DEFINITION('international standard',
'ap242_managed_model_based_3d_engineering',2020,#1368);
#1367=APPLICATION_CONTEXT('managed model based 3d engineering');
#1368=APPLICATION_CONTEXT('managed model based 3d engineering');
ENDSEC;
END-ISO-10303-21;
