ISO-10303-21;
HEADER;
/* Generated by software containing ST-Developer
 * from STEP Tools, Inc. (www.steptools.com) 
 */
/* OPTION: using custom renumber hook */

FILE_DESCRIPTION(
/* description */ ('STEP AP242 Edition 2',
'CAx-IF Rec.Pracs.---Representation and Presentation of Product Manufa
cturing Information (PMI)---4.0---2014-10-13',
'CAx-IF Rec.Pracs.---3D Tessellated Geometry---0.4---2014-09-14','2;1',
'CAx-IF Rec.Pracs.---User Defined Attributes---1.5---2016-08-15'),
/* implementation_level */ '2;1');

FILE_NAME(
/* name */ 'Tulip',
/* time_stamp */ '2026-09-04T21:59:09Z',
/* author */ (''),
/* organization */ (''),
/* preprocessor_version */ 'ST-DEVELOPER v20',
/* originating_system */ 'ONSHAPE BY PTC INC, 1.220',
/* authorisation */ '  ');

FILE_SCHEMA (('AP242_MANAGED_MODEL_BASED_3D_ENGINEERING_MIM_LF { 1 0 10303 442 3 1 4 }'));
ENDSEC;

DATA;
#10=SHAPE_REPRESENTATION_RELATIONSHIP('','',#205,#11);
#11=ADVANCED_BREP_SHAPE_REPRESENTATION('',(#203),#1005);
#12=CYLINDRICAL_SURFACE('',#212,0.001);
#13=SPHERICAL_SURFACE('',#211,0.00136399091049843);
#14=PLANE('',#209);
#15=PLANE('',#214);
#16=(
BOUNDED_SURFACE()
B_SPLINE_SURFACE(3,2,((#698,#699,#700),(#701,#702,#703),(#704,#705,#706),
(#707,#708,#709),(#710,#711,#712),(#713,#714,#715),(#716,#717,#718),(#719,
#720,#721),(#722,#723,#724),(#725,#726,#727),(#728,#729,#730),(#731,#732,
#733),(#734,#735,#736),(#737,#738,#739),(#740,#741,#742),(#743,#744,#745),
(#746,#747,#748),(#749,#750,#751),(#752,#753,#754),(#755,#756,#757),(#758,
#759,#760)),.UNSPECIFIED.,.F.,.F.,.F.)
B_SPLINE_SURFACE_WITH_KNOTS((4,1,1,1,1,1,1,1,1,1,1,1,1,1,1,1,1,1,4),(3,
3),(0.00612689064823709,0.00663286798812991,0.00688585665807631,0.00713884532802272,
0.00726533966299592,0.00739183399796913,0.00764482266791553,0.00777131700288874,
0.00789781133786194,0.00815080000780835,0.00840378867775476,0.00853028301272796,
0.00865677734770116,0.00890976601764757,0.00903626035262077,0.00916275468759398,
0.00941574335754038,0.00966873202748679,0.0101747093673796),(0.,1.),
 .UNSPECIFIED.)
GEOMETRIC_REPRESENTATION_ITEM()
RATIONAL_B_SPLINE_SURFACE(((1.,0.796151679713715,1.),(1.,0.786862762873012,
1.),(1.,0.766219882276793,1.),(1.,0.752371464419121,1.),(1.,0.720209030787249,
1.),(1.,0.822317658634658,1.),(1.,0.860846725908836,1.),(1.,0.872387232718933,
1.),(1.,0.906188514443557,1.),(1.,1.0097665322481,1.),(1.,0.983017129621274,
1.),(1.,1.01222695991699,1.),(1.,0.912700311402219,1.),(1.,0.87192229644645,
1.),(1.,0.861256200048945,1.),(1.,0.826663517152945,1.),(1.,0.721919633338926,
1.),(1.,0.751416956903804,1.),(1.,0.766361348198903,1.),(1.,0.786797883383468,
1.),(1.,0.796163025476435,1.)))
REPRESENTATION_ITEM('')
SURFACE()
);
#17=(
BOUNDED_SURFACE()
B_SPLINE_SURFACE(3,2,((#771,#772,#773),(#774,#775,#776),(#777,#778,#779),
(#780,#781,#782),(#783,#784,#785),(#786,#787,#788),(#789,#790,#791),(#792,
#793,#794),(#795,#796,#797),(#798,#799,#800),(#801,#802,#803),(#804,#805,
#806),(#807,#808,#809),(#810,#811,#812),(#813,#814,#815),(#816,#817,#818),
(#819,#820,#821),(#822,#823,#824),(#825,#826,#827),(#828,#829,#830),(#831,
#832,#833),(#834,#835,#836),(#837,#838,#839),(#840,#841,#842),(#843,#844,
#845),(#846,#847,#848),(#849,#850,#851),(#852,#853,#854),(#855,#856,#857),
(#858,#859,#860)),.UNSPECIFIED.,.F.,.F.,.F.)
B_SPLINE_SURFACE_WITH_KNOTS((4,1,1,1,1,1,1,1,1,1,1,1,1,1,1,1,1,1,1,1,1,
1,1,1,1,1,1,4),(3,3),(0.00702339078439319,0.0073005644012178,0.00757773801804241,
0.00771632482645472,0.00785491163486702,0.00799349844327933,0.00813208525169163,
0.00827067206010394,0.00840925886851624,0.00854784567692855,0.00868643248534086,
0.00896360610216547,0.00910219291057777,0.00924077971899008,0.00937936652740239,
0.00951795333581469,0.009656540144227,0.0097951269526393,0.00993371376105161,
0.0100723005694639,0.0102108873778762,0.0103494741862885,0.0104880609947008,
0.0106266478031131,0.0107652346115254,0.0109038214199377,0.0111809950367624,
0.011458168653587),(0.,1.),.UNSPECIFIED.)
GEOMETRIC_REPRESENTATION_ITEM()
RATIONAL_B_SPLINE_SURFACE(((1.,0.765645770350968,1.),(1.,0.761335132063787,
1.),(1.,0.759648880948039,1.),(1.,0.717231394951256,1.),(1.,0.778524313281692,
1.),(1.,0.777021081288956,1.),(1.,0.719054127693909,1.),(1.,0.754973156037777,
1.),(1.,0.805321302820122,1.),(1.,0.937321791629652,1.),(1.,0.941970447422484,
1.),(1.,0.996916026107746,1.),(1.,0.993034850161408,1.),(1.,0.997672794144459,
1.),(1.,0.998328801813547,1.),(1.,0.997171468655466,1.),(1.,0.99437922395883,
1.),(1.,0.991537651357584,1.),(1.,0.978014283192156,1.),(1.,0.938307527069226,
1.),(1.,0.930874603456976,1.),(1.,0.790200370221418,1.),(1.,0.752229556702353,
1.),(1.,0.72047836932465,1.),(1.,0.780618950208057,1.),(1.,0.775047935076274,
1.),(1.,0.718885893233279,1.),(1.,0.759270423619379,1.),(1.,0.76136339072178,
1.),(1.,0.765634020693775,1.)))
REPRESENTATION_ITEM('')
SURFACE()
);
#18=(
BOUNDED_SURFACE()
B_SPLINE_SURFACE(3,2,((#861,#862,#863),(#864,#865,#866),(#867,#868,#869),
(#870,#871,#872),(#873,#874,#875),(#876,#877,#878),(#879,#880,#881),(#882,
#883,#884),(#885,#886,#887),(#888,#889,#890),(#891,#892,#893),(#894,#895,
#896),(#897,#898,#899),(#900,#901,#902),(#903,#904,#905),(#906,#907,#908),
(#909,#910,#911),(#912,#913,#914),(#915,#916,#917),(#918,#919,#920),(#921,
#922,#923),(#924,#925,#926),(#927,#928,#929)),.UNSPECIFIED.,.F.,.F.,.F.)
B_SPLINE_SURFACE_WITH_KNOTS((4,1,1,1,1,1,1,1,1,1,1,1,1,1,1,1,1,1,1,1,4),
(3,3),(0.00713896436719377,0.0075791939050125,0.00768925128946718,0.00779930867392186,
0.00790936605837654,0.00801942344283122,0.00823953821174059,0.00834959559619527,
0.00845965298064995,0.00867976774955932,0.00889988251846868,0.00911999728737805,
0.00934011205628741,0.00945016944074209,0.00956022682519678,0.00978034159410614,
0.00989039897856082,0.0100004563630155,0.0101105137474702,0.0102205711319249,
0.0106608006697436),(0.,1.),.UNSPECIFIED.)
GEOMETRIC_REPRESENTATION_ITEM()
RATIONAL_B_SPLINE_SURFACE(((1.,0.646560470289274,1.),(1.,0.659967242880592,
1.),(1.,0.675491802317494,1.),(1.,0.691512512442295,1.),(1.,0.647653597391296,
1.),(1.,0.633819323907211,1.),(1.,0.717132270158297,1.),(1.,0.719499551165696,
1.),(1.,0.735645557093742,1.),(1.,0.584753706731904,1.),(1.,0.541939398291071,
1.),(1.,0.437569995386737,1.),(1.,0.543014461503569,1.),(1.,0.587666159385196,
1.),(1.,0.736834936696729,1.),(1.,0.71901594623421,1.),(1.,0.714911877970022,
1.),(1.,0.631757241024407,1.),(1.,0.651507646358404,1.),(1.,0.691056082302422,
1.),(1.,0.675740813578345,1.),(1.,0.659898496630851,1.),(1.,0.646571725436362,
1.)))
REPRESENTATION_ITEM('')
SURFACE()
);
#19=(
BOUNDED_SURFACE()
B_SPLINE_SURFACE(3,2,((#942,#943,#944),(#945,#946,#947),(#948,#949,#950),
(#951,#952,#953),(#954,#955,#956),(#957,#958,#959),(#960,#961,#962),(#963,
#964,#965),(#966,#967,#968),(#969,#970,#971),(#972,#973,#974),(#975,#976,
#977),(#978,#979,#980),(#981,#982,#983),(#984,#985,#986),(#987,#988,#989),
(#990,#991,#992),(#993,#994,#995)),.UNSPECIFIED.,.F.,.F.,.F.)
B_SPLINE_SURFACE_WITH_KNOTS((4,1,1,1,1,1,1,1,1,1,1,1,1,1,1,4),(3,3),(0.00573330244312783,
0.00617511453504879,0.00639602058100926,0.00661692662696974,0.00683783267293022,
0.0070587387188907,0.00727964476485118,0.00750055081081166,0.00772145685677213,
0.00794236290273261,0.00816326894869309,0.00827372197167333,0.00838417499465357,
0.00860508104061405,0.00882598708657453,0.00926779917849548),(0.,1.),
 .UNSPECIFIED.)
GEOMETRIC_REPRESENTATION_ITEM()
RATIONAL_B_SPLINE_SURFACE(((1.,0.607147006346379,1.),(1.,0.624428176068045,
1.),(1.,0.651310132163247,1.),(1.,0.668225449451435,1.),(1.,0.702082145484623,
1.),(1.,0.666633600257044,1.),(1.,0.639311559104189,1.),(1.,0.677547514046601,
1.),(1.,0.645208747778126,1.),(1.,0.675076174279231,1.),(1.,0.648861122395497,
1.),(1.,0.63981735669993,1.),(1.,0.705290540663179,1.),(1.,0.686286941508336,
1.),(1.,0.67242663164906,1.),(1.,0.649613550349135,1.),(1.,0.624580843676273,
1.),(1.,0.607121494554888,1.)))
REPRESENTATION_ITEM('')
SURFACE()
);
#20=LINE('',#603,#22);
#21=LINE('',#619,#23);
#22=VECTOR('',#221,1.);
#23=VECTOR('',#222,1.);
#24=CIRCLE('',#207,0.00100000000000017);
#25=CIRCLE('',#208,0.00155369528422482);
#26=CIRCLE('',#210,0.00134811415350791);
#27=CIRCLE('',#213,0.001);
#28=ORIENTED_EDGE('',*,*,#80,.T.);
#29=ORIENTED_EDGE('',*,*,#81,.T.);
#30=ORIENTED_EDGE('',*,*,#82,.T.);
#31=ORIENTED_EDGE('',*,*,#83,.F.);
#32=ORIENTED_EDGE('',*,*,#84,.T.);
#33=ORIENTED_EDGE('',*,*,#85,.T.);
#34=ORIENTED_EDGE('',*,*,#86,.T.);
#35=ORIENTED_EDGE('',*,*,#87,.T.);
#36=ORIENTED_EDGE('',*,*,#88,.T.);
#37=ORIENTED_EDGE('',*,*,#89,.T.);
#38=ORIENTED_EDGE('',*,*,#90,.T.);
#39=ORIENTED_EDGE('',*,*,#91,.T.);
#40=ORIENTED_EDGE('',*,*,#92,.T.);
#41=ORIENTED_EDGE('',*,*,#93,.F.);
#42=ORIENTED_EDGE('',*,*,#91,.F.);
#43=ORIENTED_EDGE('',*,*,#94,.T.);
#44=ORIENTED_EDGE('',*,*,#93,.T.);
#45=ORIENTED_EDGE('',*,*,#95,.T.);
#46=ORIENTED_EDGE('',*,*,#96,.T.);
#47=ORIENTED_EDGE('',*,*,#97,.T.);
#48=ORIENTED_EDGE('',*,*,#98,.T.);
#49=ORIENTED_EDGE('',*,*,#99,.T.);
#50=ORIENTED_EDGE('',*,*,#100,.F.);
#51=ORIENTED_EDGE('',*,*,#80,.F.);
#52=ORIENTED_EDGE('',*,*,#101,.F.);
#53=ORIENTED_EDGE('',*,*,#89,.F.);
#54=ORIENTED_EDGE('',*,*,#88,.F.);
#55=ORIENTED_EDGE('',*,*,#87,.F.);
#56=ORIENTED_EDGE('',*,*,#101,.T.);
#57=ORIENTED_EDGE('',*,*,#81,.F.);
#58=ORIENTED_EDGE('',*,*,#100,.T.);
#59=ORIENTED_EDGE('',*,*,#86,.F.);
#60=ORIENTED_EDGE('',*,*,#94,.F.);
#61=ORIENTED_EDGE('',*,*,#90,.F.);
#62=ORIENTED_EDGE('',*,*,#102,.F.);
#63=ORIENTED_EDGE('',*,*,#84,.F.);
#64=ORIENTED_EDGE('',*,*,#103,.F.);
#65=ORIENTED_EDGE('',*,*,#98,.F.);
#66=ORIENTED_EDGE('',*,*,#97,.F.);
#67=ORIENTED_EDGE('',*,*,#96,.F.);
#68=ORIENTED_EDGE('',*,*,#103,.T.);
#69=ORIENTED_EDGE('',*,*,#85,.F.);
#70=ORIENTED_EDGE('',*,*,#102,.T.);
#71=ORIENTED_EDGE('',*,*,#95,.F.);
#72=ORIENTED_EDGE('',*,*,#92,.F.);
#73=ORIENTED_EDGE('',*,*,#99,.F.);
#74=ORIENTED_EDGE('',*,*,#104,.F.);
#75=ORIENTED_EDGE('',*,*,#83,.T.);
#76=ORIENTED_EDGE('',*,*,#104,.T.);
#77=ORIENTED_EDGE('',*,*,#82,.F.);
#78=ORIENTED_EDGE('',*,*,#105,.T.);
#79=ORIENTED_EDGE('',*,*,#105,.F.);
#80=EDGE_CURVE('',#106,#107,#126,.T.);
#81=EDGE_CURVE('',#107,#106,#127,.T.);
#82=EDGE_CURVE('',#108,#108,#24,.F.);
#83=EDGE_CURVE('',#109,#109,#25,.F.);
#84=EDGE_CURVE('',#110,#111,#128,.T.);
#85=EDGE_CURVE('',#111,#110,#129,.T.);
#86=EDGE_CURVE('',#112,#113,#130,.T.);
#87=EDGE_CURVE('',#113,#114,#131,.T.);
#88=EDGE_CURVE('',#114,#115,#132,.T.);
#89=EDGE_CURVE('',#115,#116,#133,.T.);
#90=EDGE_CURVE('',#116,#117,#134,.T.);
#91=EDGE_CURVE('',#117,#118,#20,.T.);
#92=EDGE_CURVE('',#118,#119,#135,.T.);
#93=EDGE_CURVE('',#112,#119,#21,.T.);
#94=EDGE_CURVE('',#117,#112,#136,.T.);
#95=EDGE_CURVE('',#119,#120,#137,.T.);
#96=EDGE_CURVE('',#120,#121,#138,.T.);
#97=EDGE_CURVE('',#121,#122,#139,.T.);
#98=EDGE_CURVE('',#122,#123,#140,.T.);
#99=EDGE_CURVE('',#123,#118,#141,.T.);
#100=EDGE_CURVE('',#107,#113,#142,.F.);
#101=EDGE_CURVE('',#116,#106,#143,.T.);
#102=EDGE_CURVE('',#111,#120,#144,.F.);
#103=EDGE_CURVE('',#123,#110,#145,.T.);
#104=EDGE_CURVE('',#124,#124,#26,.T.);
#105=EDGE_CURVE('',#125,#125,#27,.T.);
#106=VERTEX_POINT('',#394);
#107=VERTEX_POINT('',#395);
#108=VERTEX_POINT('',#418);
#109=VERTEX_POINT('',#519);
#110=VERTEX_POINT('',#535);
#111=VERTEX_POINT('',#536);
#112=VERTEX_POINT('',#568);
#113=VERTEX_POINT('',#569);
#114=VERTEX_POINT('',#574);
#115=VERTEX_POINT('',#592);
#116=VERTEX_POINT('',#597);
#117=VERTEX_POINT('',#602);
#118=VERTEX_POINT('',#604);
#119=VERTEX_POINT('',#618);
#120=VERTEX_POINT('',#665);
#121=VERTEX_POINT('',#670);
#122=VERTEX_POINT('',#688);
#123=VERTEX_POINT('',#693);
#124=VERTEX_POINT('',#998);
#125=VERTEX_POINT('',#1002);
#126=B_SPLINE_CURVE_WITH_KNOTS('',3,(#379,#380,#381,#382,#383,#384,#385,
#386,#387,#388,#389,#390,#391,#392,#393),.UNSPECIFIED.,.F.,.F.,(4,1,1,1,
1,1,1,1,1,1,1,1,4),(2.61237924280544E-19,0.000550135278889678,0.00110027055777935,
0.00137533819722419,0.00165040583666903,0.00192547347611387,0.00220054111555871,
0.00247560875500355,0.00275067639444839,0.00302574403389323,0.00330081167333806,
0.00385094695222774,0.00440108223111742),.UNSPECIFIED.);
#127=B_SPLINE_CURVE_WITH_KNOTS('',3,(#396,#397,#398,#399,#400,#401,#402,
#403,#404,#405,#406,#407,#408,#409,#410,#411,#412,#413,#414,#415,#416),
 .UNSPECIFIED.,.F.,.F.,(4,1,1,1,1,1,1,1,1,1,1,1,1,1,1,1,1,1,4),(1.14869160735074E-18,
0.000300804040921481,0.000601608081842961,0.00090241212276444,0.00120321616368592,
0.0015040202046074,0.00180482424552888,0.00210562828645036,0.0022560303069111,
0.00240643232737184,0.00255683434783258,0.00270723636829332,0.0030080404092148,
0.00330884445013628,0.00360964849105776,0.00391045253197924,0.00421125657290072,
0.0045120606138222,0.00481286465474368),.UNSPECIFIED.);
#128=B_SPLINE_CURVE_WITH_KNOTS('',3,(#520,#521,#522,#523,#524,#525,#526,
#527,#528,#529,#530,#531,#532,#533,#534),.UNSPECIFIED.,.F.,.F.,(4,1,1,1,
1,1,1,1,1,1,1,1,4),(3.3881317890172E-21,0.000394699129144276,0.000592048693716414,
0.000789398258288552,0.00098674782286069,0.00118409738743283,0.0015787965165771,
0.00197349564572138,0.00217084521029352,0.00236819477486566,0.00256554433943779,
0.00276289390400993,0.00315759303315421),.UNSPECIFIED.);
#129=B_SPLINE_CURVE_WITH_KNOTS('',3,(#537,#538,#539,#540,#541,#542,#543,
#544,#545,#546,#547,#548,#549),.UNSPECIFIED.,.F.,.F.,(4,1,1,1,1,1,1,1,1,
1,4),(0.,0.00038961699610299,0.000779233992205981,0.000974042490257476,
0.00116885098830897,0.00155846798441196,0.00194808498051495,0.00214289347856645,
0.00233770197661794,0.00272731897272093,0.00311693596882392),
 .UNSPECIFIED.);
#130=B_SPLINE_CURVE_WITH_KNOTS('',3,(#564,#565,#566,#567),.UNSPECIFIED.,
 .F.,.F.,(4,4),(5.12184847379157E-24,1.60215568019503E-5),.UNSPECIFIED.);
#131=B_SPLINE_CURVE_WITH_KNOTS('',3,(#570,#571,#572,#573),.UNSPECIFIED.,
 .F.,.F.,(4,4),(1.16526061665395E-18,7.79344786389905E-7),.UNSPECIFIED.);
#132=B_SPLINE_CURVE_WITH_KNOTS('',3,(#575,#576,#577,#578,#579,#580,#581,
#582,#583,#584,#585,#586,#587,#588,#589,#590,#591),.UNSPECIFIED.,.F.,.F.,
(4,1,1,1,1,1,1,1,1,1,1,1,1,1,4),(-1.19999999964839E-8,0.000450370490226153,
0.000675561735339227,0.000900752980452302,0.00112594422556538,0.00135113547067845,
0.00157632671579153,0.0018015179609046,0.00202670920601767,0.00225190045113075,
0.00247709169624382,0.0027022829413569,0.00292747418646997,0.00315266543158305,
0.0036030479218092),.UNSPECIFIED.);
#133=B_SPLINE_CURVE_WITH_KNOTS('',3,(#593,#594,#595,#596),.UNSPECIFIED.,
 .F.,.F.,(4,4),(-1.20000000036947E-8,7.67344786389358E-7),.UNSPECIFIED.);
#134=B_SPLINE_CURVE_WITH_KNOTS('',3,(#598,#599,#600,#601),.UNSPECIFIED.,
 .F.,.F.,(4,4),(1.05879118406788E-21,1.60215568019522E-5),.UNSPECIFIED.);
#135=B_SPLINE_CURVE_WITH_KNOTS('',3,(#605,#606,#607,#608,#609,#610,#611,
#612,#613,#614,#615,#616,#617),.UNSPECIFIED.,.F.,.F.,(4,1,1,1,1,1,1,1,1,
1,4),(-1.19999999957112E-8,0.000362814029185662,0.000544227043778491,0.00072564005837132,
0.00108846608755698,0.00145129211674264,0.00181411814592829,0.00217694417511395,
0.00235835718970678,0.00253977020429961,0.00290259623348527),
 .UNSPECIFIED.);
#136=B_SPLINE_CURVE_WITH_KNOTS('',3,(#640,#641,#642,#643,#644,#645,#646,
#647,#648,#649,#650,#651,#652,#653,#654,#655,#656,#657,#658,#659,#660),
 .UNSPECIFIED.,.F.,.F.,(4,1,1,1,1,1,1,1,1,1,1,1,1,1,1,1,1,1,4),(-1.20000000032749E-8,
0.000253383863418672,0.000380081795128009,0.000506779726837346,0.000760175590256021,
0.0010135714536747,0.00126696731709337,0.00152036318051205,0.00177375904393072,
0.00202715490734939,0.00228055077076807,0.00253394663418674,0.00278734249760542,
0.00304073836102409,0.00329413422444277,0.00354753008786144,0.00367422801957078,
0.00380092595128012,0.00405432181469879),.UNSPECIFIED.);
#137=B_SPLINE_CURVE_WITH_KNOTS('',3,(#661,#662,#663,#664),.UNSPECIFIED.,
 .F.,.F.,(4,4),(1.9517833861916E-18,1.43381058120944E-5),.UNSPECIFIED.);
#138=B_SPLINE_CURVE_WITH_KNOTS('',3,(#666,#667,#668,#669),.UNSPECIFIED.,
 .F.,.F.,(4,4),(2.00606592833882E-18,7.0802280831195E-7),.UNSPECIFIED.);
#139=B_SPLINE_CURVE_WITH_KNOTS('',3,(#671,#672,#673,#674,#675,#676,#677,
#678,#679,#680,#681,#682,#683,#684,#685,#686,#687),.UNSPECIFIED.,.F.,.F.,
(4,1,1,1,1,1,1,1,1,1,1,1,1,1,4),(-1.19999999965851E-8,0.000188340971036243,
0.000376693942072484,0.000565046913108724,0.000753399884144964,0.000941752855181204,
0.00113010582621744,0.00150681176828992,0.0018835177103624,0.00207187068139864,
0.00226022365243488,0.00244857662347112,0.00263692959450736,0.00282528256554361,
0.00301363553657984),.UNSPECIFIED.);
#140=B_SPLINE_CURVE_WITH_KNOTS('',3,(#689,#690,#691,#692),.UNSPECIFIED.,
 .F.,.F.,(4,4),(-1.20000000016773E-8,6.96022808313724E-7),.UNSPECIFIED.);
#141=B_SPLINE_CURVE_WITH_KNOTS('',3,(#694,#695,#696,#697),.UNSPECIFIED.,
 .F.,.F.,(4,4),(1.21760986167806E-21,1.43381058120884E-5),.UNSPECIFIED.);
#142=B_SPLINE_CURVE_WITH_KNOTS('',3,(#761,#762,#763,#764,#765),
 .UNSPECIFIED.,.F.,.F.,(4,1,4),(2.17133426843836E-19,0.000241372082742322,
0.000482744165484643),.UNSPECIFIED.);
#143=B_SPLINE_CURVE_WITH_KNOTS('',3,(#766,#767,#768,#769,#770),
 .UNSPECIFIED.,.F.,.F.,(4,1,4),(2.17209256644492E-19,0.000240598309117959,
0.000481196618235918),.UNSPECIFIED.);
#144=B_SPLINE_CURVE_WITH_KNOTS('',3,(#930,#931,#932,#933,#934,#935),
 .UNSPECIFIED.,.F.,.F.,(4,1,1,4),(2.33593270066158E-18,0.000135447534201438,
0.000270895068402874,0.000541790136805745),.UNSPECIFIED.);
#145=B_SPLINE_CURVE_WITH_KNOTS('',3,(#936,#937,#938,#939,#940,#941),
 .UNSPECIFIED.,.F.,.F.,(4,1,1,4),(2.16906346896905E-19,0.000135447534201442,
0.000270895068402885,0.000541790136805769),.UNSPECIFIED.);
#146=EDGE_LOOP('',(#28,#29));
#147=EDGE_LOOP('',(#30));
#148=EDGE_LOOP('',(#31));
#149=EDGE_LOOP('',(#32,#33));
#150=EDGE_LOOP('',(#34,#35,#36,#37,#38,#39,#40,#41));
#151=EDGE_LOOP('',(#42,#43,#44,#45,#46,#47,#48,#49));
#152=EDGE_LOOP('',(#50,#51,#52,#53,#54,#55));
#153=EDGE_LOOP('',(#56,#57,#58,#59,#60,#61));
#154=EDGE_LOOP('',(#62,#63,#64,#65,#66,#67));
#155=EDGE_LOOP('',(#68,#69,#70,#71,#72,#73));
#156=EDGE_LOOP('',(#74));
#157=EDGE_LOOP('',(#75));
#158=EDGE_LOOP('',(#76));
#159=EDGE_LOOP('',(#77));
#160=EDGE_LOOP('',(#78));
#161=EDGE_LOOP('',(#79));
#162=FACE_BOUND('',#146,.T.);
#163=FACE_BOUND('',#147,.T.);
#164=FACE_BOUND('',#148,.T.);
#165=FACE_BOUND('',#149,.T.);
#166=FACE_BOUND('',#150,.T.);
#167=FACE_BOUND('',#151,.T.);
#168=FACE_BOUND('',#152,.T.);
#169=FACE_BOUND('',#153,.T.);
#170=FACE_BOUND('',#154,.T.);
#171=FACE_BOUND('',#155,.T.);
#172=FACE_BOUND('',#156,.T.);
#173=FACE_BOUND('',#157,.T.);
#174=FACE_BOUND('',#158,.T.);
#175=FACE_BOUND('',#159,.T.);
#176=FACE_BOUND('',#160,.T.);
#177=FACE_BOUND('',#161,.T.);
#178=B_SPLINE_SURFACE_WITH_KNOTS('',3,3,((#236,#237,#238,#239,#240,#241,
#242,#243,#244,#245,#246),(#247,#248,#249,#250,#251,#252,#253,#254,#255,
#256,#257),(#258,#259,#260,#261,#262,#263,#264,#265,#266,#267,#268),(#269,
#270,#271,#272,#273,#274,#275,#276,#277,#278,#279),(#280,#281,#282,#283,
#284,#285,#286,#287,#288,#289,#290),(#291,#292,#293,#294,#295,#296,#297,
#298,#299,#300,#301),(#302,#303,#304,#305,#306,#307,#308,#309,#310,#311,
#312),(#313,#314,#315,#316,#317,#318,#319,#320,#321,#322,#323),(#324,#325,
#326,#327,#328,#329,#330,#331,#332,#333,#334),(#335,#336,#337,#338,#339,
#340,#341,#342,#343,#344,#345),(#346,#347,#348,#349,#350,#351,#352,#353,
#354,#355,#356),(#357,#358,#359,#360,#361,#362,#363,#364,#365,#366,#367),
(#368,#369,#370,#371,#372,#373,#374,#375,#376,#377,#378)),.UNSPECIFIED.,
 .F.,.T.,.F.,(4,1,1,1,1,1,1,1,1,1,4),(1,1,1,1,1,1,1,1,1,1,1,1,1,1,1),(0.0496133860314793,
0.099830102133169,0.124938460184014,0.158416270918474,0.200263534336548,
0.250480250438238,0.300696966539928,0.350913682641617,0.392760946059692,
0.422054030452345,0.451347114844997),(-2.35619449019234,-1.5707963267949,
-0.785398163397448,0.,0.785398163397448,1.5707963267949,2.35619449019234,
3.14159265358979,3.92699081698724,4.71238898038469,5.49778714378214,6.28318530717959,
7.06858347057703,7.85398163397448,8.63937979737193),.UNSPECIFIED.);
#179=B_SPLINE_SURFACE_WITH_KNOTS('',3,3,((#419,#420,#421,#422,#423,#424,
#425,#426,#427,#428,#429),(#430,#431,#432,#433,#434,#435,#436,#437,#438,
#439,#440),(#441,#442,#443,#444,#445,#446,#447,#448,#449,#450,#451),(#452,
#453,#454,#455,#456,#457,#458,#459,#460,#461,#462),(#463,#464,#465,#466,
#467,#468,#469,#470,#471,#472,#473),(#474,#475,#476,#477,#478,#479,#480,
#481,#482,#483,#484),(#485,#486,#487,#488,#489,#490,#491,#492,#493,#494,
#495),(#496,#497,#498,#499,#500,#501,#502,#503,#504,#505,#506),(#507,#508,
#509,#510,#511,#512,#513,#514,#515,#516,#517)),.UNSPECIFIED.,.F.,.T.,.F.,
(4,1,1,1,1,1,4),(1,1,1,1,1,1,1,1,1,1,1,1,1,1,1),(0.510049244809498,0.544764050589042,
0.562121453478813,0.579478856368585,0.596836259258357,0.614193662148129,
0.648908467927672),(-2.35619449019234,-1.5707963267949,-0.785398163397448,
0.,0.785398163397448,1.5707963267949,2.35619449019234,3.14159265358979,
3.92699081698724,4.71238898038469,5.49778714378214,6.28318530717959,7.06858347057703,
7.85398163397448,8.63937979737193),.UNSPECIFIED.);
#180=B_SPLINE_SURFACE_WITH_KNOTS('',3,1,((#550,#551),(#552,#553),(#554,
#555),(#556,#557),(#558,#559),(#560,#561),(#562,#563)),
 .SURF_OF_LINEAR_EXTRUSION.,.F.,.F.,.F.,(4,1,1,1,4),(2,2),(0.225899481296348,
0.420658436891664,0.61541739248698,0.810176348082297,1.00493530367761),
(0.,1.),.UNSPECIFIED.);
#181=B_SPLINE_SURFACE_WITH_KNOTS('',3,1,((#620,#621),(#622,#623),(#624,
#625),(#626,#627),(#628,#629),(#630,#631),(#632,#633),(#634,#635),(#636,
#637),(#638,#639)),.SURF_OF_LINEAR_EXTRUSION.,.F.,.F.,.F.,(4,1,1,1,1,1,
1,4),(2,2),(-0.0054730799958307,0.103188736069864,0.211850552135559,0.320512368201254,
0.429174184266949,0.537836000332644,0.646497816398338,0.863821448529728),
(0.,1.),.UNSPECIFIED.);
#182=ADVANCED_FACE('',(#162,#163),#178,.T.);
#183=ADVANCED_FACE('',(#164,#165),#179,.T.);
#184=ADVANCED_FACE('',(#166),#180,.F.);
#185=ADVANCED_FACE('',(#167),#181,.F.);
#186=ADVANCED_FACE('',(#168),#16,.T.);
#187=ADVANCED_FACE('',(#169),#17,.T.);
#188=ADVANCED_FACE('',(#170),#18,.T.);
#189=ADVANCED_FACE('',(#171),#19,.T.);
#190=ADVANCED_FACE('',(#172,#173),#14,.T.);
#191=ADVANCED_FACE('',(#174),#13,.T.);
#192=ADVANCED_FACE('',(#175,#176),#12,.F.);
#193=ADVANCED_FACE('',(#177),#15,.F.);
#194=CLOSED_SHELL('',(#182,#183,#184,#185,#186,#187,#188,#189,#190,#191,
#192,#193));
#195=STYLED_ITEM('',(#196),#203);
#196=PRESENTATION_STYLE_ASSIGNMENT((#197));
#197=SURFACE_STYLE_USAGE(.BOTH.,#198);
#198=SURFACE_SIDE_STYLE('',(#199));
#199=SURFACE_STYLE_FILL_AREA(#200);
#200=FILL_AREA_STYLE('',(#201));
#201=FILL_AREA_STYLE_COLOUR('',#202);
#202=COLOUR_RGB('',0.87843137254902,0.509803921568627,0.694117647058824);
#203=MANIFOLD_SOLID_BREP('Part 1',#194);
#204=SHAPE_DEFINITION_REPRESENTATION(#1010,#205);
#205=SHAPE_REPRESENTATION('Part 1',(#206),#1005);
#206=AXIS2_PLACEMENT_3D('',#235,#215,#216);
#207=AXIS2_PLACEMENT_3D('',#417,#217,#218);
#208=AXIS2_PLACEMENT_3D('',#518,#219,#220);
#209=AXIS2_PLACEMENT_3D('',#996,#223,#224);
#210=AXIS2_PLACEMENT_3D('',#997,#225,#226);
#211=AXIS2_PLACEMENT_3D('',#999,#227,#228);
#212=AXIS2_PLACEMENT_3D('',#1000,#229,#230);
#213=AXIS2_PLACEMENT_3D('',#1001,#231,#232);
#214=AXIS2_PLACEMENT_3D('',#1003,#233,#234);
#215=DIRECTION('',(0.,0.,1.));
#216=DIRECTION('',(1.,0.,0.));
#217=DIRECTION('',(0.,0.,-1.));
#218=DIRECTION('',(-1.,0.,0.));
#219=DIRECTION('',(0.,0.,-1.));
#220=DIRECTION('',(-1.,0.,0.));
#221=DIRECTION('',(0.,1.,0.));
#222=DIRECTION('',(0.,-1.,0.));
#223=DIRECTION('',(0.,0.,1.));
#224=DIRECTION('',(1.,0.,0.));
#225=DIRECTION('',(0.,0.,1.));
#226=DIRECTION('',(1.,0.,0.));
#227=DIRECTION('',(0.,0.,1.));
#228=DIRECTION('',(-1.,0.,0.));
#229=DIRECTION('',(0.,0.,-1.));
#230=DIRECTION('',(-1.,0.,0.));
#231=DIRECTION('',(0.,0.,1.));
#232=DIRECTION('',(1.,0.,0.));
#233=DIRECTION('',(0.,0.,1.));
#234=DIRECTION('',(1.,0.,0.));
#235=CARTESIAN_POINT('',(0.,0.,0.));
#236=CARTESIAN_POINT('',(-0.000783611624891358,-0.000783611624891358,-6.99597744287294E-5));
#237=CARTESIAN_POINT('',(-0.00110819418755458,1.0842021724855E-19,-6.99597744287294E-5));
#238=CARTESIAN_POINT('',(-0.000783611624891358,0.000783611624891358,-6.99597744287294E-5));
#239=CARTESIAN_POINT('',(-3.03681286051829E-19,0.00110819418755458,-6.99597744287294E-5));
#240=CARTESIAN_POINT('',(0.000783611624891358,0.000783611624891358,-6.99597744287294E-5));
#241=CARTESIAN_POINT('',(0.00110819418755458,1.01196577113868E-19,-6.99597744287294E-5));
#242=CARTESIAN_POINT('',(0.000783611624891358,-0.000783611624891358,-6.99597744287294E-5));
#243=CARTESIAN_POINT('',(2.8169895731543E-19,-0.00110819418755458,-6.99597744287294E-5));
#244=CARTESIAN_POINT('',(-0.000783611624891358,-0.000783611624891358,-6.99597744287294E-5));
#245=CARTESIAN_POINT('',(-0.00110819418755458,1.0842021724855E-19,-6.99597744287294E-5));
#246=CARTESIAN_POINT('',(-0.000783611624891358,0.000783611624891358,-6.99597744287294E-5));
#247=CARTESIAN_POINT('',(-0.00103645124858239,-0.00103645124858239,-5.85663325916661E-5));
#248=CARTESIAN_POINT('',(-0.00146576341248375,2.47578690499009E-19,-5.85663325916661E-5));
#249=CARTESIAN_POINT('',(-0.00103645124858239,0.00103645124858239,-5.85663325916662E-5));
#250=CARTESIAN_POINT('',(-7.20364643139197E-19,0.00146576341248375,-5.85663325916661E-5));
#251=CARTESIAN_POINT('',(0.0010364512485824,0.00103645124858239,-5.85663325916662E-5));
#252=CARTESIAN_POINT('',(0.00146576341248375,3.15337428091459E-19,-5.85663325916661E-5));
#253=CARTESIAN_POINT('',(0.00103645124858239,-0.00103645124858239,-5.85663325916662E-5));
#254=CARTESIAN_POINT('',(1.02270583027646E-18,-0.00146576341248375,-5.85663325916661E-5));
#255=CARTESIAN_POINT('',(-0.00103645124858239,-0.00103645124858239,-5.85663325916661E-5));
#256=CARTESIAN_POINT('',(-0.00146576341248375,2.47578690499009E-19,-5.85663325916661E-5));
#257=CARTESIAN_POINT('',(-0.00103645124858239,0.00103645124858239,-5.85663325916662E-5));
#258=CARTESIAN_POINT('',(-0.00139409981749653,-0.00139409981749653,0.000119710579975999));
#259=CARTESIAN_POINT('',(-0.00197155486920545,3.61016835198787E-20,0.000119710579975999));
#260=CARTESIAN_POINT('',(-0.00139409981749653,0.00139409981749653,0.000119710579975999));
#261=CARTESIAN_POINT('',(3.42356246795625E-19,0.00197155486920545,0.000119710579975999));
#262=CARTESIAN_POINT('',(0.00139409981749653,0.00139409981749653,0.000119710579975999));
#263=CARTESIAN_POINT('',(0.00197155486920545,-2.31123955207273E-20,0.000119710579975999));
#264=CARTESIAN_POINT('',(0.00139409981749653,-0.00139409981749653,0.000119710579975999));
#265=CARTESIAN_POINT('',(6.30728433943672E-19,-0.00197155486920545,0.000119710579975999));
#266=CARTESIAN_POINT('',(-0.00139409981749653,-0.00139409981749653,0.000119710579975999));
#267=CARTESIAN_POINT('',(-0.00197155486920545,3.61016835198787E-20,0.000119710579975999));
#268=CARTESIAN_POINT('',(-0.00139409981749653,0.00139409981749653,0.000119710579975999));
#269=CARTESIAN_POINT('',(-0.00178664391217338,-0.00178664391217338,0.000595000648661095));
#270=CARTESIAN_POINT('',(-0.00252669605172692,5.47135927231165E-19,0.000595000648661094));
#271=CARTESIAN_POINT('',(-0.00178664391217338,0.00178664391217338,0.000595000648661094));
#272=CARTESIAN_POINT('',(-1.22458393674646E-18,0.00252669605172692,0.000595000648661094));
#273=CARTESIAN_POINT('',(0.00178664391217338,0.00178664391217338,0.000595000648661094));
#274=CARTESIAN_POINT('',(0.00252669605172692,4.20490419802642E-19,0.000595000648661094));
#275=CARTESIAN_POINT('',(0.00178664391217338,-0.00178664391217338,0.000595000648661094));
#276=CARTESIAN_POINT('',(8.80704593906959E-19,-0.00252669605172692,0.000595000648661094));
#277=CARTESIAN_POINT('',(-0.00178664391217338,-0.00178664391217338,0.000595000648661095));
#278=CARTESIAN_POINT('',(-0.00252669605172692,5.47135927231165E-19,0.000595000648661094));
#279=CARTESIAN_POINT('',(-0.00178664391217338,0.00178664391217338,0.000595000648661094));
#280=CARTESIAN_POINT('',(-0.00202175692667829,-0.00202175692667829,0.00110693410807966));
#281=CARTESIAN_POINT('',(-0.00285919606553019,1.24457942194585E-19,0.00110693410807966));
#282=CARTESIAN_POINT('',(-0.00202175692667829,0.00202175692667829,0.00110693410807966));
#283=CARTESIAN_POINT('',(-4.6708667102056E-19,0.00285919606553019,0.00110693410807966));
#284=CARTESIAN_POINT('',(0.00202175692667829,0.00202175692667829,0.00110693410807966));
#285=CARTESIAN_POINT('',(0.00285919606553019,3.56856971221525E-19,0.00110693410807966));
#286=CARTESIAN_POINT('',(0.00202175692667829,-0.00202175692667829,0.00110693410807966));
#287=CARTESIAN_POINT('',(8.21863876598146E-20,-0.00285919606553019,0.00110693410807966));
#288=CARTESIAN_POINT('',(-0.00202175692667829,-0.00202175692667829,0.00110693410807966));
#289=CARTESIAN_POINT('',(-0.00285919606553019,1.24457942194585E-19,0.00110693410807966));
#290=CARTESIAN_POINT('',(-0.00202175692667829,0.00202175692667829,0.00110693410807966));
#291=CARTESIAN_POINT('',(-0.0021218301914356,-0.0021218301914356,0.00182166326523778));
#292=CARTESIAN_POINT('',(-0.00300072103378093,4.13868757819537E-19,0.00182166326523778));
#293=CARTESIAN_POINT('',(-0.0021218301914356,0.0021218301914356,0.00182166326523778));
#294=CARTESIAN_POINT('',(-9.01968865737025E-19,0.00300072103378093,0.00182166326523778));
#295=CARTESIAN_POINT('',(0.00212183019143561,0.00212183019143561,0.00182166326523778));
#296=CARTESIAN_POINT('',(0.00300072103378093,-1.80750719572954E-20,0.00182166326523778));
#297=CARTESIAN_POINT('',(0.0021218301914356,-0.0021218301914356,0.00182166326523778));
#298=CARTESIAN_POINT('',(1.56808721164205E-18,-0.00300072103378093,0.00182166326523778));
#299=CARTESIAN_POINT('',(-0.0021218301914356,-0.0021218301914356,0.00182166326523778));
#300=CARTESIAN_POINT('',(-0.00300072103378093,4.13868757819537E-19,0.00182166326523778));
#301=CARTESIAN_POINT('',(-0.0021218301914356,0.0021218301914356,0.00182166326523778));
#302=CARTESIAN_POINT('',(-0.00207146907592233,-0.00207146907592233,0.00276792411273));
#303=CARTESIAN_POINT('',(-0.00292949966120582,3.85595220490624E-19,0.00276792411273));
#304=CARTESIAN_POINT('',(-0.00207146907592233,0.00207146907592233,0.00276792411273));
#305=CARTESIAN_POINT('',(-6.91659460347224E-19,0.00292949966120582,0.00276792411273));
#306=CARTESIAN_POINT('',(0.00207146907592233,0.00207146907592233,0.00276792411273));
#307=CARTESIAN_POINT('',(0.00292949966120582,5.36574329624525E-19,0.00276792411273));
#308=CARTESIAN_POINT('',(0.00207146907592233,-0.00207146907592233,0.00276792411273));
#309=CARTESIAN_POINT('',(6.92217816176183E-19,-0.00292949966120582,0.00276792411273));
#310=CARTESIAN_POINT('',(-0.00207146907592233,-0.00207146907592233,0.00276792411273));
#311=CARTESIAN_POINT('',(-0.00292949966120582,3.85595220490624E-19,0.00276792411273));
#312=CARTESIAN_POINT('',(-0.00207146907592233,0.00207146907592233,0.00276792411273));
#313=CARTESIAN_POINT('',(-0.00183519572370981,-0.00183519572370981,0.0038235256623036));
#314=CARTESIAN_POINT('',(-0.00259535868207952,3.83963903532014E-19,0.0038235256623036));
#315=CARTESIAN_POINT('',(-0.00183519572370981,0.00183519572370981,0.0038235256623036));
#316=CARTESIAN_POINT('',(-4.75321925284877E-19,0.00259535868207952,0.0038235256623036));
#317=CARTESIAN_POINT('',(0.00183519572370981,0.00183519572370981,0.0038235256623036));
#318=CARTESIAN_POINT('',(0.00259535868207952,1.54389649386481E-19,0.0038235256623036));
#319=CARTESIAN_POINT('',(0.00183519572370981,-0.00183519572370981,0.0038235256623036));
#320=CARTESIAN_POINT('',(1.24549894081677E-18,-0.00259535868207952,0.0038235256623036));
#321=CARTESIAN_POINT('',(-0.00183519572370981,-0.00183519572370981,0.0038235256623036));
#322=CARTESIAN_POINT('',(-0.00259535868207952,3.83963903532014E-19,0.0038235256623036));
#323=CARTESIAN_POINT('',(-0.00183519572370981,0.00183519572370981,0.0038235256623036));
#324=CARTESIAN_POINT('',(-0.00150431542010501,-0.00150431542010501,0.00477192266054909));
#325=CARTESIAN_POINT('',(-0.00212742326919949,1.72647701385629E-19,0.00477192266054909));
#326=CARTESIAN_POINT('',(-0.00150431542010501,0.00150431542010501,0.00477192266054909));
#327=CARTESIAN_POINT('',(-5.12647172837099E-19,0.00212742326919949,0.00477192266054909));
#328=CARTESIAN_POINT('',(0.00150431542010502,0.00150431542010501,0.00477192266054909));
#329=CARTESIAN_POINT('',(0.00212742326919949,2.69949862707972E-19,0.00477192266054909));
#330=CARTESIAN_POINT('',(0.00150431542010501,-0.00150431542010501,0.00477192266054909));
#331=CARTESIAN_POINT('',(5.63293229236243E-19,-0.00212742326919949,0.00477192266054909));
#332=CARTESIAN_POINT('',(-0.00150431542010501,-0.00150431542010501,0.00477192266054909));
#333=CARTESIAN_POINT('',(-0.00212742326919949,1.72647701385629E-19,0.00477192266054909));
#334=CARTESIAN_POINT('',(-0.00150431542010501,0.00150431542010501,0.00477192266054909));
#335=CARTESIAN_POINT('',(-0.00121139929708469,-0.00121139929708469,0.00545192511930704));
#336=CARTESIAN_POINT('',(-0.0017131773153864,2.43279192486433E-19,0.00545192511930705));
#337=CARTESIAN_POINT('',(-0.00121139929708469,0.00121139929708469,0.00545192511930704));
#338=CARTESIAN_POINT('',(2.03986914749827E-19,0.0017131773153864,0.00545192511930705));
#339=CARTESIAN_POINT('',(0.00121139929708469,0.00121139929708469,0.00545192511930704));
#340=CARTESIAN_POINT('',(0.0017131773153864,2.5132530297426E-20,0.00545192511930704));
#341=CARTESIAN_POINT('',(0.00121139929708469,-0.00121139929708469,0.00545192511930705));
#342=CARTESIAN_POINT('',(1.59672778255141E-19,-0.0017131773153864,0.00545192511930704));
#343=CARTESIAN_POINT('',(-0.00121139929708469,-0.00121139929708469,0.00545192511930704));
#344=CARTESIAN_POINT('',(-0.0017131773153864,2.43279192486433E-19,0.00545192511930705));
#345=CARTESIAN_POINT('',(-0.00121139929708469,0.00121139929708469,0.00545192511930704));
#346=CARTESIAN_POINT('',(-0.000937521141700344,-0.000937521141700344,0.00597877144226363));
#347=CARTESIAN_POINT('',(-0.00132585511360413,8.04720716530221E-20,0.00597877144226363));
#348=CARTESIAN_POINT('',(-0.000937521141700343,0.000937521141700344,0.00597877144226363));
#349=CARTESIAN_POINT('',(-7.54741380067882E-19,0.00132585511360413,0.00597877144226363));
#350=CARTESIAN_POINT('',(0.000937521141700345,0.000937521141700343,0.00597877144226363));
#351=CARTESIAN_POINT('',(0.00132585511360413,2.91569564544534E-19,0.00597877144226363));
#352=CARTESIAN_POINT('',(0.000937521141700344,-0.000937521141700344,0.00597877144226363));
#353=CARTESIAN_POINT('',(4.20846653827616E-19,-0.00132585511360413,0.00597877144226363));
#354=CARTESIAN_POINT('',(-0.000937521141700344,-0.000937521141700344,0.00597877144226363));
#355=CARTESIAN_POINT('',(-0.00132585511360413,8.04720716530221E-20,0.00597877144226363));
#356=CARTESIAN_POINT('',(-0.000937521141700343,0.000937521141700344,0.00597877144226363));
#357=CARTESIAN_POINT('',(-0.000762450991188096,-0.000762450991188097,0.0062541465850158));
#358=CARTESIAN_POINT('',(-0.00107826853238302,1.44971840665672E-19,0.00625414658501581));
#359=CARTESIAN_POINT('',(-0.000762450991188097,0.000762450991188096,0.0062541465850158));
#360=CARTESIAN_POINT('',(-1.26410793423319E-19,0.00107826853238302,0.00625414658501581));
#361=CARTESIAN_POINT('',(0.000762450991188096,0.000762450991188097,0.0062541465850158));
#362=CARTESIAN_POINT('',(0.00107826853238302,7.58891236660642E-20,0.0062541465850158));
#363=CARTESIAN_POINT('',(0.000762450991188096,-0.000762450991188097,0.0062541465850158));
#364=CARTESIAN_POINT('',(2.36261378165427E-19,-0.00107826853238301,0.0062541465850158));
#365=CARTESIAN_POINT('',(-0.000762450991188096,-0.000762450991188097,0.0062541465850158));
#366=CARTESIAN_POINT('',(-0.00107826853238302,1.44971840665672E-19,0.00625414658501581));
#367=CARTESIAN_POINT('',(-0.000762450991188097,0.000762450991188096,0.0062541465850158));
#368=CARTESIAN_POINT('',(-0.00068107205851752,-0.00068107205851752,0.00633696194158645));
#369=CARTESIAN_POINT('',(-0.000963181342108839,1.30104260698261E-19,0.00633696194158645));
#370=CARTESIAN_POINT('',(-0.00068107205851752,0.00068107205851752,0.00633696194158645));
#371=CARTESIAN_POINT('',(-1.72954516929175E-19,0.000963181342108839,0.00633696194158645));
#372=CARTESIAN_POINT('',(0.00068107205851752,0.00068107205851752,0.00633696194158645));
#373=CARTESIAN_POINT('',(0.000963181342108839,1.05409554882696E-19,0.00633696194158645));
#374=CARTESIAN_POINT('',(0.00068107205851752,-0.00068107205851752,0.00633696194158645));
#375=CARTESIAN_POINT('',(2.8169895731543E-19,-0.000963181342108839,0.00633696194158644));
#376=CARTESIAN_POINT('',(-0.00068107205851752,-0.00068107205851752,0.00633696194158645));
#377=CARTESIAN_POINT('',(-0.000963181342108839,1.30104260698261E-19,0.00633696194158645));
#378=CARTESIAN_POINT('',(-0.00068107205851752,0.00068107205851752,0.00633696194158645));
#379=CARTESIAN_POINT('',(3.05102157970555E-5,-0.00156378684804192,0.00540385100301211));
#380=CARTESIAN_POINT('',(-5.40065347844091E-5,-0.00148186846899302,0.00554450291503884));
#381=CARTESIAN_POINT('',(-0.000223702011013907,-0.00130071805591242,0.00580882456025182));
#382=CARTESIAN_POINT('',(-0.000396876386431617,-0.00101169421880576,0.00613635462227763));
#383=CARTESIAN_POINT('',(-0.000621790400802078,-0.000746507483726987,0.00625562077037563));
#384=CARTESIAN_POINT('',(-0.000765924975461225,-0.00051534465766806,0.00630174141413671));
#385=CARTESIAN_POINT('',(-0.000867862088057442,-0.000265148231313065,0.00631830331569009));
#386=CARTESIAN_POINT('',(-0.0010013083219793,-1.01365680432168E-5,0.00622418219250417));
#387=CARTESIAN_POINT('',(-0.000879483806532268,0.000248569426481358,0.00631238200037483));
#388=CARTESIAN_POINT('',(-0.00077181047068118,0.000499594450710665,0.00630548007232009));
#389=CARTESIAN_POINT('',(-0.000631530125480934,0.000735324007199902,0.00625825066583687));
#390=CARTESIAN_POINT('',(-0.000400989599884305,0.00100463106497896,0.00614383230884578));
#391=CARTESIAN_POINT('',(-0.00022576483640118,0.00129858944770538,0.0058117777212224));
#392=CARTESIAN_POINT('',(-5.49579689679713E-5,0.00148094628557313,0.00554608628207751));
#393=CARTESIAN_POINT('',(3.05102157970555E-5,0.00156378684804192,0.00540385100301211));
#394=CARTESIAN_POINT('',(3.05102157970547E-5,-0.00156378684804192,0.00540385100301211));
#395=CARTESIAN_POINT('',(3.05102157970549E-5,0.00156378684804192,0.00540385100301211));
#396=CARTESIAN_POINT('',(3.05102157970515E-5,0.00156378684804192,0.00540385100301211));
#397=CARTESIAN_POINT('',(6.43289979087338E-5,0.00151508429115156,0.00548471157262562));
#398=CARTESIAN_POINT('',(0.000135015800939013,0.00141347962940351,0.00564175330676515));
#399=CARTESIAN_POINT('',(0.00021584791918783,0.00124440920596103,0.00587813928617193));
#400=CARTESIAN_POINT('',(0.00039107171841895,0.00106935704500735,0.00605366821882271));
#401=CARTESIAN_POINT('',(0.000499354730851012,0.000850867986137783,0.00624020841806425));
#402=CARTESIAN_POINT('',(0.000669249217402883,0.000615950193510973,0.0063185380421766));
#403=CARTESIAN_POINT('',(0.000866706569428929,0.000372919111091854,0.00628601585114455));
#404=CARTESIAN_POINT('',(0.00103745395405856,0.000266585669339476,0.00613417662649155));
#405=CARTESIAN_POINT('',(0.00114549858364277,0.000137154920163962,0.00602547070330344));
#406=CARTESIAN_POINT('',(0.00118252757262266,-1.25740141708967E-5,0.00598746276741124));
#407=CARTESIAN_POINT('',(0.00113450151999801,-0.000154839743658771,0.0060366406588912));
#408=CARTESIAN_POINT('',(0.00102370961202115,-0.000275541360895803,0.00614777408809711));
#409=CARTESIAN_POINT('',(0.000849850711045226,-0.000390610831258963,0.0062938755004886));
#410=CARTESIAN_POINT('',(0.000658351390027606,-0.000628171137407015,0.00631742225363997));
#411=CARTESIAN_POINT('',(0.000494276951182102,-0.000861480407900372,0.00623264691185937));
#412=CARTESIAN_POINT('',(0.000387056372307625,-0.00107395679584425,0.00604900279718091));
#413=CARTESIAN_POINT('',(0.000215864737673044,-0.0012447708269737,0.00587749260327258));
#414=CARTESIAN_POINT('',(0.00013421387370142,-0.00141468027055315,0.00564006627214634));
#415=CARTESIAN_POINT('',(6.41210561432579E-5,-0.0015153837488798,0.00548421438471544));
#416=CARTESIAN_POINT('',(3.05102157970524E-5,-0.00156378684804192,0.00540385100301211));
#417=CARTESIAN_POINT('',(2.3955558431874E-20,0.,-6.99597744287295E-5));
#418=CARTESIAN_POINT('',(-0.00100000000000017,0.,-6.99597744287295E-5));
#419=CARTESIAN_POINT('',(-0.000408986950894816,-0.000408986950894815,0.00613034273327996));
#420=CARTESIAN_POINT('',(-0.000578394892789067,-1.49077798716757E-19,0.00613034273327996));
#421=CARTESIAN_POINT('',(-0.000408986950894816,0.000408986950894816,0.00613034273327996));
#422=CARTESIAN_POINT('',(-1.38913403349705E-19,0.000578394892789067,0.00613034273327996));
#423=CARTESIAN_POINT('',(0.000408986950894816,0.000408986950894816,0.00613034273327996));
#424=CARTESIAN_POINT('',(0.000578394892789067,9.56088439213292E-20,0.00613034273327996));
#425=CARTESIAN_POINT('',(0.000408986950894816,-0.000408986950894816,0.00613034273327996));
#426=CARTESIAN_POINT('',(2.84603070277445E-19,-0.000578394892789067,0.00613034273327996));
#427=CARTESIAN_POINT('',(-0.000408986950894816,-0.000408986950894815,0.00613034273327996));
#428=CARTESIAN_POINT('',(-0.000578394892789067,-1.49077798716757E-19,0.00613034273327996));
#429=CARTESIAN_POINT('',(-0.000408986950894816,0.000408986950894816,0.00613034273327996));
#430=CARTESIAN_POINT('',(-0.000440479021571492,-0.000440479021571491,0.00600742562933347));
#431=CARTESIAN_POINT('',(-0.000622931406247234,-8.13151629364128E-20,0.00600742562933347));
#432=CARTESIAN_POINT('',(-0.000440479021571492,0.000440479021571492,0.00600742562933347));
#433=CARTESIAN_POINT('',(-2.60886147754325E-19,0.000622931406247235,0.00600742562933347));
#434=CARTESIAN_POINT('',(0.000440479021571492,0.000440479021571492,0.00600742562933347));
#435=CARTESIAN_POINT('',(0.000622931406247234,7.15742840429884E-20,0.00600742562933347));
#436=CARTESIAN_POINT('',(0.000440479021571492,-0.000440479021571492,0.00600742562933347));
#437=CARTESIAN_POINT('',(3.18484388167617E-19,-0.000622931406247235,0.00600742562933347));
#438=CARTESIAN_POINT('',(-0.000440479021571492,-0.000440479021571491,0.00600742562933347));
#439=CARTESIAN_POINT('',(-0.000622931406247234,-8.13151629364128E-20,0.00600742562933347));
#440=CARTESIAN_POINT('',(-0.000440479021571492,0.000440479021571492,0.00600742562933347));
#441=CARTESIAN_POINT('',(-0.000571441254655094,-0.000571441254655092,0.00580480680114976));
#442=CARTESIAN_POINT('',(-0.000808139972432729,-1.89735380184963E-19,0.00580480680114976));
#443=CARTESIAN_POINT('',(-0.000571441254655093,0.000571441254655093,0.00580480680114976));
#444=CARTESIAN_POINT('',(-2.33781093442187E-19,0.00080813997243273,0.00580480680114976));
#445=CARTESIAN_POINT('',(0.000571441254655093,0.000571441254655093,0.00580480680114976));
#446=CARTESIAN_POINT('',(0.00080813997243273,2.5707449949168E-19,0.00580480680114976));
#447=CARTESIAN_POINT('',(0.000571441254655093,-0.000571441254655093,0.00580480680114976));
#448=CARTESIAN_POINT('',(2.37169225231204E-19,-0.00080813997243273,0.00580480680114976));
#449=CARTESIAN_POINT('',(-0.000571441254655094,-0.000571441254655092,0.00580480680114976));
#450=CARTESIAN_POINT('',(-0.000808139972432729,-1.89735380184963E-19,0.00580480680114976));
#451=CARTESIAN_POINT('',(-0.000571441254655093,0.000571441254655093,0.00580480680114976));
#452=CARTESIAN_POINT('',(-0.000704698165757901,-0.000704698165757899,0.00554377415128252));
#453=CARTESIAN_POINT('',(-0.000996593703394266,-1.49077798716757E-19,0.00554377415128252));
#454=CARTESIAN_POINT('',(-0.0007046981657579,0.0007046981657579,0.00554377415128252));
#455=CARTESIAN_POINT('',(-1.01643953670516E-19,0.000996593703394266,0.00554377415128252));
#456=CARTESIAN_POINT('',(0.0007046981657579,0.0007046981657579,0.00554377415128252));
#457=CARTESIAN_POINT('',(0.000996593703394266,1.17314063194721E-19,0.00554377415128252));
#458=CARTESIAN_POINT('',(0.0007046981657579,-0.0007046981657579,0.00554377415128252));
#459=CARTESIAN_POINT('',(5.55653613398821E-19,-0.000996593703394266,0.00554377415128252));
#460=CARTESIAN_POINT('',(-0.000704698165757901,-0.000704698165757899,0.00554377415128252));
#461=CARTESIAN_POINT('',(-0.000996593703394266,-1.49077798716757E-19,0.00554377415128252));
#462=CARTESIAN_POINT('',(-0.0007046981657579,0.0007046981657579,0.00554377415128252));
#463=CARTESIAN_POINT('',(-0.000793798539601702,-0.000793798539601701,0.00534454938736408));
#464=CARTESIAN_POINT('',(-0.00112260066049668,-1.89735380184963E-19,0.00534454938736408));
#465=CARTESIAN_POINT('',(-0.000793798539601701,0.000793798539601702,0.00534454938736408));
#466=CARTESIAN_POINT('',(-3.79470760369927E-19,0.00112260066049668,0.00534454938736408));
#467=CARTESIAN_POINT('',(0.000793798539601701,0.000793798539601701,0.00534454938736408));
#468=CARTESIAN_POINT('',(0.00112260066049668,3.22084278193448E-19,0.00534454938736408));
#469=CARTESIAN_POINT('',(0.000793798539601701,-0.000793798539601702,0.00534454938736408));
#470=CARTESIAN_POINT('',(6.64073830647371E-19,-0.00112260066049668,0.00534454938736408));
#471=CARTESIAN_POINT('',(-0.000793798539601702,-0.000793798539601701,0.00534454938736408));
#472=CARTESIAN_POINT('',(-0.00112260066049668,-1.89735380184963E-19,0.00534454938736408));
#473=CARTESIAN_POINT('',(-0.000793798539601701,0.000793798539601702,0.00534454938736408));
#474=CARTESIAN_POINT('',(-0.000886860267831917,-0.000886860267831914,0.00513220491036323));
#475=CARTESIAN_POINT('',(-0.00125420981869773,-3.25260651745651E-19,0.00513220491036323));
#476=CARTESIAN_POINT('',(-0.000886860267831916,0.000886860267831916,0.00513220491036323));
#477=CARTESIAN_POINT('',(-2.23616698075135E-19,0.00125420981869773,0.00513220491036322));
#478=CARTESIAN_POINT('',(0.000886860267831915,0.000886860267831916,0.00513220491036323));
#479=CARTESIAN_POINT('',(0.00125420981869773,1.35313513323874E-19,0.00513220491036322));
#480=CARTESIAN_POINT('',(0.000886860267831916,-0.000886860267831916,0.00513220491036323));
#481=CARTESIAN_POINT('',(6.09863722023096E-19,-0.00125420981869773,0.00513220491036323));
#482=CARTESIAN_POINT('',(-0.000886860267831917,-0.000886860267831914,0.00513220491036323));
#483=CARTESIAN_POINT('',(-0.00125420981869773,-3.25260651745651E-19,0.00513220491036323));
#484=CARTESIAN_POINT('',(-0.000886860267831916,0.000886860267831916,0.00513220491036323));
#485=CARTESIAN_POINT('',(-0.00103081904856942,-0.00103081904856941,0.00482083020273107));
#486=CARTESIAN_POINT('',(-0.0014577982788394,-4.06575814682064E-19,0.00482083020273107));
#487=CARTESIAN_POINT('',(-0.00103081904856941,0.00103081904856941,0.00482083020273107));
#488=CARTESIAN_POINT('',(-5.62429876976855E-19,0.0014577982788394,0.00482083020273107));
#489=CARTESIAN_POINT('',(0.00103081904856942,0.00103081904856941,0.00482083020273107));
#490=CARTESIAN_POINT('',(0.0014577982788394,3.86247023947961E-19,0.00482083020273107));
#491=CARTESIAN_POINT('',(0.00103081904856942,-0.00103081904856941,0.00482083020273107));
#492=CARTESIAN_POINT('',(3.79470760369927E-19,-0.0014577982788394,0.00482083020273107));
#493=CARTESIAN_POINT('',(-0.00103081904856942,-0.00103081904856941,0.00482083020273107));
#494=CARTESIAN_POINT('',(-0.0014577982788394,-4.06575814682064E-19,0.00482083020273107));
#495=CARTESIAN_POINT('',(-0.00103081904856941,0.00103081904856941,0.00482083020273107));
#496=CARTESIAN_POINT('',(-0.0011471237207565,-0.0011471237207565,0.00455778448021645));
#497=CARTESIAN_POINT('',(-0.00162227792361373,-1.89735380184963E-19,0.00455778448021645));
#498=CARTESIAN_POINT('',(-0.0011471237207565,0.0011471237207565,0.00455778448021645));
#499=CARTESIAN_POINT('',(3.3881317890172E-20,0.00162227792361373,0.00455778448021645));
#500=CARTESIAN_POINT('',(0.0011471237207565,0.0011471237207565,0.00455778448021645));
#501=CARTESIAN_POINT('',(0.00162227792361373,1.57971644662927E-19,0.00455778448021645));
#502=CARTESIAN_POINT('',(0.0011471237207565,-0.0011471237207565,0.00455778448021645));
#503=CARTESIAN_POINT('',(6.50521303491303E-19,-0.00162227792361373,0.00455778448021645));
#504=CARTESIAN_POINT('',(-0.0011471237207565,-0.0011471237207565,0.00455778448021645));
#505=CARTESIAN_POINT('',(-0.00162227792361373,-1.89735380184963E-19,0.00455778448021645));
#506=CARTESIAN_POINT('',(-0.0011471237207565,0.0011471237207565,0.00455778448021645));
#507=CARTESIAN_POINT('',(-0.00121749368625724,-0.00121749368625724,0.00437055236090546));
#508=CARTESIAN_POINT('',(-0.00172179608320861,-4.06575814682064E-19,0.00437055236090546));
#509=CARTESIAN_POINT('',(-0.00121749368625724,0.00121749368625724,0.00437055236090546));
#510=CARTESIAN_POINT('',(-1.55854062294791E-19,0.00172179608320861,0.00437055236090546));
#511=CARTESIAN_POINT('',(0.00121749368625724,0.00121749368625724,0.00437055236090546));
#512=CARTESIAN_POINT('',(0.00172179608320861,3.11708124589583E-19,0.00437055236090546));
#513=CARTESIAN_POINT('',(0.00121749368625724,-0.00121749368625724,0.00437055236090546));
#514=CARTESIAN_POINT('',(1.07064964532944E-18,-0.00172179608320861,0.00437055236090546));
#515=CARTESIAN_POINT('',(-0.00121749368625724,-0.00121749368625724,0.00437055236090546));
#516=CARTESIAN_POINT('',(-0.00172179608320861,-4.06575814682064E-19,0.00437055236090546));
#517=CARTESIAN_POINT('',(-0.00121749368625724,0.00121749368625724,0.00437055236090546));
#518=CARTESIAN_POINT('',(2.3955558431874E-20,0.,0.00437055236090546));
#519=CARTESIAN_POINT('',(-0.00155369528422482,0.,0.00437055236090546));
#520=CARTESIAN_POINT('',(2.43562584701479E-5,-0.00107409940397742,0.00523490976480436));
#521=CARTESIAN_POINT('',(6.12423492330513E-5,-0.00101131962705004,0.00534459877817604));
#522=CARTESIAN_POINT('',(0.000118459781811876,-0.000916383724288047,0.00550750291648761));
#523=CARTESIAN_POINT('',(0.000183030014368491,-0.000767025632558313,0.00571649962997204));
#524=CARTESIAN_POINT('',(0.000279795046868289,-0.000642250242539584,0.00583766443734092));
#525=CARTESIAN_POINT('',(0.00032770857181835,-0.000505195813510493,0.0059675506516084));
#526=CARTESIAN_POINT('',(0.000406930491558516,-0.000327375162778322,0.00616065107582685));
#527=CARTESIAN_POINT('',(0.000611971862339445,-4.05247985313712E-6,0.00606999763872348));
#528=CARTESIAN_POINT('',(0.000409568841519199,0.00032425978840026,0.00616255891947882));
#529=CARTESIAN_POINT('',(0.000328235075158655,0.000503091203017393,0.0059697514461251));
#530=CARTESIAN_POINT('',(0.000280842480275044,0.000640572451860338,0.00583922735542828));
#531=CARTESIAN_POINT('',(0.000183190474621962,0.000766780914254775,0.00571682223382269));
#532=CARTESIAN_POINT('',(0.000119092538490585,0.000915063040140402,0.00550946807413193));
#533=CARTESIAN_POINT('',(6.14190197322268E-5,0.00101101893553466,0.00534512414728796));
#534=CARTESIAN_POINT('',(2.43562584701477E-5,0.00107409940397742,0.00523490976480436));
#535=CARTESIAN_POINT('',(2.43562584701478E-5,-0.00107409940397742,0.00523490976480436));
#536=CARTESIAN_POINT('',(2.43562584701481E-5,0.00107409940397742,0.00523490976480436));
#537=CARTESIAN_POINT('',(2.43562584701481E-5,0.00107409940397742,0.00523490976480436));
#538=CARTESIAN_POINT('',(-2.67166534812794E-5,0.00101626315670128,0.00533937674971866));
#539=CARTESIAN_POINT('',(-0.000126740589784971,0.00089841147253328,0.00554789682733632));
#540=CARTESIAN_POINT('',(-0.000247551358510969,0.000704678152472553,0.00577678973401371));
#541=CARTESIAN_POINT('',(-0.000319642010572974,0.000525606998035771,0.00595531461835285));
#542=CARTESIAN_POINT('',(-0.000447670318691989,0.000334268316370902,0.00608396352002578));
#543=CARTESIAN_POINT('',(-0.000571731190072521,1.40756461879873E-5,0.00614439623004623));
#544=CARTESIAN_POINT('',(-0.000461159307821937,-0.000314543191140518,0.00609016547807267));
#545=CARTESIAN_POINT('',(-0.000326984989229392,-0.000510711924444989,0.00596934761250224));
#546=CARTESIAN_POINT('',(-0.000252469525982041,-0.000693835580465326,0.0057880403021658));
#547=CARTESIAN_POINT('',(-0.000130097859440995,-0.0008950336998695,0.00555427719179516));
#548=CARTESIAN_POINT('',(-2.7736146750641E-5,-0.00101510865693673,0.00534146207017369));
#549=CARTESIAN_POINT('',(2.43562584701477E-5,-0.00107409940397742,0.00523490976480436));
#550=CARTESIAN_POINT('',(-0.000937325172462798,0.0012284033687236,0.00627330858338988));
#551=CARTESIAN_POINT('',(-0.000937325172462798,-0.00122840336872361,0.00627330858338988));
#552=CARTESIAN_POINT('',(-0.000848329576320286,0.0012284033687236,0.00633322181334149));
#553=CARTESIAN_POINT('',(-0.000848329576320286,-0.00122840336872361,0.00633322181334149));
#554=CARTESIAN_POINT('',(-0.000676701620519172,0.0012284033687236,0.00637785814728527));
#555=CARTESIAN_POINT('',(-0.000676701620519172,-0.00122840336872361,0.00637785814728527));
#556=CARTESIAN_POINT('',(-0.000356521072191081,0.0012284033687236,0.00625233539970408));
#557=CARTESIAN_POINT('',(-0.000356521072191081,-0.00122840336872361,0.00625233539970408));
#558=CARTESIAN_POINT('',(-0.000189460040504348,0.0012284033687236,0.00605970465083585));
#559=CARTESIAN_POINT('',(-0.000189460040504348,-0.00122840336872361,0.00605970465083585));
#560=CARTESIAN_POINT('',(-6.05174410759473E-5,0.0012284033687236,0.00582178098335321));
#561=CARTESIAN_POINT('',(-6.05174410759473E-5,-0.00122840336872361,0.00582178098335321));
#562=CARTESIAN_POINT('',(4.97916470757133E-6,0.0012284033687236,0.00570439032297561));
#563=CARTESIAN_POINT('',(4.97916470757133E-6,-0.00122840336872361,0.00570439032297561));
#564=CARTESIAN_POINT('',(9.35262322003797E-21,0.00119782917467317,0.00571331456303597));
#565=CARTESIAN_POINT('',(-1.24173499338859E-20,0.00120317416755266,0.00571331456303597));
#566=CARTESIAN_POINT('',(1.10021620775326E-7,0.0012085099155294,0.00571311736944762));
#567=CARTESIAN_POINT('',(3.19327141946324E-7,0.00121383732087313,0.0057127422276665));
#568=CARTESIAN_POINT('',(-3.54068859250225E-21,0.00119782917467317,0.00571331456303597));
#569=CARTESIAN_POINT('',(3.19327141936244E-7,0.00121383732087313,0.00571274222766652));
#570=CARTESIAN_POINT('',(3.193271419337E-7,0.00121383732087313,0.00571274222766652));
#571=CARTESIAN_POINT('',(2.12877648027614E-7,0.00121369677301963,0.00571293301887222));
#572=CARTESIAN_POINT('',(1.06435334469517E-7,0.00121355620246745,0.00571312379736105));
#573=CARTESIAN_POINT('',(-4.02869328286794E-20,0.00121341560924503,0.00571331456303597));
#574=CARTESIAN_POINT('',(-3.54068859250225E-21,0.00121341560924503,0.00571331456303597));
#575=CARTESIAN_POINT('',(-4.02869328286794E-20,0.00121341560924503,0.00571331456303597));
#576=CARTESIAN_POINT('',(-6.15087887088474E-5,0.00113216692909216,0.00582355786742703));
#577=CARTESIAN_POINT('',(-0.000149096367326936,0.000995773025171059,0.00597979549255469));
#578=CARTESIAN_POINT('',(-0.000281120650029496,0.000814174789626684,0.00618147074938687));
#579=CARTESIAN_POINT('',(-0.000446910142049839,0.000692669838465445,0.00628198916373964));
#580=CARTESIAN_POINT('',(-0.000582495261637433,0.00051714118899617,0.00632477980951601));
#581=CARTESIAN_POINT('',(-0.000697711299203228,0.000321318446068585,0.00636439759864642));
#582=CARTESIAN_POINT('',(-0.000879262322687229,0.000196290582338618,0.00632083417409984));
#583=CARTESIAN_POINT('',(-0.000963625881096466,-2.7406355631293E-5,0.00625201054230149));
#584=CARTESIAN_POINT('',(-0.000845352232725147,-0.000224333903965846,0.00634078395030018));
#585=CARTESIAN_POINT('',(-0.00067004652887854,-0.000355484139313577,0.00635708948328004));
#586=CARTESIAN_POINT('',(-0.000564379043343789,-0.000547824245308843,0.00631921010570047));
#587=CARTESIAN_POINT('',(-0.000426128348593285,-0.000711160537421809,0.00627343521431893));
#588=CARTESIAN_POINT('',(-0.000268442717225139,-0.000824866146937358,0.00616641050451675));
#589=CARTESIAN_POINT('',(-0.000145096706634189,-0.00100670198944286,0.00597043597472958));
#590=CARTESIAN_POINT('',(-6.15087887221683E-5,-0.0011321669290944,0.00582355786742126));
#591=CARTESIAN_POINT('',(-2.99088654019719E-19,-0.00121341560924503,0.00571331456303597));
#592=CARTESIAN_POINT('',(-3.54068859250225E-21,-0.00121341560924503,0.00571331456303597));
#593=CARTESIAN_POINT('',(-2.70816197082881E-19,-0.00121341560924503,0.00571331456303597));
#594=CARTESIAN_POINT('',(1.06435334454103E-7,-0.00121355620246745,0.00571312379736104));
#595=CARTESIAN_POINT('',(2.12877648030945E-7,-0.00121369677301963,0.00571293301887222));
#596=CARTESIAN_POINT('',(3.19327141937535E-7,-0.00121383732087312,0.00571274222766652));
#597=CARTESIAN_POINT('',(3.19327141936244E-7,-0.00121383732087313,0.00571274222766652));
#598=CARTESIAN_POINT('',(3.19327141933631E-7,-0.00121383732087313,0.00571274222766652));
#599=CARTESIAN_POINT('',(1.10021620762615E-7,-0.0012085099155294,0.00571311736944764));
#600=CARTESIAN_POINT('',(-8.05734443094382E-20,-0.00120317416755266,0.00571331456303597));
#601=CARTESIAN_POINT('',(-2.83255087400179E-20,-0.00119782917467316,0.00571331456303597));
#602=CARTESIAN_POINT('',(-3.54068859250225E-21,-0.00119782917467316,0.00571331456303597));
#603=CARTESIAN_POINT('',(-3.54068859250225E-21,-0.005,0.00571331456303597));
#604=CARTESIAN_POINT('',(-3.54068859250225E-21,-0.00103028044085864,0.00571331456303597));
#605=CARTESIAN_POINT('',(-7.41468374112238E-20,-0.00103028044085864,0.00571331456303597));
#606=CARTESIAN_POINT('',(-5.03630271262613E-5,-0.000967491253758272,0.00580358113048591));
#607=CARTESIAN_POINT('',(-0.00012447153338085,-0.000864013123448938,0.0059340320805917));
#608=CARTESIAN_POINT('',(-0.000217032179565039,-0.000701723246995539,0.00608790333775124));
#609=CARTESIAN_POINT('',(-0.00035395160207465,-0.000574783102242396,0.00624910906514283));
#610=CARTESIAN_POINT('',(-0.000572330276902745,-0.000362396101530944,0.00632511930906825));
#611=CARTESIAN_POINT('',(-0.00069010980291167,3.85035127141482E-6,0.00635187078046328));
#612=CARTESIAN_POINT('',(-0.000570821463713502,0.000362907873042701,0.00632476647864497));
#613=CARTESIAN_POINT('',(-0.000353901886719892,0.000575235244186927,0.00624860648966558));
#614=CARTESIAN_POINT('',(-0.00021802557139595,0.000700317868123308,0.00608936766462708));
#615=CARTESIAN_POINT('',(-0.000124515452418548,0.000863852406134631,0.00593421685704047));
#616=CARTESIAN_POINT('',(-5.03630271283748E-5,0.000967491253758569,0.00580358113048493));
#617=CARTESIAN_POINT('',(-4.27264977509684E-20,0.00103028044085864,0.00571331456303597));
#618=CARTESIAN_POINT('',(-3.54068859250225E-21,0.00103028044085864,0.00571331456303597));
#619=CARTESIAN_POINT('',(-3.54068859250225E-21,0.005,0.00571331456303597));
#620=CARTESIAN_POINT('',(-3.6921022042798E-6,0.00121220312476924,0.00570377190224094));
#621=CARTESIAN_POINT('',(-3.6921022042798E-6,-0.00121220312476924,0.00570377190224094));
#622=CARTESIAN_POINT('',(2.07420695919067E-5,0.00121220312476924,0.00576692481631474));
#623=CARTESIAN_POINT('',(2.07420695919067E-5,-0.00121220312476924,0.00576692481631474));
#624=CARTESIAN_POINT('',(6.68820584761272E-5,0.00121220312476924,0.00589551804516139));
#625=CARTESIAN_POINT('',(6.68820584761272E-5,-0.00121220312476924,0.00589551804516139));
#626=CARTESIAN_POINT('',(0.000186243677178067,0.00121220312476924,0.00602488184870994));
#627=CARTESIAN_POINT('',(0.000186243677178067,-0.00121220312476924,0.00602488184870994));
#628=CARTESIAN_POINT('',(0.0002536151253334,0.00121220312476924,0.00614691645949615));
#629=CARTESIAN_POINT('',(0.0002536151253334,-0.00121220312476924,0.00614691645949615));
#630=CARTESIAN_POINT('',(0.000394579420453831,0.00121220312476924,0.00631238817401224));
#631=CARTESIAN_POINT('',(0.000394579420453831,-0.00121220312476924,0.00631238817401224));
#632=CARTESIAN_POINT('',(0.000589978199572421,0.00121220312476924,0.00635468584201609));
#633=CARTESIAN_POINT('',(0.000589978199572421,-0.00121220312476924,0.00635468584201609));
#634=CARTESIAN_POINT('',(0.000844327223779513,0.00121220312476924,0.00632946304686628));
#635=CARTESIAN_POINT('',(0.000844327223779513,-0.00121220312476924,0.00632946304686628));
#636=CARTESIAN_POINT('',(0.00104291523924238,0.00121220312476924,0.00613522172417957));
#637=CARTESIAN_POINT('',(0.00104291523924238,-0.00121220312476924,0.00613522172417957));
#638=CARTESIAN_POINT('',(0.00116355636666871,0.00121220312476924,0.00600890248207883));
#639=CARTESIAN_POINT('',(0.00116355636666871,-0.00121220312476924,0.00600890248207883));
#640=CARTESIAN_POINT('',(2.36743758823021E-19,-0.00119782917467316,0.00571331456303597));
#641=CARTESIAN_POINT('',(2.52349783407045E-5,-0.00115046267222077,0.00577853722135172));
#642=CARTESIAN_POINT('',(6.18508010481524E-5,-0.00108563318305452,0.00588253602507537));
#643=CARTESIAN_POINT('',(0.00015918164659642,-0.00100934566211269,0.0060000488520581));
#644=CARTESIAN_POINT('',(0.000226186318146453,-0.000877572797619486,0.00608736048891035));
#645=CARTESIAN_POINT('',(0.000305026573147112,-0.000741806146058249,0.00622753230738418));
#646=CARTESIAN_POINT('',(0.000487023002656752,-0.000609056575282957,0.0063505032702022));
#647=CARTESIAN_POINT('',(0.000685465137030488,-0.000446610540173925,0.00635163449438286));
#648=CARTESIAN_POINT('',(0.000886289299825995,-0.000306636363078349,0.00628049736067626));
#649=CARTESIAN_POINT('',(0.00105692411914741,-0.000223034457601937,0.00612060641762536));
#650=CARTESIAN_POINT('',(0.00120118299103152,-1.02018178824333E-5,0.00596947827329338));
#651=CARTESIAN_POINT('',(0.00106730215001942,0.000217999402147941,0.00610965463315112));
#652=CARTESIAN_POINT('',(0.000896969092824239,0.000300696892954713,0.00627308807605668));
#653=CARTESIAN_POINT('',(0.000694169537277339,0.000438165908040918,0.00635091573833109));
#654=CARTESIAN_POINT('',(0.000496978765926617,0.000603852940660542,0.00635274565606233));
#655=CARTESIAN_POINT('',(0.000308676101373207,0.000736439066757239,0.00623302096712394));
#656=CARTESIAN_POINT('',(0.000228097006073869,0.000872247827922315,0.00609117553507185));
#657=CARTESIAN_POINT('',(0.000162578240757076,0.00100532364708959,0.00600363559541802));
#658=CARTESIAN_POINT('',(6.39184000211781E-5,0.00108447755065373,0.00588678946985846));
#659=CARTESIAN_POINT('',(2.523497835512E-5,0.00115046267222203,0.00577853722134706));
#660=CARTESIAN_POINT('',(-5.88492710387319E-21,0.00119782917467316,0.00571331456303597));
#661=CARTESIAN_POINT('',(-4.9272401846855E-20,0.00103028044085864,0.00571331456303597));
#662=CARTESIAN_POINT('',(-4.35008148587315E-20,0.00102549692847913,0.00571331456303597));
#663=CARTESIAN_POINT('',(-6.95643529857538E-8,0.00102072144573595,0.0057131347660024));
#664=CARTESIAN_POINT('',(-2.15303055415313E-7,0.00101595475560418,0.00571275808764274));
#665=CARTESIAN_POINT('',(-2.15303055401406E-7,0.00101595475560418,0.00571275808764277));
#666=CARTESIAN_POINT('',(-2.15303055395863E-7,0.00101595475560418,0.00571275808764277));
#667=CARTESIAN_POINT('',(-1.43529995050459E-7,0.0010158277286154,0.00571294359333335));
#668=CARTESIAN_POINT('',(-7.17623374068516E-8,0.001015700678314,0.00571312908514867));
#669=CARTESIAN_POINT('',(2.32645657346689E-20,0.00101557360467859,0.00571331456303597));
#670=CARTESIAN_POINT('',(-3.54068859250225E-21,0.00101557360467859,0.00571331456303597));
#671=CARTESIAN_POINT('',(6.4177848655088E-20,0.00101557360467859,0.00571331456303597));
#672=CARTESIAN_POINT('',(1.90906924883331E-5,0.000981768624502797,0.00576265663509856));
#673=CARTESIAN_POINT('',(5.41830031232939E-5,0.000912072036215992,0.00586549682484305));
#674=CARTESIAN_POINT('',(0.000162773723923238,0.000832154276786649,0.00600408862507279));
#675=CARTESIAN_POINT('',(0.000229933053859334,0.000672701341023575,0.00609926966602898));
#676=CARTESIAN_POINT('',(0.000314012936189107,0.000561766693727848,0.00622612254401471));
#677=CARTESIAN_POINT('',(0.000443699375050442,0.000462977475419215,0.00632913629341072));
#678=CARTESIAN_POINT('',(0.0006463428972525,0.000311873714128935,0.00635585764991469));
#679=CARTESIAN_POINT('',(0.000773850762580285,-2.1817096605315E-6,0.0063178838910601));
#680=CARTESIAN_POINT('',(0.000645522710072948,-0.000313145282623144,0.00635636418610003));
#681=CARTESIAN_POINT('',(0.000441573862230847,-0.000464119616089361,0.00632809235585213));
#682=CARTESIAN_POINT('',(0.000314257346054167,-0.000561794928792066,0.00622607207882124));
#683=CARTESIAN_POINT('',(0.000229669995695393,-0.000673005716788211,0.00609901819075526));
#684=CARTESIAN_POINT('',(0.000163117332078177,-0.000831703642080469,0.00600441485047632));
#685=CARTESIAN_POINT('',(5.44445084026364E-5,-0.000911756508001366,0.00586611022837025));
#686=CARTESIAN_POINT('',(1.9090692483149E-5,-0.00098176862450248,0.00576265663510035));
#687=CARTESIAN_POINT('',(2.10252284479694E-21,-0.00101557360467859,0.00571331456303597));
#688=CARTESIAN_POINT('',(-3.54068859250225E-21,-0.00101557360467856,0.00571331456303597));
#689=CARTESIAN_POINT('',(2.10252284479694E-21,-0.00101557360467859,0.00571331456303597));
#690=CARTESIAN_POINT('',(-7.17623374026224E-8,-0.001015700678314,0.00571312908514866));
#691=CARTESIAN_POINT('',(-1.43529995056853E-7,-0.0010158277286154,0.00571294359333335));
#692=CARTESIAN_POINT('',(-2.15303055402806E-7,-0.00101595475560417,0.00571275808764277));
#693=CARTESIAN_POINT('',(-2.153030554015E-7,-0.00101595475560418,0.00571275808764277));
#694=CARTESIAN_POINT('',(-2.15303055396111E-7,-0.00101595475560418,0.00571275808764277));
#695=CARTESIAN_POINT('',(-6.95643529667535E-8,-0.00102072144573595,0.00571313476600243));
#696=CARTESIAN_POINT('',(3.57183498165083E-19,-0.00102549692847913,0.00571331456303597));
#697=CARTESIAN_POINT('',(-3.54068859250225E-21,-0.00103028044085864,0.00571331456303597));
#698=CARTESIAN_POINT('',(0.000185322886570868,-0.00142976301983897,0.00538115725843368));
#699=CARTESIAN_POINT('',(0.000157293137414988,-0.00154421758611672,0.00543139544595908));
#700=CARTESIAN_POINT('',(4.20069401887622E-5,-0.00157485878966644,0.00538470926556759));
#701=CARTESIAN_POINT('',(0.000111772273815201,-0.00135388746757237,0.0055129832500142));
#702=CARTESIAN_POINT('',(7.98624749950269E-5,-0.00146896181547993,0.00557017571535208));
#703=CARTESIAN_POINT('',(-3.884203890976E-5,-0.00149749629284415,0.00551938324605705));
#704=CARTESIAN_POINT('',(8.40800404832965E-6,-0.00122685722064824,0.00570322259731315));
#705=CARTESIAN_POINT('',(-2.75397391437102E-5,-0.0013459603090567,0.00577208002979157));
#706=CARTESIAN_POINT('',(-0.000157199052263301,-0.00136703790378035,0.00571742763563265));
#707=CARTESIAN_POINT('',(-0.000135703310856879,-0.00103079254023285,0.00594812041834179));
#708=CARTESIAN_POINT('',(-0.00018467481873495,-0.00114450769489825,0.00602771534525159));
#709=CARTESIAN_POINT('',(-0.000312527168877322,-0.00116342697154779,0.00595895195140098));
#710=CARTESIAN_POINT('',(-0.000204766649704557,-0.000893345300176272,0.00608403902256796));
#711=CARTESIAN_POINT('',(-0.000257207879770851,-0.00101640147275645,0.00617930646697306));
#712=CARTESIAN_POINT('',(-0.000407031335925883,-0.00101673210449384,0.00610448254157428));
#713=CARTESIAN_POINT('',(-0.000348881554669202,-0.000770649638698248,0.00622934141222215));
#714=CARTESIAN_POINT('',(-0.000419068018184273,-0.000854104876573608,0.00627322140668617));
#715=CARTESIAN_POINT('',(-0.000505244614505272,-0.000880654110280389,0.00619699290951518));
#716=CARTESIAN_POINT('',(-0.000484727609408373,-0.000648061766872322,0.00629409355231895));
#717=CARTESIAN_POINT('',(-0.000556050833531676,-0.000712339478900431,0.00632142124215381));
#718=CARTESIAN_POINT('',(-0.00062261979996388,-0.000741674515629442,0.00625323078870533));
#719=CARTESIAN_POINT('',(-0.000587074429170876,-0.000508683755778279,0.00632610167276857));
#720=CARTESIAN_POINT('',(-0.000663520170597111,-0.000557450167471393,0.00635197985525964));
#721=CARTESIAN_POINT('',(-0.000728541204879876,-0.00058164066819126,0.00628965962207371));
#722=CARTESIAN_POINT('',(-0.000676236695963953,-0.000357266560201795,0.00635401302126523));
#723=CARTESIAN_POINT('',(-0.000749341544488262,-0.000390714842729322,0.00636367371037692));
#724=CARTESIAN_POINT('',(-0.000807897800202962,-0.000407928991570569,0.00630962438922144));
#725=CARTESIAN_POINT('',(-0.00086406127362109,-0.000203546624201757,0.00634089984089078));
#726=CARTESIAN_POINT('',(-0.000872183564374674,-0.000221918649886335,0.00632048990774657));
#727=CARTESIAN_POINT('',(-0.000884653553350501,-0.000232720760688289,0.00630652489751474));
#728=CARTESIAN_POINT('',(-0.000970619498455963,-7.08970259819736E-6,0.00623804719675908));
#729=CARTESIAN_POINT('',(-0.000993058702478667,-7.67930040620454E-6,0.00623364612475086));
#730=CARTESIAN_POINT('',(-0.00100548584425053,-8.14359590299787E-6,0.00622143356833925));
#731=CARTESIAN_POINT('',(-0.000878540607650726,0.000192402243560509,0.00633292540700592));
#732=CARTESIAN_POINT('',(-0.00088302632217514,0.000209597663661642,0.0063136322020396));
#733=CARTESIAN_POINT('',(-0.000892964390845294,0.000220072257083815,0.00630184875055549));
#734=CARTESIAN_POINT('',(-0.000686449674342046,0.000344329606295858,0.00635640600904647));
#735=CARTESIAN_POINT('',(-0.000757277536601497,0.000376273230396088,0.00636316262397366));
#736=CARTESIAN_POINT('',(-0.000813668908967762,0.000393126053267019,0.00631096110911112));
#737=CARTESIAN_POINT('',(-0.000591663357158,0.000500154960835443,0.00632745361262149));
#738=CARTESIAN_POINT('',(-0.000668651995952319,0.000548629621570867,0.00635365624663283));
#739=CARTESIAN_POINT('',(-0.000734355362792637,0.000571825004838325,0.00629135753221636));
#740=CARTESIAN_POINT('',(-0.000491522359191879,0.000639807459590602,0.00629651132808413));
#741=CARTESIAN_POINT('',(-0.000563391288722568,0.000702982674957291,0.00632400859926028));
#742=CARTESIAN_POINT('',(-0.000629814707278602,0.0007322487267058,0.00625611599959817));
#743=CARTESIAN_POINT('',(-0.000356371882108037,0.000765504131425161,0.00623402261753022));
#744=CARTESIAN_POINT('',(-0.000426430272582993,0.000847611270023505,0.00627562471489272));
#745=CARTESIAN_POINT('',(-0.000510219114959917,0.00087486098755712,0.00619991512464957));
#746=CARTESIAN_POINT('',(-0.000209014718591281,0.000886614705703208,0.00609191485555616));
#747=CARTESIAN_POINT('',(-0.00026254543467066,0.00100867187585248,0.00618658168471547));
#748=CARTESIAN_POINT('',(-0.000411400399740749,0.00100941947967111,0.00611093224797884));
#749=CARTESIAN_POINT('',(-0.000137775869656282,0.00102781145810894,0.00595133409745325));
#750=CARTESIAN_POINT('',(-0.000186732758681651,0.00114177125150805,0.00603135122245844));
#751=CARTESIAN_POINT('',(-0.000314954005354493,0.00116034448246514,0.00596257400764187));
#752=CARTESIAN_POINT('',(7.1724009782934E-6,0.00122522352850257,0.00570572608177557));
#753=CARTESIAN_POINT('',(-2.90482672148633E-5,0.0013440737794263,0.00577475686174763));
#754=CARTESIAN_POINT('',(-0.000158540581355652,0.0013653394793298,0.00571976440763145));
#755=CARTESIAN_POINT('',(0.000111249105640076,0.00135335645856438,0.0055139209330717));
#756=CARTESIAN_POINT('',(7.93035108034468E-5,0.00146842701675861,0.00557117755620817));
#757=CARTESIAN_POINT('',(-3.94163621177913E-5,0.00149695533916692,0.00552034099420188));
#758=CARTESIAN_POINT('',(0.000185412729204334,0.00142985569714077,0.00538099623198129));
#759=CARTESIAN_POINT('',(0.00015738661576714,0.00154430843375909,0.00543122790314737));
#760=CARTESIAN_POINT('',(4.2105697373797E-5,0.00157495328289351,0.00538454476038822));
#761=CARTESIAN_POINT('',(3.19327141931157E-7,0.00121383732087313,0.00571274222766652));
#762=CARTESIAN_POINT('',(3.51451611161836E-6,0.00129516373164407,0.00570701543711459));
#763=CARTESIAN_POINT('',(1.43406837773192E-5,0.00142596477713338,0.00559523851889878));
#764=CARTESIAN_POINT('',(2.503356535154E-5,0.00152286446303785,0.00547290717494701));
#765=CARTESIAN_POINT('',(3.05102157970557E-5,0.00156378684804191,0.00540385100301212));
#766=CARTESIAN_POINT('',(3.19327141931017E-7,-0.00121383732087313,0.00571274222766652));
#767=CARTESIAN_POINT('',(3.53290887112357E-6,-0.00129563187832618,0.00570698247146456));
#768=CARTESIAN_POINT('',(1.43752455660786E-5,-0.00142623491525338,0.00559480655313433));
#769=CARTESIAN_POINT('',(2.50511220051949E-5,-0.00152299564913806,0.00547268579953391));
#770=CARTESIAN_POINT('',(3.05102157970584E-5,-0.00156378684804191,0.00540385100301212));
#771=CARTESIAN_POINT('',(-0.000137831681281818,0.0014317816830773,0.00535707280468037));
#772=CARTESIAN_POINT('',(-0.000113039855119109,0.00155560137804812,0.0054211501174064));
#773=CARTESIAN_POINT('',(2.13213344066846E-5,0.00157695122313522,0.00538186769923606));
#774=CARTESIAN_POINT('',(-0.000108542066369919,0.00138674081410667,0.00543277516730656));
#775=CARTESIAN_POINT('',(-8.24950614856129E-5,0.00151084624461313,0.00550009663312322));
#776=CARTESIAN_POINT('',(5.36288148199562E-5,0.00153090615123947,0.00545920365220856));
#777=CARTESIAN_POINT('',(-4.63048752618006E-5,0.00129267738775986,0.0055876512270964));
#778=CARTESIAN_POINT('',(-1.42986709600172E-5,0.00141231759792683,0.00566158963206226));
#779=CARTESIAN_POINT('',(0.000118953916677538,0.00143450867703371,0.00561154882174161));
#780=CARTESIAN_POINT('',(6.43709640392135E-6,0.00116397625799272,0.00574640545970887));
#781=CARTESIAN_POINT('',(3.07226714739452E-5,0.00129986357436279,0.00583573574598704));
#782=CARTESIAN_POINT('',(0.000193308681254258,0.00130183401292912,0.00579678225891545));
#783=CARTESIAN_POINT('',(0.000101798800904911,0.0010557505785316,0.00593998227155805));
#784=CARTESIAN_POINT('',(0.000149392026061567,0.00116764611179987,0.00600141583490881));
#785=CARTESIAN_POINT('',(0.000266578791110111,0.00118961996204796,0.00593470758836068));
#786=CARTESIAN_POINT('',(0.000186673284962169,0.000971789044782201,0.00602963830728108));
#787=CARTESIAN_POINT('',(0.000244321636191689,0.0010763554816392,0.00609631600100403));
#788=CARTESIAN_POINT('',(0.000356075275525918,0.00110043784880787,0.00602079244887351));
#789=CARTESIAN_POINT('',(0.000221048696913931,0.000878706933141321,0.00608861054592617));
#790=CARTESIAN_POINT('',(0.00027612738349495,0.000995523866300042,0.0061885968804975));
#791=CARTESIAN_POINT('',(0.000421348821932308,0.00100023002935987,0.00611284426791614));
#792=CARTESIAN_POINT('',(0.00029525623409049,0.000778363316384655,0.00619530173185432));
#793=CARTESIAN_POINT('',(0.00036336075817452,0.000877796949678026,0.00627855866840015));
#794=CARTESIAN_POINT('',(0.000485122436365779,0.000889824754044116,0.00619957800180831));
#795=CARTESIAN_POINT('',(0.000374460198468709,0.000668365858676947,0.00628993083649437));
#796=CARTESIAN_POINT('',(0.000453773220680556,0.000746779899688756,0.00634929175933668));
#797=CARTESIAN_POINT('',(0.000556104284058467,0.000764923502765199,0.00627244421375115));
#798=CARTESIAN_POINT('',(0.000566029844096715,0.000560227749836647,0.0063540820594477));
#799=CARTESIAN_POINT('',(0.000612719409997392,0.000607953865900139,0.00634935618435306));
#800=CARTESIAN_POINT('',(0.000649829948684469,0.000639980803755445,0.00630418893064502));
#801=CARTESIAN_POINT('',(0.000672692880373993,0.00045542990702505,0.00634510167583813));
#802=CARTESIAN_POINT('',(0.000719897873931387,0.000492495655388165,0.00634150947866742));
#803=CARTESIAN_POINT('',(0.000754321878015949,0.000520465696040387,0.00630044276110459));
#804=CARTESIAN_POINT('',(0.00087833070604455,0.000309507524811274,0.00629450630187992));
#805=CARTESIAN_POINT('',(0.00088368546749439,0.000334904261878126,0.0062811119051337));
#806=CARTESIAN_POINT('',(0.000890564822772072,0.000354525392538686,0.00626557070882803));
#807=CARTESIAN_POINT('',(0.00102443242750759,0.000236681181802406,0.0061503607650156));
#808=CARTESIAN_POINT('',(0.0010311548749343,0.000252950632929596,0.00614544509165596));
#809=CARTESIAN_POINT('',(0.00103413887204558,0.000269466493728065,0.00613725389506439));
#810=CARTESIAN_POINT('',(0.00113141560693163,0.000124752035538727,0.00604291384763792));
#811=CARTESIAN_POINT('',(0.00113815832821671,0.00013315099149882,0.00603560489770903));
#812=CARTESIAN_POINT('',(0.00114393727386476,0.00014110598980824,0.00602711364466151));
#813=CARTESIAN_POINT('',(0.00116936604286385,-1.38191345831728E-5,0.0060026778874642));
#814=CARTESIAN_POINT('',(0.00117699803816267,-1.47537169542337E-5,0.00599478752430401));
#815=CARTESIAN_POINT('',(0.00118370792893233,-1.5590170697299E-5,0.00598621332633783));
#816=CARTESIAN_POINT('',(0.00111890406412459,-0.000142331226842759,0.00605577449346439));
#817=CARTESIAN_POINT('',(0.0011254691428498,-0.000151847814568839,0.00604889419194804));
#818=CARTESIAN_POINT('',(0.00113069783820617,-0.000161145113423871,0.00604065393205512));
#819=CARTESIAN_POINT('',(0.00103459219635494,-0.000220509638125118,0.00614062922198873));
#820=CARTESIAN_POINT('',(0.0010413776170035,-0.000236014862287498,0.00613428968031568));
#821=CARTESIAN_POINT('',(0.00104552563017439,-0.000251006651156787,0.00612526751034345));
#822=CARTESIAN_POINT('',(0.000937206725930409,-0.000283712394745143,0.00623057822430044));
#823=CARTESIAN_POINT('',(0.000943854685299243,-0.000304391969322467,0.00622437348879142));
#824=CARTESIAN_POINT('',(0.000946837725743077,-0.000324420007555266,0.00621370053813901));
#825=CARTESIAN_POINT('',(0.000795676779587343,-0.000364443057664347,0.00632236066853595));
#826=CARTESIAN_POINT('',(0.000819128292882613,-0.000393095011279868,0.00630943346024822));
#827=CARTESIAN_POINT('',(0.000836110928644885,-0.000417007463804683,0.00628346902879321));
#828=CARTESIAN_POINT('',(0.000656582040156286,-0.000471961595733663,0.00634446947342889));
#829=CARTESIAN_POINT('',(0.000704664317191751,-0.000510437659815728,0.00634270247005606));
#830=CARTESIAN_POINT('',(0.000739747970073206,-0.000539284565107557,0.00630094783423203));
#831=CARTESIAN_POINT('',(0.00054437362672834,-0.000573898747679029,0.00635395184370415));
#832=CARTESIAN_POINT('',(0.000594500508098149,-0.000623783615410611,0.00635110434929519));
#833=CARTESIAN_POINT('',(0.000635337233778902,-0.00065569722448853,0.0063033786516503));
#834=CARTESIAN_POINT('',(0.000358522474547783,-0.000683255532750548,0.00627536005801357));
#835=CARTESIAN_POINT('',(0.000437496754502429,-0.000766243179364065,0.00634276046872956));
#836=CARTESIAN_POINT('',(0.000546703813454156,-0.000782052305983466,0.00626376145867912));
#837=CARTESIAN_POINT('',(0.000287853957976769,-0.000788988215625863,0.00618556303935121));
#838=CARTESIAN_POINT('',(0.000354733774247866,-0.000889714558264437,0.00627010870114837));
#839=CARTESIAN_POINT('',(0.000477873215981699,-0.000901630227296547,0.00619131119671504));
#840=CARTESIAN_POINT('',(0.000216870937490374,-0.000887046971996683,0.0060811236078858));
#841=CARTESIAN_POINT('',(0.000271729937890045,-0.00100397961604051,0.00618006923099432));
#842=CARTESIAN_POINT('',(0.000416368989463116,-0.00100926617192325,0.00610467858046107));
#843=CARTESIAN_POINT('',(0.000183626845348089,-0.000977142960555162,0.00602648631782883));
#844=CARTESIAN_POINT('',(0.000240979635384895,-0.00108120902293123,0.00609088659364963));
#845=CARTESIAN_POINT('',(0.000350791669978075,-0.0011061523715029,0.00601549838325596));
#846=CARTESIAN_POINT('',(9.74678719490513E-5,-0.00105859178873562,0.00593385424119839));
#847=CARTESIAN_POINT('',(0.000144277703702701,-0.00117163888610419,0.00599712891939514));
#848=CARTESIAN_POINT('',(0.000263970361424049,-0.00119258510492438,0.00593133285438016));
#849=CARTESIAN_POINT('',(6.71171300984163E-6,-0.00116592057626434,0.00574469233809196));
#850=CARTESIAN_POINT('',(3.15649937566839E-5,-0.00130095331927721,0.00583354556145244));
#851=CARTESIAN_POINT('',(0.000192567495109753,-0.00130383546215315,0.00579400520291009));
#852=CARTESIAN_POINT('',(-4.76241088131747E-5,-0.00129410632449994,0.00558512257139144));
#853=CARTESIAN_POINT('',(-1.58862891367583E-5,-0.00141412110264799,0.00565894843243047));
#854=CARTESIAN_POINT('',(0.000117854335108704,-0.00143597736129329,0.00560933310077859));
#855=CARTESIAN_POINT('',(-0.000108738824608475,-0.00138703859205387,0.00543226662311537));
#856=CARTESIAN_POINT('',(-8.27021145995352E-5,-0.00151114504809017,0.00549956148065782));
#857=CARTESIAN_POINT('',(5.34121880169251E-5,-0.0015312103493113,0.00545868427384457));
#858=CARTESIAN_POINT('',(-0.000137751852102732,-0.00143165891708502,0.00535727913233201));
#859=CARTESIAN_POINT('',(-0.000112957073378458,-0.00155548007754178,0.00542136407629137));
#860=CARTESIAN_POINT('',(2.14093893698113E-5,-0.0015768257197343,0.00538207847945198));
#861=CARTESIAN_POINT('',(-0.000136262692645523,-0.00123083706625631,0.00536112803541858));
#862=CARTESIAN_POINT('',(-0.000170063464936186,-0.00105541777056656,0.00527376607013875));
#863=CARTESIAN_POINT('',(1.84338480524943E-5,-0.00108417234653634,0.00521729951506291));
#864=CARTESIAN_POINT('',(-8.87748044087648E-5,-0.00116056119557381,0.00548386591867394));
#865=CARTESIAN_POINT('',(-0.000122589208289493,-0.000993031445178414,0.00539646872098884));
#866=CARTESIAN_POINT('',(6.01111181970642E-5,-0.00101332884107743,0.00534121479474991));
#867=CARTESIAN_POINT('',(-2.93328476593389E-5,-0.00107205425006523,0.00563536694358587));
#868=CARTESIAN_POINT('',(-6.42874420261272E-5,-0.000915784688815387,0.00554469306810538));
#869=CARTESIAN_POINT('',(0.000110624055051843,-0.000926860666993612,0.00549114133425936));
#870=CARTESIAN_POINT('',(3.75053686766303E-5,-0.000946471093174301,0.00581195055221));
#871=CARTESIAN_POINT('',(9.84715397197659E-7,-0.000801915704293698,0.00571798243497337));
#872=CARTESIAN_POINT('',(0.000166732256127126,-0.000808675849394699,0.00565696939037417));
#873=CARTESIAN_POINT('',(9.64410628256452E-5,-0.000880684364319239,0.00592871792566255));
#874=CARTESIAN_POINT('',(2.90146728575373E-5,-0.000720559129929624,0.00583245683372313));
#875=CARTESIAN_POINT('',(0.000199608034697713,-0.000747827436706605,0.00573277099155466));
#876=CARTESIAN_POINT('',(0.000167726530362703,-0.000812394818491396,0.00600965536124654));
#877=CARTESIAN_POINT('',(7.87377465753287E-5,-0.000655192698259279,0.00591097037849671));
#878=CARTESIAN_POINT('',(0.000247095832799668,-0.000684618626128424,0.00579645478817002));
#879=CARTESIAN_POINT('',(0.00021137036984165,-0.000714435167909426,0.00606802035561421));
#880=CARTESIAN_POINT('',(0.000153135819447722,-0.000600464333846276,0.00596410274715396));
#881=CARTESIAN_POINT('',(0.000298941307952611,-0.000592256584888984,0.0058852649985653));
#882=CARTESIAN_POINT('',(0.000279169298681001,-0.000610368413163257,0.00617729501660203));
#883=CARTESIAN_POINT('',(0.000207130967410341,-0.000497609215902186,0.00608570857708225));
#884=CARTESIAN_POINT('',(0.000334182041669111,-0.000491741048373149,0.0059842921553922));
#885=CARTESIAN_POINT('',(0.000371931778911693,-0.000503306353275268,0.00628212914794783));
#886=CARTESIAN_POINT('',(0.000283691119995112,-0.000398744046084865,0.00620350330835252));
#887=CARTESIAN_POINT('',(0.000377736652319808,-0.00039258342809133,0.00607521503409111));
#888=CARTESIAN_POINT('',(0.000574458503877989,-0.000385563655950304,0.0063656639545441));
#889=CARTESIAN_POINT('',(0.000384847704229344,-0.000240979681298017,0.00636520869213767));
#890=CARTESIAN_POINT('',(0.000436972144032365,-0.00029453263804923,0.00612957325873394));
#891=CARTESIAN_POINT('',(0.000673683261766319,-0.000221793451812635,0.00633721646644776));
#892=CARTESIAN_POINT('',(0.000426457707854433,-0.000118559951719273,0.00635411642683723));
#893=CARTESIAN_POINT('',(0.000508536911984127,-0.000171256877992458,0.0061149178089285));
#894=CARTESIAN_POINT('',(0.000747457992395827,4.39984182334547E-7,0.00633112520015177));
#895=CARTESIAN_POINT('',(0.000408374011550114,-6.89381180141486E-9,0.00642718167723508));
#896=CARTESIAN_POINT('',(0.000541661570168948,3.42001430085326E-7,0.00610243857127735));
#897=CARTESIAN_POINT('',(0.000672598888516768,0.000225227591082731,0.00633732823026171));
#898=CARTESIAN_POINT('',(0.000426683673515881,0.000120558030722733,0.00635363792388698));
#899=CARTESIAN_POINT('',(0.000507774269333923,0.000173897797649809,0.00611514773265405));
#900=CARTESIAN_POINT('',(0.000570633439849918,0.00038841867025071,0.00636601267234467));
#901=CARTESIAN_POINT('',(0.000382845683058304,0.000244304070277722,0.00636382172061493));
#902=CARTESIAN_POINT('',(0.000435342477125236,0.000296675672182644,0.00612963846852289));
#903=CARTESIAN_POINT('',(0.000368399706260386,0.000506029921652617,0.00627923798514807));
#904=CARTESIAN_POINT('',(0.000281572844015729,0.000401598999813265,0.0061999957548712));
#905=CARTESIAN_POINT('',(0.000376583270804874,0.000395020299069727,0.00607309433196728));
#906=CARTESIAN_POINT('',(0.00027679801536414,0.000613719787775015,0.00617397469016741));
#907=CARTESIAN_POINT('',(0.00020512738280828,0.000500775982159515,0.00608199197224582));
#908=CARTESIAN_POINT('',(0.000332857609762683,0.000494937578811532,0.0059813102314023));
#909=CARTESIAN_POINT('',(0.00021011927643061,0.000717750828048519,0.00606565954593909));
#910=CARTESIAN_POINT('',(0.000150943831769966,0.000603033640487343,0.0059613970129355));
#911=CARTESIAN_POINT('',(0.000297764679763552,0.000595429194491576,0.00588212025239109));
#912=CARTESIAN_POINT('',(0.000165680886972121,0.000815545428325867,0.00600754054489657));
#913=CARTESIAN_POINT('',(7.61929474990051E-5,0.000656875826941587,0.00590929763865095));
#914=CARTESIAN_POINT('',(0.00024502474121048,0.000687569088102087,0.00579364822137614));
#915=CARTESIAN_POINT('',(9.23007116400504E-5,0.000883781330947508,0.00592270193618497));
#916=CARTESIAN_POINT('',(2.74868987579727E-5,0.00072519402997759,0.00582626076670674));
#917=CARTESIAN_POINT('',(0.000197670938058051,0.000750654325534179,0.00572958783472436));
#918=CARTESIAN_POINT('',(3.6563705096691E-5,0.000948641911374644,0.00580897231079136));
#919=CARTESIAN_POINT('',(-7.44226625192298E-8,0.000803861463446689,0.00571504841946907));
#920=CARTESIAN_POINT('',(0.000165828176428174,0.000810717776178673,0.00565416166251985));
#921=CARTESIAN_POINT('',(-2.97178009401071E-5,0.00107210242638672,0.00563505667141298));
#922=CARTESIAN_POINT('',(-6.43844449995565E-5,0.000915719961380457,0.00554461783781662));
#923=CARTESIAN_POINT('',(0.000110465773710286,0.000926920399386361,0.00549083775789542));
#924=CARTESIAN_POINT('',(-8.90173188490446E-5,0.00116091956337388,0.00548323911234154));
#925=CARTESIAN_POINT('',(-0.00012282585385554,0.000993341702358081,0.00539585708343426));
#926=CARTESIAN_POINT('',(5.9897704666943E-5,0.00101369119034278,0.00534058043680377));
#927=CARTESIAN_POINT('',(-0.000136222825549348,0.00123077806791219,0.00536123107649237));
#928=CARTESIAN_POINT('',(-0.000170022783189704,0.0010553643099929,0.00527387121676952));
#929=CARTESIAN_POINT('',(1.84688367695263E-5,0.00108411287213468,0.00521740354394177));
#930=CARTESIAN_POINT('',(-2.1530305539032E-7,0.00101595475560418,0.00571275808764277));
#931=CARTESIAN_POINT('',(-1.60546074725562E-6,0.000970486730700982,0.00570916506595185));
#932=CARTESIAN_POINT('',(2.06570784928365E-6,0.000931866176256207,0.00560857280526474));
#933=CARTESIAN_POINT('',(1.1543037023583E-5,0.00097942015444996,0.00543711335377541));
#934=CARTESIAN_POINT('',(1.90044952177264E-5,0.0010298673006288,0.00531345067933804));
#935=CARTESIAN_POINT('',(2.43562584701463E-5,0.00107409940397742,0.00523490976480436));
#936=CARTESIAN_POINT('',(-2.1530305539072E-7,-0.00101595475560418,0.00571275808764277));
#937=CARTESIAN_POINT('',(-1.60546074725551E-6,-0.000970486730700982,0.00570916506595185));
#938=CARTESIAN_POINT('',(2.06570784899779E-6,-0.00093186617625622,0.00560857280526472));
#939=CARTESIAN_POINT('',(1.15430370250125E-5,-0.0009794201544499,0.00543711335377547));
#940=CARTESIAN_POINT('',(1.90044952114389E-5,-0.00102986730062907,0.00531345067933777));
#941=CARTESIAN_POINT('',(2.43562584701479E-5,-0.00107409940397742,0.00523490976480436));
#942=CARTESIAN_POINT('',(0.000184102926049807,0.00122994451728284,0.00538334381404963));
#943=CARTESIAN_POINT('',(0.000230588183444061,0.001031065137689,0.00530002751089074));
#944=CARTESIAN_POINT('',(3.2515830474154E-5,0.00108331970532581,0.00521822105451499));
#945=CARTESIAN_POINT('',(0.000119186301457112,0.0011660283537141,0.00549969496445298));
#946=CARTESIAN_POINT('',(0.000166619490055872,0.000978806057065924,0.0054146796683653));
#947=CARTESIAN_POINT('',(-2.49161072343205E-5,0.00101855439501803,0.00533567532483956));
#948=CARTESIAN_POINT('',(2.43297224236961E-5,0.00106627049088368,0.00567037036436754));
#949=CARTESIAN_POINT('',(7.14266288696641E-5,0.000896111692729887,0.00558257456332094));
#950=CARTESIAN_POINT('',(-0.000108023220233273,0.000920548667880846,0.00550563375631348));
#951=CARTESIAN_POINT('',(-9.81498869655825E-5,0.000902646170733618,0.00588812515041473));
#952=CARTESIAN_POINT('',(-3.93200015998702E-5,0.000754695062920406,0.00578823540968165));
#953=CARTESIAN_POINT('',(-0.00020726243334202,0.000768474123161821,0.0057064971027546));
#954=CARTESIAN_POINT('',(-0.000179664324400879,0.00075812144911678,0.00602955668099843));
#955=CARTESIAN_POINT('',(-0.000123829356685291,0.000633202974475269,0.00592648186401963));
#956=CARTESIAN_POINT('',(-0.000276699512975334,0.000634374769579026,0.00584619862257159));
#957=CARTESIAN_POINT('',(-0.000312989244788094,0.000605675179406369,0.00621799658057318));
#958=CARTESIAN_POINT('',(-0.000211731832839294,0.000466900812627321,0.00613351879262106));
#959=CARTESIAN_POINT('',(-0.000340909351862933,0.000486616925544565,0.00599092041848185));
#960=CARTESIAN_POINT('',(-0.000507671135346307,0.000435120311671667,0.00630278492326067));
#961=CARTESIAN_POINT('',(-0.000346861196969399,0.000321201810019207,0.00624662135205507));
#962=CARTESIAN_POINT('',(-0.000440545757716001,0.000339736989896643,0.00606711454743592));
#963=CARTESIAN_POINT('',(-0.000608077032024838,0.000234493691857361,0.00633398136100876));
#964=CARTESIAN_POINT('',(-0.000438659402168861,0.000174971371248446,0.00628284988329976));
#965=CARTESIAN_POINT('',(-0.000505885355381979,0.000179988608255965,0.00611252312608284));
#966=CARTESIAN_POINT('',(-0.000669698161526379,1.00261131912724E-5,0.00634662298392784));
#967=CARTESIAN_POINT('',(-0.000470034478871889,6.45118452275326E-6,0.00631465207360651));
#968=CARTESIAN_POINT('',(-0.000533422548291934,7.65408621033424E-6,0.00612538786405132));
#969=CARTESIAN_POINT('',(-0.000616217124823163,-0.000217788685604922,0.00633679412561929));
#970=CARTESIAN_POINT('',(-0.0004442937248626,-0.000160021501021392,0.0062877252624919));
#971=CARTESIAN_POINT('',(-0.000509745010768866,-0.000166997211472275,0.00611494111586249));
#972=CARTESIAN_POINT('',(-0.000513216619270166,-0.000422019842236681,0.00630213246628062));
#973=CARTESIAN_POINT('',(-0.000353627057308685,-0.00031693659137468,0.00624367584464235));
#974=CARTESIAN_POINT('',(-0.000446276097497773,-0.000329044787945923,0.00607076389900341));
#975=CARTESIAN_POINT('',(-0.000369818712043932,-0.000565769509706493,0.00625085534837033));
#976=CARTESIAN_POINT('',(-0.000243301357363843,-0.000422119580620879,0.00617826712017782));
#977=CARTESIAN_POINT('',(-0.00036470297040479,-0.000451708607547624,0.00601145282791099));
#978=CARTESIAN_POINT('',(-0.000241230424728902,-0.000672982771558227,0.00612127458420752));
#979=CARTESIAN_POINT('',(-0.00017299125929025,-0.000550710433046044,0.00602493895247617));
#980=CARTESIAN_POINT('',(-0.0003118145624986,-0.000552106886284757,0.00592543164929304));
#981=CARTESIAN_POINT('',(-0.00017683966647085,-0.000775233907386597,0.00601948314536104));
#982=CARTESIAN_POINT('',(-0.000112753049006528,-0.000644288079756529,0.00591634663431658));
#983=CARTESIAN_POINT('',(-0.000268709314502046,-0.000650017337840684,0.0058303076292402));
#984=CARTESIAN_POINT('',(-9.97028130638119E-5,-0.000897185226734853,0.00589251499953298));
#985=CARTESIAN_POINT('',(-4.35302197796788E-5,-0.000750216072250466,0.00579322438038814));
#986=CARTESIAN_POINT('',(-0.000210153243323441,-0.000763543967909109,0.00571218394675723));
#987=CARTESIAN_POINT('',(2.1554964154478E-5,-0.00106483459700078,0.00567437867397286));
#988=CARTESIAN_POINT('',(7.08633427447497E-5,-0.000895354313170241,0.0055851615262573));
#989=CARTESIAN_POINT('',(-0.000109410243534935,-0.000919056675343169,0.00550857594744347));
#990=CARTESIAN_POINT('',(0.000118615878937816,-0.00116546980228934,0.00550071734226071));
#991=CARTESIAN_POINT('',(0.00016607663229893,-0.000978366330463389,0.00541565264138861));
#992=CARTESIAN_POINT('',(-2.54221022813633E-5,-0.00101798643282354,0.00533670986950859));
#993=CARTESIAN_POINT('',(0.000184198758767964,-0.00123003887087509,0.00538317205146842));
#994=CARTESIAN_POINT('',(0.000230685306098987,-0.00103114447905427,0.00529985343633431));
#995=CARTESIAN_POINT('',(3.26006149549347E-5,-0.00108341531384553,0.00521804766164211));
#996=CARTESIAN_POINT('',(0.00162133162382422,0.,0.00437055236090546));
#997=CARTESIAN_POINT('',(0.,0.,0.00437055236090546));
#998=CARTESIAN_POINT('',(0.00134811415350791,0.,0.00437055236090546));
#999=CARTESIAN_POINT('',(1.51788304147971E-19,0.,0.00416304469108581));
#1000=CARTESIAN_POINT('',(0.,6.12323399573677E-20,0.00266));
#1001=CARTESIAN_POINT('',(0.,6.12323399573677E-20,0.00266));
#1002=CARTESIAN_POINT('',(0.001,6.12323399573677E-20,0.00266));
#1003=CARTESIAN_POINT('',(0.,0.,0.00266));
#1004=MECHANICAL_DESIGN_GEOMETRIC_PRESENTATION_REPRESENTATION('',(#195),
#1005);
#1005=(
GEOMETRIC_REPRESENTATION_CONTEXT(3)
GLOBAL_UNCERTAINTY_ASSIGNED_CONTEXT((#1006))
GLOBAL_UNIT_ASSIGNED_CONTEXT((#1009,#1008,#1007))
REPRESENTATION_CONTEXT('Part 1','TOP_LEVEL_ASSEMBLY_PART')
);
#1006=UNCERTAINTY_MEASURE_WITH_UNIT(LENGTH_MEASURE(2.E-5),#1009,
'DISTANCE_ACCURACY_VALUE','Maximum Tolerance applied to model');
#1007=(
NAMED_UNIT(*)
SI_UNIT($,.STERADIAN.)
SOLID_ANGLE_UNIT()
);
#1008=(
NAMED_UNIT(*)
PLANE_ANGLE_UNIT()
SI_UNIT($,.RADIAN.)
);
#1009=(
LENGTH_UNIT()
NAMED_UNIT(*)
SI_UNIT($,.METRE.)
);
#1010=PRODUCT_DEFINITION_SHAPE('','',#1011);
#1011=PRODUCT_DEFINITION('','',#1013,#1012);
#1012=PRODUCT_DEFINITION_CONTEXT('',#1019,'design');
#1013=PRODUCT_DEFINITION_FORMATION_WITH_SPECIFIED_SOURCE('','',#1015,
 .NOT_KNOWN.);
#1014=PRODUCT_RELATED_PRODUCT_CATEGORY('','',(#1015));
#1015=PRODUCT('Part 1','Part 1','Part 1',(#1017));
#1016=PRODUCT_CATEGORY('','');
#1017=PRODUCT_CONTEXT('',#1019,'mechanical');
#1018=APPLICATION_PROTOCOL_DEFINITION('international standard',
'ap242_managed_model_based_3d_engineering',2020,#1019);
#1019=APPLICATION_CONTEXT('managed model based 3d engineering');
ENDSEC;
END-ISO-10303-21;
