ISO-10303-21;
HEADER;
/* Generated by software containing ST-Developer
 * from STEP Tools, Inc. (www.steptools.com) 
 */
/* OPTION: using custom renumber hook */

FILE_DESCRIPTION(
/* description */ ('STEP AP242 Edition 2',
'CAx-IF Rec.Pracs.---Representation and Presentation of Product Manufa
cturing Information (PMI)---4.0---2014-10-13',
'CAx-IF Rec.Pracs.---3D Tessellated Geometry---0.4---2014-09-14','2;1',
'CAx-IF Rec.Pracs.---User Defined Attributes---1.5---2016-08-15'),
/* implementation_level */ '2;1');

FILE_NAME(
/* name */ 'Tulip Vase',
/* time_stamp */ '2026-09-04T21:59:22Z',
/* author */ (''),
/* organization */ (''),
/* preprocessor_version */ 'ST-DEVELOPER v20',
/* originating_system */ 'ONSHAPE BY PTC INC, 1.220',
/* authorisation */ '  ');

FILE_SCHEMA (('AP242_MANAGED_MODEL_BASED_3D_ENGINEERING_MIM_LF { 1 0 10303 442 3 1 4 }'));
ENDSEC;

DATA;
#10=SHAPE_REPRESENTATION_RELATIONSHIP('','',#113,#11);
#11=ADVANCED_BREP_SHAPE_REPRESENTATION('',(#111),#996);
#12=SPHERICAL_SURFACE('',#120,0.00553837141796847);
#13=SPHERICAL_SURFACE('',#125,0.00643143430352211);
#14=B_SPLINE_SURFACE_WITH_KNOTS('',3,3,((#162,#163,#164,#165,#166,#167,
#168,#169,#170,#171,#172,#173,#174,#175,#176,#177,#178,#179,#180),(#181,
#182,#183,#184,#185,#186,#187,#188,#189,#190,#191,#192,#193,#194,#195,#196,
#197,#198,#199),(#200,#201,#202,#203,#204,#205,#206,#207,#208,#209,#210,
#211,#212,#213,#214,#215,#216,#217,#218),(#219,#220,#221,#222,#223,#224,
#225,#226,#227,#228,#229,#230,#231,#232,#233,#234,#235,#236,#237),(#238,
#239,#240,#241,#242,#243,#244,#245,#246,#247,#248,#249,#250,#251,#252,#253,
#254,#255,#256),(#257,#258,#259,#260,#261,#262,#263,#264,#265,#266,#267,
#268,#269,#270,#271,#272,#273,#274,#275),(#276,#277,#278,#279,#280,#281,
#282,#283,#284,#285,#286,#287,#288,#289,#290,#291,#292,#293,#294),(#295,
#296,#297,#298,#299,#300,#301,#302,#303,#304,#305,#306,#307,#308,#309,#310,
#311,#312,#313),(#314,#315,#316,#317,#318,#319,#320,#321,#322,#323,#324,
#325,#326,#327,#328,#329,#330,#331,#332),(#333,#334,#335,#336,#337,#338,
#339,#340,#341,#342,#343,#344,#345,#346,#347,#348,#349,#350,#351),(#352,
#353,#354,#355,#356,#357,#358,#359,#360,#361,#362,#363,#364,#365,#366,#367,
#368,#369,#370),(#371,#372,#373,#374,#375,#376,#377,#378,#379,#380,#381,
#382,#383,#384,#385,#386,#387,#388,#389),(#390,#391,#392,#393,#394,#395,
#396,#397,#398,#399,#400,#401,#402,#403,#404,#405,#406,#407,#408),(#409,
#410,#411,#412,#413,#414,#415,#416,#417,#418,#419,#420,#421,#422,#423,#424,
#425,#426,#427),(#428,#429,#430,#431,#432,#433,#434,#435,#436,#437,#438,
#439,#440,#441,#442,#443,#444,#445,#446),(#447,#448,#449,#450,#451,#452,
#453,#454,#455,#456,#457,#458,#459,#460,#461,#462,#463,#464,#465),(#466,
#467,#468,#469,#470,#471,#472,#473,#474,#475,#476,#477,#478,#479,#480,#481,
#482,#483,#484)),.UNSPECIFIED.,.F.,.T.,.F.,(4,1,1,1,1,1,1,1,1,1,1,1,1,1,
4),(1,1,1,1,1,1,1,1,1,1,1,1,1,1,1,1,1,1,1,1,1,1,1),(0.,0.0998625232437005,
0.149793784865551,0.199725046487401,0.249656308109251,0.299587569731102,
0.349518831352952,0.399450092974802,0.449381354596652,0.499312616218502,
0.549243877840353,0.599175139462203,0.649106401084053,0.699037662705904,
0.798900185949604),(-1.17809724509617,-0.785398163397448,-0.392699081698725,
0.,0.392699081698724,0.785398163397448,1.17809724509617,1.5707963267949,
1.96349540849362,2.35619449019234,2.74889357189107,3.14159265358979,3.53429173528852,
3.92699081698724,4.31968989868597,4.71238898038469,5.10508806208341,5.49778714378214,
5.89048622548086,6.28318530717959,6.67588438887831,7.06858347057703,7.46128255227576),
 .UNSPECIFIED.);
#15=B_SPLINE_SURFACE_WITH_KNOTS('',3,3,((#487,#488,#489,#490,#491,#492,
#493,#494,#495,#496,#497,#498,#499,#500,#501,#502,#503,#504,#505),(#506,
#507,#508,#509,#510,#511,#512,#513,#514,#515,#516,#517,#518,#519,#520,#521,
#522,#523,#524),(#525,#526,#527,#528,#529,#530,#531,#532,#533,#534,#535,
#536,#537,#538,#539,#540,#541,#542,#543),(#544,#545,#546,#547,#548,#549,
#550,#551,#552,#553,#554,#555,#556,#557,#558,#559,#560,#561,#562),(#563,
#564,#565,#566,#567,#568,#569,#570,#571,#572,#573,#574,#575,#576,#577,#578,
#579,#580,#581)),.UNSPECIFIED.,.F.,.T.,.F.,(4,1,4),(1,1,1,1,1,1,1,1,1,1,
1,1,1,1,1,1,1,1,1,1,1,1,1),(0.798900185949604,0.899450092974802,1.),(-1.17809724509617,
-0.785398163397448,-0.392699081698725,0.,0.392699081698724,0.785398163397448,
1.17809724509617,1.5707963267949,1.96349540849362,2.35619449019234,2.74889357189107,
3.14159265358979,3.53429173528852,3.92699081698724,4.31968989868597,4.71238898038469,
5.10508806208341,5.49778714378214,5.89048622548086,6.28318530717959,6.67588438887831,
7.06858347057703,7.46128255227576),.UNSPECIFIED.);
#16=B_SPLINE_SURFACE_WITH_KNOTS('',3,3,((#594,#595,#596,#597,#598,#599,
#600,#601,#602,#603,#604,#605,#606,#607,#608,#609,#610,#611,#612),(#613,
#614,#615,#616,#617,#618,#619,#620,#621,#622,#623,#624,#625,#626,#627,#628,
#629,#630,#631),(#632,#633,#634,#635,#636,#637,#638,#639,#640,#641,#642,
#643,#644,#645,#646,#647,#648,#649,#650),(#651,#652,#653,#654,#655,#656,
#657,#658,#659,#660,#661,#662,#663,#664,#665,#666,#667,#668,#669)),
 .UNSPECIFIED.,.F.,.T.,.F.,(4,4),(1,1,1,1,1,1,1,1,1,1,1,1,1,1,1,1,1,1,1,
1,1,1,1),(0.9547450325942,1.),(-1.17809724509617,-0.785398163397448,-0.392699081698725,
0.,0.392699081698724,0.785398163397448,1.17809724509617,1.5707963267949,
1.96349540849362,2.35619449019234,2.74889357189107,3.14159265358979,3.53429173528852,
3.92699081698724,4.31968989868597,4.71238898038469,5.10508806208341,5.49778714378214,
5.89048622548086,6.28318530717959,6.67588438887831,7.06858347057703,7.46128255227576),
 .UNSPECIFIED.);
#17=B_SPLINE_SURFACE_WITH_KNOTS('',3,3,((#672,#673,#674,#675,#676,#677,
#678,#679,#680,#681,#682,#683,#684,#685,#686,#687,#688,#689,#690),(#691,
#692,#693,#694,#695,#696,#697,#698,#699,#700,#701,#702,#703,#704,#705,#706,
#707,#708,#709),(#710,#711,#712,#713,#714,#715,#716,#717,#718,#719,#720,
#721,#722,#723,#724,#725,#726,#727,#728),(#729,#730,#731,#732,#733,#734,
#735,#736,#737,#738,#739,#740,#741,#742,#743,#744,#745,#746,#747),(#748,
#749,#750,#751,#752,#753,#754,#755,#756,#757,#758,#759,#760,#761,#762,#763,
#764,#765,#766),(#767,#768,#769,#770,#771,#772,#773,#774,#775,#776,#777,
#778,#779,#780,#781,#782,#783,#784,#785),(#786,#787,#788,#789,#790,#791,
#792,#793,#794,#795,#796,#797,#798,#799,#800,#801,#802,#803,#804),(#805,
#806,#807,#808,#809,#810,#811,#812,#813,#814,#815,#816,#817,#818,#819,#820,
#821,#822,#823),(#824,#825,#826,#827,#828,#829,#830,#831,#832,#833,#834,
#835,#836,#837,#838,#839,#840,#841,#842),(#843,#844,#845,#846,#847,#848,
#849,#850,#851,#852,#853,#854,#855,#856,#857,#858,#859,#860,#861),(#862,
#863,#864,#865,#866,#867,#868,#869,#870,#871,#872,#873,#874,#875,#876,#877,
#878,#879,#880),(#881,#882,#883,#884,#885,#886,#887,#888,#889,#890,#891,
#892,#893,#894,#895,#896,#897,#898,#899),(#900,#901,#902,#903,#904,#905,
#906,#907,#908,#909,#910,#911,#912,#913,#914,#915,#916,#917,#918),(#919,
#920,#921,#922,#923,#924,#925,#926,#927,#928,#929,#930,#931,#932,#933,#934,
#935,#936,#937),(#938,#939,#940,#941,#942,#943,#944,#945,#946,#947,#948,
#949,#950,#951,#952,#953,#954,#955,#956),(#957,#958,#959,#960,#961,#962,
#963,#964,#965,#966,#967,#968,#969,#970,#971,#972,#973,#974,#975),(#976,
#977,#978,#979,#980,#981,#982,#983,#984,#985,#986,#987,#988,#989,#990,#991,
#992,#993,#994)),.UNSPECIFIED.,.F.,.T.,.F.,(4,1,1,1,1,1,1,1,1,1,1,1,1,1,
4),(1,1,1,1,1,1,1,1,1,1,1,1,1,1,1,1,1,1,1,1,1,1,1),(0.,0.119343129074275,
0.179014693611412,0.23868625814855,0.298357822685687,0.358029387222825,
0.417700951759962,0.4773725162971,0.537044080834237,0.596715645371375,0.656387209908512,
0.71605877444565,0.775730338982787,0.835401903519925,0.9547450325942),(-1.17809724509617,
-0.785398163397448,-0.392699081698725,0.,0.392699081698724,0.785398163397448,
1.17809724509617,1.5707963267949,1.96349540849362,2.35619449019234,2.74889357189107,
3.14159265358979,3.53429173528852,3.92699081698724,4.31968989868597,4.71238898038469,
5.10508806208341,5.49778714378214,5.89048622548086,6.28318530717959,6.67588438887831,
7.06858347057703,7.46128255227576),.UNSPECIFIED.);
#18=ORIENTED_EDGE('',*,*,#34,.F.);
#19=ORIENTED_EDGE('',*,*,#35,.T.);
#20=ORIENTED_EDGE('',*,*,#36,.T.);
#21=ORIENTED_EDGE('',*,*,#35,.F.);
#22=ORIENTED_EDGE('',*,*,#37,.T.);
#23=ORIENTED_EDGE('',*,*,#36,.F.);
#24=ORIENTED_EDGE('',*,*,#38,.T.);
#25=ORIENTED_EDGE('',*,*,#37,.F.);
#26=ORIENTED_EDGE('',*,*,#38,.F.);
#27=ORIENTED_EDGE('',*,*,#39,.T.);
#28=ORIENTED_EDGE('',*,*,#40,.T.);
#29=ORIENTED_EDGE('',*,*,#39,.F.);
#30=ORIENTED_EDGE('',*,*,#40,.F.);
#31=ORIENTED_EDGE('',*,*,#41,.T.);
#32=ORIENTED_EDGE('',*,*,#41,.F.);
#33=ORIENTED_EDGE('',*,*,#34,.T.);
#34=EDGE_CURVE('',#42,#42,#50,.T.);
#35=EDGE_CURVE('',#43,#43,#51,.T.);
#36=EDGE_CURVE('',#44,#44,#52,.T.);
#37=EDGE_CURVE('',#45,#45,#53,.T.);
#38=EDGE_CURVE('',#46,#46,#54,.T.);
#39=EDGE_CURVE('',#47,#47,#55,.T.);
#40=EDGE_CURVE('',#48,#48,#56,.T.);
#41=EDGE_CURVE('',#49,#49,#57,.T.);
#42=VERTEX_POINT('',#159);
#43=VERTEX_POINT('',#161);
#44=VERTEX_POINT('',#486);
#45=VERTEX_POINT('',#583);
#46=VERTEX_POINT('',#586);
#47=VERTEX_POINT('',#590);
#48=VERTEX_POINT('',#593);
#49=VERTEX_POINT('',#671);
#50=CIRCLE('',#116,0.00643143430352211);
#51=CIRCLE('',#117,0.00543095043394715);
#52=CIRCLE('',#118,0.00517807294902579);
#53=CIRCLE('',#119,0.00553837141796847);
#54=CIRCLE('',#121,0.00412384225272544);
#55=CIRCLE('',#124,0.00447220640021819);
#56=CIRCLE('',#126,0.00643143430352211);
#57=CIRCLE('',#127,0.00638645457954646);
#58=EDGE_LOOP('',(#18));
#59=EDGE_LOOP('',(#19));
#60=EDGE_LOOP('',(#20));
#61=EDGE_LOOP('',(#21));
#62=EDGE_LOOP('',(#22));
#63=EDGE_LOOP('',(#23));
#64=EDGE_LOOP('',(#24));
#65=EDGE_LOOP('',(#25));
#66=EDGE_LOOP('',(#26));
#67=EDGE_LOOP('',(#27));
#68=EDGE_LOOP('',(#28));
#69=EDGE_LOOP('',(#29));
#70=EDGE_LOOP('',(#30));
#71=EDGE_LOOP('',(#31));
#72=EDGE_LOOP('',(#32));
#73=EDGE_LOOP('',(#33));
#74=FACE_BOUND('',#58,.T.);
#75=FACE_BOUND('',#59,.T.);
#76=FACE_BOUND('',#60,.T.);
#77=FACE_BOUND('',#61,.T.);
#78=FACE_BOUND('',#62,.T.);
#79=FACE_BOUND('',#63,.T.);
#80=FACE_BOUND('',#64,.T.);
#81=FACE_BOUND('',#65,.T.);
#82=FACE_BOUND('',#66,.T.);
#83=FACE_BOUND('',#67,.T.);
#84=FACE_BOUND('',#68,.T.);
#85=FACE_BOUND('',#69,.T.);
#86=FACE_BOUND('',#70,.T.);
#87=FACE_BOUND('',#71,.T.);
#88=FACE_BOUND('',#72,.T.);
#89=FACE_BOUND('',#73,.T.);
#90=PLANE('',#115);
#91=PLANE('',#122);
#92=PLANE('',#123);
#93=ADVANCED_FACE('',(#74,#75),#90,.F.);
#94=ADVANCED_FACE('',(#76,#77),#14,.T.);
#95=ADVANCED_FACE('',(#78,#79),#15,.T.);
#96=ADVANCED_FACE('',(#80,#81),#12,.F.);
#97=ADVANCED_FACE('',(#82),#91,.F.);
#98=ADVANCED_FACE('',(#83),#92,.T.);
#99=ADVANCED_FACE('',(#84,#85),#13,.T.);
#100=ADVANCED_FACE('',(#86,#87),#16,.F.);
#101=ADVANCED_FACE('',(#88,#89),#17,.F.);
#102=CLOSED_SHELL('',(#93,#94,#95,#96,#97,#98,#99,#100,#101));
#103=STYLED_ITEM('',(#104),#111);
#104=PRESENTATION_STYLE_ASSIGNMENT((#105));
#105=SURFACE_STYLE_USAGE(.BOTH.,#106);
#106=SURFACE_SIDE_STYLE('',(#107));
#107=SURFACE_STYLE_FILL_AREA(#108);
#108=FILL_AREA_STYLE('',(#109));
#109=FILL_AREA_STYLE_COLOUR('',#110);
#110=COLOUR_RGB('',0.901960784313726,0.901960784313726,0.901960784313726);
#111=MANIFOLD_SOLID_BREP('Part 1',#102);
#112=SHAPE_DEFINITION_REPRESENTATION(#1001,#113);
#113=SHAPE_REPRESENTATION('Part 1',(#114),#996);
#114=AXIS2_PLACEMENT_3D('',#156,#128,#129);
#115=AXIS2_PLACEMENT_3D('',#157,#130,#131);
#116=AXIS2_PLACEMENT_3D('',#158,#132,#133);
#117=AXIS2_PLACEMENT_3D('',#160,#134,#135);
#118=AXIS2_PLACEMENT_3D('',#485,#136,#137);
#119=AXIS2_PLACEMENT_3D('',#582,#138,#139);
#120=AXIS2_PLACEMENT_3D('',#584,#140,#141);
#121=AXIS2_PLACEMENT_3D('',#585,#142,#143);
#122=AXIS2_PLACEMENT_3D('',#587,#144,#145);
#123=AXIS2_PLACEMENT_3D('',#588,#146,#147);
#124=AXIS2_PLACEMENT_3D('',#589,#148,#149);
#125=AXIS2_PLACEMENT_3D('',#591,#150,#151);
#126=AXIS2_PLACEMENT_3D('',#592,#152,#153);
#127=AXIS2_PLACEMENT_3D('',#670,#154,#155);
#128=DIRECTION('',(0.,0.,1.));
#129=DIRECTION('',(1.,0.,0.));
#130=DIRECTION('',(0.,0.,-1.));
#131=DIRECTION('',(-1.,0.,0.));
#132=DIRECTION('',(0.,0.,-1.));
#133=DIRECTION('',(-1.,0.,0.));
#134=DIRECTION('',(0.,0.,-1.));
#135=DIRECTION('',(-1.,0.,0.));
#136=DIRECTION('',(0.,0.,-1.));
#137=DIRECTION('',(-1.,0.,0.));
#138=DIRECTION('',(0.,0.,-1.));
#139=DIRECTION('',(-1.,0.,0.));
#140=DIRECTION('',(0.,0.,-1.));
#141=DIRECTION('',(1.,0.,0.));
#142=DIRECTION('',(0.,0.,-1.));
#143=DIRECTION('',(-1.,0.,0.));
#144=DIRECTION('',(0.,0.,-1.));
#145=DIRECTION('',(-1.,0.,0.));
#146=DIRECTION('',(0.,0.,-1.));
#147=DIRECTION('',(-1.,0.,0.));
#148=DIRECTION('',(0.,0.,-1.));
#149=DIRECTION('',(-1.,0.,0.));
#150=DIRECTION('',(0.,0.,-1.));
#151=DIRECTION('',(1.,0.,0.));
#152=DIRECTION('',(0.,0.,-1.));
#153=DIRECTION('',(-1.,0.,0.));
#154=DIRECTION('',(0.,0.,-1.));
#155=DIRECTION('',(-1.,0.,0.));
#156=CARTESIAN_POINT('',(0.,0.,0.));
#157=CARTESIAN_POINT('',(0.00593119236873463,0.,0.021));
#158=CARTESIAN_POINT('',(0.,0.,0.021));
#159=CARTESIAN_POINT('',(-0.00643143430352211,0.,0.021));
#160=CARTESIAN_POINT('',(0.,0.,0.021));
#161=CARTESIAN_POINT('',(-0.00543095043394715,0.,0.021));
#162=CARTESIAN_POINT('',(0.00514817100932085,0.00213244225347667,0.021));
#163=CARTESIAN_POINT('',(0.0055723401462603,4.33680868994202E-18,0.021));
#164=CARTESIAN_POINT('',(0.00514817100932084,-0.00213244225347668,0.021));
#165=CARTESIAN_POINT('',(0.0039402395044987,-0.0039402395044987,0.021));
#166=CARTESIAN_POINT('',(0.00213244225347668,-0.00514817100932084,0.021));
#167=CARTESIAN_POINT('',(1.10961316090313E-18,-0.0055723401462603,0.021));
#168=CARTESIAN_POINT('',(-0.00213244225347668,-0.00514817100932084,0.021));
#169=CARTESIAN_POINT('',(-0.0039402395044987,-0.0039402395044987,0.021));
#170=CARTESIAN_POINT('',(-0.00514817100932085,-0.00213244225347668,0.021));
#171=CARTESIAN_POINT('',(-0.0055723401462603,-8.44551405416641E-19,0.021));
#172=CARTESIAN_POINT('',(-0.00514817100932085,0.00213244225347668,0.021));
#173=CARTESIAN_POINT('',(-0.0039402395044987,0.0039402395044987,0.021));
#174=CARTESIAN_POINT('',(-0.00213244225347668,0.00514817100932084,0.021));
#175=CARTESIAN_POINT('',(-6.97955148537543E-19,0.0055723401462603,0.021));
#176=CARTESIAN_POINT('',(0.00213244225347668,0.00514817100932085,0.021));
#177=CARTESIAN_POINT('',(0.0039402395044987,0.0039402395044987,0.021));
#178=CARTESIAN_POINT('',(0.00514817100932085,0.00213244225347667,0.021));
#179=CARTESIAN_POINT('',(0.0055723401462603,4.33680868994202E-18,0.021));
#180=CARTESIAN_POINT('',(0.00514817100932084,-0.00213244225347668,0.021));
#181=CARTESIAN_POINT('',(0.00482591665043021,0.00199896012749032,0.0208527363892159));
#182=CARTESIAN_POINT('',(0.00522353454168685,3.68628738645072E-18,0.0208527363892159));
#183=CARTESIAN_POINT('',(0.00482591665043021,-0.00199896012749033,0.0208527363892159));
#184=CARTESIAN_POINT('',(0.00369359669618894,-0.00369359669618894,0.0208527363892159));
#185=CARTESIAN_POINT('',(0.00199896012749033,-0.00482591665043021,0.0208527363892159));
#186=CARTESIAN_POINT('',(6.23416249179165E-19,-0.00522353454168685,0.0208527363892159));
#187=CARTESIAN_POINT('',(-0.00199896012749033,-0.00482591665043021,0.0208527363892159));
#188=CARTESIAN_POINT('',(-0.00369359669618894,-0.00369359669618894,0.0208527363892159));
#189=CARTESIAN_POINT('',(-0.0048259166504302,-0.00199896012749033,0.0208527363892159));
#190=CARTESIAN_POINT('',(-0.00522353454168685,-1.10273763565159E-18,0.0208527363892159));
#191=CARTESIAN_POINT('',(-0.00482591665043021,0.00199896012749033,0.0208527363892159));
#192=CARTESIAN_POINT('',(-0.00369359669618894,0.00369359669618894,0.0208527363892159));
#193=CARTESIAN_POINT('',(-0.00199896012749033,0.00482591665043021,0.0208527363892159));
#194=CARTESIAN_POINT('',(-7.31836466427715E-19,0.00522353454168685,0.0208527363892159));
#195=CARTESIAN_POINT('',(0.00199896012749033,0.00482591665043021,0.0208527363892159));
#196=CARTESIAN_POINT('',(0.00369359669618894,0.00369359669618894,0.0208527363892159));
#197=CARTESIAN_POINT('',(0.00482591665043021,0.00199896012749032,0.0208527363892159));
#198=CARTESIAN_POINT('',(0.00522353454168685,3.68628738645072E-18,0.0208527363892159));
#199=CARTESIAN_POINT('',(0.00482591665043021,-0.00199896012749033,0.0208527363892159));
#200=CARTESIAN_POINT('',(0.00428654135618616,0.00177554356540546,0.0204262823895117));
#201=CARTESIAN_POINT('',(0.00463971893016667,3.6049722235143E-18,0.0204262823895117));
#202=CARTESIAN_POINT('',(0.00428654135618616,-0.00177554356540547,0.0204262823895117));
#203=CARTESIAN_POINT('',(0.00328077671832045,-0.00328077671832045,0.0204262823895117));
#204=CARTESIAN_POINT('',(0.00177554356540547,-0.00428654135618616,0.0204262823895117));
#205=CARTESIAN_POINT('',(9.60535362186377E-19,-0.00463971893016667,0.0204262823895117));
#206=CARTESIAN_POINT('',(-0.00177554356540546,-0.00428654135618616,0.0204262823895117));
#207=CARTESIAN_POINT('',(-0.00328077671832045,-0.00328077671832045,0.0204262823895117));
#208=CARTESIAN_POINT('',(-0.00428654135618616,-0.00177554356540547,0.0204262823895117));
#209=CARTESIAN_POINT('',(-0.00463971893016667,-7.46851448906778E-19,0.0204262823895117));
#210=CARTESIAN_POINT('',(-0.00428654135618616,0.00177554356540547,0.0204262823895117));
#211=CARTESIAN_POINT('',(-0.00328077671832045,0.00328077671832045,0.0204262823895117));
#212=CARTESIAN_POINT('',(-0.00177554356540547,0.00428654135618616,0.0204262823895117));
#213=CARTESIAN_POINT('',(-8.53809210832335E-19,0.00463971893016668,0.0204262823895117));
#214=CARTESIAN_POINT('',(0.00177554356540547,0.00428654135618616,0.0204262823895117));
#215=CARTESIAN_POINT('',(0.00328077671832045,0.00328077671832045,0.0204262823895117));
#216=CARTESIAN_POINT('',(0.00428654135618616,0.00177554356540546,0.0204262823895117));
#217=CARTESIAN_POINT('',(0.00463971893016667,3.6049722235143E-18,0.0204262823895117));
#218=CARTESIAN_POINT('',(0.00428654135618616,-0.00177554356540547,0.0204262823895117));
#219=CARTESIAN_POINT('',(0.00367360631315621,0.00152165755772872,0.0197854640832886));
#220=CARTESIAN_POINT('',(0.00397628282030518,2.92734586571086E-18,0.0197854640832886));
#221=CARTESIAN_POINT('',(0.00367360631315621,-0.00152165755772873,0.0197854640832886));
#222=CARTESIAN_POINT('',(0.00281165654615337,-0.00281165654615336,0.0197854640832886));
#223=CARTESIAN_POINT('',(0.00152165755772873,-0.00367360631315621,0.0197854640832886));
#224=CARTESIAN_POINT('',(7.64023718423379E-19,-0.00397628282030518,0.0197854640832886));
#225=CARTESIAN_POINT('',(-0.00152165755772873,-0.00367360631315621,0.0197854640832886));
#226=CARTESIAN_POINT('',(-0.00281165654615336,-0.00281165654615336,0.0197854640832886));
#227=CARTESIAN_POINT('',(-0.00367360631315621,-0.00152165755772873,0.0197854640832886));
#228=CARTESIAN_POINT('',(-0.00397628282030518,-3.6814500342285E-19,0.0197854640832886));
#229=CARTESIAN_POINT('',(-0.00367360631315621,0.00152165755772873,0.0197854640832886));
#230=CARTESIAN_POINT('',(-0.00281165654615336,0.00281165654615336,0.0197854640832886));
#231=CARTESIAN_POINT('',(-0.00152165755772873,0.00367360631315621,0.0197854640832886));
#232=CARTESIAN_POINT('',(-4.31986803099693E-19,0.00397628282030518,0.0197854640832886));
#233=CARTESIAN_POINT('',(0.00152165755772873,0.00367360631315622,0.0197854640832886));
#234=CARTESIAN_POINT('',(0.00281165654615337,0.00281165654615336,0.0197854640832886));
#235=CARTESIAN_POINT('',(0.00367360631315621,0.00152165755772872,0.0197854640832886));
#236=CARTESIAN_POINT('',(0.00397628282030518,2.92734586571086E-18,0.0197854640832886));
#237=CARTESIAN_POINT('',(0.00367360631315621,-0.00152165755772873,0.0197854640832886));
#238=CARTESIAN_POINT('',(0.00330745132697289,0.00136999119652105,0.0192540567356555));
#239=CARTESIAN_POINT('',(0.00357995951916218,2.71050543121376E-18,0.0192540567356555));
#240=CARTESIAN_POINT('',(0.00330745132697288,-0.00136999119652106,0.0192540567356555));
#241=CARTESIAN_POINT('',(0.00253141365237291,-0.00253141365237291,0.0192540567356555));
#242=CARTESIAN_POINT('',(0.00136999119652106,-0.00330745132697288,0.0192540567356555));
#243=CARTESIAN_POINT('',(3.95564386367758E-19,-0.00357995951916218,0.0192540567356555));
#244=CARTESIAN_POINT('',(-0.00136999119652106,-0.00330745132697288,0.0192540567356555));
#245=CARTESIAN_POINT('',(-0.00253141365237291,-0.00253141365237291,0.0192540567356555));
#246=CARTESIAN_POINT('',(-0.00330745132697288,-0.00136999119652106,0.0192540567356555));
#247=CARTESIAN_POINT('',(-0.00357995951916218,-4.32426863185571E-19,0.0192540567356555));
#248=CARTESIAN_POINT('',(-0.00330745132697289,0.00136999119652106,0.0192540567356555));
#249=CARTESIAN_POINT('',(-0.00253141365237291,0.00253141365237291,0.0192540567356555));
#250=CARTESIAN_POINT('',(-0.00136999119652106,0.00330745132697288,0.0192540567356555));
#251=CARTESIAN_POINT('',(-1.38913403349705E-18,0.00357995951916218,0.0192540567356555));
#252=CARTESIAN_POINT('',(0.00136999119652106,0.00330745132697288,0.0192540567356555));
#253=CARTESIAN_POINT('',(0.00253141365237291,0.00253141365237291,0.0192540567356555));
#254=CARTESIAN_POINT('',(0.00330745132697289,0.00136999119652105,0.0192540567356555));
#255=CARTESIAN_POINT('',(0.00357995951916218,2.71050543121376E-18,0.0192540567356555));
#256=CARTESIAN_POINT('',(0.00330745132697288,-0.00136999119652106,0.0192540567356555));
#257=CARTESIAN_POINT('',(0.00304895848110526,0.00126291995398626,0.0187603696452904));
#258=CARTESIAN_POINT('',(0.00330016887896367,2.49366499671666E-18,0.0187603696452904));
#259=CARTESIAN_POINT('',(0.00304895848110525,-0.00126291995398627,0.0187603696452904));
#260=CARTESIAN_POINT('',(0.00233357179337602,-0.00233357179337602,0.0187603696452904));
#261=CARTESIAN_POINT('',(0.00126291995398627,-0.00304895848110525,0.0187603696452904));
#262=CARTESIAN_POINT('',(4.2944570425793E-19,-0.00330016887896367,0.0187603696452904));
#263=CARTESIAN_POINT('',(-0.00126291995398627,-0.00304895848110525,0.0187603696452904));
#264=CARTESIAN_POINT('',(-0.00233357179337602,-0.00233357179337602,0.0187603696452904));
#265=CARTESIAN_POINT('',(-0.00304895848110525,-0.00126291995398627,0.0187603696452904));
#266=CARTESIAN_POINT('',(-0.00330016887896367,-5.63606127807906E-19,0.0187603696452904));
#267=CARTESIAN_POINT('',(-0.00304895848110525,0.00126291995398627,0.0187603696452904));
#268=CARTESIAN_POINT('',(-0.00233357179337602,0.00233357179337602,0.0187603696452904));
#269=CARTESIAN_POINT('',(-0.00126291995398627,0.00304895848110525,0.0187603696452904));
#270=CARTESIAN_POINT('',(-9.18183714823662E-19,0.00330016887896367,0.0187603696452904));
#271=CARTESIAN_POINT('',(0.00126291995398627,0.00304895848110526,0.0187603696452904));
#272=CARTESIAN_POINT('',(0.00233357179337602,0.00233357179337602,0.0187603696452904));
#273=CARTESIAN_POINT('',(0.00304895848110526,0.00126291995398626,0.0187603696452904));
#274=CARTESIAN_POINT('',(0.00330016887896367,2.49366499671666E-18,0.0187603696452904));
#275=CARTESIAN_POINT('',(0.00304895848110525,-0.00126291995398627,0.0187603696452904));
#276=CARTESIAN_POINT('',(0.00281761951753534,0.00116709621777027,0.018163424853348));
#277=CARTESIAN_POINT('',(0.00304976938917187,2.22261445359528E-18,0.018163424853348));
#278=CARTESIAN_POINT('',(0.00281761951753534,-0.00116709621777028,0.018163424853348));
#279=CARTESIAN_POINT('',(0.00215651261613859,-0.00215651261613858,0.0181634248533479));
#280=CARTESIAN_POINT('',(0.00116709621777027,-0.00281761951753534,0.018163424853348));
#281=CARTESIAN_POINT('',(7.25060202849681E-19,-0.00304976938917187,0.018163424853348));
#282=CARTESIAN_POINT('',(-0.00116709621777028,-0.00281761951753534,0.018163424853348));
#283=CARTESIAN_POINT('',(-0.00215651261613858,-0.00215651261613859,0.018163424853348));
#284=CARTESIAN_POINT('',(-0.00281761951753534,-0.00116709621777028,0.018163424853348));
#285=CARTESIAN_POINT('',(-0.00304976938917187,-4.22910977418761E-19,0.018163424853348));
#286=CARTESIAN_POINT('',(-0.00281761951753534,0.00116709621777027,0.018163424853348));
#287=CARTESIAN_POINT('',(-0.00215651261613859,0.00215651261613858,0.018163424853348));
#288=CARTESIAN_POINT('',(-0.00116709621777027,0.00281761951753534,0.018163424853348));
#289=CARTESIAN_POINT('',(-1.51449490969069E-18,0.00304976938917187,0.018163424853348));
#290=CARTESIAN_POINT('',(0.00116709621777027,0.00281761951753534,0.018163424853348));
#291=CARTESIAN_POINT('',(0.00215651261613859,0.00215651261613858,0.018163424853348));
#292=CARTESIAN_POINT('',(0.00281761951753534,0.00116709621777027,0.018163424853348));
#293=CARTESIAN_POINT('',(0.00304976938917187,2.22261445359528E-18,0.018163424853348));
#294=CARTESIAN_POINT('',(0.00281761951753534,-0.00116709621777028,0.018163424853348));
#295=CARTESIAN_POINT('',(0.00264867927001648,0.00109711887601729,0.0174160601800021));
#296=CARTESIAN_POINT('',(0.00286690978294198,2.33103467084383E-18,0.0174160601800021));
#297=CARTESIAN_POINT('',(0.00264867927001647,-0.00109711887601729,0.0174160601800021));
#298=CARTESIAN_POINT('',(0.00202721134856833,-0.00202721134856833,0.0174160601800021));
#299=CARTESIAN_POINT('',(0.00109711887601729,-0.00264867927001647,0.0174160601800021));
#300=CARTESIAN_POINT('',(2.91379333855479E-19,-0.00286690978294198,0.0174160601800021));
#301=CARTESIAN_POINT('',(-0.00109711887601729,-0.00264867927001647,0.0174160601800021));
#302=CARTESIAN_POINT('',(-0.00202721134856833,-0.00202721134856833,0.0174160601800021));
#303=CARTESIAN_POINT('',(-0.00264867927001647,-0.00109711887601729,0.0174160601800021));
#304=CARTESIAN_POINT('',(-0.00286690978294198,-5.66084360923115E-19,0.0174160601800021));
#305=CARTESIAN_POINT('',(-0.00264867927001647,0.00109711887601729,0.0174160601800021));
#306=CARTESIAN_POINT('',(-0.00202721134856833,0.00202721134856833,0.0174160601800021));
#307=CARTESIAN_POINT('',(-0.00109711887601729,0.00264867927001647,0.0174160601800021));
#308=CARTESIAN_POINT('',(-5.11607900141597E-19,0.00286690978294198,0.0174160601800021));
#309=CARTESIAN_POINT('',(0.00109711887601729,0.00264867927001647,0.0174160601800021));
#310=CARTESIAN_POINT('',(0.00202721134856833,0.00202721134856833,0.0174160601800021));
#311=CARTESIAN_POINT('',(0.00264867927001648,0.00109711887601729,0.0174160601800021));
#312=CARTESIAN_POINT('',(0.00286690978294198,2.33103467084383E-18,0.0174160601800021));
#313=CARTESIAN_POINT('',(0.00264867927001647,-0.00109711887601729,0.0174160601800021));
#314=CARTESIAN_POINT('',(0.00269418341941391,0.00111596731184195,0.0165824833586019));
#315=CARTESIAN_POINT('',(0.0029161631193307,2.0870891820346E-18,0.0165824833586018));
#316=CARTESIAN_POINT('',(0.00269418341941391,-0.00111596731184196,0.0165824833586018));
#317=CARTESIAN_POINT('',(0.00206203871672486,-0.00206203871672486,0.0165824833586018));
#318=CARTESIAN_POINT('',(0.00111596731184196,-0.00269418341941391,0.0165824833586018));
#319=CARTESIAN_POINT('',(7.2082503811341E-19,-0.0029161631193307,0.0165824833586018));
#320=CARTESIAN_POINT('',(-0.00111596731184196,-0.00269418341941391,0.0165824833586018));
#321=CARTESIAN_POINT('',(-0.00206203871672485,-0.00206203871672486,0.0165824833586018));
#322=CARTESIAN_POINT('',(-0.00269418341941391,-0.00111596731184196,0.0165824833586018));
#323=CARTESIAN_POINT('',(-0.0029161631193307,-3.60453878087332E-19,0.0165824833586018));
#324=CARTESIAN_POINT('',(-0.00269418341941391,0.00111596731184196,0.0165824833586018));
#325=CARTESIAN_POINT('',(-0.00206203871672486,0.00206203871672486,0.0165824833586018));
#326=CARTESIAN_POINT('',(-0.00111596731184196,0.0026941834194139,0.0165824833586018));
#327=CARTESIAN_POINT('',(-3.55753837846806E-19,0.0029161631193307,0.0165824833586018));
#328=CARTESIAN_POINT('',(0.00111596731184196,0.00269418341941391,0.0165824833586019));
#329=CARTESIAN_POINT('',(0.00206203871672486,0.00206203871672485,0.0165824833586018));
#330=CARTESIAN_POINT('',(0.00269418341941391,0.00111596731184195,0.0165824833586019));
#331=CARTESIAN_POINT('',(0.0029161631193307,2.0870891820346E-18,0.0165824833586018));
#332=CARTESIAN_POINT('',(0.00269418341941391,-0.00111596731184196,0.0165824833586018));
#333=CARTESIAN_POINT('',(0.0029016148041156,0.00120188820464723,0.0157535034447116));
#334=CARTESIAN_POINT('',(0.00314068523222767,2.62919026827735E-18,0.0157535034447116));
#335=CARTESIAN_POINT('',(0.0029016148041156,-0.00120188820464723,0.0157535034447116));
#336=CARTESIAN_POINT('',(0.00222079982528063,-0.00222079982528063,0.0157535034447116));
#337=CARTESIAN_POINT('',(0.00120188820464723,-0.0029016148041156,0.0157535034447116));
#338=CARTESIAN_POINT('',(5.17537130772378E-19,-0.00314068523222767,0.0157535034447116));
#339=CARTESIAN_POINT('',(-0.00120188820464723,-0.0029016148041156,0.0157535034447116));
#340=CARTESIAN_POINT('',(-0.00222079982528063,-0.00222079982528063,0.0157535034447116));
#341=CARTESIAN_POINT('',(-0.0029016148041156,-0.00120188820464723,0.0157535034447116));
#342=CARTESIAN_POINT('',(-0.00314068523222767,-4.30901542136024E-19,0.0157535034447116));
#343=CARTESIAN_POINT('',(-0.0029016148041156,0.00120188820464723,0.0157535034447116));
#344=CARTESIAN_POINT('',(-0.00222079982528063,0.00222079982528063,0.0157535034447116));
#345=CARTESIAN_POINT('',(-0.00120188820464723,0.0029016148041156,0.0157535034447116));
#346=CARTESIAN_POINT('',(-1.31290106824417E-18,0.00314068523222767,0.0157535034447116));
#347=CARTESIAN_POINT('',(0.00120188820464723,0.0029016148041156,0.0157535034447116));
#348=CARTESIAN_POINT('',(0.00222079982528063,0.00222079982528063,0.0157535034447116));
#349=CARTESIAN_POINT('',(0.0029016148041156,0.00120188820464723,0.0157535034447116));
#350=CARTESIAN_POINT('',(0.00314068523222767,2.62919026827735E-18,0.0157535034447116));
#351=CARTESIAN_POINT('',(0.0029016148041156,-0.00120188820464723,0.0157535034447116));
#352=CARTESIAN_POINT('',(0.00321695478122187,0.00133250629992306,0.0149961196605454));
#353=CARTESIAN_POINT('',(0.00348200676388787,2.3039296165317E-18,0.0149961196605454));
#354=CARTESIAN_POINT('',(0.00321695478122186,-0.00133250629992307,0.0149961196605454));
#355=CARTESIAN_POINT('',(0.00246215059488254,-0.00246215059488254,0.0149961196605454));
#356=CARTESIAN_POINT('',(0.00133250629992307,-0.00321695478122186,0.0149961196605454));
#357=CARTESIAN_POINT('',(1.41454502191468E-19,-0.00348200676388787,0.0149961196605454));
#358=CARTESIAN_POINT('',(-0.00133250629992307,-0.00321695478122186,0.0149961196605454));
#359=CARTESIAN_POINT('',(-0.00246215059488254,-0.00246215059488254,0.0149961196605454));
#360=CARTESIAN_POINT('',(-0.00321695478122186,-0.00133250629992307,0.0149961196605454));
#361=CARTESIAN_POINT('',(-0.00348200676388787,-6.40075666715983E-19,0.0149961196605454));
#362=CARTESIAN_POINT('',(-0.00321695478122186,0.00133250629992307,0.0149961196605454));
#363=CARTESIAN_POINT('',(-0.00246215059488254,0.00246215059488254,0.0149961196605454));
#364=CARTESIAN_POINT('',(-0.00133250629992307,0.00321695478122186,0.0149961196605454));
#365=CARTESIAN_POINT('',(-1.09267250195805E-18,0.00348200676388787,0.0149961196605454));
#366=CARTESIAN_POINT('',(0.00133250629992307,0.00321695478122186,0.0149961196605454));
#367=CARTESIAN_POINT('',(0.00246215059488254,0.00246215059488254,0.0149961196605454));
#368=CARTESIAN_POINT('',(0.00321695478122187,0.00133250629992306,0.0149961196605454));
#369=CARTESIAN_POINT('',(0.00348200676388787,2.3039296165317E-18,0.0149961196605454));
#370=CARTESIAN_POINT('',(0.00321695478122186,-0.00133250629992307,0.0149961196605454));
#371=CARTESIAN_POINT('',(0.00353157241918731,0.00146282519253013,0.0142390559499356));
#372=CARTESIAN_POINT('',(0.00382254644129608,2.87313575708659E-18,0.0142390559499356));
#373=CARTESIAN_POINT('',(0.0035315724191873,-0.00146282519253014,0.0142390559499356));
#374=CARTESIAN_POINT('',(0.00270294851004096,-0.00270294851004096,0.0142390559499356));
#375=CARTESIAN_POINT('',(0.00146282519253014,-0.0035315724191873,0.0142390559499356));
#376=CARTESIAN_POINT('',(3.62530101424841E-19,-0.00382254644129608,0.0142390559499356));
#377=CARTESIAN_POINT('',(-0.00146282519253014,-0.0035315724191873,0.0142390559499356));
#378=CARTESIAN_POINT('',(-0.00270294851004096,-0.00270294851004096,0.0142390559499356));
#379=CARTESIAN_POINT('',(-0.0035315724191873,-0.00146282519253014,0.0142390559499356));
#380=CARTESIAN_POINT('',(-0.00382254644129608,-4.2342879248222E-19,0.0142390559499356));
#381=CARTESIAN_POINT('',(-0.0035315724191873,0.00146282519253014,0.0142390559499356));
#382=CARTESIAN_POINT('',(-0.00270294851004096,0.00270294851004096,0.0142390559499356));
#383=CARTESIAN_POINT('',(-0.00146282519253014,0.0035315724191873,0.0142390559499356));
#384=CARTESIAN_POINT('',(-8.70749869777421E-19,0.00382254644129608,0.0142390559499356));
#385=CARTESIAN_POINT('',(0.00146282519253014,0.0035315724191873,0.0142390559499356));
#386=CARTESIAN_POINT('',(0.00270294851004096,0.00270294851004096,0.0142390559499356));
#387=CARTESIAN_POINT('',(0.00353157241918731,0.00146282519253013,0.0142390559499356));
#388=CARTESIAN_POINT('',(0.00382254644129608,2.87313575708659E-18,0.0142390559499356));
#389=CARTESIAN_POINT('',(0.0035315724191873,-0.00146282519253014,0.0142390559499356));
#390=CARTESIAN_POINT('',(0.0038006302310438,0.00157427258726352,0.0134531370065956));
#391=CARTESIAN_POINT('',(0.00411377251827728,3.06287113727155E-18,0.0134531370065956));
#392=CARTESIAN_POINT('',(0.0038006302310438,-0.00157427258726353,0.0134531370065956));
#393=CARTESIAN_POINT('',(0.00290887644393273,-0.00290887644393273,0.0134531370065956));
#394=CARTESIAN_POINT('',(0.00157427258726353,-0.0038006302310438,0.0134531370065956));
#395=CARTESIAN_POINT('',(1.14857667647683E-18,-0.00411377251827728,0.0134531370065956));
#396=CARTESIAN_POINT('',(-0.00157427258726353,-0.0038006302310438,0.0134531370065956));
#397=CARTESIAN_POINT('',(-0.00290887644393273,-0.00290887644393273,0.0134531370065956));
#398=CARTESIAN_POINT('',(-0.0038006302310438,-0.00157427258726353,0.0134531370065956));
#399=CARTESIAN_POINT('',(-0.00411377251827728,-6.2927268791604E-19,0.0134531370065956));
#400=CARTESIAN_POINT('',(-0.0038006302310438,0.00157427258726353,0.0134531370065956));
#401=CARTESIAN_POINT('',(-0.00290887644393273,0.00290887644393273,0.0134531370065956));
#402=CARTESIAN_POINT('',(-0.00157427258726353,0.0038006302310438,0.0134531370065956));
#403=CARTESIAN_POINT('',(-1.43317974675428E-18,0.00411377251827728,0.0134531370065956));
#404=CARTESIAN_POINT('',(0.00157427258726353,0.0038006302310438,0.0134531370065956));
#405=CARTESIAN_POINT('',(0.00290887644393273,0.00290887644393273,0.0134531370065956));
#406=CARTESIAN_POINT('',(0.0038006302310438,0.00157427258726352,0.0134531370065956));
#407=CARTESIAN_POINT('',(0.00411377251827728,3.06287113727155E-18,0.0134531370065956));
#408=CARTESIAN_POINT('',(0.0038006302310438,-0.00157427258726353,0.0134531370065956));
#409=CARTESIAN_POINT('',(0.00405381209426108,0.00167914394875501,0.0126286691728635));
#410=CARTESIAN_POINT('',(0.00438781459227916,3.1712913545201E-18,0.0126286691728635));
#411=CARTESIAN_POINT('',(0.00405381209426107,-0.00167914394875502,0.0126286691728635));
#412=CARTESIAN_POINT('',(0.00310265345278988,-0.00310265345278988,0.0126286691728635));
#413=CARTESIAN_POINT('',(0.00167914394875502,-0.00405381209426107,0.0126286691728635));
#414=CARTESIAN_POINT('',(9.52065032713834E-19,-0.00438781459227916,0.0126286691728635));
#415=CARTESIAN_POINT('',(-0.00167914394875502,-0.00405381209426107,0.0126286691728635));
#416=CARTESIAN_POINT('',(-0.00310265345278988,-0.00310265345278988,0.0126286691728635));
#417=CARTESIAN_POINT('',(-0.00405381209426107,-0.00167914394875502,0.0126286691728635));
#418=CARTESIAN_POINT('',(-0.00438781459227916,-8.14657098078975E-19,0.0126286691728635));
#419=CARTESIAN_POINT('',(-0.00405381209426108,0.00167914394875502,0.0126286691728635));
#420=CARTESIAN_POINT('',(-0.00310265345278988,0.00310265345278988,0.0126286691728635));
#421=CARTESIAN_POINT('',(-0.00167914394875502,0.00405381209426107,0.0126286691728635));
#422=CARTESIAN_POINT('',(-8.33480420098232E-19,0.00438781459227916,0.0126286691728635));
#423=CARTESIAN_POINT('',(0.00167914394875502,0.00405381209426108,0.0126286691728635));
#424=CARTESIAN_POINT('',(0.00310265345278988,0.00310265345278988,0.0126286691728635));
#425=CARTESIAN_POINT('',(0.00405381209426108,0.00167914394875501,0.0126286691728635));
#426=CARTESIAN_POINT('',(0.00438781459227916,3.1712913545201E-18,0.0126286691728635));
#427=CARTESIAN_POINT('',(0.00405381209426107,-0.00167914394875502,0.0126286691728635));
#428=CARTESIAN_POINT('',(0.0043942240242375,0.00182014718694484,0.0115097718869604));
#429=CARTESIAN_POINT('',(0.00475627381017212,3.95733792957209E-18,0.0115097718869604));
#430=CARTESIAN_POINT('',(0.0043942240242375,-0.00182014718694485,0.0115097718869604));
#431=CARTESIAN_POINT('',(0.00336319346435269,-0.00336319346435268,0.0115097718869604));
#432=CARTESIAN_POINT('',(0.00182014718694485,-0.0043942240242375,0.0115097718869604));
#433=CARTESIAN_POINT('',(8.19927892942163E-19,-0.00475627381017212,0.0115097718869604));
#434=CARTESIAN_POINT('',(-0.00182014718694485,-0.0043942240242375,0.0115097718869604));
#435=CARTESIAN_POINT('',(-0.00336319346435268,-0.00336319346435269,0.0115097718869604));
#436=CARTESIAN_POINT('',(-0.0043942240242375,-0.00182014718694485,0.0115097718869604));
#437=CARTESIAN_POINT('',(-0.00475627381017212,-8.75696409840488E-19,0.0115097718869604));
#438=CARTESIAN_POINT('',(-0.0043942240242375,0.00182014718694485,0.0115097718869604));
#439=CARTESIAN_POINT('',(-0.00336319346435268,0.00336319346435268,0.0115097718869604));
#440=CARTESIAN_POINT('',(-0.00182014718694485,0.0043942240242375,0.0115097718869604));
#441=CARTESIAN_POINT('',(-8.63973606199386E-19,0.00475627381017212,0.0115097718869604));
#442=CARTESIAN_POINT('',(0.00182014718694485,0.0043942240242375,0.0115097718869604));
#443=CARTESIAN_POINT('',(0.00336319346435269,0.00336319346435269,0.0115097718869604));
#444=CARTESIAN_POINT('',(0.0043942240242375,0.00182014718694484,0.0115097718869604));
#445=CARTESIAN_POINT('',(0.00475627381017212,3.95733792957209E-18,0.0115097718869604));
#446=CARTESIAN_POINT('',(0.0043942240242375,-0.00182014718694485,0.0115097718869604));
#447=CARTESIAN_POINT('',(0.00472640055103374,0.00195773920944583,0.0107391321217399));
#448=CARTESIAN_POINT('',(0.00511581909189659,3.46944695195361E-18,0.0107391321217399));
#449=CARTESIAN_POINT('',(0.00472640055103373,-0.00195773920944584,0.0107391321217399));
#450=CARTESIAN_POINT('',(0.00361743037120369,-0.00361743037120369,0.0107391321217399));
#451=CARTESIAN_POINT('',(0.00195773920944584,-0.00472640055103373,0.0107391321217399));
#452=CARTESIAN_POINT('',(1.30951293645515E-18,-0.00511581909189659,0.0107391321217399));
#453=CARTESIAN_POINT('',(-0.00195773920944584,-0.00472640055103373,0.0107391321217399));
#454=CARTESIAN_POINT('',(-0.00361743037120369,-0.00361743037120369,0.0107391321217399));
#455=CARTESIAN_POINT('',(-0.00472640055103374,-0.00195773920944584,0.0107391321217399));
#456=CARTESIAN_POINT('',(-0.00511581909189659,-7.31647869248053E-19,0.0107391321217399));
#457=CARTESIAN_POINT('',(-0.00472640055103374,0.00195773920944584,0.0107391321217399));
#458=CARTESIAN_POINT('',(-0.00361743037120369,0.00361743037120369,0.0107391321217399));
#459=CARTESIAN_POINT('',(-0.00195773920944584,0.00472640055103373,0.0107391321217399));
#460=CARTESIAN_POINT('',(-1.00288700954909E-18,0.00511581909189659,0.0107391321217399));
#461=CARTESIAN_POINT('',(0.00195773920944584,0.00472640055103374,0.0107391321217399));
#462=CARTESIAN_POINT('',(0.00361743037120369,0.00361743037120368,0.0107391321217399));
#463=CARTESIAN_POINT('',(0.00472640055103374,0.00195773920944583,0.0107391321217399));
#464=CARTESIAN_POINT('',(0.00511581909189659,3.46944695195361E-18,0.0107391321217399));
#465=CARTESIAN_POINT('',(0.00472640055103373,-0.00195773920944584,0.0107391321217399));
#466=CARTESIAN_POINT('',(0.00490846038175839,0.00203315086049533,0.0102459995127023));
#467=CARTESIAN_POINT('',(0.00531287923265949,3.79470760369927E-18,0.0102459995127023));
#468=CARTESIAN_POINT('',(0.00490846038175838,-0.00203315086049534,0.0102459995127023));
#469=CARTESIAN_POINT('',(0.00375677293303871,-0.00375677293303871,0.0102459995127023));
#470=CARTESIAN_POINT('',(0.00203315086049534,-0.00490846038175838,0.0102459995127023));
#471=CARTESIAN_POINT('',(8.99548989984067E-19,-0.0053128792326595,0.0102459995127023));
#472=CARTESIAN_POINT('',(-0.00203315086049534,-0.00490846038175838,0.0102459995127023));
#473=CARTESIAN_POINT('',(-0.00375677293303871,-0.00375677293303871,0.0102459995127023));
#474=CARTESIAN_POINT('',(-0.00490846038175838,-0.00203315086049534,0.0102459995127023));
#475=CARTESIAN_POINT('',(-0.0053128792326595,-6.56778097644654E-19,0.0102459995127023));
#476=CARTESIAN_POINT('',(-0.00490846038175838,0.00203315086049534,0.0102459995127023));
#477=CARTESIAN_POINT('',(-0.00375677293303871,0.00375677293303871,0.0102459995127023));
#478=CARTESIAN_POINT('',(-0.00203315086049534,0.00490846038175838,0.0102459995127023));
#479=CARTESIAN_POINT('',(-1.05709711817337E-18,0.0053128792326595,0.0102459995127023));
#480=CARTESIAN_POINT('',(0.00203315086049534,0.00490846038175838,0.0102459995127023));
#481=CARTESIAN_POINT('',(0.00375677293303871,0.00375677293303871,0.0102459995127023));
#482=CARTESIAN_POINT('',(0.00490846038175839,0.00203315086049533,0.0102459995127023));
#483=CARTESIAN_POINT('',(0.00531287923265949,3.79470760369927E-18,0.0102459995127023));
#484=CARTESIAN_POINT('',(0.00490846038175838,-0.00203315086049534,0.0102459995127023));
#485=CARTESIAN_POINT('',(0.,0.,0.0102459995127023));
#486=CARTESIAN_POINT('',(-0.00517807294902579,0.,0.0102459995127023));
#487=CARTESIAN_POINT('',(0.00490846038175839,0.00203315086049533,0.0102459995127023));
#488=CARTESIAN_POINT('',(0.00531287923265949,3.74049749507499E-18,0.0102459995127023));
#489=CARTESIAN_POINT('',(0.00490846038175838,-0.00203315086049534,0.0102459995127023));
#490=CARTESIAN_POINT('',(0.00375677293303871,-0.00375677293303871,0.0102459995127023));
#491=CARTESIAN_POINT('',(0.00203315086049534,-0.00490846038175838,0.0102459995127023));
#492=CARTESIAN_POINT('',(8.99548989984067E-19,-0.0053128792326595,0.0102459995127023));
#493=CARTESIAN_POINT('',(-0.00203315086049534,-0.00490846038175838,0.0102459995127023));
#494=CARTESIAN_POINT('',(-0.00375677293303871,-0.00375677293303871,0.0102459995127023));
#495=CARTESIAN_POINT('',(-0.00490846038175838,-0.00203315086049534,0.0102459995127023));
#496=CARTESIAN_POINT('',(-0.0053128792326595,-7.43926538260791E-19,0.0102459995127023));
#497=CARTESIAN_POINT('',(-0.00490846038175838,0.00203315086049534,0.0102459995127023));
#498=CARTESIAN_POINT('',(-0.00375677293303871,0.00375677293303871,0.0102459995127023));
#499=CARTESIAN_POINT('',(-0.00203315086049534,0.00490846038175838,0.0102459995127023));
#500=CARTESIAN_POINT('',(-1.22989183941324E-18,0.0053128792326595,0.0102459995127023));
#501=CARTESIAN_POINT('',(0.00203315086049534,0.00490846038175838,0.0102459995127023));
#502=CARTESIAN_POINT('',(0.00375677293303871,0.00375677293303871,0.0102459995127023));
#503=CARTESIAN_POINT('',(0.00490846038175839,0.00203315086049533,0.0102459995127023));
#504=CARTESIAN_POINT('',(0.00531287923265949,3.74049749507499E-18,0.0102459995127023));
#505=CARTESIAN_POINT('',(0.00490846038175838,-0.00203315086049534,0.0102459995127023));
#506=CARTESIAN_POINT('',(0.00509311656514756,0.00210963795603118,0.00975443156381325));
#507=CARTESIAN_POINT('',(0.0055127496452957,4.06575814682064E-18,0.00975443156381324));
#508=CARTESIAN_POINT('',(0.00509311656514755,-0.00210963795603119,0.00975443156381324));
#509=CARTESIAN_POINT('',(0.00389810265717232,-0.00389810265717232,0.00975443156381324));
#510=CARTESIAN_POINT('',(0.00210963795603119,-0.00509311656514755,0.00975443156381324));
#511=CARTESIAN_POINT('',(1.31120700234966E-18,-0.0055127496452957,0.00975443156381324));
#512=CARTESIAN_POINT('',(-0.00210963795603119,-0.00509311656514755,0.00975443156381324));
#513=CARTESIAN_POINT('',(-0.00389810265717233,-0.00389810265717232,0.00975443156381324));
#514=CARTESIAN_POINT('',(-0.00509311656514755,-0.00210963795603119,0.00975443156381324));
#515=CARTESIAN_POINT('',(-0.0055127496452957,-9.4592073512379E-19,0.00975443156381324));
#516=CARTESIAN_POINT('',(-0.00509311656514755,0.00210963795603119,0.00975443156381324));
#517=CARTESIAN_POINT('',(-0.00389810265717232,0.00389810265717232,0.00975443156381324));
#518=CARTESIAN_POINT('',(-0.00210963795603119,0.00509311656514755,0.00975443156381324));
#519=CARTESIAN_POINT('',(-6.23416249179165E-19,0.0055127496452957,0.00975443156381325));
#520=CARTESIAN_POINT('',(0.00210963795603119,0.00509311656514756,0.00975443156381325));
#521=CARTESIAN_POINT('',(0.00389810265717233,0.00389810265717232,0.00975443156381324));
#522=CARTESIAN_POINT('',(0.00509311656514756,0.00210963795603118,0.00975443156381325));
#523=CARTESIAN_POINT('',(0.0055127496452957,4.06575814682064E-18,0.00975443156381324));
#524=CARTESIAN_POINT('',(0.00509311656514755,-0.00210963795603119,0.00975443156381324));
#525=CARTESIAN_POINT('',(0.0053574422089489,0.00221912522257669,0.00876507301556808));
#526=CARTESIAN_POINT('',(0.00579885366048353,4.06575814682064E-18,0.00876507301556807));
#527=CARTESIAN_POINT('',(0.00535744220894889,-0.0022191252225767,0.00876507301556808));
#528=CARTESIAN_POINT('',(0.00410040874643634,-0.00410040874643634,0.00876507301556808));
#529=CARTESIAN_POINT('',(0.0022191252225767,-0.00535744220894889,0.00876507301556808));
#530=CARTESIAN_POINT('',(8.87690528722507E-19,-0.00579885366048353,0.00876507301556808));
#531=CARTESIAN_POINT('',(-0.0022191252225767,-0.00535744220894889,0.00876507301556808));
#532=CARTESIAN_POINT('',(-0.00410040874643633,-0.00410040874643634,0.00876507301556808));
#533=CARTESIAN_POINT('',(-0.00535744220894889,-0.0022191252225767,0.00876507301556808));
#534=CARTESIAN_POINT('',(-0.00579885366048353,-2.54626044878523E-19,0.00876507301556808));
#535=CARTESIAN_POINT('',(-0.0053574422089489,0.0022191252225767,0.00876507301556808));
#536=CARTESIAN_POINT('',(-0.00410040874643634,0.00410040874643634,0.00876507301556807));
#537=CARTESIAN_POINT('',(-0.0022191252225767,0.00535744220894888,0.00876507301556808));
#538=CARTESIAN_POINT('',(-3.69306365002875E-19,0.00579885366048353,0.00876507301556808));
#539=CARTESIAN_POINT('',(0.0022191252225767,0.00535744220894889,0.00876507301556808));
#540=CARTESIAN_POINT('',(0.00410040874643634,0.00410040874643634,0.00876507301556808));
#541=CARTESIAN_POINT('',(0.0053574422089489,0.00221912522257669,0.00876507301556808));
#542=CARTESIAN_POINT('',(0.00579885366048353,4.06575814682064E-18,0.00876507301556807));
#543=CARTESIAN_POINT('',(0.00535744220894889,-0.0022191252225767,0.00876507301556808));
#544=CARTESIAN_POINT('',(0.00528369095345564,0.00218857645230934,0.00720166936749095));
#545=CARTESIAN_POINT('',(0.00571902587677586,4.60785923306339E-18,0.00720166936749094));
#546=CARTESIAN_POINT('',(0.00528369095345564,-0.00218857645230936,0.00720166936749094));
#547=CARTESIAN_POINT('',(0.00404396197924955,-0.00404396197924955,0.00720166936749094));
#548=CARTESIAN_POINT('',(0.00218857645230936,-0.00528369095345564,0.00720166936749094));
#549=CARTESIAN_POINT('',(5.06525702458072E-19,-0.00571902587677587,0.00720166936749094));
#550=CARTESIAN_POINT('',(-0.00218857645230935,-0.00528369095345564,0.00720166936749094));
#551=CARTESIAN_POINT('',(-0.00404396197924956,-0.00404396197924955,0.00720166936749094));
#552=CARTESIAN_POINT('',(-0.00528369095345564,-0.00218857645230935,0.00720166936749094));
#553=CARTESIAN_POINT('',(-0.00571902587677586,-1.45644668302417E-18,0.00720166936749094));
#554=CARTESIAN_POINT('',(-0.00528369095345564,0.00218857645230936,0.00720166936749094));
#555=CARTESIAN_POINT('',(-0.00404396197924955,0.00404396197924955,0.00720166936749094));
#556=CARTESIAN_POINT('',(-0.00218857645230936,0.00528369095345564,0.00720166936749095));
#557=CARTESIAN_POINT('',(-1.13163601753175E-18,0.00571902587677587,0.00720166936749094));
#558=CARTESIAN_POINT('',(0.00218857645230935,0.00528369095345564,0.00720166936749095));
#559=CARTESIAN_POINT('',(0.00404396197924956,0.00404396197924955,0.00720166936749094));
#560=CARTESIAN_POINT('',(0.00528369095345564,0.00218857645230934,0.00720166936749095));
#561=CARTESIAN_POINT('',(0.00571902587677586,4.60785923306339E-18,0.00720166936749094));
#562=CARTESIAN_POINT('',(0.00528369095345564,-0.00218857645230936,0.00720166936749094));
#563=CARTESIAN_POINT('',(0.00524999878375137,0.00217462069867206,0.00643143430352211));
#564=CARTESIAN_POINT('',(0.00568255773507702,4.01154803819637E-18,0.00643143430352211));
#565=CARTESIAN_POINT('',(0.00524999878375136,-0.00217462069867207,0.00643143430352211));
#566=CARTESIAN_POINT('',(0.00401817510895703,-0.00401817510895703,0.00643143430352211));
#567=CARTESIAN_POINT('',(0.00217462069867207,-0.00524999878375136,0.00643143430352211));
#568=CARTESIAN_POINT('',(1.3586408473959E-18,-0.00568255773507703,0.00643143430352211));
#569=CARTESIAN_POINT('',(-0.00217462069867207,-0.00524999878375136,0.00643143430352211));
#570=CARTESIAN_POINT('',(-0.00401817510895703,-0.00401817510895704,0.00643143430352211));
#571=CARTESIAN_POINT('',(-0.00524999878375136,-0.00217462069867207,0.00643143430352211));
#572=CARTESIAN_POINT('',(-0.00568255773507703,-7.27329986450527E-19,0.00643143430352211));
#573=CARTESIAN_POINT('',(-0.00524999878375136,0.00217462069867207,0.00643143430352211));
#574=CARTESIAN_POINT('',(-0.00401817510895703,0.00401817510895703,0.00643143430352211));
#575=CARTESIAN_POINT('',(-0.00217462069867207,0.00524999878375136,0.00643143430352211));
#576=CARTESIAN_POINT('',(-7.42000861794767E-19,0.00568255773507703,0.00643143430352211));
#577=CARTESIAN_POINT('',(0.00217462069867207,0.00524999878375136,0.00643143430352211));
#578=CARTESIAN_POINT('',(0.00401817510895704,0.00401817510895703,0.00643143430352211));
#579=CARTESIAN_POINT('',(0.00524999878375137,0.00217462069867206,0.00643143430352211));
#580=CARTESIAN_POINT('',(0.00568255773507702,4.01154803819637E-18,0.00643143430352211));
#581=CARTESIAN_POINT('',(0.00524999878375136,-0.00217462069867207,0.00643143430352211));
#582=CARTESIAN_POINT('',(0.,0.,0.00643143430352211));
#583=CARTESIAN_POINT('',(-0.00553837141796847,0.,0.00643143430352211));
#584=CARTESIAN_POINT('',(2.27682456221956E-18,0.,0.00643143430352211));
#585=CARTESIAN_POINT('',(0.,0.,0.00273447838844731));
#586=CARTESIAN_POINT('',(-0.00412384225272544,0.,0.00273447838844731));
#587=CARTESIAN_POINT('',(0.00206192112636272,0.,0.00273447838844731));
#588=CARTESIAN_POINT('',(0.00376178672307526,0.,0.00180945235695758));
#589=CARTESIAN_POINT('',(0.,0.,0.00180945235695758));
#590=CARTESIAN_POINT('',(-0.00447220640021819,0.,0.00180945235695758));
#591=CARTESIAN_POINT('',(2.27682456221956E-18,0.,0.00643143430352211));
#592=CARTESIAN_POINT('',(0.,0.,0.00643143430352211));
#593=CARTESIAN_POINT('',(-0.00643143430352211,0.,0.00643143430352211));
#594=CARTESIAN_POINT('',(0.00605392384236321,0.00250761736108066,0.0071907399757721));
#595=CARTESIAN_POINT('',(0.00655271994813809,5.0415401020576E-18,0.0071907399757721));
#596=CARTESIAN_POINT('',(0.0060539238423632,-0.00250761736108068,0.0071907399757721));
#597=CARTESIAN_POINT('',(0.00463347271054481,-0.0046334727105448,0.0071907399757721));
#598=CARTESIAN_POINT('',(0.00250761736108068,-0.0060539238423632,0.0071907399757721));
#599=CARTESIAN_POINT('',(1.29257227751006E-18,-0.00655271994813809,0.0071907399757721));
#600=CARTESIAN_POINT('',(-0.00250761736108068,-0.0060539238423632,0.0071907399757721));
#601=CARTESIAN_POINT('',(-0.00463347271054481,-0.00463347271054481,0.0071907399757721));
#602=CARTESIAN_POINT('',(-0.0060539238423632,-0.00250761736108068,0.0071907399757721));
#603=CARTESIAN_POINT('',(-0.00655271994813809,-8.17439733659603E-19,0.0071907399757721));
#604=CARTESIAN_POINT('',(-0.0060539238423632,0.00250761736108068,0.0071907399757721));
#605=CARTESIAN_POINT('',(-0.00463347271054481,0.0046334727105448,0.0071907399757721));
#606=CARTESIAN_POINT('',(-0.00250761736108068,0.0060539238423632,0.0071907399757721));
#607=CARTESIAN_POINT('',(-2.76471553983804E-18,0.00655271994813809,0.0071907399757721));
#608=CARTESIAN_POINT('',(0.00250761736108068,0.0060539238423632,0.0071907399757721));
#609=CARTESIAN_POINT('',(0.00463347271054481,0.0046334727105448,0.0071907399757721));
#610=CARTESIAN_POINT('',(0.00605392384236321,0.00250761736108066,0.0071907399757721));
#611=CARTESIAN_POINT('',(0.00655271994813809,5.0415401020576E-18,0.0071907399757721));
#612=CARTESIAN_POINT('',(0.0060539238423632,-0.00250761736108068,0.0071907399757721));
#613=CARTESIAN_POINT('',(0.00607064843358274,0.00251454491358894,0.00693532634212601));
#614=CARTESIAN_POINT('',(0.00657082251522719,4.71627945031194E-18,0.006935326342126));
#615=CARTESIAN_POINT('',(0.00607064843358273,-0.00251454491358895,0.00693532634212601));
#616=CARTESIAN_POINT('',(0.00464627315849039,-0.00464627315849039,0.00693532634212601));
#617=CARTESIAN_POINT('',(0.00251454491358895,-0.00607064843358273,0.00693532634212601));
#618=CARTESIAN_POINT('',(2.5021353261892E-18,-0.00657082251522719,0.00693532634212601));
#619=CARTESIAN_POINT('',(-0.00251454491358896,-0.00607064843358273,0.00693532634212601));
#620=CARTESIAN_POINT('',(-0.00464627315849039,-0.00464627315849039,0.00693532634212601));
#621=CARTESIAN_POINT('',(-0.00607064843358273,-0.00251454491358896,0.00693532634212601));
#622=CARTESIAN_POINT('',(-0.00657082251522719,-6.0149596294651E-19,0.00693532634212601));
#623=CARTESIAN_POINT('',(-0.00607064843358274,0.00251454491358895,0.00693532634212601));
#624=CARTESIAN_POINT('',(-0.0046462731584904,0.00464627315849039,0.00693532634212601));
#625=CARTESIAN_POINT('',(-0.00251454491358895,0.00607064843358274,0.00693532634212601));
#626=CARTESIAN_POINT('',(-2.77826806699411E-18,0.00657082251522719,0.00693532634212601));
#627=CARTESIAN_POINT('',(0.00251454491358895,0.00607064843358273,0.00693532634212601));
#628=CARTESIAN_POINT('',(0.0046462731584904,0.00464627315849039,0.00693532634212601));
#629=CARTESIAN_POINT('',(0.00607064843358274,0.00251454491358894,0.00693532634212601));
#630=CARTESIAN_POINT('',(0.00657082251522719,4.71627945031194E-18,0.006935326342126));
#631=CARTESIAN_POINT('',(0.00607064843358273,-0.00251454491358895,0.00693532634212601));
#632=CARTESIAN_POINT('',(0.00608360499493872,0.00251991169702431,0.00668338032282407));
#633=CARTESIAN_POINT('',(0.00658484659618151,4.66206934168767E-18,0.00668338032282406));
#634=CARTESIAN_POINT('',(0.00608360499493871,-0.00251991169702432,0.00668338032282406));
#635=CARTESIAN_POINT('',(0.0046561896812331,-0.0046561896812331,0.00668338032282406));
#636=CARTESIAN_POINT('',(0.00251991169702432,-0.00608360499493871,0.00668338032282406));
#637=CARTESIAN_POINT('',(-1.07573184301296E-18,-0.00658484659618151,0.00668338032282406));
#638=CARTESIAN_POINT('',(-0.00251991169702431,-0.00608360499493871,0.00668338032282406));
#639=CARTESIAN_POINT('',(-0.00465618968123311,-0.0046561896812331,0.00668338032282406));
#640=CARTESIAN_POINT('',(-0.00608360499493872,-0.00251991169702432,0.00668338032282406));
#641=CARTESIAN_POINT('',(-0.00658484659618152,-1.03205008922526E-18,0.00668338032282406));
#642=CARTESIAN_POINT('',(-0.00608360499493871,0.00251991169702432,0.00668338032282406));
#643=CARTESIAN_POINT('',(-0.00465618968123311,0.0046561896812331,0.00668338032282406));
#644=CARTESIAN_POINT('',(-0.00251991169702432,0.00608360499493871,0.00668338032282406));
#645=CARTESIAN_POINT('',(-1.71778281703172E-18,0.00658484659618152,0.00668338032282406));
#646=CARTESIAN_POINT('',(0.00251991169702432,0.00608360499493872,0.00668338032282407));
#647=CARTESIAN_POINT('',(0.00465618968123311,0.0046561896812331,0.00668338032282406));
#648=CARTESIAN_POINT('',(0.00608360499493872,0.00251991169702431,0.00668338032282407));
#649=CARTESIAN_POINT('',(0.00658484659618151,4.66206934168767E-18,0.00668338032282406));
#650=CARTESIAN_POINT('',(0.00608360499493871,-0.00251991169702432,0.00668338032282406));
#651=CARTESIAN_POINT('',(0.00609656155629469,0.00252527848045967,0.00643143430352211));
#652=CARTESIAN_POINT('',(0.00659887067713582,4.82469966756049E-18,0.00643143430352211));
#653=CARTESIAN_POINT('',(0.00609656155629468,-0.00252527848045968,0.00643143430352211));
#654=CARTESIAN_POINT('',(0.00466610620397581,-0.0046661062039758,0.00643143430352211));
#655=CARTESIAN_POINT('',(0.00252527848045968,-0.00609656155629468,0.00643143430352211));
#656=CARTESIAN_POINT('',(8.80914265144472E-19,-0.00659887067713582,0.00643143430352211));
#657=CARTESIAN_POINT('',(-0.00252527848045968,-0.00609656155629468,0.00643143430352211));
#658=CARTESIAN_POINT('',(-0.00466610620397581,-0.00466610620397581,0.00643143430352211));
#659=CARTESIAN_POINT('',(-0.00609656155629468,-0.00252527848045968,0.00643143430352211));
#660=CARTESIAN_POINT('',(-0.00659887067713582,-9.39647397358188E-19,0.00643143430352211));
#661=CARTESIAN_POINT('',(-0.00609656155629469,0.00252527848045968,0.00643143430352211));
#662=CARTESIAN_POINT('',(-0.00466610620397581,0.0046661062039758,0.00643143430352211));
#663=CARTESIAN_POINT('',(-0.00252527848045968,0.00609656155629468,0.00643143430352211));
#664=CARTESIAN_POINT('',(-2.47672433777157E-18,0.00659887067713583,0.00643143430352211));
#665=CARTESIAN_POINT('',(0.00252527848045968,0.00609656155629469,0.00643143430352211));
#666=CARTESIAN_POINT('',(0.00466610620397581,0.0046661062039758,0.00643143430352211));
#667=CARTESIAN_POINT('',(0.00609656155629469,0.00252527848045967,0.00643143430352211));
#668=CARTESIAN_POINT('',(0.00659887067713582,4.82469966756049E-18,0.00643143430352211));
#669=CARTESIAN_POINT('',(0.00609656155629468,-0.00252527848045968,0.00643143430352211));
#670=CARTESIAN_POINT('',(0.,0.,0.00719073997577211));
#671=CARTESIAN_POINT('',(-0.00638645457954646,0.,0.00719073997577211));
#672=CARTESIAN_POINT('',(0.00609656155629469,0.00252527848045967,0.021));
#673=CARTESIAN_POINT('',(0.00659887067713582,4.93311988480905E-18,0.021));
#674=CARTESIAN_POINT('',(0.00609656155629469,-0.00252527848045968,0.021));
#675=CARTESIAN_POINT('',(0.00466610620397581,-0.0046661062039758,0.021));
#676=CARTESIAN_POINT('',(0.00252527848045968,-0.00609656155629469,0.021));
#677=CARTESIAN_POINT('',(1.1418004128988E-18,-0.00659887067713582,0.021));
#678=CARTESIAN_POINT('',(-0.00252527848045968,-0.00609656155629468,0.021));
#679=CARTESIAN_POINT('',(-0.00466610620397581,-0.00466610620397581,0.021));
#680=CARTESIAN_POINT('',(-0.00609656155629468,-0.00252527848045968,0.021));
#681=CARTESIAN_POINT('',(-0.00659887067713582,-8.52495648019601E-19,0.021));
#682=CARTESIAN_POINT('',(-0.00609656155629469,0.00252527848045968,0.021));
#683=CARTESIAN_POINT('',(-0.00466610620397581,0.00466610620397581,0.021));
#684=CARTESIAN_POINT('',(-0.00252527848045968,0.00609656155629468,0.021));
#685=CARTESIAN_POINT('',(-2.56481576428602E-18,0.00659887067713583,0.021));
#686=CARTESIAN_POINT('',(0.00252527848045968,0.00609656155629469,0.021));
#687=CARTESIAN_POINT('',(0.00466610620397581,0.0046661062039758,0.021));
#688=CARTESIAN_POINT('',(0.00609656155629469,0.00252527848045967,0.021));
#689=CARTESIAN_POINT('',(0.00659887067713582,4.93311988480905E-18,0.021));
#690=CARTESIAN_POINT('',(0.00609656155629469,-0.00252527848045968,0.021));
#691=CARTESIAN_POINT('',(0.00574483485315777,0.00237958850977158,0.0207239744425551));
#692=CARTESIAN_POINT('',(0.00621816443702587,4.55364912443912E-18,0.020723974442555));
#693=CARTESIAN_POINT('',(0.00574483485315776,-0.0023795885097716,0.020723974442555));
#694=CARTESIAN_POINT('',(0.00439690623995402,-0.00439690623995402,0.020723974442555));
#695=CARTESIAN_POINT('',(0.00237958850977159,-0.00574483485315776,0.0207239744425551));
#696=CARTESIAN_POINT('',(7.92822838630025E-19,-0.00621816443702587,0.020723974442555));
#697=CARTESIAN_POINT('',(-0.00237958850977159,-0.00574483485315776,0.020723974442555));
#698=CARTESIAN_POINT('',(-0.00439690623995402,-0.00439690623995402,0.0207239744425551));
#699=CARTESIAN_POINT('',(-0.00574483485315776,-0.0023795885097716,0.020723974442555));
#700=CARTESIAN_POINT('',(-0.00621816443702587,-1.40648828274842E-18,0.0207239744425551));
#701=CARTESIAN_POINT('',(-0.00574483485315777,0.0023795885097716,0.020723974442555));
#702=CARTESIAN_POINT('',(-0.00439690623995402,0.00439690623995402,0.020723974442555));
#703=CARTESIAN_POINT('',(-0.0023795885097716,0.00574483485315777,0.0207239744425551));
#704=CARTESIAN_POINT('',(-3.35425047112703E-18,0.00621816443702587,0.0207239744425551));
#705=CARTESIAN_POINT('',(0.0023795885097716,0.00574483485315777,0.0207239744425551));
#706=CARTESIAN_POINT('',(0.00439690623995402,0.00439690623995402,0.020723974442555));
#707=CARTESIAN_POINT('',(0.00574483485315777,0.00237958850977158,0.0207239744425551));
#708=CARTESIAN_POINT('',(0.00621816443702587,4.55364912443912E-18,0.020723974442555));
#709=CARTESIAN_POINT('',(0.00574483485315776,-0.0023795885097716,0.020723974442555));
#710=CARTESIAN_POINT('',(0.00521502310091381,0.00216013329648748,0.0203166681479302));
#711=CARTESIAN_POINT('',(0.00564470032877376,3.63207727782644E-18,0.0203166681479302));
#712=CARTESIAN_POINT('',(0.00521502310091381,-0.00216013329648749,0.0203166681479302));
#713=CARTESIAN_POINT('',(0.00399140588024186,-0.00399140588024186,0.0203166681479302));
#714=CARTESIAN_POINT('',(0.00216013329648749,-0.00521502310091381,0.0203166681479302));
#715=CARTESIAN_POINT('',(7.64023718423379E-19,-0.00564470032877376,0.0203166681479302));
#716=CARTESIAN_POINT('',(-0.00216013329648749,-0.00521502310091381,0.0203166681479302));
#717=CARTESIAN_POINT('',(-0.00399140588024186,-0.00399140588024186,0.0203166681479302));
#718=CARTESIAN_POINT('',(-0.00521502310091381,-0.00216013329648749,0.0203166681479302));
#719=CARTESIAN_POINT('',(-0.00564470032877376,-1.0754770713843E-18,0.0203166681479302));
#720=CARTESIAN_POINT('',(-0.00521502310091381,0.00216013329648749,0.0203166681479302));
#721=CARTESIAN_POINT('',(-0.00399140588024186,0.00399140588024186,0.0203166681479302));
#722=CARTESIAN_POINT('',(-0.00216013329648749,0.00521502310091381,0.0203166681479302));
#723=CARTESIAN_POINT('',(1.6940658945086E-19,0.00564470032877376,0.0203166681479302));
#724=CARTESIAN_POINT('',(0.00216013329648749,0.00521502310091381,0.0203166681479302));
#725=CARTESIAN_POINT('',(0.00399140588024186,0.00399140588024186,0.0203166681479302));
#726=CARTESIAN_POINT('',(0.00521502310091381,0.00216013329648748,0.0203166681479302));
#727=CARTESIAN_POINT('',(0.00564470032877376,3.63207727782644E-18,0.0203166681479302));
#728=CARTESIAN_POINT('',(0.00521502310091381,-0.00216013329648749,0.0203166681479302));
#729=CARTESIAN_POINT('',(0.00450435662650432,0.0018657656044632,0.0197599906378804));
#730=CARTESIAN_POINT('',(0.00487548047986363,3.74049749507499E-18,0.0197599906378804));
#731=CARTESIAN_POINT('',(0.00450435662650432,-0.00186576560446321,0.0197599906378804));
#732=CARTESIAN_POINT('',(0.00344748530885422,-0.00344748530885422,0.0197599906378804));
#733=CARTESIAN_POINT('',(0.00186576560446321,-0.00450435662650432,0.0197599906378804));
#734=CARTESIAN_POINT('',(1.38743996760254E-18,-0.00487548047986363,0.0197599906378804));
#735=CARTESIAN_POINT('',(-0.00186576560446321,-0.00450435662650432,0.0197599906378804));
#736=CARTESIAN_POINT('',(-0.00344748530885422,-0.00344748530885422,0.0197599906378804));
#737=CARTESIAN_POINT('',(-0.00450435662650432,-0.00186576560446321,0.0197599906378804));
#738=CARTESIAN_POINT('',(-0.00487548047986363,-5.73474392515663E-19,0.0197599906378804));
#739=CARTESIAN_POINT('',(-0.00450435662650432,0.00186576560446321,0.0197599906378804));
#740=CARTESIAN_POINT('',(-0.00344748530885422,0.00344748530885422,0.0197599906378804));
#741=CARTESIAN_POINT('',(-0.00186576560446321,0.00450435662650432,0.0197599906378804));
#742=CARTESIAN_POINT('',(-1.03338019565025E-18,0.00487548047986363,0.0197599906378804));
#743=CARTESIAN_POINT('',(0.00186576560446321,0.00450435662650432,0.0197599906378804));
#744=CARTESIAN_POINT('',(0.00344748530885422,0.00344748530885422,0.0197599906378804));
#745=CARTESIAN_POINT('',(0.00450435662650432,0.0018657656044632,0.0197599906378804));
#746=CARTESIAN_POINT('',(0.00487548047986363,3.74049749507499E-18,0.0197599906378804));
#747=CARTESIAN_POINT('',(0.00450435662650432,-0.00186576560446321,0.0197599906378804));
#748=CARTESIAN_POINT('',(0.00399626533550443,0.00165530730080739,0.0191490583619103));
#749=CARTESIAN_POINT('',(0.00432552642944885,3.44234189764148E-18,0.0191490583619103));
#750=CARTESIAN_POINT('',(0.00399626533550442,-0.0016553073008074,0.0191490583619103));
#751=CARTESIAN_POINT('',(0.00305860907046492,-0.00305860907046492,0.0191490583619103));
#752=CARTESIAN_POINT('',(0.0016553073008074,-0.00399626533550442,0.0191490583619103));
#753=CARTESIAN_POINT('',(7.55553388950836E-19,-0.00432552642944885,0.0191490583619103));
#754=CARTESIAN_POINT('',(-0.0016553073008074,-0.00399626533550442,0.0191490583619103));
#755=CARTESIAN_POINT('',(-0.00305860907046492,-0.00305860907046492,0.0191490583619103));
#756=CARTESIAN_POINT('',(-0.00399626533550442,-0.0016553073008074,0.0191490583619103));
#757=CARTESIAN_POINT('',(-0.00432552642944885,-8.91336740862641E-19,0.0191490583619103));
#758=CARTESIAN_POINT('',(-0.00399626533550442,0.0016553073008074,0.0191490583619103));
#759=CARTESIAN_POINT('',(-0.00305860907046492,0.00305860907046492,0.0191490583619103));
#760=CARTESIAN_POINT('',(-0.0016553073008074,0.00399626533550442,0.0191490583619103));
#761=CARTESIAN_POINT('',(-1.74827600313288E-18,0.00432552642944885,0.0191490583619103));
#762=CARTESIAN_POINT('',(0.0016553073008074,0.00399626533550443,0.0191490583619103));
#763=CARTESIAN_POINT('',(0.00305860907046492,0.00305860907046492,0.0191490583619103));
#764=CARTESIAN_POINT('',(0.00399626533550443,0.00165530730080739,0.0191490583619103));
#765=CARTESIAN_POINT('',(0.00432552642944885,3.44234189764148E-18,0.0191490583619103));
#766=CARTESIAN_POINT('',(0.00399626533550442,-0.0016553073008074,0.0191490583619103));
#767=CARTESIAN_POINT('',(0.00356509739820983,0.00147671169351954,0.0182847578475349));
#768=CARTESIAN_POINT('',(0.00385883361710502,2.92734586571086E-18,0.0182847578475349));
#769=CARTESIAN_POINT('',(0.00356509739820983,-0.00147671169351955,0.0182847578475349));
#770=CARTESIAN_POINT('',(0.00272860741812558,-0.00272860741812558,0.0182847578475349));
#771=CARTESIAN_POINT('',(0.00147671169351954,-0.00356509739820983,0.0182847578475349));
#772=CARTESIAN_POINT('',(6.33580644546217E-19,-0.00385883361710503,0.0182847578475349));
#773=CARTESIAN_POINT('',(-0.00147671169351955,-0.00356509739820983,0.0182847578475349));
#774=CARTESIAN_POINT('',(-0.00272860741812558,-0.00272860741812558,0.0182847578475349));
#775=CARTESIAN_POINT('',(-0.00356509739820983,-0.00147671169351955,0.0182847578475349));
#776=CARTESIAN_POINT('',(-0.00385883361710503,-4.29639264521268E-19,0.0182847578475349));
#777=CARTESIAN_POINT('',(-0.00356509739820983,0.00147671169351955,0.0182847578475349));
#778=CARTESIAN_POINT('',(-0.00272860741812558,0.00272860741812558,0.0182847578475349));
#779=CARTESIAN_POINT('',(-0.00147671169351955,0.00356509739820983,0.0182847578475349));
#780=CARTESIAN_POINT('',(-7.92822838630025E-19,0.00385883361710503,0.0182847578475349));
#781=CARTESIAN_POINT('',(0.00147671169351954,0.00356509739820983,0.0182847578475349));
#782=CARTESIAN_POINT('',(0.00272860741812558,0.00272860741812558,0.0182847578475349));
#783=CARTESIAN_POINT('',(0.00356509739820983,0.00147671169351954,0.0182847578475349));
#784=CARTESIAN_POINT('',(0.00385883361710502,2.92734586571086E-18,0.0182847578475349));
#785=CARTESIAN_POINT('',(0.00356509739820983,-0.00147671169351955,0.0182847578475349));
#786=CARTESIAN_POINT('',(0.0033408096771689,0.00138380867759063,0.0173319595075591));
#787=CARTESIAN_POINT('',(0.00361606633722896,2.68340037690162E-18,0.0173319595075591));
#788=CARTESIAN_POINT('',(0.00334080967716889,-0.00138380867759064,0.0173319595075591));
#789=CARTESIAN_POINT('',(0.002556945028275,-0.002556945028275,0.0173319595075591));
#790=CARTESIAN_POINT('',(0.00138380867759064,-0.00334080967716889,0.0173319595075591));
#791=CARTESIAN_POINT('',(3.76082628580909E-19,-0.00361606633722896,0.0173319595075591));
#792=CARTESIAN_POINT('',(-0.00138380867759064,-0.00334080967716889,0.0173319595075591));
#793=CARTESIAN_POINT('',(-0.002556945028275,-0.002556945028275,0.0173319595075591));
#794=CARTESIAN_POINT('',(-0.00334080967716889,-0.00138380867759064,0.0173319595075591));
#795=CARTESIAN_POINT('',(-0.00361606633722896,-3.17076526765052E-19,0.0173319595075591));
#796=CARTESIAN_POINT('',(-0.00334080967716889,0.00138380867759064,0.0173319595075591));
#797=CARTESIAN_POINT('',(-0.002556945028275,0.002556945028275,0.0173319595075591));
#798=CARTESIAN_POINT('',(-0.00138380867759064,0.00334080967716889,0.0173319595075591));
#799=CARTESIAN_POINT('',(-8.53809210832335E-19,0.00361606633722896,0.0173319595075591));
#800=CARTESIAN_POINT('',(0.00138380867759064,0.00334080967716889,0.0173319595075591));
#801=CARTESIAN_POINT('',(0.002556945028275,0.002556945028275,0.0173319595075591));
#802=CARTESIAN_POINT('',(0.0033408096771689,0.00138380867759063,0.0173319595075591));
#803=CARTESIAN_POINT('',(0.00361606633722896,2.68340037690162E-18,0.0173319595075591));
#804=CARTESIAN_POINT('',(0.00334080967716889,-0.00138380867759064,0.0173319595075591));
#805=CARTESIAN_POINT('',(0.00345531708806443,0.00143123920017579,0.0164302938837715));
#806=CARTESIAN_POINT('',(0.00374000826565796,2.92734586571086E-18,0.0164302938837715));
#807=CARTESIAN_POINT('',(0.00345531708806442,-0.0014312392001758,0.0164302938837715));
#808=CARTESIAN_POINT('',(0.00264458520634048,-0.00264458520634048,0.0164302938837715));
#809=CARTESIAN_POINT('',(0.00143123920017579,-0.00345531708806442,0.0164302938837715));
#810=CARTESIAN_POINT('',(1.0842021724855E-19,-0.00374000826565796,0.0164302938837715));
#811=CARTESIAN_POINT('',(-0.00143123920017579,-0.00345531708806442,0.0164302938837715));
#812=CARTESIAN_POINT('',(-0.00264458520634048,-0.00264458520634048,0.0164302938837715));
#813=CARTESIAN_POINT('',(-0.00345531708806442,-0.0014312392001758,0.0164302938837715));
#814=CARTESIAN_POINT('',(-0.00374000826565796,-3.10071961337953E-19,0.0164302938837715));
#815=CARTESIAN_POINT('',(-0.00345531708806443,0.00143123920017579,0.0164302938837715));
#816=CARTESIAN_POINT('',(-0.00264458520634048,0.00264458520634048,0.0164302938837715));
#817=CARTESIAN_POINT('',(-0.00143123920017579,0.00345531708806442,0.0164302938837715));
#818=CARTESIAN_POINT('',(-1.11808349037568E-18,0.00374000826565796,0.0164302938837715));
#819=CARTESIAN_POINT('',(0.00143123920017579,0.00345531708806442,0.0164302938837715));
#820=CARTESIAN_POINT('',(0.00264458520634048,0.00264458520634048,0.0164302938837715));
#821=CARTESIAN_POINT('',(0.00345531708806443,0.00143123920017579,0.0164302938837715));
#822=CARTESIAN_POINT('',(0.00374000826565796,2.92734586571086E-18,0.0164302938837715));
#823=CARTESIAN_POINT('',(0.00345531708806442,-0.0014312392001758,0.0164302938837715));
#824=CARTESIAN_POINT('',(0.00376625270260406,0.00156003294874291,0.0155807567211317));
#825=CARTESIAN_POINT('',(0.00407656254962877,3.03576608295941E-18,0.0155807567211316));
#826=CARTESIAN_POINT('',(0.00376625270260405,-0.00156003294874292,0.0155807567211316));
#827=CARTESIAN_POINT('',(0.00288256502277363,-0.00288256502277363,0.0155807567211316));
#828=CARTESIAN_POINT('',(0.00156003294874292,-0.00376625270260405,0.0155807567211317));
#829=CARTESIAN_POINT('',(1.49416611895659E-18,-0.00407656254962878,0.0155807567211316));
#830=CARTESIAN_POINT('',(-0.00156003294874292,-0.00376625270260405,0.0155807567211316));
#831=CARTESIAN_POINT('',(-0.00288256502277363,-0.00288256502277363,0.0155807567211316));
#832=CARTESIAN_POINT('',(-0.00376625270260405,-0.00156003294874292,0.0155807567211316));
#833=CARTESIAN_POINT('',(-0.00407656254962878,-5.60130314873958E-19,0.0155807567211316));
#834=CARTESIAN_POINT('',(-0.00376625270260405,0.00156003294874292,0.0155807567211316));
#835=CARTESIAN_POINT('',(-0.00288256502277363,0.00288256502277363,0.0155807567211316));
#836=CARTESIAN_POINT('',(-0.00156003294874292,0.00376625270260405,0.0155807567211316));
#837=CARTESIAN_POINT('',(-1.12147162216469E-18,0.00407656254962878,0.0155807567211317));
#838=CARTESIAN_POINT('',(0.00156003294874292,0.00376625270260405,0.0155807567211316));
#839=CARTESIAN_POINT('',(0.00288256502277363,0.00288256502277363,0.0155807567211316));
#840=CARTESIAN_POINT('',(0.00376625270260406,0.00156003294874291,0.0155807567211317));
#841=CARTESIAN_POINT('',(0.00407656254962877,3.03576608295941E-18,0.0155807567211316));
#842=CARTESIAN_POINT('',(0.00376625270260405,-0.00156003294874292,0.0155807567211316));
#843=CARTESIAN_POINT('',(0.00407759675971389,0.00168899587976207,0.014783344106689));
#844=CARTESIAN_POINT('',(0.00441355892865185,3.3881317890172E-18,0.014783344106689));
#845=CARTESIAN_POINT('',(0.00407759675971389,-0.00168899587976208,0.014783344106689));
#846=CARTESIAN_POINT('',(0.00312085744761616,-0.00312085744761616,0.014783344106689));
#847=CARTESIAN_POINT('',(0.00168899587976208,-0.00407759675971389,0.014783344106689));
#848=CARTESIAN_POINT('',(9.13101517140136E-19,-0.00441355892865185,0.014783344106689));
#849=CARTESIAN_POINT('',(-0.00168899587976208,-0.00407759675971389,0.014783344106689));
#850=CARTESIAN_POINT('',(-0.00312085744761616,-0.00312085744761616,0.014783344106689));
#851=CARTESIAN_POINT('',(-0.00407759675971389,-0.00168899587976208,0.014783344106689));
#852=CARTESIAN_POINT('',(-0.00441355892865185,-9.37384231202242E-19,0.014783344106689));
#853=CARTESIAN_POINT('',(-0.00407759675971389,0.00168899587976208,0.014783344106689));
#854=CARTESIAN_POINT('',(-0.00312085744761616,0.00312085744761616,0.014783344106689));
#855=CARTESIAN_POINT('',(-0.00168899587976208,0.00407759675971389,0.014783344106689));
#856=CARTESIAN_POINT('',(-9.04631187667593E-19,0.00441355892865185,0.014783344106689));
#857=CARTESIAN_POINT('',(0.00168899587976208,0.00407759675971389,0.014783344106689));
#858=CARTESIAN_POINT('',(0.00312085744761616,0.00312085744761616,0.014783344106689));
#859=CARTESIAN_POINT('',(0.00407759675971389,0.00168899587976207,0.014783344106689));
#860=CARTESIAN_POINT('',(0.00441355892865185,3.3881317890172E-18,0.014783344106689));
#861=CARTESIAN_POINT('',(0.00407759675971389,-0.00168899587976208,0.014783344106689));
#862=CARTESIAN_POINT('',(0.00435929919895826,0.00180568085065067,0.0139691119366144));
#863=CARTESIAN_POINT('',(0.0047184714516933,3.25260651745651E-18,0.0139691119366144));
#864=CARTESIAN_POINT('',(0.00435929919895826,-0.00180568085065068,0.0139691119366144));
#865=CARTESIAN_POINT('',(0.00333646316032746,-0.00333646316032746,0.0139691119366144));
#866=CARTESIAN_POINT('',(0.00180568085065068,-0.00435929919895826,0.0139691119366144));
#867=CARTESIAN_POINT('',(8.470329472543E-19,-0.0047184714516933,0.0139691119366144));
#868=CARTESIAN_POINT('',(-0.00180568085065068,-0.00435929919895826,0.0139691119366144));
#869=CARTESIAN_POINT('',(-0.00333646316032746,-0.00333646316032746,0.0139691119366144));
#870=CARTESIAN_POINT('',(-0.00435929919895826,-0.00180568085065068,0.0139691119366144));
#871=CARTESIAN_POINT('',(-0.0047184714516933,-4.88625514002424E-19,0.0139691119366144));
#872=CARTESIAN_POINT('',(-0.00435929919895826,0.00180568085065068,0.0139691119366144));
#873=CARTESIAN_POINT('',(-0.00333646316032746,0.00333646316032746,0.0139691119366144));
#874=CARTESIAN_POINT('',(-0.00180568085065068,0.00435929919895825,0.0139691119366144));
#875=CARTESIAN_POINT('',(-7.11507675693612E-19,0.0047184714516933,0.0139691119366144));
#876=CARTESIAN_POINT('',(0.00180568085065068,0.00435929919895825,0.0139691119366144));
#877=CARTESIAN_POINT('',(0.00333646316032747,0.00333646316032746,0.0139691119366144));
#878=CARTESIAN_POINT('',(0.00435929919895826,0.00180568085065067,0.0139691119366144));
#879=CARTESIAN_POINT('',(0.0047184714516933,3.25260651745651E-18,0.0139691119366144));
#880=CARTESIAN_POINT('',(0.00435929919895826,-0.00180568085065068,0.0139691119366144));
#881=CARTESIAN_POINT('',(0.00468741390410971,0.00194159041153845,0.013007187105111));
#882=CARTESIAN_POINT('',(0.00507362024935047,3.84891771232354E-18,0.013007187105111));
#883=CARTESIAN_POINT('',(0.00468741390410971,-0.00194159041153846,0.013007187105111));
#884=CARTESIAN_POINT('',(0.0035875912834811,-0.0035875912834811,0.013007187105111));
#885=CARTESIAN_POINT('',(0.00194159041153846,-0.00468741390410971,0.013007187105111));
#886=CARTESIAN_POINT('',(9.23265912507187E-19,-0.00507362024935047,0.013007187105111));
#887=CARTESIAN_POINT('',(-0.00194159041153846,-0.00468741390410971,0.013007187105111));
#888=CARTESIAN_POINT('',(-0.0035875912834811,-0.0035875912834811,0.013007187105111));
#889=CARTESIAN_POINT('',(-0.00468741390410971,-0.00194159041153846,0.013007187105111));
#890=CARTESIAN_POINT('',(-0.00507362024935047,-2.90168341438702E-19,0.013007187105111));
#891=CARTESIAN_POINT('',(-0.00468741390410971,0.00194159041153846,0.013007187105111));
#892=CARTESIAN_POINT('',(-0.0035875912834811,0.0035875912834811,0.013007187105111));
#893=CARTESIAN_POINT('',(-0.00194159041153846,0.00468741390410971,0.013007187105111));
#894=CARTESIAN_POINT('',(-1.0435445910173E-18,0.00507362024935047,0.013007187105111));
#895=CARTESIAN_POINT('',(0.00194159041153846,0.00468741390410971,0.013007187105111));
#896=CARTESIAN_POINT('',(0.0035875912834811,0.0035875912834811,0.013007187105111));
#897=CARTESIAN_POINT('',(0.00468741390410971,0.00194159041153845,0.013007187105111));
#898=CARTESIAN_POINT('',(0.00507362024935047,3.84891771232354E-18,0.013007187105111));
#899=CARTESIAN_POINT('',(0.00468741390410971,-0.00194159041153846,0.013007187105111));
#900=CARTESIAN_POINT('',(0.0050864177425946,0.00210686321287781,0.011830620494694));
#901=CARTESIAN_POINT('',(0.00550549889201323,4.01154803819637E-18,0.011830620494694));
#902=CARTESIAN_POINT('',(0.00508641774259459,-0.00210686321287782,0.011830620494694));
#903=CARTESIAN_POINT('',(0.00389297560035758,-0.00389297560035758,0.011830620494694));
#904=CARTESIAN_POINT('',(0.00210686321287782,-0.00508641774259459,0.011830620494694));
#905=CARTESIAN_POINT('',(1.17906986257799E-18,-0.00550549889201323,0.011830620494694));
#906=CARTESIAN_POINT('',(-0.00210686321287782,-0.00508641774259459,0.011830620494694));
#907=CARTESIAN_POINT('',(-0.00389297560035758,-0.00389297560035758,0.011830620494694));
#908=CARTESIAN_POINT('',(-0.00508641774259459,-0.00210686321287782,0.011830620494694));
#909=CARTESIAN_POINT('',(-0.00550549889201323,-7.51020439194045E-19,0.011830620494694));
#910=CARTESIAN_POINT('',(-0.00508641774259459,0.00210686321287782,0.011830620494694));
#911=CARTESIAN_POINT('',(-0.00389297560035758,0.00389297560035758,0.011830620494694));
#912=CARTESIAN_POINT('',(-0.00210686321287782,0.00508641774259459,0.011830620494694));
#913=CARTESIAN_POINT('',(-1.25699689372538E-18,0.00550549889201323,0.011830620494694));
#914=CARTESIAN_POINT('',(0.00210686321287782,0.00508641774259459,0.011830620494694));
#915=CARTESIAN_POINT('',(0.00389297560035758,0.00389297560035758,0.011830620494694));
#916=CARTESIAN_POINT('',(0.0050864177425946,0.00210686321287781,0.011830620494694));
#917=CARTESIAN_POINT('',(0.00550549889201323,4.01154803819637E-18,0.011830620494694));
#918=CARTESIAN_POINT('',(0.00508641774259459,-0.00210686321287782,0.011830620494694));
#919=CARTESIAN_POINT('',(0.00547820123041669,0.00226914524704756,0.0105688340163674));
#920=CARTESIAN_POINT('',(0.00592956228343521,4.55364912443912E-18,0.0105688340163674));
#921=CARTESIAN_POINT('',(0.00547820123041668,-0.00226914524704757,0.0105688340163674));
#922=CARTESIAN_POINT('',(0.00419283370008503,-0.00419283370008503,0.0105688340163674));
#923=CARTESIAN_POINT('',(0.00226914524704757,-0.00547820123041668,0.0105688340163674));
#924=CARTESIAN_POINT('',(5.53959547504312E-19,-0.00592956228343521,0.0105688340163674));
#925=CARTESIAN_POINT('',(-0.00226914524704756,-0.00547820123041668,0.0105688340163674));
#926=CARTESIAN_POINT('',(-0.00419283370008503,-0.00419283370008503,0.0105688340163674));
#927=CARTESIAN_POINT('',(-0.00547820123041668,-0.00226914524704757,0.0105688340163674));
#928=CARTESIAN_POINT('',(-0.00592956228343521,-8.92676773454976E-19,0.0105688340163674));
#929=CARTESIAN_POINT('',(-0.00547820123041669,0.00226914524704757,0.0105688340163674));
#930=CARTESIAN_POINT('',(-0.00419283370008503,0.00419283370008503,0.0105688340163674));
#931=CARTESIAN_POINT('',(-0.00226914524704757,0.00547820123041668,0.0105688340163674));
#932=CARTESIAN_POINT('',(-4.54009659728305E-19,0.00592956228343521,0.0105688340163674));
#933=CARTESIAN_POINT('',(0.00226914524704757,0.00547820123041668,0.0105688340163674));
#934=CARTESIAN_POINT('',(0.00419283370008503,0.00419283370008503,0.0105688340163674));
#935=CARTESIAN_POINT('',(0.00547820123041669,0.00226914524704756,0.0105688340163674));
#936=CARTESIAN_POINT('',(0.00592956228343521,4.55364912443912E-18,0.0105688340163674));
#937=CARTESIAN_POINT('',(0.00547820123041668,-0.00226914524704757,0.0105688340163674));
#938=CARTESIAN_POINT('',(0.00590419919682859,0.00244559938227872,0.00891098853830923));
#939=CARTESIAN_POINT('',(0.00639065915961987,4.71627945031194E-18,0.00891098853830922));
#940=CARTESIAN_POINT('',(0.00590419919682858,-0.00244559938227874,0.00891098853830923));
#941=CARTESIAN_POINT('',(0.00451887842801914,-0.00451887842801914,0.00891098853830923));
#942=CARTESIAN_POINT('',(0.00244559938227873,-0.00590419919682858,0.00891098853830923));
#943=CARTESIAN_POINT('',(9.0801931945661E-19,-0.00639065915961988,0.00891098853830923));
#944=CARTESIAN_POINT('',(-0.00244559938227873,-0.00590419919682858,0.00891098853830923));
#945=CARTESIAN_POINT('',(-0.00451887842801914,-0.00451887842801914,0.00891098853830923));
#946=CARTESIAN_POINT('',(-0.00590419919682858,-0.00244559938227873,0.00891098853830922));
#947=CARTESIAN_POINT('',(-0.00639065915961988,-1.4795382570042E-18,0.00891098853830923));
#948=CARTESIAN_POINT('',(-0.00590419919682858,0.00244559938227874,0.00891098853830923));
#949=CARTESIAN_POINT('',(-0.00451887842801914,0.00451887842801914,0.00891098853830922));
#950=CARTESIAN_POINT('',(-0.00244559938227874,0.00590419919682859,0.00891098853830923));
#951=CARTESIAN_POINT('',(-2.49366499671666E-18,0.00639065915961988,0.00891098853830923));
#952=CARTESIAN_POINT('',(0.00244559938227874,0.00590419919682859,0.00891098853830923));
#953=CARTESIAN_POINT('',(0.00451887842801914,0.00451887842801914,0.00891098853830923));
#954=CARTESIAN_POINT('',(0.00590419919682859,0.00244559938227872,0.00891098853830923));
#955=CARTESIAN_POINT('',(0.00639065915961987,4.71627945031194E-18,0.00891098853830922));
#956=CARTESIAN_POINT('',(0.00590419919682858,-0.00244559938227874,0.00891098853830923));
#957=CARTESIAN_POINT('',(0.00600985991093906,0.0024893654830733,0.00786425107556769));
#958=CARTESIAN_POINT('',(0.00650502549245037,4.77048955893622E-18,0.00786425107556768));
#959=CARTESIAN_POINT('',(0.00600985991093905,-0.00248936548307332,0.00786425107556768));
#960=CARTESIAN_POINT('',(0.00459974763750302,-0.00459974763750302,0.00786425107556768));
#961=CARTESIAN_POINT('',(0.00248936548307332,-0.00600985991093905,0.00786425107556768));
#962=CARTESIAN_POINT('',(7.65717784317888E-19,-0.00650502549245037,0.00786425107556768));
#963=CARTESIAN_POINT('',(-0.00248936548307331,-0.00600985991093905,0.00786425107556768));
#964=CARTESIAN_POINT('',(-0.00459974763750301,-0.00459974763750302,0.00786425107556768));
#965=CARTESIAN_POINT('',(-0.00600985991093905,-0.00248936548307332,0.00786425107556768));
#966=CARTESIAN_POINT('',(-0.00650502549245037,-4.5143547366204E-19,0.00786425107556768));
#967=CARTESIAN_POINT('',(-0.00600985991093906,0.00248936548307331,0.00786425107556768));
#968=CARTESIAN_POINT('',(-0.00459974763750302,0.00459974763750302,0.00786425107556768));
#969=CARTESIAN_POINT('',(-0.00248936548307332,0.00600985991093905,0.00786425107556768));
#970=CARTESIAN_POINT('',(-1.73133534418779E-18,0.00650502549245037,0.00786425107556768));
#971=CARTESIAN_POINT('',(0.00248936548307332,0.00600985991093905,0.00786425107556769));
#972=CARTESIAN_POINT('',(0.00459974763750302,0.00459974763750302,0.00786425107556768));
#973=CARTESIAN_POINT('',(0.00600985991093906,0.0024893654830733,0.00786425107556769));
#974=CARTESIAN_POINT('',(0.00650502549245037,4.77048955893622E-18,0.00786425107556768));
#975=CARTESIAN_POINT('',(0.00600985991093905,-0.00248936548307332,0.00786425107556768));
#976=CARTESIAN_POINT('',(0.00605392384236319,0.00250761736108066,0.00719073997577208));
#977=CARTESIAN_POINT('',(0.00655271994813807,5.09575021068187E-18,0.00719073997577208));
#978=CARTESIAN_POINT('',(0.00605392384236319,-0.00250761736108067,0.00719073997577208));
#979=CARTESIAN_POINT('',(0.00463347271054479,-0.00463347271054479,0.00719073997577208));
#980=CARTESIAN_POINT('',(0.00250761736108067,-0.00605392384236318,0.00719073997577208));
#981=CARTESIAN_POINT('',(1.082508106591E-18,-0.00655271994813807,0.00719073997577208));
#982=CARTESIAN_POINT('',(-0.00250761736108067,-0.00605392384236318,0.00719073997577208));
#983=CARTESIAN_POINT('',(-0.00463347271054479,-0.00463347271054479,0.00719073997577208));
#984=CARTESIAN_POINT('',(-0.00605392384236318,-0.00250761736108067,0.00719073997577208));
#985=CARTESIAN_POINT('',(-0.00655271994813807,-6.43066751810975E-19,0.00719073997577208));
#986=CARTESIAN_POINT('',(-0.00605392384236319,0.00250761736108067,0.00719073997577208));
#987=CARTESIAN_POINT('',(-0.0046334727105448,0.00463347271054479,0.00719073997577208));
#988=CARTESIAN_POINT('',(-0.00250761736108067,0.00605392384236319,0.00719073997577208));
#989=CARTESIAN_POINT('',(-2.48011246956059E-18,0.00655271994813807,0.00719073997577208));
#990=CARTESIAN_POINT('',(0.00250761736108067,0.00605392384236319,0.00719073997577208));
#991=CARTESIAN_POINT('',(0.0046334727105448,0.00463347271054479,0.00719073997577208));
#992=CARTESIAN_POINT('',(0.00605392384236319,0.00250761736108066,0.00719073997577208));
#993=CARTESIAN_POINT('',(0.00655271994813807,5.09575021068187E-18,0.00719073997577208));
#994=CARTESIAN_POINT('',(0.00605392384236319,-0.00250761736108067,0.00719073997577208));
#995=MECHANICAL_DESIGN_GEOMETRIC_PRESENTATION_REPRESENTATION('',(#103),
#996);
#996=(
GEOMETRIC_REPRESENTATION_CONTEXT(3)
GLOBAL_UNCERTAINTY_ASSIGNED_CONTEXT((#997))
GLOBAL_UNIT_ASSIGNED_CONTEXT((#1000,#999,#998))
REPRESENTATION_CONTEXT('Part 1','TOP_LEVEL_ASSEMBLY_PART')
);
#997=UNCERTAINTY_MEASURE_WITH_UNIT(LENGTH_MEASURE(2.E-5),#1000,
'DISTANCE_ACCURACY_VALUE','Maximum Tolerance applied to model');
#998=(
NAMED_UNIT(*)
SI_UNIT($,.STERADIAN.)
SOLID_ANGLE_UNIT()
);
#999=(
NAMED_UNIT(*)
PLANE_ANGLE_UNIT()
SI_UNIT($,.RADIAN.)
);
#1000=(
LENGTH_UNIT()
NAMED_UNIT(*)
SI_UNIT($,.METRE.)
);
#1001=PRODUCT_DEFINITION_SHAPE('','',#1002);
#1002=PRODUCT_DEFINITION('','',#1004,#1003);
#1003=PRODUCT_DEFINITION_CONTEXT('',#1010,'design');
#1004=PRODUCT_DEFINITION_FORMATION_WITH_SPECIFIED_SOURCE('','',#1006,
 .NOT_KNOWN.);
#1005=PRODUCT_RELATED_PRODUCT_CATEGORY('','',(#1006));
#1006=PRODUCT('Part 1','Part 1','Part 1',(#1008));
#1007=PRODUCT_CATEGORY('','');
#1008=PRODUCT_CONTEXT('',#1010,'mechanical');
#1009=APPLICATION_PROTOCOL_DEFINITION('international standard',
'ap242_managed_model_based_3d_engineering',2020,#1010);
#1010=APPLICATION_CONTEXT('managed model based 3d engineering');
ENDSEC;
END-ISO-10303-21;
